<svg width="234" height="292" viewBox="0 0 234 292" fill="none" xmlns="http://www.w3.org/2000/svg">
<path d="M145.178 191.091C136.152 187.873 128.738 177.898 128.738 168.888V16.5216C128.738 7.51153 136.152 2.84562 145.178 6.22438L211.419 30.3584C220.445 33.5763 227.859 43.5517 227.859 52.5617V204.928C227.859 213.938 220.445 218.604 211.419 215.225L145.178 191.091Z" fill="#2C3E50"/>
<path d="M146.146 196.079C136.637 192.54 128.9 182.082 128.9 172.589V12.0173C128.9 2.52463 136.637 -2.30217 146.146 1.07659L215.933 26.4978C225.442 30.0374 233.178 40.4955 233.178 49.9882V210.56C233.178 220.053 225.442 224.879 215.933 221.501L146.146 196.079Z" fill="#2C3E50"/>
<path d="M145.177 184.977C139.536 182.886 135.023 176.772 135.023 171.14V18.7743C135.023 13.143 139.536 10.4078 145.177 12.3385L211.419 36.4725C217.06 38.5642 221.573 44.6781 221.573 50.3094V202.675C221.573 208.307 217.06 211.042 211.419 209.111L145.177 184.977Z" fill="#3498DB"/>
<path opacity="0.25" d="M211.42 36.4741L145.178 12.3401C141.149 10.892 137.764 11.8574 136.152 14.5926C137.925 13.6272 140.182 13.6272 142.76 14.5926L209.002 38.7266C214.643 40.8182 219.156 46.9321 219.156 52.5634V204.929C219.156 206.538 218.833 207.986 218.028 209.113C220.123 207.986 221.573 205.734 221.573 202.838V50.4718C221.573 44.6796 217.061 38.5657 211.42 36.4741Z" fill="#5182FC"/>
<path d="M202.877 32.1287L153.559 14.2695L155.815 20.2226C156.782 22.9578 159.038 25.2103 161.617 26.1756L194.98 38.2427C197.558 39.208 199.815 38.5644 200.782 36.6337L202.877 32.1287Z" fill="#2C3E50"/>
<path d="M208.679 57.3897L147.756 35.1865C144.533 34.0602 141.793 35.6691 141.793 38.887V66.2389C141.793 69.4568 144.372 73.1573 147.756 74.2836L208.679 96.6478C211.903 97.774 214.643 96.1651 214.643 92.9472V65.5953C214.643 62.2166 211.903 58.6769 208.679 57.3897Z" fill="#E1EDFF"/>
<path d="M208.679 105.657L147.756 83.454C144.533 82.3278 141.793 83.9367 141.793 87.1546V114.506C141.793 117.724 144.372 121.425 147.756 122.551L208.679 144.754C211.903 145.881 214.643 144.272 214.643 141.054V113.702C214.643 110.484 211.903 106.784 208.679 105.657Z" fill="#E1EDFF"/>
<path d="M208.679 154.247L147.756 132.044C144.533 130.918 141.793 132.527 141.793 135.744V163.096C141.793 166.314 144.372 170.015 147.756 171.141L208.679 193.344C211.903 194.471 214.643 192.862 214.643 189.644V162.292C214.643 159.074 211.903 155.534 208.679 154.247Z" fill="#E1EDFF"/>
<path d="M189.176 62.0558L168.063 54.3329C167.418 54.0111 166.773 54.4938 166.773 55.1374C166.773 55.7809 167.418 56.5854 168.063 56.9072L189.176 64.6301C189.821 64.9519 190.466 64.4692 190.466 63.8256C190.466 63.0211 189.982 62.2167 189.176 62.0558Z" fill="#2C3E50"/>
<path d="M189.176 76.3761L168.063 68.6532C167.418 68.3314 166.773 68.8141 166.773 69.4577C166.773 70.1012 167.418 70.9057 168.063 71.2275L189.176 78.9504C189.821 79.2722 190.466 78.7895 190.466 78.1459C190.466 77.5023 189.982 76.6979 189.176 76.3761Z" fill="#2C3E50"/>
<path d="M195.624 71.7094L160.811 58.9988C160.166 58.677 159.521 59.1597 159.521 59.8033C159.521 60.4468 160.166 61.2513 160.811 61.5731L195.624 74.2837C196.269 74.6055 196.913 74.1228 196.913 73.4792C196.913 72.6747 196.43 71.8703 195.624 71.7094Z" fill="#2C3E50"/>
<path d="M189.176 113.702L168.063 105.979C167.418 105.657 166.773 106.14 166.773 106.784C166.773 107.427 167.418 108.232 168.063 108.554L189.176 116.276C189.821 116.598 190.466 116.116 190.466 115.472C190.466 114.667 189.982 114.024 189.176 113.702Z" fill="#2C3E50"/>
<path d="M195.624 123.356L160.811 110.645C160.166 110.323 159.521 110.806 159.521 111.45C159.521 112.093 160.166 112.898 160.811 113.22L195.624 125.93C196.269 126.252 196.913 125.769 196.913 125.126C196.913 124.321 196.43 123.678 195.624 123.356Z" fill="#2C3E50"/>
<path d="M189.176 158.913L168.063 151.19C167.418 150.868 166.773 151.351 166.773 151.995C166.773 152.638 167.418 153.443 168.063 153.764L189.176 161.487C189.821 161.809 190.466 161.326 190.466 160.683C190.466 159.878 189.982 159.074 189.176 158.913Z" fill="#2C3E50"/>
<path d="M189.176 173.071L168.063 165.348C167.418 165.027 166.773 165.509 166.773 166.153C166.773 166.796 167.418 167.601 168.063 167.923L189.176 175.646C189.821 175.967 190.466 175.485 190.466 174.841C190.466 174.198 189.982 173.393 189.176 173.071Z" fill="#2C3E50"/>
<path d="M195.624 168.567L160.811 155.856C160.166 155.534 159.521 156.017 159.521 156.661C159.521 157.304 160.166 158.109 160.811 158.431L195.624 171.141C196.269 171.463 196.913 170.98 196.913 170.337C196.913 169.532 196.43 168.728 195.624 168.567Z" fill="#2C3E50"/>
<path d="M129.222 278.136C129.222 278.136 125.999 277.01 125.676 270.092H116.328L115.361 279.745L122.292 285.538L128.255 282.481L129.222 278.136Z" fill="#F2BF75"/>
<path d="M115.521 279.585C115.521 279.585 126.319 283.124 129.22 278.137C129.22 278.137 149.206 285.538 149.044 287.79C148.883 291.33 132.283 291.974 128.576 291.169L125.352 287.951L123.902 291.652H114.715C115.037 291.652 115.037 280.228 115.521 279.585Z" fill="#1E394C"/>
<path d="M94.5707 278.298C94.5707 278.298 91.5084 277.01 91.3472 270.092L82.1605 269.609L80.8711 279.102L87.4791 285.216L93.6037 282.481L94.5707 278.298Z" fill="#F2BF75"/>
<path d="M80.8692 279.101C80.8692 279.101 91.5066 283.124 94.73 278.297C94.73 278.297 112.298 284.572 113.265 287.468C114.232 290.364 97.1476 292.295 93.6018 291.168L90.5395 287.79L88.9278 291.329L79.9022 290.847C79.741 291.007 80.3857 279.584 80.8692 279.101Z" fill="#1E394C"/>
<path d="M74.584 168.568C74.584 168.568 80.5473 192.863 81.9979 197.047C83.4484 201.069 86.5107 220.859 86.6719 221.502C86.833 222.146 79.9026 273.149 79.9026 273.149C79.9026 273.149 89.4118 275.241 93.1187 272.827L103.434 221.341L98.9209 170.66L74.584 168.568Z" fill="#2C3E50"/>
<path d="M75.873 167.281C75.873 167.281 85.221 183.049 93.4408 190.128C101.661 197.207 111.976 216.193 111.976 216.193L113.265 272.666C117.294 275.08 122.129 275.241 126.32 272.988L126.964 272.666C126.964 272.666 128.415 213.94 128.254 210.079C127.932 206.217 107.302 161.328 107.302 161.328L75.873 167.281Z" fill="#2C3E50"/>
<path d="M111.654 63.5042C111.654 63.5042 104.401 89.0862 92.7966 88.2818C82.6427 87.6382 80.7087 77.0192 83.1263 63.9869C85.705 50.4718 96.8259 52.2416 103.434 52.2416C103.434 52.2416 111.492 52.2416 112.782 45.9668C112.782 46.1277 122.291 58.8383 111.654 63.5042Z" fill="#1E394C"/>
<path d="M93.2801 94.718C93.2801 94.718 79.097 92.1437 72.489 122.553C69.7491 135.263 84.2545 155.214 84.2545 155.214L99.4047 126.092L93.2801 94.718Z" fill="#AAC6CE"/>
<path d="M152.914 77.5015C152.914 77.5015 158.233 62.6993 158.233 58.677C158.233 54.6547 161.295 58.1943 161.134 61.2513C160.973 64.3083 160.328 67.687 160.328 67.687C160.328 67.687 164.518 68.0088 164.518 69.9396C164.518 71.8703 163.229 78.7887 161.295 79.7541L152.914 77.5015Z" fill="#F2BF75"/>
<path d="M101.177 96.649C110.686 101.476 130.833 114.186 135.507 110.003C140.18 105.82 152.913 77.3418 152.913 77.3418L161.133 79.7552C161.133 79.7552 143.404 127.219 138.085 127.058C132.767 126.897 115.038 123.518 115.038 123.518C115.038 123.518 113.426 156.984 108.591 166.316C108.591 166.316 84.5762 175.004 72.166 167.925C72.166 167.925 82.481 154.732 79.7411 135.424C76.84 115.313 82.3198 86.9954 101.177 96.649Z" fill="#E1EDFF"/>
<path d="M111.654 63.5039C111.654 63.5039 112.46 68.0089 113.91 70.1005C115.2 72.1922 118.101 74.2838 118.101 74.2838L115.844 77.1798C115.844 77.1798 117.617 87.477 106.658 89.4077L105.529 99.544L93.2804 95.3608L92.7969 88.4424C92.7969 88.4424 94.7309 86.3508 94.8921 84.0983C94.8921 84.0983 92.4745 81.6849 93.2804 78.9497C94.0863 76.2145 96.5038 73.962 97.7932 75.0882C98.9214 76.0536 99.0826 78.1452 99.0826 78.1452H100.694C100.694 78.1452 100.372 73.4793 101.339 71.5486C102.628 68.8134 105.852 64.7911 111.654 63.5039Z" fill="#FDB77C"/>
<path d="M105.69 99.3839L106.818 89.2476C117.616 87.3169 116.005 77.0197 116.005 77.0197L118.261 74.1236C118.261 74.1236 115.36 72.032 114.071 69.9404C112.781 67.8488 111.814 63.3438 111.814 63.3438C111.331 63.5046 110.847 63.6655 110.364 63.8264C111.169 65.918 112.298 69.4577 112.459 72.8365C112.781 77.9851 111.975 83.9381 104.723 88.4431C102.305 89.8912 101.338 94.0744 101.016 97.9358L105.69 99.3839Z" fill="#F2BF75"/>
<path d="M101.5 200.746C93.4411 198.976 85.7048 194.149 79.7415 189.323C77.8074 182.082 75.3898 172.107 74.584 169.211C75.551 169.533 76.518 169.855 77.4851 170.015C80.5473 175.003 87.1554 184.818 93.2799 189.966C95.8587 192.219 98.7597 195.597 101.338 199.137L101.5 200.746Z" fill="#253545"/>
<path d="M34.9371 192.701C34.9371 192.701 40.5781 142.985 20.1093 150.869C-1.16542 158.753 25.4279 191.575 34.9371 192.701Z" fill="#5182FC"/>
<path d="M29.2961 222.626C29.2961 222.626 23.0104 172.91 4.95913 186.747C-11.4804 199.136 17.2082 218.925 29.2961 222.626Z" fill="#67B8EF"/>
<path d="M15.9189 203.963C24.1386 215.386 32.1972 227.131 34.776 241.29C34.9371 242.095 36.0654 241.773 35.9042 240.968C33.3254 226.649 25.2668 214.904 16.8859 203.319C16.4024 202.837 15.4354 203.319 15.9189 203.963Z" fill="#1E394C"/>
<path d="M45.0909 182.082C45.0909 182.082 37.677 145.559 56.5341 148.938C75.23 152.155 49.7649 180.312 45.0909 182.082Z" fill="#67B8EF"/>
<path d="M46.8635 217.318C45.8965 217.962 44.9294 186.427 58.3067 187.553C71.5228 188.679 65.3982 204.93 46.8635 217.318Z" fill="#5182FC"/>
<path d="M40.9003 214.744C39.4497 196.241 47.186 175.325 54.2775 158.592C54.5999 157.948 53.4717 157.305 53.3105 157.948C46.0578 175.164 38.1604 195.919 39.7721 214.744C39.7721 215.548 41.0614 215.548 40.9003 214.744Z" fill="#1E394C"/>
<path d="M42.6737 238.234C41.7067 216.514 39.7726 194.471 27.6847 175.808C27.2012 175.164 26.2342 175.808 26.7177 176.451C38.8056 194.954 40.7396 216.675 41.5455 238.234C41.5455 239.039 42.6737 239.039 42.6737 238.234Z" fill="#1E394C"/>
<path d="M45.4134 237.269C45.8969 225.845 46.7027 214.422 52.9884 204.608C53.4719 203.964 52.3437 203.32 52.0214 203.964C45.5745 213.939 44.7687 225.685 44.2852 237.269C44.2852 238.073 45.4134 238.073 45.4134 237.269Z" fill="#1E394C"/>
<path d="M24.4609 235.015L27.5232 263.011C27.8455 266.55 30.9078 269.125 34.4536 269.125H52.3436C55.8894 269.125 58.7905 266.55 59.274 263.011L62.3363 235.015C62.4974 233.567 61.3692 232.119 59.7575 232.119H27.0397C25.5891 232.119 24.2998 233.406 24.4609 235.015Z" fill="#E1EDFF"/>
<path d="M59.7565 232.119H48.4744C50.0862 232.119 51.2144 233.406 51.0532 235.015L47.9909 263.011C47.6686 266.55 44.6063 269.125 41.0605 269.125H52.3426C55.8883 269.125 58.7894 266.55 59.273 263.011L62.3352 235.015C62.4964 233.406 61.207 232.119 59.7565 232.119Z" fill="#AAC6CE"/>
<path opacity="0.26" d="M27.8456 188.839C30.5855 191.092 33.0031 192.379 34.776 192.701C34.776 192.701 40.417 143.467 20.1094 150.708C25.5892 157.465 37.1936 174.842 27.8456 188.839Z" fill="#0F2A3F"/>
<path opacity="0.26" d="M59.2745 187.713C59.758 193.988 59.5968 210.56 46.3808 209.434C46.2196 214.099 46.5419 217.478 46.8643 217.156C64.7543 205.411 71.04 189.644 59.2745 187.713Z" fill="#0F2A3F"/>
<path opacity="0.42" d="M57.3392 149.098C57.8227 155.534 57.6616 173.554 43.8008 172.749C44.2843 178.059 45.0902 182.081 45.0902 182.081C49.7641 180.311 74.4234 153.12 57.3392 149.098Z" fill="#5182FC"/>
<path opacity="0.42" d="M29.2963 222.626C29.2963 222.626 23.0106 172.91 4.95937 186.747C4.31469 187.229 3.83117 187.712 3.34766 188.034C8.98867 189.965 27.6846 198.17 21.5601 219.247C24.4611 220.856 27.2011 221.982 29.2963 222.626Z" fill="#5182FC"/>
</svg>
