<svg width="161" height="251" viewBox="0 0 161 251" fill="none" xmlns="http://www.w3.org/2000/svg">
<path opacity="0.53" d="M93.8457 156.87H111.347V250.09H103.363H93.8457V156.87Z" fill="#26527A"/>
<path d="M93.8457 250.09V155.675H111.347V250.09" stroke="#26527A" stroke-width="4.51552" stroke-miterlimit="10"/>
<path opacity="0.53" d="M110.485 155.675H94.748V160.912H110.485V155.675Z" fill="#26527A"/>
<path opacity="0.47" d="M105.587 173.167H100.156V250.09H105.587V173.167Z" fill="url(#paint0_linear_299_11019)"/>
<path opacity="0.5" d="M130.332 83.0729H67.9688C67.9688 83.0729 92.4116 83.9119 95.4833 108.228V155.386H102.7V155.675H158V110.718C158 107.086 157.284 103.489 155.893 100.134C154.503 96.7781 152.464 93.7295 149.895 91.1621C147.325 88.5947 144.275 86.5588 140.918 85.1708C137.562 83.7829 133.964 83.07 130.332 83.0729Z" fill="url(#paint1_linear_299_11019)"/>
<g opacity="0.38">
<path d="M102.7 155.68H158V110.723C158.007 105.014 156.238 99.4452 152.939 94.7869C146.065 104.48 133.092 115.536 95.5059 117.078V155.675H102.7V155.68Z" fill="white"/>
</g>
<path opacity="0.5" d="M67.9692 83.0729C60.636 83.0729 53.6031 85.986 48.4178 91.1714C43.2324 96.3567 40.3193 103.39 40.3193 110.723V155.68H95.619V110.723C95.6196 107.092 94.9048 103.496 93.5155 100.141C92.1262 96.786 90.0895 93.7377 87.5219 91.1701C84.9542 88.6024 81.9059 86.5658 78.551 85.1764C75.1961 83.7871 71.6003 83.0723 67.9692 83.0729Z" fill="url(#paint2_linear_299_11019)"/>
<path d="M67.9688 155.68H158V110.718C158 107.087 157.285 103.492 155.895 100.138C154.505 96.7834 152.469 93.7356 149.901 91.1685C147.334 88.6013 144.285 86.5651 140.931 85.176C137.576 83.787 133.981 83.0723 130.35 83.0729H67.9688" stroke="#E5E8F5" stroke-width="4.63131" stroke-miterlimit="10"/>
<path d="M67.9692 83.0729C60.636 83.0729 53.6031 85.986 48.4178 91.1714C43.2324 96.3567 40.3193 103.39 40.3193 110.723V155.68H95.619V110.723C95.6196 107.092 94.9048 103.496 93.5155 100.141C92.1262 96.786 90.0895 93.7377 87.5219 91.1701C84.9542 88.6024 81.9059 86.5658 78.551 85.1764C75.1961 83.7871 71.6003 83.0723 67.9692 83.0729Z" stroke="#E5E8F5" stroke-width="4.63131" stroke-miterlimit="10"/>
<path d="M119.365 112.056C119.767 107.632 116.507 103.721 112.084 103.319C107.66 102.917 103.748 106.177 103.347 110.601C102.945 115.024 106.205 118.936 110.629 119.338C115.052 119.739 118.964 116.479 119.365 112.056Z" stroke="#E5E8F5" stroke-width="4.63131" stroke-miterlimit="10"/>
<path opacity="0.5" d="M116.12 120.401C119.694 117.764 120.454 112.729 117.817 109.155C115.18 105.581 110.144 104.821 106.57 107.458C102.996 110.095 102.236 115.13 104.873 118.704C107.51 122.278 112.546 123.038 116.12 120.401Z" fill="url(#paint3_linear_299_11019)"/>
<path opacity="0.53" d="M119.365 112.056C119.767 107.632 116.507 103.721 112.084 103.319C107.66 102.917 103.748 106.177 103.347 110.601C102.945 115.024 106.205 118.936 110.629 119.338C115.052 119.739 118.964 116.479 119.365 112.056Z" fill="#D3D7ED" stroke="#E5E8F5" stroke-width="4.63131" stroke-miterlimit="10"/>
<path d="M67.969 88.8419C62.1072 88.8419 56.4856 91.1705 52.3407 95.3154C48.1958 99.4603 45.8672 105.082 45.8672 110.944V149.888H90.0708V110.975C90.075 108.07 89.5064 105.193 88.3975 102.508C87.2886 99.8225 85.6613 97.3822 83.6085 95.3266C81.5558 93.2709 79.1179 91.64 76.4343 90.5273C73.7507 89.4146 70.8741 88.8419 67.969 88.8419Z" fill="url(#paint4_linear_299_11019)"/>
<g opacity="0.48">
<path d="M90.071 110.696C90.0729 106.399 88.8226 102.196 86.473 98.5988C84.1234 95.002 80.7765 92.1679 76.8415 90.4432C74.0353 93.0267 71.7961 96.1648 70.2657 99.6588C68.7354 103.153 67.9472 106.926 67.9512 110.741V149.532H90.053V110.696H90.071Z" fill="white"/>
</g>
<path d="M120.134 50.3758L127.143 45.8201H108.907V102.753C111.113 101.85 113.792 102.753 113.792 102.753V54.9405H127.143L120.134 50.3758Z" fill="#26527A"/>
<path d="M125.705 46.7538H109.8L109.769 102.491C109.472 102.541 109.182 102.629 108.907 102.753V45.8201H127.143L125.705 46.7538Z" fill="url(#paint5_linear_299_11019)"/>
<path opacity="0.5" d="M157.098 155.68H13.4811C12.6641 155.68 11.8805 155.355 11.3027 154.777C10.725 154.2 10.4004 153.416 10.4004 152.599C10.4004 151.782 10.725 150.998 11.3027 150.42C11.8805 149.843 12.6641 149.518 13.4811 149.518H157.098V155.68Z" fill="url(#paint6_linear_299_11019)"/>
<path d="M157.982 155.68H13.4811C12.6641 155.68 11.8805 155.355 11.3027 154.777C10.725 154.2 10.4004 153.416 10.4004 152.599C10.4004 151.782 10.725 150.998 11.3027 150.42C11.8805 149.843 12.6641 149.518 13.4811 149.518H157.982V155.68Z" stroke="#E5E8F5" stroke-width="4.63131" stroke-miterlimit="10"/>
<path d="M99.6064 152.473C99.6064 152.638 99.5575 152.799 99.4658 152.936C99.3741 153.073 99.2438 153.18 99.0913 153.244C98.9388 153.307 98.771 153.323 98.6092 153.291C98.4473 153.259 98.2986 153.179 98.1819 153.063C98.0652 152.946 97.9857 152.797 97.9535 152.635C97.9213 152.474 97.9379 152.306 98.001 152.153C98.0642 152.001 98.1711 151.871 98.3084 151.779C98.4456 151.687 98.6069 151.638 98.772 151.638C98.8815 151.638 98.99 151.66 99.0913 151.702C99.1925 151.744 99.2845 151.805 99.362 151.883C99.4395 151.96 99.501 152.052 99.5429 152.153C99.5848 152.255 99.6064 152.363 99.6064 152.473Z" fill="#F9FDFE"/>
<path d="M107.581 152.473C107.581 152.638 107.532 152.799 107.44 152.936C107.349 153.073 107.218 153.18 107.066 153.244C106.913 153.307 106.746 153.323 106.584 153.291C106.422 153.259 106.273 153.179 106.157 153.063C106.04 152.946 105.96 152.797 105.928 152.635C105.896 152.474 105.912 152.306 105.976 152.153C106.039 152.001 106.146 151.871 106.283 151.779C106.42 151.687 106.582 151.638 106.747 151.638C106.856 151.638 106.965 151.66 107.066 151.702C107.167 151.744 107.259 151.805 107.337 151.883C107.414 151.96 107.476 152.052 107.517 152.153C107.559 152.255 107.581 152.363 107.581 152.473Z" fill="#F9FDFE"/>
<path d="M115.556 152.473C115.556 152.638 115.507 152.799 115.415 152.936C115.323 153.073 115.193 153.18 115.041 153.244C114.888 153.307 114.72 153.323 114.558 153.291C114.397 153.259 114.248 153.179 114.131 153.063C114.014 152.946 113.935 152.797 113.903 152.635C113.871 152.474 113.887 152.306 113.95 152.153C114.013 152.001 114.12 151.871 114.258 151.779C114.395 151.687 114.556 151.638 114.721 151.638C114.831 151.638 114.939 151.66 115.041 151.702C115.142 151.744 115.234 151.805 115.311 151.883C115.389 151.96 115.45 152.052 115.492 152.153C115.534 152.255 115.556 152.363 115.556 152.473Z" fill="#F9FDFE"/>
<path d="M123.525 152.473C123.525 152.638 123.476 152.799 123.385 152.936C123.293 153.073 123.163 153.18 123.01 153.244C122.858 153.307 122.69 153.323 122.528 153.291C122.366 153.259 122.218 153.179 122.101 153.063C121.984 152.946 121.905 152.797 121.872 152.635C121.84 152.474 121.857 152.306 121.92 152.153C121.983 152.001 122.09 151.871 122.227 151.779C122.365 151.687 122.526 151.638 122.691 151.638C122.8 151.638 122.909 151.66 123.01 151.702C123.111 151.744 123.203 151.805 123.281 151.883C123.358 151.96 123.42 152.052 123.462 152.153C123.504 152.255 123.525 152.363 123.525 152.473Z" fill="#F9FDFE"/>
<path d="M131.5 152.473C131.5 152.638 131.451 152.799 131.359 152.936C131.268 153.073 131.137 153.18 130.985 153.244C130.832 153.307 130.665 153.323 130.503 153.291C130.341 153.259 130.192 153.179 130.075 153.063C129.959 152.946 129.879 152.797 129.847 152.635C129.815 152.474 129.831 152.306 129.895 152.153C129.958 152.001 130.065 151.871 130.202 151.779C130.339 151.687 130.5 151.638 130.666 151.638C130.775 151.638 130.884 151.66 130.985 151.702C131.086 151.744 131.178 151.805 131.256 151.883C131.333 151.96 131.395 152.052 131.436 152.153C131.478 152.255 131.5 152.363 131.5 152.473Z" fill="#F9FDFE"/>
<path d="M139.476 152.473C139.476 152.638 139.427 152.799 139.335 152.936C139.243 153.073 139.113 153.18 138.96 153.244C138.808 153.307 138.64 153.323 138.478 153.291C138.316 153.259 138.168 153.179 138.051 153.063C137.934 152.946 137.855 152.797 137.823 152.635C137.79 152.474 137.807 152.306 137.87 152.153C137.933 152.001 138.04 151.871 138.178 151.779C138.315 151.687 138.476 151.638 138.641 151.638C138.751 151.638 138.859 151.66 138.96 151.702C139.062 151.744 139.154 151.805 139.231 151.883C139.309 151.96 139.37 152.052 139.412 152.153C139.454 152.255 139.476 152.363 139.476 152.473Z" fill="#F9FDFE"/>
<path d="M147.445 152.473C147.445 152.638 147.396 152.799 147.305 152.936C147.213 153.073 147.083 153.18 146.93 153.244C146.778 153.307 146.61 153.323 146.448 153.291C146.286 153.259 146.137 153.179 146.021 153.063C145.904 152.946 145.825 152.797 145.792 152.635C145.76 152.474 145.777 152.306 145.84 152.153C145.903 152.001 146.01 151.871 146.147 151.779C146.284 151.687 146.446 151.638 146.611 151.638C146.72 151.638 146.829 151.66 146.93 151.702C147.031 151.744 147.123 151.805 147.201 151.883C147.278 151.96 147.34 152.052 147.382 152.153C147.424 152.255 147.445 152.363 147.445 152.473Z" fill="#F9FDFE"/>
<path d="M155.42 152.473C155.42 152.638 155.371 152.799 155.279 152.936C155.188 153.073 155.057 153.18 154.905 153.244C154.752 153.307 154.584 153.323 154.423 153.291C154.261 153.259 154.112 153.179 153.995 153.063C153.879 152.946 153.799 152.797 153.767 152.635C153.735 152.474 153.751 152.306 153.814 152.153C153.878 152.001 153.985 151.871 154.122 151.779C154.259 151.687 154.42 151.638 154.585 151.638C154.695 151.638 154.804 151.66 154.905 151.702C155.006 151.744 155.098 151.805 155.175 151.883C155.253 151.96 155.314 152.052 155.356 152.153C155.398 152.255 155.42 152.363 155.42 152.473Z" fill="#F9FDFE"/>
<path d="M69.5071 128.9C69.5071 128.9 68.8035 128.684 67.6172 128.233" stroke="#E3EBF7" stroke-width="3.43874" stroke-miterlimit="10" stroke-linecap="round"/>
<path d="M63.9095 126.681C56.3092 123.19 43.3548 115.405 40.9056 102.184C37.4189 83.2398 70.1025 62.2251 63.9772 41.5125C59.2771 25.6037 41.4604 19.961 33.4541 18.1974" stroke="#E3EBF7" stroke-width="3.43874" stroke-miterlimit="10" stroke-linecap="round" stroke-dasharray="10.27 10.27"/>
<path d="M31.528 17.8004C30.2786 17.5703 29.5479 17.4846 29.5479 17.4846" stroke="#E3EBF7" stroke-width="3.43874" stroke-miterlimit="10" stroke-linecap="round"/>
<path d="M3.11141 15.4053C3.09856 15.4938 3.06431 15.5778 3.01165 15.6501C2.959 15.7225 2.8895 15.7808 2.8092 15.8202C2.44839 15.9687 2.1227 16.191 1.85311 16.4731C1.58353 16.7551 1.37605 17.0905 1.24403 17.4576C0.716295 19.0182 1.65449 20.8856 1.66351 20.9037C1.69609 20.967 1.71587 21.0362 1.72171 21.1072C1.72756 21.1783 1.71935 21.2497 1.69757 21.3176C1.67579 21.3854 1.64086 21.4483 1.59478 21.5027C1.54869 21.557 1.49234 21.6018 1.42896 21.6344C1.36558 21.6669 1.2964 21.6867 1.22538 21.6926C1.15436 21.6984 1.08288 21.6902 1.01503 21.6684C0.947175 21.6466 0.884281 21.6117 0.829928 21.5656C0.775575 21.5195 0.730829 21.4632 0.69825 21.3998C0.653144 21.3051 -0.45646 19.113 0.215615 17.1193C0.393105 16.6134 0.673528 16.1498 1.03919 15.7578C1.40484 15.3657 1.8478 15.0537 2.3401 14.8414C2.40431 14.81 2.4741 14.7916 2.54546 14.7873C2.61682 14.783 2.68832 14.7929 2.75584 14.8164C2.82336 14.8399 2.88556 14.8765 2.93885 14.9242C2.99214 14.9718 3.03545 15.0295 3.0663 15.094C3.1094 15.1917 3.12499 15.2993 3.11141 15.4053Z" fill="#CFD8EE"/>
<path d="M3.42251 13.2627C3.43587 13.174 3.42677 13.0833 3.39604 12.999C3.36531 12.9147 3.31393 12.8394 3.2466 12.7801C2.9435 12.5348 2.69533 12.2286 2.51817 11.8813C2.34101 11.5339 2.2388 11.1532 2.21819 10.7639C2.15053 9.11753 3.57136 7.60648 3.59842 7.57942C3.64758 7.52789 3.68612 7.46718 3.71182 7.40075C3.73752 7.33433 3.74989 7.26349 3.74821 7.19229C3.74654 7.12108 3.73086 7.0509 3.70206 6.98576C3.67326 6.92062 3.63191 6.86179 3.58038 6.81262C3.52885 6.76346 3.46813 6.72493 3.40171 6.69923C3.33528 6.67353 3.26445 6.66116 3.19324 6.66284C3.12204 6.66451 3.05187 6.68019 2.98672 6.70899C2.92158 6.73779 2.86275 6.77913 2.81359 6.83067C2.74142 6.90735 1.05446 8.69353 1.13565 10.8C1.1604 11.3357 1.29676 11.8604 1.53598 12.3404C1.77521 12.8204 2.11205 13.2452 2.52491 13.5875C2.59768 13.6543 2.68732 13.6999 2.78414 13.7193C2.88096 13.7388 2.98126 13.7314 3.07418 13.698C3.1671 13.6645 3.2491 13.6063 3.31129 13.5296C3.37349 13.4528 3.41351 13.3606 3.42702 13.2627H3.42251Z" fill="#CFD8EE"/>
<path d="M5.95756 10.8902C4.18039 10.6331 2.49343 12.1035 2.19573 14.1784C1.89804 16.2533 3.09785 18.1432 4.866 18.4003" fill="#26527A"/>
<path d="M25.345 17.4656C25.8898 13.6134 22.4888 9.94713 17.7487 9.27681C13.0087 8.6065 8.72449 11.1859 8.17973 15.0382C7.63497 18.8904 11.0359 22.5566 15.776 23.2269C20.516 23.8972 24.8002 21.3178 25.345 17.4656Z" fill="#A0ACD7"/>
<path d="M12.1328 21.8283C12.971 22.3603 13.8829 22.7661 14.8392 23.0327C15.4977 22.0133 16.472 20.0737 17.0133 16.33C17.5545 12.5862 17.1756 10.4662 16.8374 9.28444C15.8447 9.26612 14.8548 9.39688 13.901 9.67235C14.1611 11.7291 14.1155 13.813 13.7656 15.8563C13.5165 17.9162 12.9664 19.9283 12.1328 21.8283Z" fill="white"/>
<path d="M17.333 23.4251C18.7686 23.4884 20.2005 23.2359 21.5279 22.6854C22.3488 20.9595 22.8835 19.1116 23.1111 17.214C23.435 15.3314 23.4472 13.4083 23.1471 11.5217C22.0324 10.6142 20.7309 9.96419 19.3357 9.61823C19.6875 10.9173 20.0078 13.1049 19.4846 16.6908C18.9613 20.2767 18.0412 22.2839 17.333 23.4251Z" fill="white"/>
<path d="M9.02521 10.5158C10.9512 10.7955 12.3766 11.9412 11.8488 15.5812C11.3211 19.2212 9.62512 19.9114 7.6991 19.6407C5.77309 19.3701 4.34774 18.2154 4.87548 14.5753C5.40322 10.9353 7.0992 10.2362 9.02521 10.5158Z" fill="#26527A"/>
<path d="M7.72159 10.0512C9.20106 10.2677 10.261 11.4044 9.70174 15.27C9.14243 19.1355 7.80278 19.9204 6.31881 19.7039C4.83483 19.4873 3.77935 18.3507 4.33866 14.4896C4.89797 10.6286 6.24212 9.83923 7.72159 10.0512Z" fill="#CFD8EE"/>
<path d="M15.4792 1.86904C6.33627 9.23481 5.58301 10.8631 5.58301 10.8631C7.2429 9.8257 8.35701 10.4797 9.25462 10.8225C13.8328 12.5817 17.0308 10.9939 18.145 9.92042C20.5265 7.63356 24.117 0.385062 22.3082 0.123449C21.1112 -0.0809068 19.8845 -0.0310963 18.708 0.269643C17.5314 0.570383 16.4314 1.11532 15.4792 1.86904Z" fill="#CFD8EE"/>
<path d="M16.5211 1.16544C16.1584 1.37637 15.8103 1.61145 15.4792 1.86909L14.9424 2.32014C14.3109 4.00259 13.4675 6.27141 13.0435 7.43964C11.37 8.58082 9.47559 9.98812 8.65918 10.597L9.06514 10.7594L9.25458 10.8361C9.46207 10.9173 9.66504 10.9804 9.86802 11.0481C12.2225 9.298 15.3213 7.10135 16.1016 6.84425C17.6588 6.50701 19.2388 6.28539 20.8287 6.18119C21.0317 5.81584 21.2302 5.44597 21.4151 5.0761C19.51 5.15796 17.6158 5.407 15.7543 5.82035C15.3346 5.991 14.9328 6.20251 14.5545 6.45183C15.2627 4.52581 16.0971 2.3021 16.5031 1.21054C16.5099 1.19584 16.5159 1.18078 16.5211 1.16544Z" fill="white"/>
<path d="M11.4288 29.785C4.75319 20.1188 4.49609 18.3462 4.49609 18.3462C5.79063 19.8121 7.04908 19.5054 8.00532 19.4287C12.8948 19.0453 15.5109 21.4765 16.2732 22.8207C17.906 25.6939 19.2863 33.6461 17.4775 33.398C16.2723 33.2538 15.1108 32.8576 14.0687 32.2351C13.0266 31.6127 12.1272 30.7779 11.4288 29.785Z" fill="#CFD8EE"/>
<path d="M12.227 30.7503C11.9362 30.4498 11.6692 30.1271 11.4287 29.785C11.2933 29.5865 11.1625 29.4016 11.0362 29.2122C10.9099 27.4079 10.7476 25.0038 10.6709 23.7634C9.39439 22.1937 7.96454 20.3038 7.36914 19.4874L7.8202 19.4468H8.02318C8.2442 19.4468 8.47423 19.4468 8.6727 19.4152C10.4318 21.7652 12.7773 24.7512 13.4539 25.2203C14.8498 25.9902 16.3018 26.6537 17.7976 27.2049C17.8878 27.6154 17.9735 28.0259 18.0457 28.4318C16.2416 27.8152 14.4965 27.0377 12.8315 26.1089C12.4787 25.8248 12.154 25.5076 11.8617 25.1617C11.9925 27.1914 12.1549 29.5595 12.2406 30.7232C12.2351 30.7317 12.2306 30.7408 12.227 30.7503Z" fill="white"/>
<defs>
<linearGradient id="paint0_linear_299_11019" x1="100.156" y1="211.629" x2="105.587" y2="211.629" gradientUnits="userSpaceOnUse">
<stop stop-color="#26527A"/>
<stop offset="0.97" stop-color="#C1D3ED"/>
</linearGradient>
<linearGradient id="paint1_linear_299_11019" x1="67.9507" y1="119.374" x2="157.982" y2="119.374" gradientUnits="userSpaceOnUse">
<stop stop-color="#C1D3ED"/>
<stop offset="1" stop-color="#E8EEF8"/>
</linearGradient>
<linearGradient id="paint2_linear_299_11019" x1="40.3013" y1="119.374" x2="95.6009" y2="119.374" gradientUnits="userSpaceOnUse">
<stop stop-color="#C1D3ED"/>
<stop offset="1" stop-color="#E8EEF8"/>
</linearGradient>
<linearGradient id="paint3_linear_299_11019" x1="103.301" y1="113.93" x2="119.39" y2="113.93" gradientUnits="userSpaceOnUse">
<stop stop-color="#C1D3ED"/>
<stop offset="1" stop-color="#E8EEF8"/>
</linearGradient>
<linearGradient id="paint4_linear_299_11019" x1="45.8311" y1="119.374" x2="90.0708" y2="119.374" gradientUnits="userSpaceOnUse">
<stop stop-color="#C1D3ED"/>
<stop offset="1" stop-color="#E8EEF8"/>
</linearGradient>
<linearGradient id="paint5_linear_299_11019" x1="108.907" y1="74.2863" x2="127.143" y2="74.2863" gradientUnits="userSpaceOnUse">
<stop stop-color="#26527A"/>
<stop offset="1" stop-color="#81A2D4"/>
</linearGradient>
<linearGradient id="paint6_linear_299_11019" x1="10.4004" y1="152.599" x2="157.098" y2="152.599" gradientUnits="userSpaceOnUse">
<stop stop-color="#C1D3ED"/>
<stop offset="1" stop-color="#E8EEF8"/>
</linearGradient>
</defs>
</svg>
