<svg width="428" height="790" viewBox="0 0 428 790" fill="none" xmlns="http://www.w3.org/2000/svg">
<g opacity="0.8">
<g clip-path="url(#clip0_776_23905)">
<rect width="631.138" height="519" transform="translate(-102.069)" fill="white"/>
<g clip-path="url(#clip1_776_23905)">
<g style="mix-blend-mode:luminosity" opacity="0.15">
<path d="M157.483 496.811L157.866 497.505L130.038 513.785L129.654 513.092L157.483 496.811ZM157.606 496.303L129.158 512.955L129.914 514.269L158.362 497.628L157.606 496.303Z" fill="#112B57"/>
<path d="M92.3328 496.811L91.9364 497.505L119.765 513.785L120.149 513.092L92.3328 496.811ZM92.1965 496.303L120.645 512.955L119.901 514.269L91.4531 497.628L92.1965 496.303Z" fill="#112B57"/>
<path d="M66.9682 495.211H61.5811V530.009H66.9682V495.211Z" fill="white" stroke="#112B57" stroke-width="0.309757"/>
<path d="M64.2695 495.062V530.164" stroke="#112B57" stroke-width="0.309757"/>
<path d="M174.34 495.206H168.952V530.004H174.34V495.206Z" fill="white" stroke="#112B57" stroke-width="0.309757"/>
<path d="M260.493 495.211H255.105V530.009H260.493V495.211Z" fill="white" stroke="#112B57" stroke-width="0.309757"/>
<path d="M171.645 495.051V530.165" stroke="#112B57" stroke-width="0.309757"/>
<path d="M257.792 495.051V530.165" stroke="#112B57" stroke-width="0.309757"/>
<path d="M266.3 495.206H260.804V530.004H266.3V495.206Z" fill="white" stroke="#112B57" stroke-width="0.309757"/>
<path d="M354.11 495.211H348.614V530.009H354.11V495.211Z" fill="white" stroke="#112B57" stroke-width="0.309757"/>
<path d="M263.543 495.051V530.165" stroke="#112B57" stroke-width="0.309757"/>
<path d="M351.354 495.051V530.165" stroke="#112B57" stroke-width="0.309757"/>
<path d="M94.7617 27.7505H187.454" stroke="#112B57" stroke-width="1.26765"/>
<path d="M94.7617 40.7988H187.454" stroke="#112B57" stroke-width="1.26765"/>
<path d="M94.7617 53.8447H187.454" stroke="#112B57" stroke-width="1.26765"/>
<path d="M94.7617 66.9033H187.454" stroke="#112B57" stroke-width="1.26765"/>
<path d="M94.7617 79.9517H187.454" stroke="#112B57" stroke-width="1.26765"/>
<path d="M94.7617 92.9985H187.454" stroke="#112B57" stroke-width="1.26765"/>
<path d="M94.7617 106.045H187.454" stroke="#112B57" stroke-width="1.26765"/>
<path d="M94.7617 119.092H187.454" stroke="#112B57" stroke-width="1.26765"/>
<path d="M141.708 27.9873V118.672" stroke="#112B57" stroke-width="2.53518"/>
<path d="M242.902 -3.39893H197.058V42.8169H242.902V-3.39893Z" stroke="#112B57" stroke-width="0.633763"/>
<path d="M231.119 48.6528H247.846" stroke="#112B57" stroke-width="7.43417"/>
<path d="M230.2 159.545H255.291" stroke="#112B57" stroke-width="7.43417"/>
<path d="M193.959 48.6528H210.686" stroke="#112B57" stroke-width="7.43417"/>
<path d="M193.042 159.545H209.769" stroke="#112B57" stroke-width="7.43417"/>
<path d="M236.211 339.007L246.978 320.297L228.541 331.511" fill="white"/>
<path d="M190.242 -12.939V140.081H93.5977M249.096 60.7832V-12.939" stroke="#112B57" stroke-width="7.43417"/>
<path d="M92.9785 242.3H127.671V140.08M164.223 242.3H260.247M301.755 242.3H337.687M337.687 242.3H398.399M337.687 242.3V113.441V40.958" stroke="#112B57" stroke-width="7.43417"/>
<path d="M189.622 140.701V242.302" stroke="#112B57" stroke-width="7.43417"/>
<path d="M309.809 241.063V211.326H337.687M250.955 241.063V159.906M127.052 211.326H92.3594M-21.0117 231.77V303.634M21.1152 303.634H346.36H332.731M464.068 303.634H531.595M531.595 242.302H465.307" stroke="#112B57" stroke-width="7.43417"/>
<path d="M398.398 238.583V267.701M263.344 304.252V411.428M263.344 441.784V495.682" stroke="#112B57" stroke-width="7.43417"/>
<path d="M-85.4417 42.1974H-102.788V467.804H-81.7246M-24.5682 496.301H8.10496M53.3295 496.301H97.315M151.213 496.301H191.481M250.955 496.301H294.321M343.262 496.301H374.238M418.843 496.301H462.209M509.911 496.301H531.594V369.92V169.198V42.1974H514.868M468.404 42.1974H426.897M375.477 42.1974H337.687V-9.8418H319.101M267.062 -9.8418H160.505M109.705 -9.8418H91.7394V42.1974M91.7394 42.1974V242.301H21.1148V229.291V244.779M91.7394 42.1974H47.7539M-4.90484 42.1974H-42.0757" stroke="#112B57" stroke-width="7.43417"/>
<path d="M398.87 290.313V303.014" stroke="#112B57" stroke-width="7.43417"/>
<path d="M435.19 377.974H373.238V351.955" stroke="#112B57" stroke-width="3.71709"/>
<path d="M89.5 196.457H18.8754V210.087M-55.4663 180.35V195.218M-55.4663 195.218V210.087M-55.4663 195.218H-103.169M-55.4663 232.389V269.56M-55.4663 290.623V306.731M-102.549 305.492H-22.0126M-102.549 248.497H-49.2712M-102.549 374.258H-43.6956V353.814M-43.0761 332.75V305.492M259.718 373.019H202.722M372.618 300.226V326.555M436.428 300.226V496.302M349.696 496.302V378.595M170.037 306.731V496.302M336.067 171.677H398.018V193.979" stroke="#112B57" stroke-width="3.71709"/>
<path d="M71.2949 303.014V423.199V497.541" stroke="#112B57" stroke-width="7.43417"/>
<path d="M399.489 172.296H414.358" stroke="#112B57" stroke-width="3.71709"/>
<path d="M17.6807 355.309H73.4369" stroke="#112B57" stroke-width="3.71709"/>
<path d="M371.141 303.483H439.287" stroke="#112B57" stroke-width="7.43417"/>
<path d="M399.489 240.443V216.282" stroke="#112B57" stroke-width="3.71709"/>
</g>
<path d="M24 277L230 277" stroke="#112B57" stroke-opacity="0.24" stroke-width="2" stroke-dasharray="9 9"/>
<path d="M186.31 345H179.718V344.187C179.718 343.855 179.764 343.545 179.857 343.257C179.95 342.964 180.074 342.69 180.23 342.437C180.387 342.178 180.57 341.936 180.78 341.711C180.99 341.482 181.214 341.262 181.454 341.052C181.693 340.837 181.937 340.632 182.186 340.437C182.435 340.237 182.679 340.037 182.918 339.836C183.143 339.646 183.348 339.46 183.534 339.28C183.719 339.094 183.878 338.904 184.01 338.708C184.142 338.513 184.244 338.308 184.317 338.093C184.391 337.874 184.427 337.637 184.427 337.383C184.427 337.104 184.383 336.863 184.295 336.658C184.212 336.448 184.093 336.274 183.937 336.138C183.785 335.996 183.604 335.891 183.395 335.823C183.185 335.75 182.955 335.713 182.706 335.713C182.276 335.713 181.839 335.813 181.395 336.013C180.951 336.213 180.523 336.514 180.113 336.914V335.281C180.328 335.12 180.545 334.98 180.765 334.863C180.985 334.741 181.212 334.641 181.446 334.563C181.681 334.48 181.927 334.419 182.186 334.38C182.445 334.341 182.721 334.321 183.014 334.321C183.487 334.321 183.917 334.385 184.303 334.512C184.688 334.634 185.018 334.817 185.292 335.061C185.565 335.3 185.775 335.601 185.921 335.962C186.073 336.323 186.148 336.738 186.148 337.207C186.148 337.632 186.095 338.015 185.987 338.357C185.885 338.694 185.736 339.009 185.541 339.302C185.35 339.595 185.118 339.873 184.845 340.137C184.571 340.4 184.266 340.671 183.929 340.95C183.646 341.179 183.363 341.404 183.08 341.624C182.801 341.838 182.55 342.051 182.325 342.261C182.101 342.466 181.917 342.673 181.776 342.883C181.639 343.088 181.571 343.296 181.571 343.506V343.542H186.31V345ZM197.069 345H195.318V340.444H190.375V345H188.631V334.497H190.375V338.914H195.318V334.497H197.069V345Z" fill="black" fill-opacity="0.48"/>
<path d="M293.32 195.398C293.32 195.961 293.227 196.474 293.039 196.938C292.857 197.401 292.602 197.802 292.273 198.141C291.945 198.474 291.555 198.734 291.102 198.922C290.654 199.104 290.167 199.195 289.641 199.195C289.078 199.195 288.56 199.086 288.086 198.867C287.617 198.648 287.211 198.323 286.867 197.891C286.529 197.458 286.266 196.922 286.078 196.281C285.891 195.635 285.797 194.888 285.797 194.039C285.797 193.003 285.919 192.083 286.164 191.281C286.414 190.479 286.755 189.807 287.188 189.266C287.62 188.724 288.128 188.312 288.711 188.031C289.294 187.75 289.924 187.609 290.602 187.609C291.023 187.609 291.406 187.638 291.75 187.695C292.099 187.753 292.378 187.831 292.586 187.93V189.562C292.32 189.427 292.036 189.312 291.734 189.219C291.432 189.125 291.086 189.078 290.695 189.078C290.258 189.078 289.854 189.167 289.484 189.344C289.115 189.521 288.794 189.781 288.523 190.125C288.258 190.464 288.047 190.885 287.891 191.391C287.74 191.891 287.661 192.469 287.656 193.125H287.703C287.943 192.755 288.266 192.464 288.672 192.25C289.083 192.036 289.565 191.93 290.117 191.93C290.607 191.93 291.047 192.01 291.438 192.172C291.833 192.328 292.169 192.557 292.445 192.859C292.727 193.156 292.943 193.521 293.094 193.953C293.245 194.38 293.32 194.862 293.32 195.398ZM291.492 195.547C291.492 195.224 291.453 194.93 291.375 194.664C291.302 194.398 291.188 194.172 291.031 193.984C290.88 193.792 290.688 193.643 290.453 193.539C290.224 193.435 289.953 193.383 289.641 193.383C289.328 193.383 289.052 193.44 288.812 193.555C288.578 193.664 288.38 193.81 288.219 193.992C288.057 194.174 287.935 194.383 287.852 194.617C287.773 194.852 287.734 195.091 287.734 195.336C287.734 195.602 287.771 195.875 287.844 196.156C287.922 196.432 288.039 196.685 288.195 196.914C288.352 197.143 288.549 197.333 288.789 197.484C289.034 197.63 289.323 197.703 289.656 197.703C289.953 197.703 290.216 197.648 290.445 197.539C290.674 197.43 290.865 197.279 291.016 197.086C291.172 196.893 291.289 196.667 291.367 196.406C291.451 196.141 291.492 195.854 291.492 195.547ZM304.32 199H302.453V194.141H297.18V199H295.32V187.797H297.18V192.508H302.453V187.797H304.32V199Z" fill="black" fill-opacity="0.81"/>
<path d="M293.504 334.263V345H291.805V336.343C291.498 336.562 291.166 336.75 290.809 336.907C290.458 337.058 290.055 337.192 289.601 337.31V335.859C289.884 335.767 290.157 335.669 290.421 335.566C290.685 335.464 290.943 335.349 291.197 335.222C291.456 335.095 291.715 334.954 291.974 334.797C292.237 334.641 292.508 334.463 292.787 334.263H293.504ZM304.769 345H303.019V340.444H298.075V345H296.332V334.497H298.075V338.914H303.019V334.497H304.769V345Z" fill="black" fill-opacity="0.48"/>
<path d="M391.112 355H385.296V344.497H387.04V353.528H391.112V355ZM393.302 345.925C393.023 345.925 392.784 345.835 392.584 345.654C392.389 345.474 392.291 345.244 392.291 344.966C392.291 344.688 392.389 344.456 392.584 344.27C392.784 344.084 393.023 343.992 393.302 343.992C393.59 343.992 393.834 344.084 394.034 344.27C394.234 344.456 394.334 344.688 394.334 344.966C394.334 345.229 394.234 345.457 394.034 345.647C393.834 345.833 393.59 345.925 393.302 345.925ZM394.144 355H392.445V347.5H394.144V355ZM400.611 345.281C400.382 345.149 400.121 345.083 399.828 345.083C399.002 345.083 398.59 345.549 398.59 346.482V347.5H400.333V348.833H398.597V355H396.898V348.833H395.616V347.5H396.898V346.284C396.898 345.493 397.157 344.871 397.674 344.417C398.192 343.958 398.839 343.728 399.615 343.728C400.035 343.728 400.367 343.774 400.611 343.867V345.281ZM405.775 354.919C405.443 355.085 405.006 355.168 404.464 355.168C403.009 355.168 402.281 354.47 402.281 353.074V348.833H401.029V347.5H402.281V345.764L403.98 345.281V347.5H405.775V348.833H403.98V352.583C403.98 353.027 404.061 353.345 404.222 353.535C404.383 353.726 404.652 353.821 405.028 353.821C405.316 353.821 405.565 353.738 405.775 353.572V354.919Z" fill="black" fill-opacity="0.48"/>
</g>
<path d="M97.9009 267.612V266.015C98.5845 266.557 99.356 266.828 100.215 266.828C100.914 266.828 101.47 266.669 101.885 266.352C102.305 266.035 102.515 265.605 102.515 265.063C102.515 263.872 101.604 263.276 99.7832 263.276H98.9702V261.914H99.7466C101.363 261.914 102.171 261.352 102.171 260.229C102.171 259.194 101.541 258.676 100.281 258.676C99.5781 258.676 98.9165 258.928 98.2964 259.431V257.922C99.0093 257.521 99.8516 257.321 100.823 257.321C101.756 257.321 102.503 257.556 103.064 258.024C103.626 258.493 103.907 259.094 103.907 259.826C103.907 261.208 103.204 262.097 101.797 262.492V262.521C102.554 262.595 103.152 262.861 103.592 263.32C104.031 263.774 104.251 264.343 104.251 265.026C104.251 265.969 103.897 266.73 103.189 267.312C102.481 267.888 101.548 268.176 100.391 268.176C99.3511 268.176 98.521 267.988 97.9009 267.612ZM110.792 262.119C110.586 261.958 110.291 261.877 109.905 261.877C109.402 261.877 108.982 262.104 108.646 262.558C108.309 263.012 108.14 263.63 108.14 264.411V268H106.441V260.5H108.14V262.045H108.169C108.335 261.518 108.589 261.108 108.931 260.815C109.278 260.517 109.664 260.368 110.088 260.368C110.396 260.368 110.63 260.415 110.792 260.507V262.119ZM118.68 268H116.98V266.726H116.951C116.404 267.692 115.562 268.176 114.424 268.176C113.501 268.176 112.762 267.841 112.205 267.172C111.653 266.499 111.377 265.583 111.377 264.426C111.377 263.186 111.683 262.192 112.293 261.445C112.908 260.698 113.726 260.324 114.747 260.324C115.757 260.324 116.492 260.729 116.951 261.54H116.98V256.896H118.68V268ZM117.002 264.572V263.591C117.002 263.059 116.829 262.607 116.482 262.236C116.136 261.865 115.694 261.679 115.157 261.679C114.522 261.679 114.021 261.916 113.655 262.39C113.294 262.863 113.113 263.52 113.113 264.36C113.113 265.122 113.287 265.725 113.633 266.169C113.985 266.608 114.456 266.828 115.047 266.828C115.628 266.828 116.099 266.616 116.46 266.191C116.822 265.761 117.002 265.222 117.002 264.572ZM129.271 258.281C129.041 258.149 128.78 258.083 128.487 258.083C127.662 258.083 127.249 258.549 127.249 259.482V260.5H128.992V261.833H127.256V268H125.557V261.833H124.275V260.5H125.557V259.284C125.557 258.493 125.816 257.871 126.333 257.417C126.851 256.958 127.498 256.728 128.274 256.728C128.694 256.728 129.026 256.774 129.271 256.867V258.281ZM131.907 268H130.201V256.896H131.907V268ZM137.452 268.176C136.294 268.176 135.369 267.827 134.676 267.128C133.987 266.425 133.643 265.495 133.643 264.338C133.643 263.078 134.002 262.094 134.72 261.386C135.442 260.678 136.414 260.324 137.635 260.324C138.807 260.324 139.72 260.668 140.374 261.357C141.028 262.045 141.355 263 141.355 264.221C141.355 265.417 141.001 266.376 140.293 267.099C139.59 267.817 138.643 268.176 137.452 268.176ZM137.532 261.679C136.868 261.679 136.343 261.911 135.958 262.375C135.572 262.839 135.379 263.479 135.379 264.294C135.379 265.08 135.574 265.7 135.965 266.154C136.355 266.604 136.878 266.828 137.532 266.828C138.201 266.828 138.714 266.606 139.07 266.162C139.432 265.717 139.612 265.085 139.612 264.265C139.612 263.439 139.432 262.802 139.07 262.353C138.714 261.904 138.201 261.679 137.532 261.679ZM146.417 268.176C145.259 268.176 144.334 267.827 143.641 267.128C142.952 266.425 142.608 265.495 142.608 264.338C142.608 263.078 142.967 262.094 143.685 261.386C144.407 260.678 145.379 260.324 146.6 260.324C147.771 260.324 148.685 260.668 149.339 261.357C149.993 262.045 150.32 263 150.32 264.221C150.32 265.417 149.966 266.376 149.258 267.099C148.555 267.817 147.608 268.176 146.417 268.176ZM146.497 261.679C145.833 261.679 145.308 261.911 144.922 262.375C144.537 262.839 144.344 263.479 144.344 264.294C144.344 265.08 144.539 265.7 144.93 266.154C145.32 266.604 145.843 266.828 146.497 266.828C147.166 266.828 147.679 266.606 148.035 266.162C148.396 265.717 148.577 265.085 148.577 264.265C148.577 263.439 148.396 262.802 148.035 262.353C147.679 261.904 147.166 261.679 146.497 261.679ZM156.407 262.119C156.202 261.958 155.906 261.877 155.521 261.877C155.018 261.877 154.598 262.104 154.261 262.558C153.924 263.012 153.755 263.63 153.755 264.411V268H152.056V260.5H153.755V262.045H153.785C153.951 261.518 154.205 261.108 154.546 260.815C154.893 260.517 155.279 260.368 155.704 260.368C156.011 260.368 156.246 260.415 156.407 260.507V262.119ZM163.445 268H161.739V256.896H163.445V268ZM168.99 268.176C167.833 268.176 166.907 267.827 166.214 267.128C165.525 266.425 165.181 265.495 165.181 264.338C165.181 263.078 165.54 262.094 166.258 261.386C166.98 260.678 167.952 260.324 169.173 260.324C170.345 260.324 171.258 260.668 171.912 261.357C172.566 262.045 172.894 263 172.894 264.221C172.894 265.417 172.54 266.376 171.832 267.099C171.128 267.817 170.181 268.176 168.99 268.176ZM169.07 261.679C168.406 261.679 167.881 261.911 167.496 262.375C167.11 262.839 166.917 263.479 166.917 264.294C166.917 265.08 167.112 265.7 167.503 266.154C167.894 266.604 168.416 266.828 169.07 266.828C169.739 266.828 170.252 266.606 170.608 266.162C170.97 265.717 171.15 265.085 171.15 264.265C171.15 263.439 170.97 262.802 170.608 262.353C170.252 261.904 169.739 261.679 169.07 261.679ZM176.358 266.916H176.329V268H174.629V256.896H176.329V261.818H176.358C176.939 260.822 177.789 260.324 178.907 260.324C179.854 260.324 180.594 260.661 181.126 261.335C181.663 262.004 181.932 262.902 181.932 264.03C181.932 265.285 181.631 266.291 181.031 267.048C180.43 267.8 179.61 268.176 178.57 268.176C177.593 268.176 176.856 267.756 176.358 266.916ZM176.314 263.935V264.865C176.314 265.412 176.487 265.876 176.834 266.257C177.186 266.638 177.63 266.828 178.167 266.828C178.797 266.828 179.29 266.584 179.646 266.096C180.008 265.603 180.188 264.917 180.188 264.038C180.188 263.3 180.02 262.724 179.683 262.309C179.351 261.889 178.899 261.679 178.328 261.679C177.723 261.679 177.234 261.894 176.863 262.324C176.497 262.753 176.314 263.291 176.314 263.935ZM185.396 266.916H185.367V268H183.667V256.896H185.367V261.818H185.396C185.977 260.822 186.827 260.324 187.945 260.324C188.892 260.324 189.632 260.661 190.164 261.335C190.701 262.004 190.97 262.902 190.97 264.03C190.97 265.285 190.669 266.291 190.069 267.048C189.468 267.8 188.648 268.176 187.608 268.176C186.631 268.176 185.894 267.756 185.396 266.916ZM185.352 263.935V264.865C185.352 265.412 185.525 265.876 185.872 266.257C186.224 266.638 186.668 266.828 187.205 266.828C187.835 266.828 188.328 266.584 188.685 266.096C189.046 265.603 189.227 264.917 189.227 264.038C189.227 263.3 189.058 262.724 188.721 262.309C188.389 261.889 187.938 261.679 187.366 261.679C186.761 261.679 186.272 261.894 185.901 262.324C185.535 262.753 185.352 263.291 185.352 263.935ZM199.202 260.5L195.818 269.201C195.115 270.754 194.129 271.53 192.859 271.53C192.503 271.53 192.205 271.499 191.966 271.435V270.021C192.234 270.109 192.479 270.153 192.698 270.153C193.333 270.153 193.807 269.841 194.119 269.216L194.625 267.985L191.644 260.5H193.526L195.313 265.949C195.333 266.018 195.376 266.198 195.445 266.491H195.481C195.506 266.379 195.55 266.203 195.613 265.964L197.488 260.5H199.202Z" fill="black" fill-opacity="0.48"/>
</g>
<g clip-path="url(#clip2_776_23905)">
<rect width="754.797" height="533" transform="translate(-177.898 357)" fill="white"/>
<g clip-path="url(#clip3_776_23905)">
<g style="mix-blend-mode:luminosity" opacity="0.15">
<path d="M130.016 634.659V859.891M-21.8672 634.659V649.477" stroke="#112B57" stroke-width="4.44537"/>
<path d="M114.637 639.846H48.6972V685.04H27.9521" stroke="#112B57" stroke-width="8.89074"/>
<path d="M57.4971 364.929H168.35" stroke="#112B57" stroke-width="1.51602"/>
<path d="M57.4971 380.532H168.35" stroke="#112B57" stroke-width="1.51602"/>
<path d="M57.4971 396.136H168.35" stroke="#112B57" stroke-width="1.51602"/>
<path d="M57.4971 411.739H168.35" stroke="#112B57" stroke-width="1.51602"/>
<path d="M113.643 302.784V411.236" stroke="#112B57" stroke-width="3.03189"/>
<path d="M219.472 460.118H249.478" stroke="#112B57" stroke-width="8.89074"/>
<path d="M175.032 460.118H195.036" stroke="#112B57" stroke-width="8.89074"/>
<path d="M226.66 674.742L239.537 652.367L217.487 665.777" fill="white"/>
<path d="M339.127 636.14V673.452H357.649" stroke="#112B57" stroke-width="4.44537"/>
<path d="M171.684 253.839V436.84H56.1045M242.069 342.006V253.839" stroke="#112B57" stroke-width="8.89074"/>
<path d="M55.3643 559.088H96.8544V436.84M140.567 559.088H255.406M305.046 559.088H348.018M348.018 559.088H420.625M348.018 559.088V404.982V318.297" stroke="#112B57" stroke-width="8.89074"/>
<path d="M170.944 437.582V559.089" stroke="#112B57" stroke-width="8.89074"/>
<path d="M314.677 557.607V522.044H348.017M244.292 557.607V460.55M96.113 522.044H54.6228M-80.9609 546.494V632.437M-30.5801 632.437H358.39H342.09M499.16 632.437H579.917M579.917 559.089H500.642" stroke="#112B57" stroke-width="8.89074"/>
<path d="M420.625 554.643V589.465M259.11 633.177V761.352M259.11 797.656V862.114" stroke="#112B57" stroke-width="8.89074"/>
<path d="M-158.014 319.779H-178.759V828.774H-153.568M-85.2134 862.855H-46.1386M7.94674 862.855H60.5503M125.008 862.855H173.166M244.292 862.855H296.155M354.686 862.855H391.73M445.075 862.855H496.937M553.986 862.855H579.918V711.713V471.663V319.779H559.913M504.346 319.779H454.706M393.212 319.779H348.018V257.544H325.791M263.556 257.544H136.122M75.3682 257.544H53.8822V319.779M53.8822 319.779V559.088H-30.5798V543.529V562.052M53.8822 319.779H1.27869M-61.6974 319.779H-106.151" stroke="#112B57" stroke-width="8.89074"/>
<path d="M421.189 616.507V631.695" stroke="#112B57" stroke-width="8.89074"/>
<path d="M465.821 721.344H391.731V690.226" stroke="#112B57" stroke-width="4.44537"/>
<path d="M52.3998 504.263H-32.0622V520.562M-120.97 484.999V502.781M-120.97 502.781V520.562M-120.97 502.781H-178.019M-120.97 547.235V591.688M-120.97 616.879V636.142M-177.278 634.66H-80.9613M-177.278 566.498H-113.561M-177.278 716.9H-106.893V692.45M-106.152 667.26V634.66M255.968 715.418H187.806M390.989 628.363V659.851M467.301 628.363V862.856M363.576 862.856V722.086M148.716 636.142V862.856M347.276 474.627H421.365V501.299" stroke="#112B57" stroke-width="4.44537"/>
<path d="M29.4326 631.696V775.43V864.337" stroke="#112B57" stroke-width="8.89074"/>
<path d="M421.93 475.368H439.711" stroke="#112B57" stroke-width="4.44537"/>
<path d="M-39.4707 684.67H27.2098" stroke="#112B57" stroke-width="4.44537"/>
<path d="M388.026 632.258H469.525" stroke="#112B57" stroke-width="8.89074"/>
<path d="M421.93 556.865V527.97" stroke="#112B57" stroke-width="4.44537"/>
</g>
<ellipse cx="15.106" cy="759.391" rx="15.1978" ry="3.37729" fill="#B8B2B2"/>
<path d="M31.6519 723.394C31.7104 738.561 14.3985 759.092 14.3985 759.092C14.3985 759.092 -3.07031 738.761 -3.12877 723.526C-3.16591 713.922 4.58996 706.105 14.1946 706.069C23.7993 706.033 31.6148 713.789 31.6519 723.394Z" fill="#2A75C4"/>
<path style="mix-blend-mode:screen" opacity="0.33" d="M14.1946 706.029C4.59035 706.067 -3.16552 713.882 -3.12878 723.488C-3.12201 724.464 -3.05274 725.437 -2.92138 726.404C1.13808 728.954 6.65682 730.512 12.733 730.488C20.6848 730.458 27.6624 727.727 31.6507 723.63C31.6507 723.538 31.6507 723.446 31.6507 723.354C31.6152 713.749 23.7993 705.993 14.1946 706.029Z" fill="url(#paint0_linear_776_23905)"/>
<path opacity="0.6" d="M14.1451 707.054C17.4947 707.035 20.6211 708.044 23.1276 709.715C20.7178 707.671 17.597 706.679 14.1906 706.693C10.7395 706.706 7.5898 707.754 5.18359 709.864C7.8192 708.045 10.943 707.066 14.1451 707.054Z" fill="white"/>
<g style="mix-blend-mode:overlay" opacity="0.3">
<path d="M31.6524 723.396C31.7108 738.564 14.3989 759.094 14.3989 759.094C14.3989 759.094 14.0058 712.27 14.1951 706.073C23.7993 706.036 31.6152 713.792 31.6524 723.396Z" fill="#525252"/>
</g>
<g style="mix-blend-mode:multiply" opacity="0.55">
<mask id="mask0_776_23905" style="mask-type:luminance" maskUnits="userSpaceOnUse" x="0" y="708" width="30" height="30">
<path d="M29.0143 722.621C29.0449 730.549 22.6436 736.998 14.7171 737.028C6.79061 737.059 0.339455 730.658 0.309674 722.731C0.279893 714.804 6.68034 708.354 14.6073 708.323C22.5342 708.293 28.9837 714.694 29.0143 722.621Z" fill="white"/>
</mask>
<g mask="url(#mask0_776_23905)">
<path d="M29.0469 708.294H0.280273V737.061H29.0469V708.294Z" fill="white"/>
<path d="M24.8747 732.792C30.4857 727.18 30.4857 718.083 24.8747 712.472C19.2636 706.861 10.1663 706.861 4.55523 712.472C-1.05583 718.083 -1.05583 727.18 4.55523 732.792C10.1663 738.403 19.2636 738.403 24.8747 732.792Z" fill="white"/>
<path d="M24.8693 732.786C30.4772 727.178 30.4772 718.086 24.8693 712.478C19.2614 706.87 10.1692 706.87 4.56126 712.478C-1.04666 718.086 -1.04666 727.178 4.56125 732.786C10.1692 738.394 19.2614 738.394 24.8693 732.786Z" fill="white"/>
<path d="M24.8638 732.78C30.4688 727.176 30.4688 718.088 24.8638 712.483C19.2589 706.878 10.1715 706.878 4.56659 712.483C-1.03834 718.088 -1.03834 727.176 4.56659 732.78C10.1715 738.385 19.2589 738.385 24.8638 732.78Z" fill="white"/>
<path d="M24.8585 732.775C30.4603 727.173 30.4603 718.091 24.8585 712.489C19.2567 706.887 10.1744 706.887 4.57262 712.489C-1.02917 718.091 -1.02917 727.173 4.57262 732.775C10.1744 738.377 19.2567 738.377 24.8585 732.775Z" fill="white"/>
<path d="M24.854 732.769C30.4528 727.171 30.4528 718.093 24.854 712.494C19.2552 706.896 10.1777 706.896 4.57893 712.494C-1.01987 718.093 -1.01987 727.171 4.57893 732.769C10.1777 738.368 19.2552 738.368 24.854 732.769Z" fill="white"/>
<path d="M24.8457 732.764C30.4414 727.168 30.4413 718.096 24.8457 712.5C19.25 706.904 10.1777 706.904 4.58203 712.5C-1.01363 718.096 -1.01363 727.168 4.58203 732.764C10.1777 738.359 19.25 738.359 24.8457 732.764Z" fill="#FEFEFE"/>
<path d="M24.8403 732.758C30.4329 727.165 30.4328 718.098 24.8403 712.506C19.2478 706.913 10.1806 706.913 4.58806 712.506C-1.00446 718.098 -1.00446 727.165 4.58806 732.758C10.1806 738.35 19.2478 738.35 24.8403 732.758Z" fill="#FEFEFE"/>
<path d="M24.8349 732.753C30.4244 727.163 30.4244 718.101 24.8349 712.511C19.2453 706.922 10.1829 706.922 4.59339 712.511C-0.996136 718.101 -0.996137 727.163 4.59339 732.753C10.1829 738.342 19.2453 738.342 24.8349 732.753Z" fill="#FEFEFE"/>
<path d="M24.8295 732.747C30.4159 727.16 30.4159 718.103 24.8295 712.517C19.2431 706.93 10.1858 706.93 4.59942 712.517C-0.986965 718.103 -0.986966 727.16 4.59942 732.747C10.1858 738.333 19.2431 738.333 24.8295 732.747Z" fill="#FEFEFE"/>
<path d="M24.824 732.741C30.4074 727.158 30.4074 718.106 24.824 712.522C19.2406 706.939 10.1881 706.939 4.60475 712.522C-0.978645 718.106 -0.978645 727.158 4.60475 732.741C10.1881 738.325 19.2406 738.325 24.824 732.741Z" fill="#FEFEFE"/>
<path d="M24.8196 732.736C30.3999 727.156 30.3999 718.108 24.8196 712.528C19.2394 706.948 10.192 706.948 4.61176 712.528C-0.968496 718.108 -0.968498 727.156 4.61176 732.736C10.192 738.316 19.2394 738.316 24.8196 732.736Z" fill="#FDFDFD"/>
<path d="M24.8133 732.73C30.3904 727.153 30.3904 718.111 24.8133 712.534C19.2362 706.956 10.1939 706.956 4.61681 712.534C-0.960302 718.111 -0.960304 727.153 4.61681 732.73C10.1939 738.307 19.2362 738.307 24.8133 732.73Z" fill="#FDFDFD"/>
<path d="M14.7148 736.906C22.5978 736.906 28.9883 730.516 28.9883 722.633C28.9883 714.75 22.5978 708.359 14.7148 708.359C6.83184 708.359 0.441406 714.75 0.441406 722.633C0.441406 730.516 6.83184 736.906 14.7148 736.906Z" fill="#FDFDFD"/>
<path d="M24.8035 732.719C30.3744 727.148 30.3744 718.116 24.8035 712.545C19.2325 706.974 10.2001 706.974 4.62915 712.545C-0.941834 718.116 -0.941836 727.148 4.62915 732.719C10.2001 738.29 19.2325 738.29 24.8035 732.719Z" fill="#FCFCFC"/>
<path d="M24.796 732.714C30.364 727.146 30.364 718.118 24.796 712.55C19.228 706.982 10.2005 706.982 4.63253 712.55C-0.935466 718.118 -0.935468 727.146 4.63253 732.714C10.2005 738.282 19.228 738.282 24.796 732.714Z" fill="#FCFCFC"/>
<path d="M24.7916 732.708C30.3565 727.143 30.3565 718.121 24.7916 712.556C19.2268 706.991 10.2044 706.991 4.63953 712.556C-0.925319 718.121 -0.92532 727.143 4.63953 732.708C10.2044 738.273 19.2268 738.273 24.7916 732.708Z" fill="#FCFCFC"/>
<path d="M24.7863 732.702C30.348 727.14 30.348 718.123 24.7863 712.561C19.2246 707 10.2073 707 4.64556 712.561C-0.916149 718.123 -0.916149 727.14 4.64556 732.702C10.2073 738.264 19.2246 738.264 24.7863 732.702Z" fill="#FCFBFB"/>
<path d="M24.7798 732.697C30.3386 727.138 30.3386 718.126 24.7798 712.567C19.2211 707.008 10.2086 707.008 4.64992 712.567C-0.908805 718.126 -0.908805 727.138 4.64992 732.697C10.2086 738.256 19.2211 738.256 24.7798 732.697Z" fill="#FBFBFB"/>
<path d="M24.7745 732.691C30.3301 727.136 30.3301 718.128 24.7745 712.573C19.2189 707.017 10.2115 707.017 4.65595 712.573C-0.899632 718.128 -0.899635 727.136 4.65594 732.691C10.2115 738.247 19.2189 738.247 24.7745 732.691Z" fill="#FBFBFB"/>
<path d="M24.769 732.686C30.3216 727.133 30.3216 718.131 24.769 712.578C19.2164 707.025 10.2139 707.025 4.66128 712.578C-0.891311 718.131 -0.891313 727.133 4.66128 732.686C10.2139 738.238 19.2164 738.238 24.769 732.686Z" fill="#FAFAFA"/>
<path d="M24.7636 732.68C30.3131 727.131 30.3131 718.133 24.7636 712.584C19.2142 707.034 10.2168 707.034 4.66731 712.584C-0.882141 718.133 -0.882143 727.131 4.66731 732.68C10.2168 738.229 19.2142 738.229 24.7636 732.68Z" fill="#FAFAFA"/>
<path d="M24.7582 732.675C30.3046 727.128 30.3046 718.136 24.7582 712.589C19.2117 707.043 10.2191 707.043 4.67264 712.589C-0.87382 718.136 -0.873821 727.128 4.67264 732.675C10.2191 738.221 19.2117 738.221 24.7582 732.675Z" fill="#FAFAFA"/>
<path d="M24.7528 732.669C30.2961 727.126 30.2961 718.138 24.7528 712.595C19.2095 707.051 10.222 707.051 4.67867 712.595C-0.864648 718.138 -0.86465 727.126 4.67867 732.669C10.222 738.212 19.2095 738.212 24.7528 732.669Z" fill="#F9F9F9"/>
<path d="M24.7475 732.663C30.2876 727.123 30.2876 718.141 24.7475 712.6C19.2073 707.06 10.2249 707.06 4.6847 712.6C-0.855478 718.141 -0.855478 727.123 4.6847 732.663C10.2249 738.203 19.2073 738.203 24.7475 732.663Z" fill="#F9F9F9"/>
<path d="M24.74 732.658C30.2772 727.121 30.2772 718.143 24.74 712.606C19.2028 707.069 10.2253 707.069 4.68808 712.606C-0.84911 718.143 -0.84911 727.121 4.68808 732.658C10.2253 738.195 19.2028 738.195 24.74 732.658Z" fill="#F8F8F8"/>
<path d="M24.7347 732.652C30.2687 727.118 30.2687 718.146 24.7347 712.612C19.2006 707.078 10.2282 707.078 4.69411 712.612C-0.839939 718.146 -0.83994 727.118 4.69411 732.652C10.2282 738.186 19.2006 738.186 24.7347 732.652Z" fill="#F8F8F8"/>
<path d="M24.7302 732.647C30.2612 727.116 30.2612 718.148 24.7302 712.617C19.1991 707.086 10.2315 707.086 4.70042 712.617C-0.830639 718.148 -0.830641 727.116 4.70042 732.647C10.2315 738.178 19.1991 738.178 24.7302 732.647Z" fill="#F8F7F7"/>
<path d="M24.7238 732.641C30.2518 727.113 30.2518 718.151 24.7238 712.623C19.1959 707.095 10.2334 707.095 4.70547 712.623C-0.822446 718.151 -0.822448 727.113 4.70547 732.641C10.2334 738.169 19.1959 738.169 24.7238 732.641Z" fill="#F7F7F7"/>
<path d="M24.7185 732.635C30.2433 727.111 30.2433 718.153 24.7185 712.628C19.1937 707.104 10.2363 707.104 4.7115 712.628C-0.813276 718.153 -0.813278 727.111 4.7115 732.635C10.2363 738.16 19.1937 738.16 24.7185 732.635Z" fill="#F7F6F6"/>
<path d="M14.7156 736.772C22.5246 736.772 28.855 730.441 28.855 722.632C28.855 714.823 22.5246 708.493 14.7156 708.493C6.90661 708.493 0.576172 714.823 0.576172 722.632C0.576172 730.441 6.90661 736.772 14.7156 736.772Z" fill="#F6F6F6"/>
<path d="M24.7076 732.624C30.2263 727.106 30.2263 718.158 24.7076 712.639C19.189 707.121 10.2415 707.121 4.72286 712.639C-0.795784 718.158 -0.795785 727.106 4.72286 732.624C10.2415 738.143 19.189 738.143 24.7076 732.624Z" fill="#F6F5F6"/>
<path d="M24.7031 732.619C30.2188 727.103 30.2188 718.161 24.7031 712.645C19.1875 707.129 10.2448 707.129 4.72917 712.645C-0.786486 718.161 -0.786486 727.103 4.72917 732.619C10.2448 738.134 19.1875 738.134 24.7031 732.619Z" fill="#F5F5F5"/>
<path d="M24.6978 732.613C30.2103 727.101 30.2103 718.163 24.6978 712.651C19.1853 707.138 10.2477 707.138 4.7352 712.651C-0.777317 718.163 -0.777317 727.101 4.7352 732.613C10.2477 738.126 19.1853 738.126 24.6978 732.613Z" fill="#F5F4F5"/>
<path d="M24.6895 732.607C30.1989 727.098 30.1989 718.166 24.6895 712.656C19.1801 707.147 10.2477 707.147 4.7383 712.656C-0.771074 718.166 -0.771076 727.098 4.7383 732.607C10.2477 738.117 19.1801 738.117 24.6895 732.607Z" fill="#F4F4F4"/>
<path d="M24.685 732.602C30.1914 727.096 30.1914 718.168 24.685 712.662C19.1786 707.155 10.251 707.155 4.74461 712.662C-0.761777 718.168 -0.761779 727.096 4.74461 732.602C10.251 738.108 19.1786 738.108 24.685 732.602Z" fill="#F4F3F3"/>
<path d="M24.6797 732.596C30.1829 727.093 30.1829 718.171 24.6796 712.667C19.1764 707.164 10.2539 707.164 4.75064 712.667C-0.752606 718.171 -0.752606 727.093 4.75064 732.596C10.2539 738.1 19.1764 738.1 24.6797 732.596Z" fill="#F3F3F3"/>
<path d="M24.6742 732.591C30.1744 727.091 30.1744 718.173 24.6742 712.673C19.1739 707.172 10.2562 707.172 4.75597 712.673C-0.744284 718.173 -0.744286 727.091 4.75597 732.591C10.2562 738.091 19.1739 738.091 24.6742 732.591Z" fill="#F3F2F2"/>
<path d="M24.6688 732.585C30.1659 727.088 30.1659 718.176 24.6688 712.678C19.1717 707.181 10.2591 707.181 4.762 712.678C-0.735114 718.176 -0.735115 727.088 4.762 732.585C10.2591 738.082 19.1717 738.082 24.6688 732.585Z" fill="#F2F2F2"/>
<path d="M24.6633 732.58C30.1575 727.086 30.1575 718.178 24.6633 712.684C19.1692 707.19 10.2615 707.19 4.76734 712.684C-0.726793 718.178 -0.726794 727.086 4.76733 732.58C10.2615 738.074 19.1692 738.074 24.6633 732.58Z" fill="#F1F1F1"/>
<path d="M24.658 732.574C30.149 727.083 30.149 718.181 24.658 712.69C19.167 707.199 10.2643 707.199 4.77336 712.69C-0.717622 718.181 -0.717622 727.083 4.77336 732.574C10.2643 738.065 19.167 738.065 24.658 732.574Z" fill="#F1F1F1"/>
<path d="M24.6526 732.568C30.1405 727.081 30.1405 718.183 24.6526 712.695C19.1648 707.207 10.2672 707.207 4.77939 712.695C-0.70845 718.183 -0.708452 727.081 4.77939 732.568C10.2672 738.056 19.1648 738.056 24.6526 732.568Z" fill="#F0F0F0"/>
<path d="M24.6452 732.563C30.13 727.078 30.13 718.185 24.6452 712.701C19.1603 707.216 10.2676 707.216 4.78277 712.701C-0.702082 718.185 -0.702084 727.078 4.78277 732.563C10.2676 738.048 19.1603 738.048 24.6452 732.563Z" fill="#F0EFEF"/>
<path d="M24.6408 732.557C30.1225 727.076 30.1225 718.188 24.6408 712.706C19.1591 707.225 10.2715 707.225 4.78978 712.706C-0.691935 718.188 -0.691936 727.076 4.78978 732.557C10.2715 738.039 19.1591 738.039 24.6408 732.557Z" fill="#EFEFEF"/>
<path d="M24.6363 732.552C30.115 727.073 30.115 718.19 24.6363 712.712C19.1576 707.233 10.2748 707.233 4.79609 712.712C-0.682638 718.19 -0.682639 727.073 4.79609 732.552C10.2748 738.031 19.1576 738.031 24.6363 732.552Z" fill="#EFEEEE"/>
<path d="M24.629 732.546C30.1046 727.071 30.1046 718.193 24.629 712.717C19.1534 707.242 10.2757 707.242 4.80016 712.717C-0.67542 718.193 -0.675421 727.071 4.80016 732.546C10.2757 738.022 19.1534 738.022 24.629 732.546Z" fill="#EEEEEE"/>
<path d="M14.7152 736.646C22.4544 736.646 28.7283 730.372 28.7283 722.633C28.7283 714.894 22.4544 708.62 14.7152 708.62C6.97601 708.62 0.702148 714.894 0.702148 722.633C0.702148 730.372 6.97601 736.646 14.7152 736.646Z" fill="#EDEDED"/>
<path d="M24.6182 732.535C30.0876 727.066 30.0876 718.198 24.6182 712.729C19.1487 707.259 10.281 707.259 4.81153 712.729C-0.657928 718.198 -0.657928 727.066 4.81153 732.535C10.281 738.005 19.1487 738.005 24.6182 732.535Z" fill="#EDECEC"/>
<path d="M24.6138 732.529C30.0801 727.063 30.0801 718.201 24.6138 712.734C19.1475 707.268 10.2848 707.268 4.81853 712.734C-0.64778 718.201 -0.647781 727.063 4.81853 732.529C10.2848 737.996 19.1475 737.996 24.6138 732.529Z" fill="#ECECEC"/>
<path d="M24.6083 732.524C30.0716 727.061 30.0716 718.203 24.6083 712.74C19.145 707.276 10.2872 707.276 4.82387 712.74C-0.639459 718.203 -0.63946 727.061 4.82386 732.524C10.2872 737.987 19.145 737.987 24.6083 732.524Z" fill="#EBEBEB"/>
<path d="M24.603 732.518C30.0631 727.058 30.0631 718.205 24.603 712.745C19.1428 707.285 10.2901 707.285 4.82989 712.745C-0.630288 718.205 -0.63029 727.058 4.82989 732.518C10.2901 737.979 19.1428 737.979 24.603 732.518Z" fill="#EBEAEA"/>
<path d="M14.7158 736.606C22.4332 736.606 28.6894 730.35 28.6894 722.633C28.6894 714.915 22.4332 708.659 14.7158 708.659C6.99839 708.659 0.742188 714.915 0.742188 722.633C0.742188 730.35 6.99839 736.606 14.7158 736.606Z" fill="#EAEAEA"/>
<path d="M24.5911 732.507C30.0452 727.053 30.0452 718.21 24.5912 712.756C19.1371 707.302 10.2943 707.302 4.84028 712.756C-0.613772 718.21 -0.613774 727.053 4.84028 732.507C10.2943 737.961 19.1371 737.961 24.5911 732.507Z" fill="#E9E9E9"/>
<path d="M24.5838 732.502C30.0347 727.051 30.0347 718.213 24.5838 712.762C19.1329 707.311 10.2953 707.311 4.84435 712.762C-0.606557 718.213 -0.606557 727.051 4.84435 732.502C10.2953 737.952 19.1329 737.952 24.5838 732.502Z" fill="#E9E8E8"/>
<path d="M14.7149 736.583C22.4195 736.583 28.6652 730.337 28.6652 722.632C28.6652 714.928 22.4195 708.682 14.7149 708.682C7.0104 708.682 0.764648 714.928 0.764648 722.632C0.764648 730.337 7.0104 736.583 14.7149 736.583Z" fill="#E8E8E8"/>
<path d="M24.574 732.49C30.0188 727.046 30.0188 718.218 24.574 712.773C19.1292 707.328 10.3015 707.328 4.85669 712.773C-0.588087 718.218 -0.588088 727.046 4.85669 732.49C10.3015 737.935 19.1292 737.935 24.574 732.49Z" fill="#E7E7E7"/>
<path d="M24.5685 732.485C30.0103 727.043 30.0103 718.22 24.5685 712.779C19.1267 707.337 10.3038 707.337 4.86203 712.779C-0.579766 718.22 -0.579766 727.043 4.86203 732.485C10.3038 737.927 19.1267 737.927 24.5685 732.485Z" fill="#E7E6E6"/>
<path d="M24.5631 732.479C30.0018 727.041 30.0018 718.223 24.5631 712.784C19.1245 707.346 10.3067 707.346 4.86806 712.784C-0.570594 718.223 -0.570595 727.041 4.86805 732.479C10.3067 737.918 19.1245 737.918 24.5631 732.479Z" fill="#DAEFF7"/>
<path d="M24.5558 732.474C29.9913 727.038 29.9913 718.225 24.5558 712.79C19.1203 707.354 10.3076 707.354 4.87213 712.79C-0.563377 718.225 -0.563378 727.038 4.87213 732.474C10.3076 737.909 19.1203 737.909 24.5558 732.474Z" fill="#E5E5E5"/>
<path d="M24.5513 732.468C29.9839 727.036 29.9839 718.228 24.5513 712.795C19.1188 707.363 10.311 707.363 4.87844 712.795C-0.554079 718.228 -0.55408 727.036 4.87844 732.468C10.311 737.901 19.1188 737.901 24.5513 732.468Z" fill="#E5E4E4"/>
<path d="M24.546 732.463C29.9754 727.033 29.9754 718.23 24.546 712.801C19.1166 707.372 10.3138 707.372 4.88447 712.801C-0.544909 718.23 -0.54491 727.033 4.88447 732.463C10.3138 737.892 19.1166 737.892 24.546 732.463Z" fill="#E4E3E4"/>
<path d="M24.5395 732.457C29.9659 727.031 29.9659 718.233 24.5395 712.806C19.1131 707.38 10.3152 707.38 4.88883 712.806C-0.537564 718.233 -0.537565 727.031 4.88883 732.457C10.3152 737.884 19.1131 737.884 24.5395 732.457Z" fill="#E3E3E3"/>
<path d="M24.5342 732.451C29.9574 727.028 29.9574 718.235 24.5342 712.812C19.1109 707.389 10.3181 707.389 4.89485 712.812C-0.528394 718.235 -0.528394 727.028 4.89485 732.451C10.3181 737.875 19.1109 737.875 24.5342 732.451Z" fill="#E2E2E2"/>
<path d="M24.5288 732.446C29.9489 727.026 29.9489 718.238 24.5288 712.818C19.1087 707.398 10.321 707.398 4.90088 712.818C-0.519221 718.238 -0.519223 727.026 4.90088 732.446C10.321 737.866 19.1087 737.866 24.5288 732.446Z" fill="#E2E1E1"/>
<path d="M24.5233 732.44C29.9405 727.023 29.9405 718.24 24.5233 712.823C19.1062 707.406 10.3233 707.406 4.90622 712.823C-0.5109 718.24 -0.510902 727.023 4.90622 732.44C10.3233 737.858 19.1062 737.858 24.5233 732.44Z" fill="#E1E0E1"/>
<path d="M24.518 732.435C29.932 727.021 29.932 718.243 24.518 712.829C19.104 707.415 10.3262 707.415 4.91225 712.829C-0.50173 718.243 -0.501732 727.021 4.91224 732.435C10.3262 737.849 19.104 737.849 24.518 732.435Z" fill="#E0E0E0"/>
<path d="M24.5135 732.429C29.9245 727.018 29.9245 718.245 24.5135 712.834C19.1025 707.423 10.3295 707.423 4.91856 712.834C-0.492432 718.245 -0.492434 727.018 4.91855 732.429C10.3295 737.84 19.1025 737.84 24.5135 732.429Z" fill="#DFDFDF"/>
<path d="M24.5081 732.424C29.916 727.016 29.916 718.248 24.5081 712.84C19.1003 707.432 10.3324 707.432 4.92458 712.84C-0.483262 718.248 -0.483263 727.016 4.92458 732.424C10.3324 737.831 19.1003 737.831 24.5081 732.424Z" fill="#DFDEDE"/>
<path d="M14.7166 736.473C22.36 736.473 28.5562 730.276 28.5562 722.633C28.5562 714.99 22.36 708.793 14.7166 708.793C7.07316 708.793 0.876953 714.99 0.876953 722.633C0.876953 730.276 7.07316 736.473 14.7166 736.473Z" fill="#DEDDDD"/>
<path d="M24.4944 732.413C29.8961 727.011 29.8961 718.253 24.4944 712.851C19.0926 707.449 10.3347 707.449 4.93301 712.851C-0.468701 718.253 -0.468701 727.011 4.93301 732.413C10.3347 737.814 19.0926 737.814 24.4944 732.413Z" fill="#DDDCDD"/>
<path d="M24.491 732.407C29.8895 727.008 29.8895 718.255 24.491 712.857C19.0924 707.458 10.3396 707.458 4.941 712.857C-0.457575 718.255 -0.457575 727.008 4.941 732.407C10.3396 737.805 19.0924 737.805 24.491 732.407Z" fill="#DCDCDC"/>
<path d="M24.4845 732.401C29.8801 727.006 29.8801 718.258 24.4845 712.862C19.0889 707.467 10.3409 707.467 4.94536 712.862C-0.45023 718.258 -0.450232 727.006 4.94535 732.401C10.3409 737.797 19.0889 737.797 24.4845 732.401Z" fill="#DBDBDB"/>
<path d="M14.7154 736.442C22.3415 736.442 28.5237 730.259 28.5237 722.633C28.5237 715.007 22.3415 708.825 14.7154 708.825C7.08937 708.825 0.907227 715.007 0.907227 722.633C0.907227 730.259 7.08937 736.442 14.7154 736.442Z" fill="#DBDADA"/>
<path d="M24.4737 732.39C29.8631 727.001 29.8631 718.263 24.4737 712.873C19.0842 707.484 10.3462 707.484 4.95672 712.873C-0.432738 718.263 -0.432739 727.001 4.95672 732.39C10.3462 737.78 19.0842 737.78 24.4737 732.39Z" fill="#DAD9D9"/>
<path d="M24.4683 732.385C29.8546 726.998 29.8546 718.265 24.4683 712.879C19.082 707.493 10.3491 707.493 4.96275 712.879C-0.423567 718.265 -0.423569 726.998 4.96275 732.385C10.3491 737.771 19.082 737.771 24.4683 732.385Z" fill="#D9D8D9"/>
<path d="M24.461 732.379C29.8442 726.996 29.8442 718.268 24.461 712.885C19.0778 707.502 10.35 707.502 4.96682 712.885C-0.41635 718.268 -0.416351 726.996 4.96682 732.379C10.35 737.762 19.0778 737.762 24.461 732.379Z" fill="#D8D8D8"/>
<path d="M24.4565 732.374C29.8367 726.993 29.8367 718.27 24.4565 712.89C19.0763 707.51 10.3533 707.51 4.97313 712.89C-0.407053 718.27 -0.407054 726.993 4.97313 732.374C10.3533 737.754 19.0763 737.754 24.4565 732.374Z" fill="#D7D7D7"/>
<path d="M24.4511 732.368C29.8282 726.991 29.8282 718.273 24.4511 712.896C19.0741 707.519 10.3562 707.519 4.97916 712.896C-0.397882 718.273 -0.397882 726.991 4.97916 732.368C10.3562 737.745 19.0741 737.745 24.4511 732.368Z" fill="#D7D6D6"/>
<path d="M24.4457 732.362C29.8197 726.988 29.8197 718.275 24.4457 712.901C19.0716 707.527 10.3585 707.527 4.98449 712.901C-0.389562 718.275 -0.389561 726.988 4.98449 732.362C10.3586 737.736 19.0716 737.736 24.4457 732.362Z" fill="#D6D5D5"/>
<path d="M24.4403 732.357C29.8112 726.986 29.8112 718.278 24.4403 712.907C19.0694 707.536 10.3614 707.536 4.99052 712.907C-0.380389 718.278 -0.380391 726.986 4.99052 732.357C10.3614 737.728 19.0694 737.728 24.4403 732.357Z" fill="#D5D4D4"/>
<path d="M24.435 732.351C29.8027 726.983 29.8027 718.28 24.435 712.913C19.0672 707.545 10.3643 707.545 4.99655 712.913C-0.371218 718.28 -0.37122 726.983 4.99655 732.351C10.3643 737.719 19.0672 737.719 24.435 732.351Z" fill="#D4D3D3"/>
<path d="M24.4285 732.346C29.7933 726.981 29.7933 718.283 24.4285 712.918C19.0637 707.553 10.3657 707.553 5.00091 712.918C-0.363874 718.283 -0.363876 726.981 5.00091 732.346C10.3657 737.71 19.0637 737.71 24.4285 732.346Z" fill="#D3D2D3"/>
<path d="M24.4231 732.34C29.7848 726.978 29.7848 718.285 24.4231 712.924C19.0615 707.562 10.3686 707.562 5.00693 712.924C-0.354704 718.285 -0.354705 726.978 5.00693 732.34C10.3686 737.702 19.0615 737.702 24.4231 732.34Z" fill="#D2D2D2"/>
<path d="M24.4186 732.335C29.7773 726.976 29.7773 718.288 24.4186 712.929C19.06 707.57 10.3719 707.57 5.01325 712.929C-0.345406 718.288 -0.345407 726.976 5.01325 732.335C10.3719 737.693 19.06 737.693 24.4186 732.335Z" fill="#D1D1D1"/>
<path d="M24.4113 732.329C29.7668 726.973 29.7668 718.29 24.4113 712.935C19.0558 707.579 10.3728 707.579 5.01732 712.935C-0.338189 718.29 -0.338189 726.973 5.01732 732.329C10.3728 737.684 19.0558 737.684 24.4113 732.329Z" fill="#D1D0D0"/>
<path d="M24.406 732.323C29.7583 726.971 29.7583 718.293 24.406 712.941C19.0536 707.588 10.3757 707.588 5.02335 712.941C-0.329017 718.293 -0.329019 726.971 5.02335 732.323C10.3757 737.676 19.0536 737.676 24.406 732.323Z" fill="#D0CFCF"/>
<path d="M24.4005 732.318C29.7499 726.968 29.7499 718.295 24.4005 712.946C19.0511 707.597 10.3781 707.597 5.02869 712.946C-0.320695 718.295 -0.320696 726.968 5.02868 732.318C10.3781 737.667 19.0511 737.667 24.4005 732.318Z" fill="#CFCECE"/>
<path d="M24.3951 732.312C29.7414 726.966 29.7414 718.298 24.3951 712.952C19.0489 707.605 10.3809 707.605 5.03471 712.952C-0.311525 718.298 -0.311527 726.966 5.03471 732.312C10.3809 737.658 19.0489 737.658 24.3951 732.312Z" fill="#CECDCD"/>
<path d="M24.3906 732.307C29.7339 726.963 29.7339 718.3 24.3906 712.957C19.0474 707.614 10.3843 707.614 5.04103 712.957C-0.302226 718.3 -0.302229 726.963 5.04102 732.307C10.3843 737.65 19.0474 737.65 24.3906 732.307Z" fill="#CDCCCC"/>
<path d="M14.7162 736.305C22.2682 736.305 28.3904 730.183 28.3904 722.631C28.3904 715.079 22.2682 708.957 14.7162 708.957C7.16414 708.957 1.04199 715.079 1.04199 722.631C1.04199 730.183 7.16414 736.305 14.7162 736.305Z" fill="#CCCBCB"/>
<path d="M24.378 732.295C29.715 726.958 29.7149 718.305 24.378 712.968C19.041 707.631 10.3881 707.631 5.05113 712.968C-0.28584 718.305 -0.28584 726.958 5.05113 732.295C10.3881 737.632 19.041 737.632 24.378 732.295Z" fill="#CBCACA"/>
<path d="M24.3735 732.29C29.7075 726.956 29.7075 718.308 24.3735 712.974C19.0395 707.64 10.3914 707.64 5.05744 712.974C-0.276542 718.308 -0.276543 726.956 5.05744 732.29C10.3914 737.624 19.0395 737.624 24.3735 732.29Z" fill="#CAC9CA"/>
<path d="M24.3681 732.284C29.699 726.953 29.699 718.31 24.3681 712.98C19.0373 707.649 10.3943 707.649 5.06346 712.98C-0.267372 718.31 -0.267372 726.953 5.06346 732.284C10.3943 737.615 19.0373 737.615 24.3681 732.284Z" fill="#C9C8C9"/>
<path d="M24.3617 732.279C29.6895 726.951 29.6895 718.313 24.3617 712.985C19.0338 707.657 10.3957 707.657 5.06782 712.985C-0.260026 718.313 -0.260026 726.951 5.06782 732.279C10.3957 737.607 19.0338 737.607 24.3617 732.279Z" fill="#C8C7C8"/>
<path d="M24.3553 732.273C29.68 726.948 29.68 718.315 24.3553 712.991C19.0306 707.666 10.3976 707.666 5.07288 712.991C-0.251831 718.315 -0.251833 726.948 5.07287 732.273C10.3976 737.598 19.0306 737.598 24.3553 732.273Z" fill="#C7C6C7"/>
<path d="M24.3508 732.268C29.6726 726.946 29.6726 718.318 24.3508 712.996C19.0291 707.674 10.4009 707.674 5.07918 712.996C-0.242534 718.318 -0.242535 726.946 5.07918 732.268C10.4009 737.589 19.0291 737.589 24.3508 732.268Z" fill="#C7C6C6"/>
<path d="M24.3455 732.262C29.6641 726.943 29.6641 718.32 24.3455 713.002C19.0269 707.683 10.4038 707.683 5.08522 713.002C-0.233362 718.32 -0.233364 726.943 5.08521 732.262C10.4038 737.581 19.0269 737.581 24.3455 732.262Z" fill="#C6C5C5"/>
<path d="M24.3382 732.256C29.6536 726.941 29.6536 718.323 24.3382 713.007C19.0227 707.692 10.4047 707.692 5.08929 713.007C-0.226145 718.323 -0.226146 726.941 5.08929 732.256C10.4047 737.572 19.0227 737.572 24.3382 732.256Z" fill="#C5C4C4"/>
<path d="M24.3337 732.251C29.6461 726.938 29.6461 718.325 24.3337 713.013C19.0212 707.7 10.408 707.7 5.0956 713.013C-0.216848 718.325 -0.216849 726.938 5.0956 732.251C10.408 737.563 19.0212 737.563 24.3337 732.251Z" fill="#C4C3C3"/>
<path d="M24.3293 732.245C29.6386 726.936 29.6386 718.328 24.3293 713.018C19.02 707.709 10.4119 707.709 5.1026 713.018C-0.206701 718.328 -0.206701 726.936 5.1026 732.245C10.4119 737.554 19.02 737.554 24.3293 732.245Z" fill="#C3C2C2"/>
<path d="M24.3239 732.239C29.6301 726.933 29.6301 718.33 24.3239 713.024C19.0178 707.718 10.4148 707.718 5.10863 713.024C-0.197529 718.33 -0.19753 726.933 5.10863 732.239C10.4148 737.546 19.0178 737.546 24.3239 732.239Z" fill="#C2C1C1"/>
<path d="M24.3194 732.234C29.6226 726.931 29.6226 718.333 24.3194 713.03C19.0163 707.726 10.4181 707.726 5.11494 713.03C-0.188231 718.333 -0.188232 726.931 5.11494 732.234C10.4181 737.537 19.0163 737.537 24.3194 732.234Z" fill="#C1C0C0"/>
<path d="M24.3112 732.228C29.6112 726.928 29.6112 718.335 24.3112 713.035C19.0111 707.735 10.4181 707.735 5.11804 713.035C-0.18199 718.335 -0.181991 726.928 5.11804 732.228C10.4181 737.528 19.0111 737.528 24.3112 732.228Z" fill="#C0BFBF"/>
<path d="M14.7143 736.196C22.2055 736.196 28.2783 730.123 28.2783 722.632C28.2783 715.141 22.2055 709.068 14.7143 709.068C7.22317 709.068 1.15039 715.141 1.15039 722.632C1.15039 730.123 7.22317 736.196 14.7143 736.196Z" fill="#BFBEBE"/>
<path d="M24.3003 732.217C29.5942 726.923 29.5942 718.34 24.3003 713.046C19.0064 707.752 10.4233 707.752 5.1294 713.046C-0.164498 718.34 -0.164499 726.923 5.1294 732.217C10.4233 737.511 19.0064 737.511 24.3003 732.217Z" fill="#BEBDBD"/>
<path d="M24.2939 732.212C29.5848 726.921 29.5848 718.343 24.2939 713.052C19.0029 707.761 10.4247 707.761 5.13376 713.052C-0.157155 718.343 -0.157156 726.921 5.13376 732.212C10.4247 737.503 19.0029 737.503 24.2939 732.212Z" fill="#BDBCBC"/>
<path d="M14.715 736.173C22.193 736.173 28.2552 730.111 28.2552 722.633C28.2552 715.155 22.193 709.093 14.715 709.093C7.23695 709.093 1.1748 715.155 1.1748 722.633C1.1748 730.111 7.23695 736.173 14.715 736.173Z" fill="#BCBBBB"/>
<path d="M24.2841 732.201C29.5688 726.916 29.5688 718.348 24.2841 713.063C18.9995 707.779 10.4314 707.779 5.14679 713.063C-0.137837 718.348 -0.137837 726.916 5.14679 732.201C10.4314 737.485 18.9995 737.485 24.2841 732.201Z" fill="#BBBABA"/>
<path d="M24.2796 732.195C29.5613 726.913 29.5613 718.35 24.2796 713.069C18.998 707.787 10.4347 707.787 5.15311 713.069C-0.128537 718.35 -0.128539 726.913 5.1531 732.195C10.4347 737.477 18.998 737.477 24.2796 732.195Z" fill="#BAB9B9"/>
<path d="M24.2743 732.189C29.5528 726.911 29.5528 718.353 24.2743 713.074C18.9958 707.796 10.4376 707.796 5.15913 713.074C-0.119367 718.353 -0.119368 726.911 5.15913 732.189C10.4376 737.468 18.9958 737.468 24.2743 732.189Z" fill="#B9B7B8"/>
<path d="M14.7139 736.141C22.1746 736.141 28.2227 730.093 28.2227 722.632C28.2227 715.172 22.1746 709.124 14.7139 709.124C7.25317 709.124 1.20508 715.172 1.20508 722.632C1.20508 730.093 7.25317 736.141 14.7139 736.141Z" fill="#B8B6B7"/>
<path d="M24.2615 732.178C29.5339 726.906 29.5339 718.358 24.2615 713.085C18.9891 707.813 10.4409 707.813 5.16854 713.085C-0.103828 718.358 -0.103829 726.906 5.16854 732.178C10.4409 737.451 18.9891 737.451 24.2615 732.178Z" fill="#B7B5B6"/>
<path d="M24.2552 732.173C29.5244 726.903 29.5244 718.36 24.2552 713.091C18.9859 707.822 10.4428 707.822 5.17359 713.091C-0.0956341 718.36 -0.0956352 726.903 5.17359 732.173C10.4428 737.442 18.9859 737.442 24.2552 732.173Z" fill="#B6B4B5"/>
<path d="M24.2497 732.167C29.5159 726.901 29.5159 718.363 24.2497 713.096C18.9834 707.83 10.4452 707.83 5.17893 713.096C-0.0873129 718.363 -0.0873139 726.901 5.17893 732.167C10.4452 737.433 18.9834 737.433 24.2497 732.167Z" fill="#B5B3B4"/>
<path d="M24.2453 732.162C29.5084 726.898 29.5084 718.365 24.2453 713.102C18.9822 707.839 10.449 707.839 5.18593 713.102C-0.0771659 718.365 -0.0771659 726.898 5.18593 732.162C10.449 737.425 18.9822 737.425 24.2453 732.162Z" fill="#B4B2B3"/>
<path d="M24.2398 732.156C29.4999 726.896 29.4999 718.368 24.2398 713.108C18.9797 707.847 10.4514 707.847 5.19127 713.108C-0.068845 718.368 -0.0688443 726.896 5.19127 732.156C10.4514 737.416 18.9797 737.416 24.2398 732.156Z" fill="#B2B1B1"/>
<path d="M24.2345 732.15C29.4914 726.893 29.4914 718.37 24.2345 713.113C18.9775 707.856 10.4543 707.856 5.1973 713.113C-0.0596726 718.37 -0.0596739 726.893 5.19729 732.15C10.4543 737.407 18.9775 737.407 24.2345 732.15Z" fill="#B1B0B0"/>
<path d="M24.23 732.145C29.4839 726.891 29.4839 718.373 24.23 713.119C18.976 707.865 10.4576 707.865 5.20361 713.119C-0.0503754 718.373 -0.0503771 726.891 5.20361 732.145C10.4576 737.399 18.976 737.399 24.23 732.145Z" fill="#B0AFAF"/>
<path d="M24.2217 732.139C29.4725 726.888 29.4725 718.375 24.2217 713.124C18.9708 707.874 10.4575 707.874 5.20671 713.124C-0.0441341 718.375 -0.0441357 726.888 5.2067 732.139C10.4575 737.39 18.9708 737.39 24.2217 732.139Z" fill="#AFAEAE"/>
<path d="M24.2163 732.134C29.464 726.886 29.464 718.378 24.2163 713.13C18.9686 707.882 10.4604 707.882 5.21273 713.13C-0.0349643 718.378 -0.0349654 726.886 5.21273 732.134C10.4604 737.381 18.9686 737.381 24.2163 732.134Z" fill="#AEADAD"/>
<path d="M24.2108 732.128C29.4555 726.884 29.4555 718.38 24.2108 713.135C18.9661 707.891 10.4628 707.891 5.21807 713.135C-0.0266434 718.38 -0.0266448 726.884 5.21806 732.128C10.4628 737.373 18.9661 737.373 24.2108 732.128Z" fill="#ADACAC"/>
<path d="M24.2055 732.123C29.4471 726.881 29.4471 718.383 24.2055 713.141C18.9639 707.9 10.4657 707.9 5.22409 713.141C-0.0174724 718.383 -0.0174724 726.881 5.22409 732.123C10.4657 737.364 18.9639 737.364 24.2055 732.123Z" fill="#ACABAB"/>
<path d="M24.2001 732.117C29.4386 726.878 29.4385 718.385 24.2001 713.147C18.9617 707.908 10.4685 707.908 5.23012 713.147C-0.00830062 718.385 -0.00830231 726.878 5.23012 732.117C10.4685 737.355 18.9617 737.355 24.2001 732.117Z" fill="#ABA9AA"/>
<path d="M24.1946 732.111C29.4301 726.876 29.4301 718.388 24.1946 713.152C18.9592 707.917 10.4709 707.917 5.23546 713.152C2.03106e-05 718.388 1.89619e-05 726.876 5.23546 732.111C10.4709 737.347 18.9592 737.347 24.1946 732.111Z" fill="#AAA8A9"/>
<path d="M24.1893 732.106C29.4216 726.873 29.4216 718.39 24.1893 713.158C18.957 707.926 10.4738 707.926 5.24148 713.158C0.00919103 718.39 0.00918934 726.873 5.24148 732.106C10.4738 737.338 18.957 737.338 24.1893 732.106Z" fill="#A9A7A8"/>
<path d="M24.1848 732.1C29.4141 726.871 29.4141 718.393 24.1848 713.163C18.9555 707.934 10.4771 707.934 5.2478 713.163C0.0184895 718.393 0.0184872 726.871 5.24779 732.1C10.4771 737.33 18.9555 737.33 24.1848 732.1Z" fill="#A8A6A6"/>
<path d="M24.1775 732.095C29.4036 726.868 29.4036 718.395 24.1775 713.169C18.9513 707.943 10.478 707.943 5.25187 713.169C0.0257061 718.395 0.0257048 726.868 5.25187 732.095C10.478 737.321 18.9513 737.321 24.1775 732.095Z" fill="#A7A5A5"/>
<path d="M14.7146 736.007C22.1013 736.007 28.0894 730.019 28.0894 722.633C28.0894 715.246 22.1013 709.258 14.7146 709.258C7.32794 709.258 1.33984 715.246 1.33984 722.633C1.33984 730.019 7.32794 736.007 14.7146 736.007Z" fill="#A5A4A4"/>
<path d="M24.1657 732.084C29.3857 726.864 29.3857 718.4 24.1657 713.18C18.9456 707.96 10.4823 707.96 5.26226 713.18C0.0422216 718.4 0.0422205 726.864 5.26225 732.084C10.4823 737.304 18.9456 737.304 24.1657 732.084Z" fill="#A4A3A3"/>
<path d="M24.1603 732.078C29.3772 726.861 29.3772 718.403 24.1603 713.186C18.9434 707.969 10.4852 707.969 5.26828 713.186C0.0513926 718.403 0.0513919 726.861 5.26828 732.078C10.4852 737.295 18.9434 737.295 24.1603 732.078Z" fill="#A3A2A2"/>
<path d="M24.1558 732.072C29.3697 726.859 29.3697 718.405 24.1558 713.191C18.9419 707.977 10.4885 707.977 5.27459 713.191C0.0606898 718.405 0.0606898 726.859 5.27459 732.072C10.4885 737.286 18.9419 737.286 24.1558 732.072Z" fill="#A2A0A1"/>
<path d="M24.1495 732.067C29.3602 726.856 29.3602 718.408 24.1495 713.197C18.9387 707.986 10.4904 707.986 5.27965 713.197C0.0688853 718.408 0.0688833 726.856 5.27965 732.067C10.4904 737.278 18.9387 737.278 24.1495 732.067Z" fill="#A19FA0"/>
<path d="M24.145 732.061C29.3528 726.854 29.3528 718.41 24.145 713.202C18.9372 707.995 10.4937 707.995 5.28596 713.202C0.0781828 718.41 0.0781808 726.854 5.28596 732.061C10.4937 737.269 18.9372 737.269 24.145 732.061Z" fill="#A09E9E"/>
<path d="M24.1396 732.056C29.3443 726.851 29.3443 718.413 24.1396 713.208C18.935 708.003 10.4966 708.003 5.29199 713.208C0.0873538 718.413 0.0873518 726.851 5.29198 732.056C10.4966 737.26 18.935 737.26 24.1396 732.056Z" fill="#9F9D9D"/>
<path d="M24.1333 732.05C29.3348 726.848 29.3348 718.415 24.1333 713.214C18.9318 708.012 10.4985 708.012 5.29704 713.214C0.0955483 718.415 0.095547 726.848 5.29704 732.05C10.4985 737.251 18.9318 737.251 24.1333 732.05Z" fill="#9D9C9C"/>
<path d="M24.1288 732.045C29.3273 726.846 29.3273 718.418 24.1288 713.219C18.9303 708.021 10.5019 708.021 5.30335 713.219C0.104845 718.418 0.104845 726.846 5.30335 732.045C10.5019 737.243 18.9303 737.243 24.1288 732.045Z" fill="#9C9B9B"/>
<path d="M24.1234 732.039C29.3188 726.844 29.3188 718.42 24.1234 713.225C18.9281 708.029 10.5047 708.029 5.30938 713.225C0.114016 718.42 0.114016 726.844 5.30938 732.039C10.5047 737.234 18.9281 737.234 24.1234 732.039Z" fill="#9B999A"/>
<path d="M24.116 732.033C29.3084 726.841 29.3084 718.423 24.116 713.23C18.9236 708.038 10.5051 708.038 5.31276 713.23C0.120383 718.423 0.120383 726.841 5.31276 732.033C10.5051 737.226 18.9236 737.226 24.116 732.033Z" fill="#9A9899"/>
<path d="M24.1097 732.028C29.2989 726.839 29.2989 718.425 24.1097 713.236C18.9204 708.047 10.507 708.047 5.31781 713.236C0.128579 718.425 0.128578 726.839 5.31781 732.028C10.507 737.217 18.9204 737.217 24.1097 732.028Z" fill="#999797"/>
<path d="M24.1053 732.022C29.2914 726.836 29.2914 718.428 24.1053 713.242C18.9192 708.056 10.5109 708.056 5.32481 713.242C0.138725 718.428 0.138724 726.836 5.32481 732.022C10.5109 737.208 18.9192 737.208 24.1053 732.022Z" fill="#989696"/>
<path d="M24.1008 732.017C29.2839 726.834 29.2839 718.43 24.1008 713.247C18.9177 708.064 10.5142 708.064 5.33113 713.247C0.148025 718.43 0.148022 726.834 5.33112 732.017C10.5142 737.2 18.9177 737.2 24.1008 732.017Z" fill="#969595"/>
<path d="M24.0945 732.011C29.2744 726.831 29.2744 718.433 24.0945 713.253C18.9145 708.073 10.5161 708.073 5.33617 713.253C0.156217 718.433 0.156216 726.831 5.33617 732.011C10.5161 737.191 18.9145 737.191 24.0945 732.011Z" fill="#959394"/>
<path d="M24.089 732.006C29.266 726.829 29.266 718.435 24.089 713.258C18.912 708.081 10.5185 708.081 5.34151 713.258C0.164539 718.435 0.164538 726.829 5.34151 732.006C10.5185 737.183 18.912 737.183 24.089 732.006Z" fill="#949293"/>
<path d="M24.0836 732C29.2575 726.826 29.2575 718.438 24.0836 713.264C18.9098 708.09 10.5214 708.09 5.34754 713.264C0.173709 718.438 0.17371 726.826 5.34754 732C10.5214 737.174 18.9098 737.174 24.0836 732Z" fill="#939191"/>
<path d="M24.0791 731.994C29.25 726.824 29.25 718.44 24.0791 713.269C18.9083 708.098 10.5247 708.098 5.35385 713.269C0.183008 718.44 0.183008 726.824 5.35385 731.994C10.5247 737.165 18.9083 737.165 24.0791 731.994Z" fill="#929090"/>
<path d="M24.0738 731.989C29.2415 726.821 29.2415 718.443 24.0738 713.275C18.9061 708.107 10.5276 708.107 5.35988 713.275C0.192179 718.443 0.192177 726.821 5.35988 731.989C10.5276 737.156 18.9061 737.156 24.0738 731.989Z" fill="#908E8F"/>
<path d="M24.0655 731.983C29.23 726.819 29.23 718.445 24.0655 713.281C18.9009 708.116 10.5275 708.116 5.36298 713.281C0.198419 718.445 0.198418 726.819 5.36297 731.983C10.5275 737.148 18.9009 737.148 24.0655 731.983Z" fill="#8F8D8E"/>
<path d="M24.06 731.978C29.2216 726.816 29.2216 718.448 24.06 713.286C18.8984 708.124 10.5299 708.124 5.36831 713.286C0.206741 718.448 0.206739 726.816 5.36831 731.978C10.5299 737.139 18.8984 737.139 24.06 731.978Z" fill="#8E8C8D"/>
<path d="M14.7148 735.841C22.01 735.841 27.9238 729.927 27.9238 722.632C27.9238 715.337 22.01 709.423 14.7148 709.423C7.41972 709.423 1.50586 715.337 1.50586 722.632C1.50586 729.927 7.41972 735.841 14.7148 735.841Z" fill="#8D8B8B"/>
<path d="M24.0492 731.967C29.2046 726.811 29.2046 718.453 24.0492 713.297C18.8937 708.142 10.5351 708.142 5.37967 713.297C0.224233 718.453 0.224231 726.811 5.37967 731.967C10.5351 737.122 18.8937 737.122 24.0492 731.967Z" fill="#8C8A8A"/>
<path d="M24.0448 731.961C29.1971 726.809 29.1971 718.455 24.0448 713.303C18.8925 708.15 10.539 708.15 5.38668 713.303C0.23438 718.455 0.234379 726.809 5.38668 731.961C10.539 737.113 18.8925 737.113 24.0448 731.961Z" fill="#8A8889"/>
<path d="M24.0385 731.955C29.1876 726.806 29.1876 718.458 24.0385 713.308C18.8893 708.159 10.5409 708.159 5.39173 713.308C0.242573 718.458 0.242573 726.806 5.39173 731.955C10.5409 737.104 18.8893 737.104 24.0385 731.955Z" fill="#898788"/>
<path d="M24.034 731.95C29.1801 726.804 29.1801 718.46 24.034 713.314C18.8878 708.168 10.5442 708.168 5.39804 713.314C0.251871 718.46 0.251872 726.804 5.39804 731.95C10.5442 737.096 18.8878 737.096 24.034 731.95Z" fill="#888686"/>
<path d="M24.0286 731.944C29.1716 726.801 29.1716 718.463 24.0286 713.32C18.8856 708.177 10.5471 708.177 5.40407 713.32C0.261043 718.463 0.261042 726.801 5.40407 731.944C10.5471 737.087 18.8856 737.087 24.0286 731.944Z" fill="#878485"/>
<path d="M24.0212 731.939C29.1612 726.799 29.1612 718.465 24.0212 713.325C18.8811 708.185 10.5475 708.185 5.40745 713.325C0.267411 718.465 0.26741 726.799 5.40745 731.939C10.5475 737.079 18.8811 737.079 24.0212 731.939Z" fill="#858384"/>
<path d="M24.0168 731.933C29.1537 726.796 29.1537 718.468 24.0168 713.331C18.8799 708.194 10.5513 708.194 5.41445 713.331C0.277559 718.468 0.277557 726.796 5.41445 731.933C10.5513 737.07 18.8799 737.07 24.0168 731.933Z" fill="#848282"/>
<path d="M24.0114 731.927C29.1452 726.794 29.1452 718.47 24.0114 713.336C18.8777 708.203 10.5542 708.203 5.42048 713.336C0.286729 718.47 0.286729 726.794 5.42048 731.927C10.5542 737.061 18.8777 737.061 24.0114 731.927Z" fill="#838181"/>
<path d="M24.005 731.922C29.1358 726.791 29.1358 718.473 24.005 713.342C18.8742 708.211 10.5556 708.211 5.42484 713.342C0.294075 718.473 0.294073 726.791 5.42484 731.922C10.5556 737.053 18.8742 737.053 24.005 731.922Z" fill="#827F80"/>
<path d="M23.9996 731.916C29.1273 726.789 29.1273 718.475 23.9996 713.347C18.872 708.22 10.5585 708.22 5.43087 713.347C0.303245 718.475 0.303245 726.789 5.43087 731.916C10.5585 737.044 18.872 737.044 23.9996 731.916Z" fill="#807E7F"/>
<path d="M23.9942 731.911C29.1188 726.786 29.1188 718.477 23.9942 713.353C18.8695 708.228 10.5608 708.228 5.4362 713.353C0.311566 718.477 0.311566 726.786 5.4362 731.911C10.5608 737.035 18.8695 737.035 23.9942 731.911Z" fill="#7F7D7D"/>
<path d="M14.715 735.747C21.9579 735.747 27.8294 729.876 27.8294 722.633C27.8294 715.39 21.9579 709.519 14.715 709.519C7.4721 709.519 1.60059 715.39 1.60059 722.633C1.60059 729.876 7.4721 735.747 14.715 735.747Z" fill="#7E7B7C"/>
<path d="M23.9814 731.9C29.0999 726.781 29.0999 718.482 23.9814 713.364C18.8629 708.245 10.5641 708.245 5.44561 713.364C0.327106 718.482 0.327105 726.781 5.44561 731.9C10.5641 737.018 18.8629 737.018 23.9814 731.9Z" fill="#7D7A7B"/>
<path d="M23.978 731.894C29.0933 726.779 29.0933 718.485 23.978 713.37C18.8626 708.254 10.569 708.254 5.45359 713.37C0.338229 718.485 0.338227 726.779 5.45359 731.894C10.569 737.009 18.8626 737.009 23.978 731.894Z" fill="#7B7979"/>
<path d="M23.9726 731.888C29.0848 726.776 29.0848 718.488 23.9726 713.375C18.8604 708.263 10.5718 708.263 5.45962 713.375C0.3474 718.488 0.347397 726.776 5.45962 731.888C10.5718 737.001 18.8604 737.001 23.9726 731.888Z" fill="#7A7878"/>
<path d="M23.9652 731.883C29.0744 726.774 29.0744 718.49 23.9652 713.381C18.8559 708.272 10.5722 708.272 5.463 713.381C0.353767 718.49 0.353767 726.774 5.463 731.883C10.5722 736.992 18.8559 736.992 23.9652 731.883Z" fill="#797677"/>
<path d="M14.7156 735.709C21.9367 735.709 27.7906 729.855 27.7906 722.634C27.7906 715.412 21.9367 709.559 14.7156 709.559C7.49449 709.559 1.64062 715.412 1.64062 722.634C1.64062 729.855 7.49449 735.709 14.7156 735.709Z" fill="#777576"/>
<path d="M23.9553 731.872C29.0584 726.769 29.0584 718.495 23.9553 713.392C18.8522 708.289 10.5784 708.289 5.47534 713.392C0.372235 718.495 0.372236 726.769 5.47534 731.872C10.5784 736.975 18.8522 736.975 23.9553 731.872Z" fill="#767474"/>
<path d="M23.949 731.866C29.0489 726.766 29.0489 718.497 23.949 713.398C18.849 708.298 10.5803 708.298 5.48039 713.398C0.380429 718.498 0.380429 726.766 5.48039 731.866C10.5803 736.966 18.849 736.966 23.949 731.866Z" fill="#757273"/>
<path d="M14.7153 735.683C21.9233 735.683 27.7665 729.84 27.7665 722.632C27.7665 715.424 21.9233 709.581 14.7153 709.581C7.50729 709.581 1.66406 715.424 1.66406 722.632C1.66406 729.84 7.50729 735.683 14.7153 735.683Z" fill="#737172"/>
<path d="M14.7145 735.676C21.9182 735.676 27.758 729.836 27.758 722.632C27.758 715.429 21.9182 709.589 14.7145 709.589C7.5107 709.589 1.6709 715.429 1.6709 722.632C1.6709 729.836 7.5107 735.676 14.7145 735.676Z" fill="#727070"/>
<path d="M23.9328 731.849C29.0235 726.759 29.0235 718.505 23.9328 713.414C18.8421 708.324 10.5885 708.324 5.49778 713.414C0.407093 718.505 0.407091 726.759 5.49778 731.849C10.5885 736.94 18.8421 736.94 23.9328 731.849Z" fill="#716E6F"/>
<path d="M23.9283 731.844C29.016 726.756 29.016 718.507 23.9283 713.42C18.8406 708.332 10.5918 708.332 5.5041 713.42C0.416392 718.507 0.41639 726.756 5.50409 731.844C10.5918 736.932 18.8406 736.932 23.9283 731.844Z" fill="#6F6D6E"/>
<path d="M23.9229 731.838C29.0075 726.754 29.0075 718.51 23.9229 713.425C18.8384 708.341 10.5947 708.341 5.51012 713.425C0.425562 718.51 0.425561 726.754 5.51012 731.838C10.5947 736.923 18.8384 736.923 23.9229 731.838Z" fill="#6E6C6C"/>
<path d="M23.9147 731.833C28.9961 726.751 28.9961 718.513 23.9147 713.431C18.8332 708.35 10.5946 708.35 5.51322 713.431C0.431802 718.513 0.431802 726.751 5.51322 731.833C10.5946 736.914 18.8332 736.914 23.9147 731.833Z" fill="#6D6A6B"/>
<path d="M23.9102 731.827C28.9886 726.749 28.9886 718.515 23.9102 713.437C18.8317 708.358 10.598 708.358 5.51953 713.437C0.4411 718.515 0.4411 726.749 5.51953 731.827C10.598 736.906 18.8317 736.906 23.9102 731.827Z" fill="#6B6969"/>
<path d="M23.9048 731.821C28.9801 726.746 28.9801 718.518 23.9048 713.442C18.8295 708.367 10.6008 708.367 5.52556 713.442C0.450272 718.518 0.45027 726.746 5.52556 731.821C10.6008 736.897 18.8295 736.897 23.9048 731.821Z" fill="#6A6768"/>
<path d="M23.8993 731.816C28.9716 726.744 28.9716 718.52 23.8993 713.448C18.827 708.375 10.6032 708.375 5.53089 713.448C0.458593 718.52 0.458592 726.744 5.53089 731.816C10.6032 736.888 18.827 736.888 23.8993 731.816Z" fill="#696667"/>
<path d="M23.894 731.81C28.9631 726.741 28.9631 718.522 23.894 713.453C18.8248 708.384 10.6061 708.384 5.53692 713.453C0.467763 718.522 0.467762 726.741 5.53692 731.81C10.6061 736.88 18.8248 736.88 23.894 731.81Z" fill="#676565"/>
<path d="M23.8885 731.805C28.9547 726.739 28.9547 718.525 23.8885 713.459C18.8223 708.393 10.6084 708.393 5.54226 713.459C0.476086 718.525 0.476084 726.739 5.54226 731.805C10.6084 736.871 18.8223 736.871 23.8885 731.805Z" fill="#666364"/>
<path d="M23.8831 731.799C28.9462 726.736 28.9462 718.527 23.8831 713.464C18.8201 708.401 10.6113 708.401 5.54828 713.464C0.485255 718.527 0.485255 726.736 5.54828 731.799C10.6113 736.862 18.8201 736.862 23.8831 731.799Z" fill="#656263"/>
<path d="M23.8778 731.794C28.9377 726.734 28.9377 718.53 23.8778 713.47C18.8179 708.41 10.6142 708.41 5.55431 713.47C0.494425 718.53 0.494426 726.734 5.55431 731.794C10.6142 736.853 18.8179 736.853 23.8778 731.794Z" fill="#636161"/>
<path d="M23.8703 731.788C28.9272 726.731 28.9272 718.532 23.8703 713.476C18.8134 708.419 10.6146 708.419 5.55769 713.476C0.500794 718.532 0.500794 726.731 5.55769 731.788C10.6146 736.845 18.8134 736.845 23.8703 731.788Z" fill="#625F60"/>
<path d="M23.865 731.782C28.9187 726.729 28.9187 718.535 23.865 713.481C18.8112 708.427 10.6175 708.427 5.56372 713.481C0.509966 718.535 0.509964 726.729 5.56372 731.782C10.6175 736.836 18.8112 736.836 23.865 731.782Z" fill="#615E5E"/>
<path d="M23.8595 731.777C28.9103 726.726 28.9103 718.537 23.8595 713.487C18.8087 708.436 10.6198 708.436 5.56906 713.487C0.518287 718.537 0.518285 726.726 5.56905 731.777C10.6198 736.828 18.8087 736.828 23.8595 731.777Z" fill="#5F5C5D"/>
<path d="M23.8542 731.771C28.9018 726.724 28.9018 718.54 23.8542 713.492C18.8065 708.445 10.6227 708.445 5.57508 713.492C0.527458 718.54 0.527457 726.724 5.57508 731.771C10.6227 736.819 18.8065 736.819 23.8542 731.771Z" fill="#5E5B5C"/>
<path d="M23.8488 731.766C28.8933 726.721 28.8933 718.542 23.8488 713.498C18.8043 708.454 10.6256 708.454 5.58111 713.498C0.536627 718.542 0.536626 726.721 5.58111 731.766C10.6256 736.81 18.8043 736.81 23.8488 731.766Z" fill="#5C595A"/>
<path d="M14.7152 735.542C21.845 735.542 27.6248 729.762 27.6248 722.633C27.6248 715.503 21.845 709.723 14.7152 709.723C7.58547 709.723 1.80566 715.503 1.80566 722.633C1.80566 729.762 7.58547 735.542 14.7152 735.542Z" fill="#5B5859"/>
<path d="M23.838 731.755C28.8763 726.716 28.8763 718.547 23.838 713.509C18.7996 708.471 10.6308 708.471 5.59247 713.509C0.554119 718.547 0.554119 726.716 5.59247 731.755C10.6308 736.793 18.7996 736.793 23.838 731.755Z" fill="#5A5757"/>
<path d="M23.8335 731.749C28.8688 726.714 28.8688 718.55 23.8335 713.514C18.7981 708.479 10.6342 708.479 5.59879 713.514C0.563418 718.55 0.563417 726.714 5.59878 731.749C10.6342 736.785 18.7981 736.785 23.8335 731.749Z" fill="#585556"/>
<path d="M23.8281 731.743C28.8603 726.711 28.8603 718.552 23.8281 713.52C18.7959 708.488 10.637 708.488 5.60481 713.52C0.572587 718.552 0.572587 726.711 5.60481 731.743C10.637 736.776 18.7959 736.776 23.8281 731.743Z" fill="#575455"/>
<path d="M23.8208 731.738C28.8499 726.709 28.8499 718.555 23.8208 713.526C18.7917 708.497 10.638 708.497 5.60889 713.526C0.579806 718.555 0.579805 726.709 5.60889 731.738C10.638 736.767 18.7917 736.767 23.8208 731.738Z" fill="#555253"/>
<path d="M23.8163 731.732C28.8424 726.706 28.8424 718.557 23.8163 713.531C18.7902 708.505 10.6413 708.505 5.6152 713.531C0.589104 718.557 0.589103 726.706 5.6152 731.732C10.6413 736.758 18.7902 736.758 23.8163 731.732Z" fill="#545152"/>
<path d="M23.8109 731.727C28.8339 726.704 28.8339 718.56 23.8109 713.537C18.788 708.514 10.6442 708.514 5.62123 713.537C0.598275 718.56 0.598273 726.704 5.62122 731.727C10.6442 736.75 18.788 736.75 23.8109 731.727Z" fill="#534F50"/>
<path d="M23.8045 731.721C28.8245 726.701 28.8245 718.562 23.8045 713.542C18.7845 708.522 10.6456 708.522 5.62559 713.542C0.605621 718.562 0.605618 726.701 5.62558 731.721C10.6456 736.741 18.7845 736.741 23.8045 731.721Z" fill="#514E4F"/>
<path d="M23.7991 731.716C28.816 726.699 28.816 718.565 23.7991 713.548C18.7823 708.531 10.6484 708.531 5.63161 713.548C0.61479 718.565 0.614789 726.699 5.63161 731.716C10.6484 736.732 18.7823 736.732 23.7991 731.716Z" fill="#504D4D"/>
<path d="M23.7928 731.71C28.8065 726.696 28.8065 718.567 23.7928 713.554C18.7791 708.54 10.6503 708.54 5.63666 713.554C0.622984 718.567 0.622984 726.696 5.63666 731.71C10.6503 736.724 18.7791 736.724 23.7928 731.71Z" fill="#4E4B4C"/>
<path d="M23.7883 731.704C28.799 726.694 28.799 718.57 23.7883 713.559C18.7776 708.548 10.6537 708.548 5.64297 713.559C0.632282 718.57 0.632282 726.694 5.64297 731.704C10.6537 736.715 18.7776 736.715 23.7883 731.704Z" fill="#4D4A4A"/>
<path d="M23.7829 731.699C28.7905 726.691 28.7905 718.572 23.7829 713.565C18.7754 708.557 10.6566 708.557 5.649 713.565C0.641454 718.572 0.641452 726.691 5.649 731.699C10.6566 736.706 18.7754 736.706 23.7829 731.699Z" fill="#4B4849"/>
<path d="M23.7765 731.693C28.7811 726.689 28.7811 718.575 23.7765 713.57C18.7719 708.566 10.6579 708.566 5.65336 713.57C0.648799 718.575 0.648797 726.689 5.65336 731.693C10.6579 736.698 18.7719 736.698 23.7765 731.693Z" fill="#4A4748"/>
<path d="M23.7711 731.688C28.7726 726.686 28.7726 718.577 23.7711 713.576C18.7697 708.575 10.6608 708.575 5.65939 713.576C0.65797 718.577 0.657968 726.686 5.65939 731.688C10.6608 736.689 18.7697 736.689 23.7711 731.688Z" fill="#494546"/>
<path d="M23.7647 731.682C28.7631 726.684 28.7631 718.58 23.7647 713.581C18.7662 708.583 10.6622 708.583 5.66375 713.581C0.665314 718.58 0.665312 726.684 5.66375 731.682C10.6622 736.681 18.7662 736.681 23.7647 731.682Z" fill="#474445"/>
<path d="M23.7593 731.677C28.7546 726.681 28.7546 718.582 23.7593 713.587C18.764 708.592 10.6651 708.592 5.66977 713.587C0.674484 718.582 0.674483 726.681 5.66977 731.677C10.6651 736.672 18.764 736.672 23.7593 731.677Z" fill="#464243"/>
<path d="M23.754 731.671C28.7461 726.679 28.7461 718.585 23.754 713.593C18.7618 708.601 10.6679 708.601 5.6758 713.593C0.683654 718.585 0.683653 726.679 5.6758 731.671C10.6679 736.663 18.7618 736.663 23.754 731.671Z" fill="#444142"/>
<path d="M14.716 735.409C21.7717 735.409 27.4915 729.689 27.4915 722.633C27.4915 715.578 21.7717 709.858 14.716 709.858C7.66024 709.858 1.94043 715.578 1.94043 722.633C1.94043 729.689 7.66024 735.409 14.716 735.409Z" fill="#433F40"/>
<path d="M23.7441 731.66C28.7301 726.674 28.7301 718.59 23.7441 713.604C18.7581 708.618 10.6742 708.618 5.68814 713.604C0.702123 718.59 0.702123 726.674 5.68814 731.66C10.6742 736.646 18.7581 736.646 23.7441 731.66Z" fill="#413E3F"/>
<path d="M23.7378 731.654C28.7207 726.671 28.7206 718.592 23.7378 713.61C18.7549 708.627 10.6761 708.627 5.69319 713.61C0.710317 718.592 0.710316 726.671 5.69319 731.654C10.6761 736.637 18.7549 736.637 23.7378 731.654Z" fill="#403C3D"/>
<path d="M23.7313 731.649C28.7112 726.669 28.7112 718.595 23.7313 713.615C18.7514 708.635 10.6774 708.635 5.69755 713.615C0.717663 718.595 0.717661 726.669 5.69755 731.649C10.6774 736.629 18.7514 736.629 23.7313 731.649Z" fill="#3E3B3C"/>
<path d="M14.7154 735.375C21.7536 735.375 27.4592 729.669 27.4592 722.631C27.4592 715.593 21.7536 709.887 14.7154 709.887C7.67725 709.887 1.97168 715.593 1.97168 722.631C1.97168 729.669 7.67725 735.375 14.7154 735.375Z" fill="#3D393A"/>
<path d="M23.7215 731.638C28.6952 726.664 28.6952 718.6 23.7215 713.626C18.7477 708.652 10.6836 708.652 5.70989 713.626C0.736131 718.6 0.736129 726.664 5.70989 731.638C10.6836 736.611 18.7477 736.611 23.7215 731.638Z" fill="#3B3839"/>
<path d="M23.7142 731.632C28.6848 726.661 28.6848 718.602 23.7142 713.632C18.7435 708.661 10.6846 708.661 5.71396 713.632C0.743348 718.602 0.743347 726.661 5.71396 731.632C10.6846 736.603 18.7435 736.603 23.7142 731.632Z" fill="#3A3637"/>
<path d="M23.7097 731.627C28.6773 726.659 28.6773 718.605 23.7097 713.637C18.742 708.67 10.6879 708.67 5.72028 713.637C0.752646 718.605 0.752645 726.659 5.72027 731.627C10.6879 736.594 18.742 736.594 23.7097 731.627Z" fill="#383536"/>
<path d="M23.7053 731.621C28.6698 726.656 28.6698 718.607 23.7053 713.643C18.7408 708.678 10.6918 708.678 5.72728 713.643C0.762793 718.607 0.762793 726.656 5.72728 731.621C10.6918 736.585 18.7408 736.585 23.7053 731.621Z" fill="#373334"/>
<path d="M23.698 731.615C28.6593 726.654 28.6593 718.61 23.698 713.649C18.7366 708.687 10.6927 708.687 5.73135 713.649C0.770012 718.61 0.77001 726.654 5.73135 731.615C10.6927 736.576 18.7366 736.576 23.698 731.615Z" fill="#353233"/>
<path d="M23.6935 731.61C28.6518 726.651 28.6518 718.612 23.6935 713.654C18.7351 708.696 10.696 708.696 5.73767 713.654C0.779309 718.612 0.779308 726.651 5.73766 731.61C10.696 736.568 18.7351 736.568 23.6935 731.61Z" fill="#343031"/>
<path d="M23.6862 731.604C28.6414 726.649 28.6414 718.615 23.6862 713.66C18.7309 708.704 10.697 708.704 5.74174 713.66C0.786527 718.615 0.786525 726.649 5.74174 731.604C10.697 736.559 18.7309 736.559 23.6862 731.604Z" fill="#322F30"/>
<path d="M23.6817 731.599C28.6339 726.646 28.6339 718.617 23.6817 713.665C18.7294 708.713 10.7003 708.713 5.74805 713.665C0.795825 718.617 0.795824 726.646 5.74805 731.599C10.7003 736.551 18.7294 736.551 23.6817 731.599Z" fill="#312D2E"/>
<path d="M23.6763 731.593C28.6254 726.644 28.6254 718.62 23.6763 713.671C18.7272 708.722 10.7032 708.722 5.75408 713.671C0.804994 718.62 0.804993 726.644 5.75408 731.593C10.7032 736.542 18.7272 736.542 23.6763 731.593Z" fill="#2F2C2C"/>
<path d="M23.6698 731.588C28.6159 726.641 28.6159 718.622 23.6698 713.676C18.7237 708.73 10.7045 708.73 5.75844 713.676C0.81234 718.622 0.812339 726.641 5.75844 731.588C10.7045 736.534 18.7237 736.534 23.6698 731.588Z" fill="#2E2A2B"/>
<path d="M23.6655 731.582C28.6084 726.639 28.6084 718.625 23.6655 713.682C18.7225 708.739 10.7084 708.739 5.76544 713.682C0.822487 718.625 0.822487 726.639 5.76544 731.582C10.7084 736.525 18.7225 736.525 23.6655 731.582Z" fill="#2C2829"/>
<path d="M23.6582 731.576C28.598 726.636 28.598 718.627 23.6582 713.688C18.7183 708.748 10.7093 708.748 5.76952 713.688C0.829705 718.627 0.829704 726.636 5.76952 731.576C10.7093 736.516 18.7183 736.516 23.6582 731.576Z" fill="#2B2728"/>
<path d="M23.6556 731.571C28.5924 726.634 28.5924 718.63 23.6556 713.693C18.7188 708.756 10.7146 708.756 5.77778 713.693C0.840957 718.63 0.840956 726.634 5.77778 731.571C10.7146 736.508 18.7188 736.508 23.6556 731.571Z" fill="#292526"/>
<path d="M23.6483 731.565C28.582 726.631 28.582 718.632 23.6483 713.699C18.7146 708.765 10.7155 708.765 5.78185 713.699C0.848173 718.632 0.848171 726.631 5.78185 731.565C10.7155 736.499 18.7146 736.499 23.6483 731.565Z" fill="#282425"/>
<path d="M23.6429 731.559C28.5735 726.629 28.5735 718.635 23.6429 713.704C18.7124 708.774 10.7184 708.774 5.78788 713.704C0.857345 718.635 0.857344 726.629 5.78788 731.559C10.7184 736.49 18.7124 736.49 23.6429 731.559Z" fill="#262223"/>
<path d="M23.6384 731.554C28.566 726.626 28.566 718.637 23.6384 713.71C18.7109 708.782 10.7217 708.782 5.79419 713.71C0.866642 718.637 0.866641 726.626 5.79419 731.554C10.7217 736.482 18.7109 736.482 23.6384 731.554Z" fill="#252122"/>
<path d="M14.7162 735.241C21.6804 735.241 27.3259 729.595 27.3259 722.631C27.3259 715.667 21.6804 710.021 14.7162 710.021C7.75202 710.021 2.10645 715.667 2.10645 722.631C2.10645 729.595 7.75202 735.241 14.7162 735.241Z" fill="#231F20"/>
</g>
</g>
<path d="M27.3824 722.382C27.4099 729.541 21.6265 735.367 14.4694 735.395C7.3124 735.422 1.48456 729.641 1.45907 722.482C1.43358 715.323 7.21085 709.497 14.3687 709.469C21.5266 709.442 27.3548 715.223 27.3824 722.382Z" fill="white"/>
<path d="M14.43 717.009L9.11766 721.259C9.07513 721.293 9.04082 721.336 9.01724 721.385C8.99366 721.434 8.98141 721.488 8.98145 721.543V728.316C8.98145 728.412 9.01971 728.505 9.08783 728.573C9.15595 728.641 9.24838 728.679 9.34471 728.679H12.5766C12.673 728.679 12.7653 728.641 12.8335 728.573C12.9016 728.505 12.9398 728.412 12.9398 728.316V725.437C12.9398 725.341 12.9781 725.249 13.0462 725.18C13.1144 725.112 13.2067 725.074 13.3031 725.074H16.0109C16.1073 725.074 16.1997 725.112 16.2678 725.18C16.3359 725.249 16.3742 725.341 16.3742 725.437V728.316C16.3742 728.412 16.4124 728.505 16.4806 728.573C16.5487 728.641 16.6411 728.679 16.7374 728.679H19.9693C20.017 728.679 20.0643 728.67 20.1083 728.652C20.1524 728.633 20.1924 728.607 20.2262 728.573C20.2599 728.539 20.2866 728.499 20.3049 728.455C20.3232 728.411 20.3325 728.364 20.3325 728.316V721.543C20.3326 721.489 20.3204 721.435 20.2968 721.386C20.2732 721.337 20.2389 721.293 20.1963 721.259L14.884 717.01C14.8197 716.958 14.7396 716.93 14.6571 716.93C14.5746 716.93 14.4945 716.958 14.43 717.009Z" fill="#2668BE"/>
</g>
</g>
</g>
<defs>
<linearGradient id="paint0_linear_776_23905" x1="14.3502" y1="746.886" x2="14.1832" y2="703.394" gradientUnits="userSpaceOnUse">
<stop offset="0.39" stop-color="white"/>
<stop offset="0.84"/>
</linearGradient>
<clipPath id="clip0_776_23905">
<rect width="631.138" height="519" fill="white" transform="translate(-102.069)"/>
</clipPath>
<clipPath id="clip1_776_23905">
<rect width="622.512" height="622.512" fill="white" transform="translate(-83.3799 -92.0107)"/>
</clipPath>
<clipPath id="clip2_776_23905">
<rect width="754.797" height="533" fill="white" transform="translate(-177.898 357)"/>
</clipPath>
<clipPath id="clip3_776_23905">
<rect width="744.481" height="744.481" fill="white" transform="translate(-155.547 159.274)"/>
</clipPath>
</defs>
</svg>
