<svg width="88" height="87" viewBox="0 0 88 87" fill="none" xmlns="http://www.w3.org/2000/svg">
<rect width="49.2" height="40.2" transform="translate(19.75 20.4)" fill="black" fill-opacity="0.29"/>
<path d="M80.9913 41.1806H87.45C86.3663 19.1602 68.8107 1.4745 46.877 0.130737V6.63283C65.2562 7.93325 79.9076 22.758 80.9913 41.1806Z" fill="#072433"/>
<path d="M41.4145 6.5895V0.0874023C19.4808 1.47452 1.96845 19.1602 0.884766 41.1373H7.34351C8.42719 22.758 23.0352 7.97661 41.4145 6.5895Z" fill="#072433"/>
<path d="M44.274 57.1757C45.4231 57.1757 46.3547 56.2442 46.3547 55.0951C46.3547 53.9459 45.4231 53.0144 44.274 53.0144C43.1249 53.0144 42.1934 53.9459 42.1934 55.0951C42.1934 56.2442 43.1249 57.1757 44.274 57.1757Z" fill="#072433"/>
<path d="M44.1016 44.4316C49.5359 44.4316 53.9414 40.0262 53.9414 34.5918C53.9414 29.1574 49.5359 24.752 44.1016 24.752C38.6672 24.752 34.2617 29.1574 34.2617 34.5918C34.2617 40.0262 38.6672 44.4316 44.1016 44.4316Z" fill="#BBE7FF"/>
<path d="M66.0352 18.1199H22.4712C19.6103 18.1199 17.2695 20.4606 17.2695 23.3215V57.9127C17.2695 60.7736 19.6103 63.1143 22.4712 63.1143H34.6951L33.9971 67.716L38.553 66.7122L39.0299 63.1143H49.5199L49.8259 67.7436L49.9967 68.6611L52.3809 68.3501C53.2763 68.2333 53.9238 67.4363 53.8546 66.5359V63.1143H66.0786C69.0262 62.941 71.2802 60.7736 71.2802 57.9127V23.3215C71.2369 20.4606 68.8961 18.1199 66.0352 18.1199ZM66.5554 54.9651C66.5554 56.8723 64.9949 58.4328 63.0876 58.4328H24.6819C22.7746 58.4328 21.2141 56.8723 21.2141 54.9651V51.2372H66.5987V54.9651H66.5554ZM66.5554 46.9458H21.2141V25.7923C21.2141 23.8851 22.7746 22.3246 24.6819 22.3246H63.0876C64.9949 22.3246 66.5554 23.8851 66.5554 25.7923V46.9458Z" fill="#072433"/>
<path d="M49.1288 32.8146H45.8344V29.6936H42.3667V32.8146H39.0723V36.3691H42.3667V39.4901H45.8344V36.3691H49.1288V32.8146Z" fill="#072433"/>
<path d="M87.1313 47.1694C86.2421 58.0511 81.2807 68.1968 73.2381 75.5804C65.1954 82.964 54.6635 87.0419 43.7456 86.9997C32.8277 86.9575 22.3276 82.7984 14.3422 75.3529C6.35684 67.9074 1.47399 57.7237 0.668851 46.8355L7.15128 46.3561C7.83573 55.6121 11.9866 64.2693 18.775 70.5987C25.5633 76.9281 34.4895 80.4638 43.7707 80.4996C53.0519 80.5355 62.0051 77.0688 68.8422 70.7921C75.6792 64.5154 79.8969 55.8905 80.6528 46.64L87.1313 47.1694Z" fill="#072433"/>
<path d="M21.625 73.2078C21.625 73.2078 30.4678 70.0435 34.3691 67.3993C34.3691 67.3993 36.5365 65.5354 39.5708 66.7491C39.6575 66.7924 39.7442 66.7924 39.7875 66.8358C42.9519 68.2229 47.2866 66.0122 47.2866 66.0122C47.2866 66.0122 50.9278 65.5354 50.6243 67.7027C50.3209 69.8701 45.7261 73.5979 39.7875 73.2078C39.7875 73.2078 39.478 74.5824 42.1656 74.7992C44.7906 75.4992 49.0205 77.9327 59.1204 68.6997C59.1204 68.6997 61.1144 66.4023 62.935 67.616C64.7556 68.8297 62.1114 71.8207 62.1114 71.8207C62.1114 71.8207 54.1788 82.6575 43.2119 82.8309C32.2451 83.0043 21.625 73.2078 21.625 73.2078Z" fill="#072433"/>
</svg>
