<svg width="138" height="109" viewBox="0 0 138 109" fill="none" xmlns="http://www.w3.org/2000/svg">
<path d="M99.0991 42.2351L98.5469 43.1917" stroke="#263238" stroke-width="0.205739" stroke-miterlimit="10" stroke-linecap="round" stroke-linejoin="round"/>
<path d="M104.896 32.1948L99.7334 41.1368" stroke="#263238" stroke-width="0.205739" stroke-miterlimit="10" stroke-linecap="round" stroke-linejoin="round"/>
<path d="M109.635 23.9858L105.724 30.7612" stroke="#263238" stroke-width="0.205739" stroke-miterlimit="10" stroke-linecap="round" stroke-linejoin="round"/>
<path d="M110.461 22.5544L110.046 23.2743" stroke="#263238" stroke-width="0.205739" stroke-miterlimit="10" stroke-linecap="round" stroke-linejoin="round"/>
<path d="M100.742 66.6083L100.273 67.4205" stroke="#263238" stroke-width="0.205739" stroke-miterlimit="10" stroke-linecap="round" stroke-linejoin="round"/>
<path d="M101.829 64.7261L101.331 65.5891" stroke="#263238" stroke-width="0.205739" stroke-miterlimit="10" stroke-linecap="round" stroke-linejoin="round"/>
<path d="M108.453 53.2522L102.891 62.8868" stroke="#263238" stroke-width="0.205739" stroke-miterlimit="10" stroke-linecap="round" stroke-linejoin="round"/>
<path d="M113.378 44.7231L109.022 52.2677" stroke="#263238" stroke-width="0.205739" stroke-miterlimit="10" stroke-linecap="round" stroke-linejoin="round"/>
<path d="M114.455 42.8569L114.023 43.6039" stroke="#263238" stroke-width="0.205739" stroke-miterlimit="10" stroke-linecap="round" stroke-linejoin="round"/>
<path d="M106.903 60.4707L102.891 67.4203" stroke="#263238" stroke-width="0.205739" stroke-miterlimit="10" stroke-linecap="round" stroke-linejoin="round"/>
<path d="M112.031 51.5869L107.487 59.4577" stroke="#263238" stroke-width="0.205739" stroke-miterlimit="10" stroke-linecap="round" stroke-linejoin="round"/>
<path d="M113.098 49.7402L112.562 50.6688" stroke="#263238" stroke-width="0.205739" stroke-miterlimit="10" stroke-linecap="round" stroke-linejoin="round"/>
<path d="M98.5469 49.4254L97.9365 50.4829" stroke="#263238" stroke-width="0.205739" stroke-miterlimit="10" stroke-linecap="round" stroke-linejoin="round"/>
<path d="M103.876 40.1951L99.0342 48.5815" stroke="#263238" stroke-width="0.205739" stroke-miterlimit="10" stroke-linecap="round" stroke-linejoin="round"/>
<path d="M110.527 28.6743L104.447 39.2049" stroke="#263238" stroke-width="0.205739" stroke-miterlimit="10" stroke-linecap="round" stroke-linejoin="round"/>
<path d="M114.525 21.7517L110.997 27.8616" stroke="#263238" stroke-width="0.205739" stroke-miterlimit="10" stroke-linecap="round" stroke-linejoin="round"/>
<path d="M20.2749 42.2351L19.7227 43.1917" stroke="#263238" stroke-width="0.205739" stroke-miterlimit="10" stroke-linecap="round" stroke-linejoin="round"/>
<path d="M26.0719 32.1948L20.9092 41.1368" stroke="#263238" stroke-width="0.205739" stroke-miterlimit="10" stroke-linecap="round" stroke-linejoin="round"/>
<path d="M30.8112 23.9858L26.8994 30.7612" stroke="#263238" stroke-width="0.205739" stroke-miterlimit="10" stroke-linecap="round" stroke-linejoin="round"/>
<path d="M31.637 22.5544L31.2217 23.2743" stroke="#263238" stroke-width="0.205739" stroke-miterlimit="10" stroke-linecap="round" stroke-linejoin="round"/>
<path d="M21.918 66.6082L21.4492 67.4204" stroke="#263238" stroke-width="0.205739" stroke-miterlimit="10" stroke-linecap="round" stroke-linejoin="round"/>
<path d="M23.0053 64.726L22.5068 65.589" stroke="#263238" stroke-width="0.205739" stroke-miterlimit="10" stroke-linecap="round" stroke-linejoin="round"/>
<path d="M29.6288 53.2521L24.0664 62.8867" stroke="#263238" stroke-width="0.205739" stroke-miterlimit="10" stroke-linecap="round" stroke-linejoin="round"/>
<path d="M34.5539 44.723L30.1982 52.2676" stroke="#263238" stroke-width="0.205739" stroke-miterlimit="10" stroke-linecap="round" stroke-linejoin="round"/>
<path d="M35.6304 42.8568L35.1992 43.6038" stroke="#263238" stroke-width="0.205739" stroke-miterlimit="10" stroke-linecap="round" stroke-linejoin="round"/>
<path d="M28.0786 60.4707L24.0664 67.4203" stroke="#263238" stroke-width="0.205739" stroke-miterlimit="10" stroke-linecap="round" stroke-linejoin="round"/>
<path d="M33.2072 51.5869L28.6631 59.4577" stroke="#263238" stroke-width="0.205739" stroke-miterlimit="10" stroke-linecap="round" stroke-linejoin="round"/>
<path d="M34.2733 49.7402L33.7373 50.6688" stroke="#263238" stroke-width="0.205739" stroke-miterlimit="10" stroke-linecap="round" stroke-linejoin="round"/>
<path d="M19.7227 49.4254L19.1123 50.4829" stroke="#263238" stroke-width="0.205739" stroke-miterlimit="10" stroke-linecap="round" stroke-linejoin="round"/>
<path d="M25.052 40.1951L20.21 48.5815" stroke="#263238" stroke-width="0.205739" stroke-miterlimit="10" stroke-linecap="round" stroke-linejoin="round"/>
<path d="M31.7031 28.6743L25.623 39.2049" stroke="#263238" stroke-width="0.205739" stroke-miterlimit="10" stroke-linecap="round" stroke-linejoin="round"/>
<path d="M35.7006 21.7517L32.1729 27.8616" stroke="#263238" stroke-width="0.205739" stroke-miterlimit="10" stroke-linecap="round" stroke-linejoin="round"/>
<path d="M7.00293 96.1929H127.978" stroke="#263238" stroke-width="0.274319" stroke-linecap="round" stroke-linejoin="round"/>
<path d="M49.0278 74.4622H46.9287V81.5983H49.0278V74.4622Z" fill="#326FEA"/>
<path opacity="0.2" d="M49.0278 74.4622H46.9287V81.5983H49.0278V74.4622Z" fill="black"/>
<path d="M51.1264 75.2466H49.0273V81.5982H51.1264V75.2466Z" fill="#326FEA"/>
<path d="M53.7485 75.2467H52.2666V81.5983H53.7485V75.2467Z" fill="#326FEA"/>
<path opacity="0.9" d="M53.7485 75.2467H52.2666V81.5983H53.7485V75.2467Z" fill="white"/>
<path d="M52.2669 74.5759H50.9238V81.5979H52.2669V74.5759Z" fill="#326FEA"/>
<path opacity="0.1" d="M52.2669 74.5759H50.9238V81.5979H52.2669V74.5759Z" fill="black"/>
<path d="M55.8471 74.4622H53.748V81.5983H55.8471V74.4622Z" fill="#326FEA"/>
<path d="M57.9467 75.2467H55.8477V81.5983H57.9467V75.2467Z" fill="#326FEA"/>
<path opacity="0.2" d="M57.9467 75.2467H55.8477V81.5983H57.9467V75.2467Z" fill="#263238"/>
<path d="M60.5688 75.2466H59.0869V81.5982H60.5688V75.2466Z" fill="#326FEA"/>
<path opacity="0.8" d="M60.5688 75.2466H59.0869V81.5982H60.5688V75.2466Z" fill="white"/>
<path d="M59.0862 74.5759H57.7432V81.5979H59.0862V74.5759Z" fill="#326FEA"/>
<path opacity="0.1" d="M59.0862 74.5759H57.7432V81.5979H59.0862V74.5759Z" fill="black"/>
<path d="M70.5786 81.5975H72.6777V74.4614H70.5786V81.5975Z" fill="#326FEA"/>
<path opacity="0.2" d="M70.5786 81.5975H72.6777V74.4614H70.5786V81.5975Z" fill="black"/>
<path d="M68.48 81.5975H70.5791V75.246H68.48V81.5975Z" fill="#326FEA"/>
<path d="M65.858 81.5975H67.3398V75.246H65.858V81.5975Z" fill="#326FEA"/>
<path opacity="0.9" d="M65.858 81.5975H67.3398V75.246H65.858V81.5975Z" fill="white"/>
<path d="M67.3405 81.5979H68.6836V74.5759H67.3405V81.5979Z" fill="#326FEA"/>
<path opacity="0.1" d="M67.3405 81.5979H68.6836V74.5759H67.3405V81.5979Z" fill="black"/>
<path d="M63.7593 81.5975H65.8584V74.4614H63.7593V81.5975Z" fill="#326FEA"/>
<path d="M61.6597 81.5975H63.7588V75.246H61.6597V81.5975Z" fill="#326FEA"/>
<path opacity="0.2" d="M61.6597 81.5975H63.7588V75.246H61.6597V81.5975Z" fill="#263238"/>
<path d="M60.5202 81.5979H61.8633V74.5759H60.5202V81.5979Z" fill="#326FEA"/>
<path opacity="0.1" d="M60.5202 81.5979H61.8633V74.5759H60.5202V81.5979Z" fill="black"/>
<path d="M82.6773 81.5975H84.7764V74.4614H82.6773V81.5975Z" fill="#326FEA"/>
<path opacity="0.2" d="M82.6773 81.5975H84.7764V74.4614H82.6773V81.5975Z" fill="black"/>
<path d="M80.5786 81.598H82.6777V75.2464H80.5786V81.598Z" fill="#326FEA"/>
<path d="M77.9556 81.5975H79.4375V75.246H77.9556V81.5975Z" fill="#326FEA"/>
<path opacity="0.9" d="M77.9556 81.5975H79.4375V75.246H77.9556V81.5975Z" fill="white"/>
<path d="M79.4382 81.5979H80.7812V74.5759H79.4382V81.5979Z" fill="#326FEA"/>
<path opacity="0.1" d="M79.4382 81.5979H80.7812V74.5759H79.4382V81.5979Z" fill="black"/>
<path d="M75.857 81.5975H77.9561V74.4614H75.857V81.5975Z" fill="#326FEA"/>
<path d="M86.6288 81.663L88 81.2957L86.1532 74.4029L84.782 74.7703L86.6288 81.663Z" fill="#326FEA"/>
<path d="M73.7574 81.5975H75.8564V75.246H73.7574V81.5975Z" fill="#326FEA"/>
<path opacity="0.2" d="M73.7574 81.5975H75.8564V75.246H73.7574V81.5975Z" fill="#263238"/>
<path d="M72.6179 81.5978H73.9609V74.5758H72.6179V81.5978Z" fill="#326FEA"/>
<path opacity="0.1" d="M72.6179 81.5978H73.9609V74.5758H72.6179V81.5978Z" fill="black"/>
<path d="M86.8505 90.869L88.2588 90.4917L86.412 83.5992L85.0037 83.9765L86.8505 90.869Z" fill="#326FEA"/>
<path opacity="0.2" d="M86.8505 90.869L88.2588 90.4917L86.412 83.5992L85.0037 83.9765L86.8505 90.869Z" fill="black"/>
<path d="M83.2232 90.7993H85.3223V84.4477H83.2232V90.7993Z" fill="#326FEA"/>
<path d="M80.6021 90.7993H82.084V84.4477H80.6021V90.7993Z" fill="#326FEA"/>
<path opacity="0.9" d="M80.6021 90.7993H82.084V84.4477H80.6021V90.7993Z" fill="white"/>
<path d="M82.0837 90.799H83.4268V83.7769H82.0837V90.799Z" fill="#326FEA"/>
<path opacity="0.1" d="M82.0837 90.799H83.4268V83.7769H82.0837V90.799Z" fill="black"/>
<path d="M78.5025 90.7998H80.6016V83.6637H78.5025V90.7998Z" fill="#326FEA"/>
<path d="M76.4038 90.7988H78.5029V84.4472H76.4038V90.7988Z" fill="#326FEA"/>
<path opacity="0.2" d="M76.4038 90.7988H78.5029V84.4472H76.4038V90.7988Z" fill="#263238"/>
<path d="M73.7818 90.7991H75.2637V84.4475H73.7818V90.7991Z" fill="#326FEA"/>
<path opacity="0.8" d="M73.7818 90.7991H75.2637V84.4475H73.7818V90.7991Z" fill="white"/>
<path d="M75.2634 90.7992H76.6064V83.7772H75.2634V90.7992Z" fill="#326FEA"/>
<path opacity="0.1" d="M75.2634 90.7992H76.6064V83.7772H75.2634V90.7992Z" fill="black"/>
<path d="M63.77 83.6639H61.6709V90.8001H63.77V83.6639Z" fill="#326FEA"/>
<path opacity="0.2" d="M63.77 83.6639H61.6709V90.8001H63.77V83.6639Z" fill="black"/>
<path d="M65.8686 84.4481H63.7695V90.7997H65.8686V84.4481Z" fill="#326FEA"/>
<path d="M68.4907 84.4481H67.0088V90.7997H68.4907V84.4481Z" fill="#326FEA"/>
<path opacity="0.9" d="M68.4907 84.4481H67.0088V90.7997H68.4907V84.4481Z" fill="white"/>
<path d="M67.0091 83.7781H65.666V90.8001H67.0091V83.7781Z" fill="#326FEA"/>
<path opacity="0.1" d="M67.0091 83.7781H65.666V90.8001H67.0091V83.7781Z" fill="black"/>
<path d="M70.5903 83.6639H68.4912V90.8001H70.5903V83.6639Z" fill="#326FEA"/>
<path d="M72.6889 84.4481H70.5898V90.7997H72.6889V84.4481Z" fill="#326FEA"/>
<path opacity="0.2" d="M72.6889 84.4481H70.5898V90.7997H72.6889V84.4481Z" fill="#263238"/>
<path d="M73.8294 83.778H72.4863V90.8H73.8294V83.778Z" fill="#326FEA"/>
<path opacity="0.1" d="M73.8294 83.778H72.4863V90.8H73.8294V83.778Z" fill="black"/>
<path d="M51.6723 83.6638H49.5732V90.7999H51.6723V83.6638Z" fill="#326FEA"/>
<path opacity="0.2" d="M51.6723 83.6638H49.5732V90.7999H51.6723V83.6638Z" fill="black"/>
<path d="M53.7719 84.448H51.6729V90.7996H53.7719V84.448Z" fill="#326FEA"/>
<path d="M56.394 84.448H54.9121V90.7996H56.394V84.448Z" fill="#326FEA"/>
<path opacity="0.9" d="M56.394 84.448H54.9121V90.7996H56.394V84.448Z" fill="white"/>
<path d="M54.9114 83.7781H53.5684V90.8001H54.9114V83.7781Z" fill="#326FEA"/>
<path opacity="0.1" d="M54.9114 83.7781H53.5684V90.8001H54.9114V83.7781Z" fill="black"/>
<path d="M58.4926 83.6639H56.3936V90.8001H58.4926V83.6639Z" fill="#326FEA"/>
<path d="M49.5714 83.9653L48.2002 83.5979L46.3534 90.4904L47.7246 90.8578L49.5714 83.9653Z" fill="#326FEA"/>
<path d="M60.5923 84.448H58.4932V90.7996H60.5923V84.448Z" fill="#326FEA"/>
<path opacity="0.2" d="M60.5923 84.448H58.4932V90.7996H60.5923V84.448Z" fill="#263238"/>
<path d="M61.7317 83.7781H60.3887V90.8001H61.7317V83.7781Z" fill="#326FEA"/>
<path opacity="0.1" d="M61.7317 83.7781H60.3887V90.8001H61.7317V83.7781Z" fill="black"/>
<path d="M48.5404 96.1931H46.4416L46.1533 92.1329H48.8285L48.5404 96.1931Z" fill="#263238"/>
<path d="M88.5395 96.1931H86.4404L86.1523 92.1329H88.8275L88.5395 96.1931Z" fill="#263238"/>
<path d="M90.8505 71.7666H44.1302C43.5733 71.7666 43.1221 72.2181 43.1221 72.7747V91.861C43.1221 92.4176 43.5733 92.8691 44.1302 92.8691H90.8505C91.4071 92.8691 91.8587 92.4176 91.8587 91.861V72.7747C91.8587 72.2181 91.4071 71.7666 90.8505 71.7666ZM89.8424 73.7828V81.5976H45.1383V73.7828H89.8424ZM45.1383 90.8529V83.0381H89.8424V90.8529H45.1383Z" fill="white" stroke="#263238" stroke-width="0.205739" stroke-linecap="round" stroke-linejoin="round"/>
<path d="M83.9434 42.3819H51.6144C50.5756 42.3819 49.7334 41.5397 49.7334 40.5009V33.5579C49.7334 32.519 50.5756 31.6769 51.6144 31.6769H83.9437C84.9825 31.6769 85.8247 32.519 85.8247 33.5579V40.5009C85.8247 41.5397 84.9823 42.3819 83.9434 42.3819Z" fill="#263238" stroke="#263238" stroke-width="0.274319" stroke-linecap="round" stroke-linejoin="round"/>
<path d="M83.3673 41.8057H51.0382C49.9994 41.8057 49.1572 40.9636 49.1572 39.9247V32.9817C49.1572 31.9429 49.9994 31.1007 51.0382 31.1007H83.3675C84.4064 31.1007 85.2485 31.9429 85.2485 32.9817V39.9247C85.2485 40.9636 84.4061 41.8057 83.3673 41.8057Z" fill="white" stroke="#263238" stroke-width="0.274319" stroke-linecap="round" stroke-linejoin="round"/>
<path d="M83.3673 41.8057H51.0382C49.9994 41.8057 49.1572 40.9636 49.1572 39.9247V32.9817C49.1572 31.9429 49.9994 31.1007 51.0382 31.1007H83.3675C84.4064 31.1007 85.2485 31.9429 85.2485 32.9817V39.9247C85.2485 40.9636 84.4061 41.8057 83.3673 41.8057Z" stroke="#263238" stroke-width="0.274319" stroke-linecap="round" stroke-linejoin="round"/>
<path d="M57.1481 39.6124H52.3955V33.5988H55.5639L57.1481 35.1832V39.6124Z" fill="#326FEA"/>
<mask id="mask0_1887_14401" style="mask-type:luminance" maskUnits="userSpaceOnUse" x="52" y="33" width="6" height="7">
<path d="M57.1481 39.6124H52.3955V33.5988H55.5639L57.1481 35.1832V39.6124Z" fill="white"/>
</mask>
<g mask="url(#mask0_1887_14401)">
<path opacity="0.5" d="M57.1481 39.6124H52.3955V33.5988H55.5639L57.1481 35.1832V39.6124Z" fill="white"/>
</g>
<path d="M57.1481 39.6124H52.3955V33.5988H55.5639L57.1481 35.1832V39.6124Z" stroke="#263238" stroke-width="0.274319" stroke-linecap="round" stroke-linejoin="round"/>
<path d="M55.5645 35.1832H57.1486L55.5645 33.5988V35.1832Z" fill="#326FEA" stroke="#263238" stroke-width="0.274319" stroke-linecap="round" stroke-linejoin="round"/>
<path d="M53.4515 36.7893C53.2858 36.7893 53.1514 36.6549 53.1514 36.4892C53.1514 36.3235 53.2858 36.1891 53.4515 36.1891H56.0918C56.2575 36.1891 56.3919 36.3235 56.3919 36.4892C56.3919 36.6549 56.2575 36.7893 56.0918 36.7893H53.4515Z" fill="#858585" stroke="#263238" stroke-width="0.205739" stroke-miterlimit="10" stroke-linecap="round" stroke-linejoin="round"/>
<path d="M53.4515 38.053C53.2858 38.053 53.1514 37.9186 53.1514 37.7529C53.1514 37.5872 53.2858 37.4528 53.4515 37.4528H55.5157C55.6814 37.4528 55.8158 37.5872 55.8158 37.7529C55.8158 37.9186 55.6814 38.053 55.5157 38.053H53.4515Z" fill="#858585" stroke="#263238" stroke-width="0.205739" stroke-miterlimit="10" stroke-linecap="round" stroke-linejoin="round"/>
<mask id="mask1_1887_14401" style="mask-type:luminance" maskUnits="userSpaceOnUse" x="59" y="37" width="24" height="2">
<path d="M60.32 38.376C59.9771 38.376 59.6992 38.0981 59.6992 37.7552C59.6992 37.4123 59.9771 37.1344 60.32 37.1344H81.3888C81.7317 37.1344 82.0096 37.4123 82.0096 37.7552C82.0096 38.0981 81.7317 38.376 81.3888 38.376H60.32Z" fill="white"/>
</mask>
<g mask="url(#mask1_1887_14401)">
<path d="M69.1334 35.9161H58.8262V39.6746H69.1334V35.9161Z" fill="#326FEA"/>
</g>
<path d="M60.32 38.376C59.9771 38.376 59.6992 38.0981 59.6992 37.7552C59.6992 37.4123 59.9771 37.1344 60.32 37.1344H81.3888C81.7317 37.1344 82.0096 37.4123 82.0096 37.7552C82.0096 38.0981 81.7317 38.376 81.3888 38.376H60.32Z" stroke="#263238" stroke-width="0.274319" stroke-linecap="round" stroke-linejoin="round"/>
<path d="M69.3667 35.4533H68.7012V35.1364L69.3351 33.6378H69.7153V35.1364H69.8802V35.4533H69.7153V35.8557H69.3667V35.4533ZM69.3667 35.1364V34.2715H69.3606L69.0183 35.1364H69.3667Z" fill="#263238"/>
<path d="M70.042 35.3294V35.1553H70.3717V35.355C70.3717 35.5135 70.4414 35.5706 70.5522 35.5706C70.663 35.5706 70.7327 35.5135 70.7327 35.355V34.8573C70.7327 34.6988 70.663 34.6387 70.5522 34.6387C70.4414 34.6387 70.3717 34.6988 70.3717 34.8573V34.8763H70.042L70.1054 33.6375H71.0243V33.9543H70.4159L70.3874 34.4835H70.3937C70.457 34.3789 70.5555 34.3219 70.6949 34.3219C70.9516 34.3219 71.0814 34.5026 71.0814 34.8288V35.3294C71.0814 35.6844 70.9042 35.8871 70.5615 35.8871C70.2195 35.8871 70.042 35.6844 70.042 35.3294Z" fill="#263238"/>
<path d="M71.2998 34.5151V33.9607C71.2998 33.7324 71.4172 33.6057 71.6358 33.6057C71.8545 33.6057 71.9719 33.7324 71.9719 33.9607V34.5151C71.9719 34.7433 71.8545 34.8701 71.6358 34.8701C71.4172 34.8701 71.2998 34.7433 71.2998 34.5151ZM71.7497 34.5313V33.945C71.7497 33.8468 71.7052 33.8057 71.6356 33.8057C71.5626 33.8057 71.5214 33.8468 71.5214 33.945V34.5313C71.5214 34.6295 71.5626 34.6706 71.6356 34.6706C71.7052 34.6706 71.7497 34.6292 71.7497 34.5313ZM72.4404 33.6375H72.6623L71.8037 35.8554H71.5818L72.4404 33.6375ZM72.2725 35.5325V34.9781C72.2725 34.7499 72.3899 34.6232 72.6086 34.6232C72.8272 34.6232 72.9446 34.7499 72.9446 34.9781V35.5325C72.9446 35.7605 72.8272 35.8875 72.6086 35.8875C72.3899 35.8875 72.2725 35.7605 72.2725 35.5325ZM72.7224 35.5482V34.9619C72.7224 34.8637 72.678 34.8226 72.6083 34.8226C72.5353 34.8226 72.4942 34.8637 72.4942 34.9619V35.5482C72.4942 35.6464 72.5353 35.6875 72.6083 35.6875C72.678 35.6875 72.7224 35.6466 72.7224 35.5482Z" fill="#263238"/>
<path d="M83.9434 54.8029H51.6144C50.5756 54.8029 49.7334 53.9608 49.7334 52.9219V45.9789C49.7334 44.9401 50.5756 44.0979 51.6144 44.0979H83.9437C84.9825 44.0979 85.8247 44.9401 85.8247 45.9789V52.9219C85.8247 53.9608 84.9823 54.8029 83.9434 54.8029Z" fill="#263238" stroke="#263238" stroke-width="0.274319" stroke-linecap="round" stroke-linejoin="round"/>
<path d="M83.3673 54.2269H51.0382C49.9994 54.2269 49.1572 53.3847 49.1572 52.3459V45.4029C49.1572 44.364 49.9994 43.5219 51.0382 43.5219H83.3675C84.4064 43.5219 85.2485 44.364 85.2485 45.4029V52.3459C85.2485 53.3847 84.4061 54.2269 83.3673 54.2269Z" fill="white" stroke="#263238" stroke-width="0.274319" stroke-linecap="round" stroke-linejoin="round"/>
<mask id="mask2_1887_14401" style="mask-type:luminance" maskUnits="userSpaceOnUse" x="59" y="49" width="24" height="2">
<path d="M60.32 50.7204C59.9771 50.7204 59.6992 50.4426 59.6992 50.0997C59.6992 49.7568 59.9771 49.4789 60.32 49.4789H81.3888C81.7317 49.4789 82.0096 49.7568 82.0096 50.0997C82.0096 50.4426 81.7317 50.7204 81.3888 50.7204H60.32Z" fill="white"/>
</mask>
<g mask="url(#mask2_1887_14401)">
<path d="M76.1801 48.8746H59.042V51.972H76.1801V48.8746Z" fill="#326FEA"/>
</g>
<path d="M60.32 50.7204C59.9771 50.7204 59.6992 50.4426 59.6992 50.0997C59.6992 49.7568 59.9771 49.4789 60.32 49.4789H81.3888C81.7317 49.4789 82.0096 49.7568 82.0096 50.0997C82.0096 50.4426 81.7317 50.7204 81.3888 50.7204H60.32Z" stroke="#263238" stroke-width="0.274319" stroke-linecap="round" stroke-linejoin="round"/>
<path d="M68.7422 47.6836V47.4872C68.7422 47.2749 68.8056 47.1196 68.9704 47.034V47.0277C68.8248 46.9484 68.7551 46.8091 68.7551 46.5905V46.4986C68.7551 46.1436 68.9482 45.9502 69.2873 45.9502C69.626 45.9502 69.8194 46.1436 69.8194 46.4986V46.5905C69.8194 46.8091 69.7465 46.9484 69.6038 47.0277V47.034C69.7687 47.1196 69.8321 47.2749 69.8321 47.4872V47.6836C69.8321 48.0386 69.6389 48.2317 69.2873 48.2317C68.9356 48.2317 68.7422 48.0386 68.7422 47.6836ZM69.4837 47.6647V47.4524C69.4837 47.2845 69.4173 47.2019 69.2873 47.2019C69.1572 47.2019 69.0906 47.2842 69.0906 47.4524V47.6647C69.0906 47.8326 69.1572 47.9149 69.2873 47.9149C69.4173 47.9149 69.4837 47.8326 69.4837 47.6647ZM69.4711 46.6634V46.4892C69.4711 46.3433 69.4077 46.2673 69.2873 46.2673C69.1668 46.2673 69.1035 46.3433 69.1035 46.4892V46.6634C69.1035 46.8091 69.1666 46.8853 69.2873 46.8853C69.4074 46.8851 69.4711 46.8091 69.4711 46.6634Z" fill="#263238"/>
<path d="M70.041 47.6741V47.4999H70.3707V47.6996C70.3707 47.8581 70.4404 47.9149 70.5512 47.9149C70.6621 47.9149 70.7318 47.8581 70.7318 47.6996V47.2019C70.7318 47.0434 70.6621 46.9833 70.5512 46.9833C70.4404 46.9833 70.3707 47.0434 70.3707 47.2019V47.2209H70.041L70.1044 45.9821H71.0233V46.2989H70.4149L70.3864 46.8281H70.3927C70.4561 46.7235 70.5545 46.6665 70.6939 46.6665C70.9507 46.6665 71.0804 46.8473 71.0804 47.1734V47.6741C71.0804 48.029 70.9032 48.2317 70.5606 48.2317C70.2185 48.2317 70.041 48.029 70.041 47.6741Z" fill="#263238"/>
<path d="M71.2988 46.8596V46.3052C71.2988 46.0769 71.4162 45.9502 71.6349 45.9502C71.8535 45.9502 71.9709 46.0769 71.9709 46.3052V46.8596C71.9709 47.0878 71.8535 47.2145 71.6349 47.2145C71.4162 47.2145 71.2988 47.0878 71.2988 46.8596ZM71.7487 46.8757V46.2895C71.7487 46.1913 71.7043 46.1502 71.6346 46.1502C71.5616 46.1502 71.5205 46.1913 71.5205 46.2895V46.8757C71.5205 46.974 71.5616 47.0151 71.6346 47.0151C71.7043 47.0151 71.7487 46.974 71.7487 46.8757ZM72.4394 45.982H72.6614L71.8028 48.1999H71.5808L72.4394 45.982ZM72.2716 47.877V47.3223C72.2716 47.0941 72.389 46.9676 72.6076 46.9676C72.8262 46.9676 72.9436 47.0944 72.9436 47.3223V47.877C72.9436 48.105 72.8262 48.2317 72.6076 48.2317C72.389 48.2317 72.2716 48.105 72.2716 47.877ZM72.7214 47.8929V47.3067C72.7214 47.2085 72.677 47.1673 72.6073 47.1673C72.5344 47.1673 72.4932 47.2085 72.4932 47.3067V47.8929C72.4932 47.9909 72.5344 48.0323 72.6073 48.0323C72.677 48.032 72.7214 47.9909 72.7214 47.8929Z" fill="#263238"/>
<path d="M57.1481 51.957H52.3955V45.9431H55.5639L57.1481 47.5273V51.957Z" fill="#326FEA"/>
<mask id="mask3_1887_14401" style="mask-type:luminance" maskUnits="userSpaceOnUse" x="52" y="45" width="6" height="7">
<path d="M57.1481 51.957H52.3955V45.9431H55.5639L57.1481 47.5273V51.957Z" fill="white"/>
</mask>
<g mask="url(#mask3_1887_14401)">
<path opacity="0.5" d="M57.1481 51.957H52.3955V45.9431H55.5639L57.1481 47.5273V51.957Z" fill="white" stroke="#263238" stroke-width="0.274319" stroke-linecap="round" stroke-linejoin="round"/>
</g>
<path d="M57.1481 51.957H52.3955V45.9431H55.5639L57.1481 47.5273V51.957Z" stroke="#263238" stroke-width="0.274319" stroke-linecap="round" stroke-linejoin="round"/>
<path d="M53.4515 49.1334C53.2858 49.1334 53.1514 48.999 53.1514 48.8333C53.1514 48.6676 53.2858 48.5332 53.4515 48.5332H56.0918C56.2575 48.5332 56.3919 48.6676 56.3919 48.8333C56.3919 48.999 56.2575 49.1334 56.0918 49.1334H53.4515Z" fill="#858585" stroke="#263238" stroke-width="0.205739" stroke-miterlimit="10" stroke-linecap="round" stroke-linejoin="round"/>
<path d="M53.4515 50.3971C53.2858 50.3971 53.1514 50.2627 53.1514 50.097C53.1514 49.9313 53.2858 49.7969 53.4515 49.7969H55.5157C55.6814 49.7969 55.8158 49.9313 55.8158 50.097C55.8158 50.2627 55.6814 50.3971 55.5157 50.3971H53.4515Z" fill="#858585" stroke="#263238" stroke-width="0.205739" stroke-miterlimit="10" stroke-linecap="round" stroke-linejoin="round"/>
<path d="M55.5645 47.5273H57.1486L55.5645 45.9431V47.5273Z" fill="#326FEA" stroke="#263238" stroke-width="0.274319" stroke-linecap="round" stroke-linejoin="round"/>
<path d="M83.9434 67.2247H51.6144C50.5756 67.2247 49.7334 66.3825 49.7334 65.3437V58.4007C49.7334 57.3618 50.5756 56.5197 51.6144 56.5197H83.9437C84.9825 56.5197 85.8247 57.3618 85.8247 58.4007V65.3437C85.8247 66.3825 84.9823 67.2247 83.9434 67.2247Z" fill="#263238" stroke="#263238" stroke-width="0.274319" stroke-linecap="round" stroke-linejoin="round"/>
<path d="M83.3673 66.6486H51.0382C49.9994 66.6486 49.1572 65.8065 49.1572 64.7676V57.8246C49.1572 56.7858 49.9994 55.9436 51.0382 55.9436H83.3675C84.4064 55.9436 85.2485 56.7858 85.2485 57.8246V64.7676C85.2485 65.8065 84.4061 66.6486 83.3673 66.6486Z" fill="white" stroke="#263238" stroke-width="0.274319" stroke-linecap="round" stroke-linejoin="round"/>
<mask id="mask4_1887_14401" style="mask-type:luminance" maskUnits="userSpaceOnUse" x="59" y="61" width="24" height="3">
<path d="M60.32 63.0663C59.9771 63.0663 59.6992 62.7884 59.6992 62.4455C59.6992 62.1026 59.9771 61.8247 60.32 61.8247H81.3888C81.7317 61.8247 82.0096 62.1026 82.0096 62.4455C82.0096 62.7884 81.7317 63.0663 81.3888 63.0663H60.32Z" fill="white"/>
</mask>
<g mask="url(#mask4_1887_14401)">
<path d="M74.7722 60.8793H58.6826V63.7684H74.7722V60.8793Z" fill="#326FEA"/>
</g>
<path d="M60.32 63.0663C59.9771 63.0663 59.6992 62.7884 59.6992 62.4455C59.6992 62.1026 59.9771 61.8247 60.32 61.8247H81.3888C81.7317 61.8247 82.0096 62.1026 82.0096 62.4455C82.0096 62.7884 81.7317 63.0663 81.3888 63.0663H60.32Z" stroke="#263238" stroke-width="0.274319" stroke-linecap="round" stroke-linejoin="round"/>
<path d="M69.4651 58.6447H68.7617V58.3279H69.8074V58.6321L69.2626 60.546H68.9077L69.4651 58.6447Z" fill="#263238"/>
<path d="M70.0254 60.0202V58.8541C70.0254 58.4991 70.2125 58.2964 70.5548 58.2964C70.8969 58.2964 71.084 58.4991 71.084 58.8541V60.0202C71.084 60.3749 70.8969 60.5776 70.5548 60.5776C70.2125 60.5776 70.0254 60.3749 70.0254 60.0202ZM70.7353 60.0422V58.8319C70.7353 58.6736 70.6657 58.6132 70.5548 58.6132C70.444 58.6132 70.374 58.6736 70.374 58.8319V60.0422C70.374 60.2007 70.444 60.2608 70.5548 60.2608C70.6657 60.2608 70.7353 60.2007 70.7353 60.0422Z" fill="#263238"/>
<path d="M71.2998 59.2058V58.6514C71.2998 58.4231 71.4172 58.2964 71.6358 58.2964C71.8545 58.2964 71.9719 58.4231 71.9719 58.6514V59.2058C71.9719 59.4337 71.8545 59.5604 71.6358 59.5604C71.4172 59.5604 71.2998 59.4337 71.2998 59.2058ZM71.7497 59.2214V58.6352C71.7497 58.537 71.7052 58.4955 71.6356 58.4955C71.5626 58.4955 71.5214 58.5367 71.5214 58.6352V59.2214C71.5214 59.3196 71.5626 59.3607 71.6356 59.3607C71.7052 59.3607 71.7497 59.3199 71.7497 59.2214ZM72.4404 58.3277H72.6623L71.8037 60.5458H71.5818L72.4404 58.3277ZM72.2725 60.2229V59.6685C72.2725 59.4403 72.3899 59.3136 72.6086 59.3136C72.8272 59.3136 72.9446 59.4403 72.9446 59.6685V60.2229C72.9446 60.4509 72.8272 60.5776 72.6086 60.5776C72.3899 60.5776 72.2725 60.4509 72.2725 60.2229ZM72.7224 60.2388V59.6523C72.7224 59.5541 72.678 59.513 72.6083 59.513C72.5353 59.513 72.4942 59.5541 72.4942 59.6523V60.2388C72.4942 60.3368 72.5353 60.3782 72.6083 60.3782C72.678 60.3779 72.7224 60.3368 72.7224 60.2388Z" fill="#263238"/>
<path d="M57.1481 64.3029H52.3955V58.2893H55.5639L57.1481 59.8735V64.3029Z" fill="#326FEA"/>
<mask id="mask5_1887_14401" style="mask-type:luminance" maskUnits="userSpaceOnUse" x="52" y="58" width="6" height="7">
<path d="M57.1481 64.3029H52.3955V58.2893H55.5639L57.1481 59.8735V64.3029Z" fill="white"/>
</mask>
<g mask="url(#mask5_1887_14401)">
<path opacity="0.5" d="M57.1481 64.3029H52.3955V58.2893H55.5639L57.1481 59.8735V64.3029Z" fill="white"/>
</g>
<path d="M57.1481 64.3029H52.3955V58.2893H55.5639L57.1481 59.8735V64.3029Z" stroke="#263238" stroke-width="0.274319" stroke-linecap="round" stroke-linejoin="round"/>
<path d="M53.4515 61.479C53.2858 61.479 53.1514 61.3446 53.1514 61.1789C53.1514 61.0132 53.2858 60.8788 53.4515 60.8788H56.0918C56.2575 60.8788 56.3919 61.0132 56.3919 61.1789C56.3919 61.3446 56.2575 61.479 56.0918 61.479H53.4515Z" fill="#858585" stroke="#263238" stroke-width="0.205739" stroke-miterlimit="10" stroke-linecap="round" stroke-linejoin="round"/>
<path d="M53.4515 62.7428C53.2858 62.7428 53.1514 62.6084 53.1514 62.4427C53.1514 62.277 53.2858 62.1426 53.4515 62.1426H55.5157C55.6814 62.1426 55.8158 62.277 55.8158 62.4427C55.8158 62.6084 55.6814 62.7428 55.5157 62.7428H53.4515Z" fill="#858585" stroke="#263238" stroke-width="0.205739" stroke-miterlimit="10" stroke-linecap="round" stroke-linejoin="round"/>
<path d="M55.5645 59.8735H57.1486L55.5645 58.2893V59.8735Z" fill="#326FEA" stroke="#263238" stroke-width="0.274319" stroke-linecap="round" stroke-linejoin="round"/>
<path d="M88.3649 28.4185H47.1935C46.1547 28.4185 45.3125 27.5763 45.3125 26.5375V16.9717C45.3125 15.9329 46.1547 15.0907 47.1935 15.0907H88.3649C89.4038 15.0907 90.2459 15.9329 90.2459 16.9717V26.5375C90.2459 27.5763 89.4038 28.4185 88.3649 28.4185Z" fill="#263238" stroke="#263238" stroke-width="0.274319" stroke-linecap="round" stroke-linejoin="round"/>
<path d="M87.7887 27.8424H46.6173C45.5785 27.8424 44.7363 27.0003 44.7363 25.9614V16.3957C44.7363 15.3568 45.5785 14.5146 46.6173 14.5146H87.7887C88.8276 14.5146 89.6698 15.3568 89.6698 16.3957V25.9614C89.6698 27.0003 88.8276 27.8424 87.7887 27.8424Z" fill="white" stroke="#263238" stroke-width="0.274319" stroke-linecap="round" stroke-linejoin="round"/>
<path d="M63.8816 20.8246H63.3848V20.4877C63.7864 20.4877 63.929 20.4013 64.0371 20.1075H64.3567V23.1314H63.8816V20.8246Z" fill="#263238"/>
<path d="M64.9102 22.4143V20.8246C64.9102 20.3407 65.165 20.0642 65.6316 20.0642C66.0982 20.0642 66.3531 20.3407 66.3531 20.8246V22.4143C66.3531 22.8982 66.0982 23.1744 65.6316 23.1744C65.1653 23.1744 64.9102 22.8979 64.9102 22.4143ZM65.878 22.4445V20.7944C65.878 20.5783 65.783 20.4965 65.6319 20.4965C65.4807 20.4965 65.3858 20.5786 65.3858 20.7944V22.4445C65.3858 22.6606 65.4807 22.7427 65.6319 22.7427C65.783 22.7427 65.878 22.6606 65.878 22.4445Z" fill="#263238"/>
<path d="M66.6377 22.4143V20.8246C66.6377 20.3407 66.8925 20.0642 67.3592 20.0642C67.8258 20.0642 68.0803 20.3407 68.0803 20.8246V22.4143C68.0803 22.8982 67.8255 23.1744 67.3592 23.1744C66.8928 23.1744 66.6377 22.8979 66.6377 22.4143ZM67.6052 22.4445V20.7944C67.6052 20.5783 67.5103 20.4965 67.3592 20.4965C67.208 20.4965 67.1128 20.5786 67.1128 20.7944V22.4445C67.1128 22.6606 67.2077 22.7427 67.3592 22.7427C67.5103 22.7427 67.6052 22.6606 67.6052 22.4445Z" fill="#263238"/>
<path d="M68.375 21.3041V20.5481C68.375 20.237 68.5349 20.0642 68.8331 20.0642C69.131 20.0642 69.2909 20.237 69.2909 20.5481V21.3041C69.2909 21.6152 69.131 21.788 68.8331 21.788C68.5349 21.7878 68.375 21.6152 68.375 21.3041ZM68.9884 21.3258V20.5267C68.9884 20.3928 68.9278 20.3366 68.8328 20.3366C68.7335 20.3366 68.6773 20.3928 68.6773 20.5267V21.3258C68.6773 21.4597 68.7335 21.5156 68.8328 21.5156C68.9278 21.5156 68.9884 21.4597 68.9884 21.3258ZM69.9301 20.1076H70.2324L69.0616 23.1314H68.7593L69.9301 20.1076ZM69.7013 22.6905V21.9348C69.7013 21.6237 69.861 21.4509 70.1592 21.4509C70.4574 21.4509 70.617 21.6237 70.617 21.9348V22.6905C70.617 23.0016 70.4574 23.1744 70.1592 23.1744C69.861 23.1744 69.7013 23.0016 69.7013 22.6905ZM70.3147 22.7125V21.9134C70.3147 21.7795 70.2541 21.7233 70.1592 21.7233C70.0599 21.7233 70.0036 21.7795 70.0036 21.9134V22.7125C70.0036 22.8463 70.0599 22.9026 70.1592 22.9026C70.2541 22.9023 70.3147 22.8463 70.3147 22.7125Z" fill="#263238"/>
<path d="M71.3828 22.186V20.9947C71.3828 20.6523 71.5606 20.4496 71.8961 20.4496C72.2321 20.4496 72.4093 20.6523 72.4093 20.9947V21.2292H72.0799V20.9724C72.0799 20.8268 72.0102 20.7664 71.9057 20.7664C71.8009 20.7664 71.7312 20.8265 71.7312 20.9724V22.2115C71.7312 22.3572 71.8009 22.4143 71.9057 22.4143C72.0102 22.4143 72.0799 22.3572 72.0799 22.2115V21.8725H72.4093V22.1863C72.4093 22.5284 72.2321 22.7314 71.8961 22.7314C71.5606 22.7308 71.3828 22.5281 71.3828 22.186Z" fill="#263238"/>
<path d="M72.5996 22.173V21.0069C72.5996 20.6519 72.7867 20.4492 73.129 20.4492C73.4711 20.4492 73.6582 20.6519 73.6582 21.0069V22.173C73.6582 22.528 73.4711 22.7307 73.129 22.7307C72.7867 22.7307 72.5996 22.528 72.5996 22.173ZM73.3095 22.1953V20.9847C73.3095 20.8261 73.2399 20.7661 73.129 20.7661C73.0182 20.7661 72.9483 20.8261 72.9483 20.9847V22.1953C72.9483 22.3535 73.0182 22.4139 73.129 22.4139C73.2399 22.4139 73.3095 22.3535 73.3095 22.1953Z" fill="#263238"/>
<path d="M73.8926 20.4814H74.3899L74.6118 22.0689H74.6181L74.8401 20.4814H75.3377V22.6996H75.008V21.0202H75.0019L74.7485 22.6996H74.4566L74.2031 21.0202H74.1968V22.6996H73.8928L73.8926 20.4814Z" fill="#263238"/>
<path d="M75.5967 20.4814H76.1099C76.4586 20.4814 76.6298 20.6748 76.6298 21.0295V21.2482C76.6298 21.6031 76.4586 21.7965 76.1099 21.7965H75.9453V22.6996H75.5967V20.4814ZM76.1099 21.4794C76.2208 21.4794 76.2811 21.4287 76.2811 21.2704V21.0073C76.2811 20.8488 76.2208 20.798 76.1099 20.798H75.9453V21.4791H76.1099V21.4794Z" fill="#263238"/>
<path d="M76.8203 20.4814H77.169V22.3825H77.7426V22.6993H76.8206L76.8203 20.4814Z" fill="#263238"/>
<path d="M77.9102 20.4814H78.8607V20.7983H78.2588V21.3845H78.7372V21.7013H78.2588V22.3825H78.8607V22.6993H77.9102V20.4814Z" fill="#263238"/>
<path d="M79.3321 20.7983H78.9678V20.4814H80.0453V20.7983H79.6807V22.6996H79.3321V20.7983Z" fill="#263238"/>
<path d="M80.2129 20.4814H81.1634V20.7983H80.5615V21.3845H81.04V21.7013H80.5615V22.3825H81.1634V22.6993H80.2129V20.4814Z" fill="#263238"/>
<path d="M81.3633 20.4814H81.8955C82.2441 20.4814 82.4153 20.6748 82.4153 21.0295V22.1512C82.4153 22.5062 82.2441 22.6996 81.8955 22.6996H81.3633V20.4814ZM81.8892 22.3827C82 22.3827 82.0666 22.3257 82.0666 22.1674V21.0142C82.0666 20.8556 82 20.7986 81.8892 20.7986H81.7117V22.3827H81.8892Z" fill="#263238"/>
<path d="M60.4182 26.7461H51.6172V15.6101H57.4846L60.4182 18.5437V26.7461Z" fill="#326FEA"/>
<mask id="mask6_1887_14401" style="mask-type:luminance" maskUnits="userSpaceOnUse" x="51" y="15" width="10" height="12">
<path d="M60.4182 26.7461H51.6172V15.6101H57.4846L60.4182 18.5437V26.7461Z" fill="white"/>
</mask>
<g mask="url(#mask6_1887_14401)">
<path opacity="0.7" d="M60.4182 26.7461H51.6172V15.6101H57.4846L60.4182 18.5437V26.7461Z" fill="white"/>
</g>
<path d="M60.4182 26.7461H51.6172V15.6101H57.4846L60.4182 18.5437V26.7461Z" stroke="#263238" stroke-width="0.274319" stroke-linecap="round" stroke-linejoin="round"/>
<path d="M57.4844 18.5437H60.4179L57.4844 15.6101V18.5437Z" fill="#326FEA" stroke="#263238" stroke-width="0.274319" stroke-linecap="round" stroke-linejoin="round"/>
<path d="M54.2136 19.9148H52.4854V21.643H54.2136V19.9148Z" stroke="white" stroke-width="0.205739" stroke-miterlimit="10" stroke-linecap="round" stroke-linejoin="round"/>
<path d="M55.9929 19.9148H54.2646V21.643H55.9929V19.9148Z" stroke="white" stroke-width="0.205739" stroke-miterlimit="10" stroke-linecap="round" stroke-linejoin="round"/>
<path d="M57.7712 19.9148H56.043V21.643H57.7712V19.9148Z" stroke="white" stroke-width="0.205739" stroke-miterlimit="10" stroke-linecap="round" stroke-linejoin="round"/>
<path d="M59.5495 19.9148H57.8213V21.643H59.5495V19.9148Z" stroke="white" stroke-width="0.205739" stroke-miterlimit="10" stroke-linecap="round" stroke-linejoin="round"/>
<path d="M54.2136 21.6432H52.4854V23.3714H54.2136V21.6432Z" stroke="white" stroke-width="0.205739" stroke-miterlimit="10" stroke-linecap="round" stroke-linejoin="round"/>
<path d="M55.9929 21.6432H54.2646V23.3714H55.9929V21.6432Z" stroke="white" stroke-width="0.205739" stroke-miterlimit="10" stroke-linecap="round" stroke-linejoin="round"/>
<path d="M57.7712 21.6432H56.043V23.3714H57.7712V21.6432Z" stroke="white" stroke-width="0.205739" stroke-miterlimit="10" stroke-linecap="round" stroke-linejoin="round"/>
<path d="M59.5495 21.6431H57.8213V23.3713H59.5495V21.6431Z" stroke="white" stroke-width="0.205739" stroke-miterlimit="10" stroke-linecap="round" stroke-linejoin="round"/>
<path d="M54.2136 23.3712H52.4854V25.0994H54.2136V23.3712Z" stroke="white" stroke-width="0.205739" stroke-miterlimit="10" stroke-linecap="round" stroke-linejoin="round"/>
<path d="M55.9929 23.3712H54.2646V25.0994H55.9929V23.3712Z" stroke="white" stroke-width="0.205739" stroke-miterlimit="10" stroke-linecap="round" stroke-linejoin="round"/>
<path d="M57.7712 23.3712H56.043V25.0994H57.7712V23.3712Z" stroke="white" stroke-width="0.205739" stroke-miterlimit="10" stroke-linecap="round" stroke-linejoin="round"/>
<path d="M59.5495 23.3713H57.8213V25.0995H59.5495V23.3713Z" stroke="white" stroke-width="0.205739" stroke-miterlimit="10" stroke-linecap="round" stroke-linejoin="round"/>
<path d="M52.5176 24.9315L54.2644 23.3306L55.1283 23.3712L56.07 21.6671L56.9072 22.5071L57.8462 21.5231L58.6859 19.9148" stroke="#326FEA" stroke-width="0.548638" stroke-miterlimit="10" stroke-linecap="round" stroke-linejoin="round"/>
<path d="M57.6953 20.4176L58.6856 19.9148L58.8848 20.9975" stroke="#326FEA" stroke-width="0.548638" stroke-miterlimit="10" stroke-linecap="round" stroke-linejoin="round"/>
<path d="M99.1675 89.1046L99.0117 93.6314L101.356 93.7433L102.208 89.1046H99.1675Z" fill="white" stroke="#263238" stroke-width="0.274319" stroke-linecap="round" stroke-linejoin="round"/>
<path d="M94.5813 95.0191C95.3727 94.7563 96.7396 94.2789 97.2515 93.9566C97.6616 93.6982 98.2377 92.8607 98.6615 92.6251C98.7852 92.5565 99.1177 92.5356 99.2274 92.6251C99.2842 92.6714 99.3257 92.7724 99.3558 92.8936C99.4052 93.0917 99.6749 93.1268 99.7807 92.9521C99.8715 92.802 99.9684 92.6736 100.054 92.6251C100.416 92.4207 101.395 92.362 101.718 92.6251C102.249 93.0588 102.442 94.5631 102.547 95.2413C102.569 95.3883 102.547 96.2126 102.547 96.2126H93.9932V95.8365C93.9932 95.4654 94.2294 95.1359 94.5813 95.0191Z" fill="white" stroke="#263238" stroke-width="0.274319" stroke-linecap="round" stroke-linejoin="round"/>
<path d="M102.547 96.2122H93.9932V95.8361C93.9932 95.7409 94.0091 95.6487 94.0382 95.562H102.557C102.556 95.8495 102.547 96.2122 102.547 96.2122Z" fill="#858585" stroke="#263238" stroke-width="0.274319" stroke-miterlimit="10" stroke-linecap="round" stroke-linejoin="round"/>
<path d="M100.646 54.0148L98.8486 90.8259L102.152 91.3797C102.152 91.3797 104.224 80.7271 104.478 77.2383C104.538 76.4137 104.478 73.9312 104.478 73.9312L106.807 62.4668C106.807 62.4668 108.339 61.0527 108.518 54.3113L100.646 54.0148Z" fill="#263238"/>
<mask id="mask7_1887_14401" style="mask-type:luminance" maskUnits="userSpaceOnUse" x="98" y="54" width="11" height="38">
<path d="M100.646 54.0148L98.8486 90.8259L102.152 91.3797C102.152 91.3797 104.224 80.7271 104.478 77.2383C104.538 76.4137 104.478 73.9312 104.478 73.9312L106.807 62.4668C106.807 62.4668 108.339 61.0527 108.518 54.3113L100.646 54.0148Z" fill="white"/>
</mask>
<g mask="url(#mask7_1887_14401)">
<path opacity="0.7" d="M105.712 56.4254C105.712 56.4254 105.07 64.9751 105.712 70.7605C106.355 76.5456 108.066 63.0469 108.066 63.0469L107.189 57.8895L105.712 56.4254Z" fill="black"/>
</g>
<path d="M100.646 54.0148L98.8486 90.8259L102.152 91.3798C102.152 91.3798 104.224 80.7271 104.478 77.2383C104.538 76.4137 104.478 73.9312 104.478 73.9312L106.807 62.4668C106.807 62.4668 108.339 61.0527 108.518 54.3113L100.646 54.0148Z" stroke="#263238" stroke-width="0.274319" stroke-miterlimit="10" stroke-linecap="round" stroke-linejoin="round"/>
<path d="M100.487 75.0706C100.487 75.0706 101.308 74.9269 102.036 74.2279" stroke="#7F7F7F" stroke-width="0.205739" stroke-linecap="round" stroke-linejoin="round"/>
<path d="M98.4131 91.5272L102.393 91.8514L102.69 90.563L98.4131 90.2291V91.5272Z" fill="#326FEA" stroke="#263238" stroke-width="0.274319" stroke-miterlimit="10" stroke-linecap="round" stroke-linejoin="round"/>
<path d="M109.909 88.5472L110.755 93.8374L112.924 93.6673L112.851 88.2515L109.909 88.5472Z" fill="white" stroke="#263238" stroke-width="0.274319" stroke-linecap="round" stroke-linejoin="round"/>
<path d="M106.279 95.0189C107.07 94.7561 108.437 94.2788 108.949 93.9565C109.359 93.6981 109.935 92.8606 110.359 92.625C110.483 92.5564 110.815 92.5355 110.925 92.625C110.967 92.6595 111.001 92.7251 111.028 92.8066C111.101 93.0263 111.405 93.0578 111.533 92.865C111.607 92.7536 111.683 92.6639 111.752 92.625C112.114 92.4206 113.093 92.3619 113.415 92.625C113.947 93.0586 114.139 94.563 114.244 95.2411C114.267 95.3882 114.244 96.2125 114.244 96.2125H105.69V95.8364C105.691 95.4652 105.927 95.1358 106.279 95.0189Z" fill="white" stroke="#263238" stroke-width="0.274319" stroke-linecap="round" stroke-linejoin="round"/>
<path d="M114.244 96.2123H105.69V95.8362C105.69 95.741 105.706 95.6488 105.735 95.5621H114.254C114.254 95.8496 114.244 96.2123 114.244 96.2123Z" fill="#858585" stroke="#263238" stroke-width="0.274319" stroke-miterlimit="10" stroke-linecap="round" stroke-linejoin="round"/>
<path d="M105.225 55.1228C105.225 55.1228 106.048 59.8888 106.807 63.8867C107.32 66.595 107.362 74.6027 107.362 74.6027L109.981 91.1222L113.222 90.6879C113.222 90.6879 113.261 80.5088 112.895 77.237C112.813 76.5089 112.679 74.3522 112.679 74.3522C112.679 74.3522 112.802 65.7159 113.469 62.8308C113.945 60.771 114.896 58.6102 113.741 54.3931L105.225 55.1228Z" fill="#263238" stroke="#263238" stroke-width="0.274319" stroke-miterlimit="10" stroke-linecap="round" stroke-linejoin="round"/>
<path d="M108.065 75.0706C108.065 75.0706 108.549 75.8033 109.439 75.9517" stroke="#7F7F7F" stroke-width="0.205739" stroke-linecap="round" stroke-linejoin="round"/>
<path d="M109.439 90.3934L109.625 91.6056L113.642 91.1741L113.614 89.8708L109.439 90.3934Z" fill="#326FEA" stroke="#263238" stroke-width="0.274319" stroke-miterlimit="10" stroke-linecap="round" stroke-linejoin="round"/>
<path d="M89.9376 33.082L89.0518 31.5935C89.0518 31.5935 88.8368 29.1595 88.3433 28.6849C87.8498 28.2104 86.7522 26.8154 86.597 27.0903C86.3501 27.527 87.2625 28.3097 87.2625 28.3097L87.4323 29.2144C87.4323 29.2144 85.9529 28.15 85.5345 28.1517C85.5345 28.1517 84.3569 26.7535 83.9394 26.751C83.5218 26.7485 84.1103 27.7166 84.1103 27.7166C84.1103 27.7166 83.7117 27.4129 83.6357 27.6027C83.5597 27.7926 84.1481 28.438 84.1481 28.438C84.1481 28.438 83.9204 28.6849 84.262 29.2163C84.262 29.2163 84.0911 29.8236 84.5467 30.1844C85.0023 30.5451 87.4512 31.9307 87.4512 31.9307L88.2676 33.8668L89.9376 33.082Z" fill="#858585" stroke="#263238" stroke-width="0.274319" stroke-miterlimit="10" stroke-linecap="round" stroke-linejoin="round"/>
<path d="M84.4707 28.4758C84.4707 28.4758 84.7933 28.6086 84.6605 29.0832C84.6605 29.0832 84.8377 29.2938 84.8693 29.7097C84.9008 30.1253 87.0142 29.9185 87.5837 30.8108" stroke="#263238" stroke-width="0.205739" stroke-miterlimit="10" stroke-linecap="round" stroke-linejoin="round"/>
<path d="M84.4707 27.9635L85.3312 28.8745" stroke="#263238" stroke-width="0.205739" stroke-miterlimit="10" stroke-linecap="round" stroke-linejoin="round"/>
<path d="M99.0851 32.7075L93.4297 37.1117L89.5583 31.8357L87.584 32.8232C87.584 32.8232 90.6843 41.3853 93.0309 41.3853C95.5239 41.3853 100.264 37.3824 100.264 37.3824C100.264 37.3824 100.563 36.6165 99.0851 32.7075Z" fill="#326FEA" stroke="#263238" stroke-width="0.274319" stroke-miterlimit="10" stroke-linecap="round" stroke-linejoin="round"/>
<path d="M93.6426 37.5317C93.6426 37.5317 93.8598 37.9802 93.9361 38.4137" stroke="#263238" stroke-width="0.205739" stroke-miterlimit="10" stroke-linecap="round" stroke-linejoin="round"/>
<path d="M99.085 32.7076L100.287 48.6488V55.2686C100.287 55.2686 107.225 56.1026 114.071 55.0931L113.834 48.2762L114.529 33.082C114.529 33.082 111.351 30.7843 106.473 30.7843C101.596 30.7843 99.085 32.7076 99.085 32.7076Z" fill="#326FEA"/>
<mask id="mask8_1887_14401" style="mask-type:luminance" maskUnits="userSpaceOnUse" x="99" y="30" width="16" height="26">
<path d="M99.085 32.7076L100.287 48.6488V55.2686C100.287 55.2686 107.225 56.1026 114.071 55.0931L113.834 48.2762L114.529 33.082C114.529 33.082 111.351 30.7843 106.473 30.7843C101.596 30.7843 99.085 32.7076 99.085 32.7076Z" fill="white"/>
</mask>
<g mask="url(#mask8_1887_14401)">
<path opacity="0.2" d="M100.287 51.1281C100.287 51.1281 100.313 53.281 102.685 53.4664C105.058 53.6518 108.066 53.1326 108.066 53.1326C108.066 53.1326 108.97 50.5367 109.758 50.6851C110.546 50.8335 114.229 52.0978 113.834 48.2763C113.439 44.4547 119.224 53.7023 119.224 53.7023L117.666 60.3181L104.372 59.3404L98.0117 55.8275L99.0851 51.1281H100.287Z" fill="black"/>
</g>
<path d="M99.085 32.7076L100.287 48.6488V55.2686C100.287 55.2686 107.225 56.1026 114.071 55.0931L113.834 48.2762L114.529 33.082C114.529 33.082 111.351 30.7843 106.473 30.7843C101.596 30.7843 99.085 32.7076 99.085 32.7076Z" stroke="#263238" stroke-width="0.274319" stroke-miterlimit="10" stroke-linecap="round" stroke-linejoin="round"/>
<path d="M103.538 48.4944C105.267 48.3052 108.579 47.6731 111.678 45.5612L103.538 48.4944Z" fill="#326FEA"/>
<path d="M103.538 48.4944C105.267 48.3052 108.579 47.6731 111.678 45.5612" stroke="#263238" stroke-width="0.205739" stroke-miterlimit="10" stroke-linecap="round" stroke-linejoin="round"/>
<path d="M102.33 48.5754C102.33 48.5754 102.563 48.5765 102.973 48.5466L102.33 48.5754Z" fill="#326FEA"/>
<path d="M102.33 48.5754C102.33 48.5754 102.563 48.5765 102.973 48.5466" stroke="#263238" stroke-width="0.205739" stroke-miterlimit="10" stroke-linecap="round" stroke-linejoin="round"/>
<path d="M104.677 33.4764L103.476 33.0388L102.33 34.1476L103.169 30.7181L104.181 29.9229L104.696 30.2487L107.001 30.1599L108.793 30.3069L109.645 30.0425L110.555 30.9532L108.528 34.831L107.677 33.362L105.802 33.5971L104.677 33.4764Z" fill="#326FEA"/>
<mask id="mask9_1887_14401" style="mask-type:luminance" maskUnits="userSpaceOnUse" x="102" y="29" width="9" height="6">
<path d="M104.677 33.4764L103.476 33.0388L102.33 34.1476L103.169 30.7181L104.181 29.9229L104.696 30.2487L107.001 30.1599L108.793 30.3069L109.645 30.0425L110.555 30.9532L108.528 34.831L107.677 33.362L105.802 33.5971L104.677 33.4764Z" fill="white"/>
</mask>
<g mask="url(#mask9_1887_14401)">
<path opacity="0.5" d="M104.677 33.4764L103.476 33.0388L102.33 34.1476L103.169 30.7181L104.181 29.9229L104.696 30.2487L107.001 30.1599L108.793 30.3069L109.645 30.0425L110.555 30.9532L108.528 34.831L107.677 33.362L105.802 33.5971L104.677 33.4764Z" fill="white"/>
</g>
<path d="M104.677 33.4764L103.476 33.0388L102.33 34.1476L103.169 30.7181L104.181 29.9229L104.696 30.2487L107.001 30.1599L108.793 30.3069L109.645 30.0425L110.555 30.9532L108.528 34.831L107.677 33.362L105.802 33.5971L104.677 33.4764Z" stroke="#263238" stroke-width="0.274319" stroke-miterlimit="10" stroke-linecap="round" stroke-linejoin="round"/>
<path d="M108.667 30.9442L108.396 26.7512L105.744 27.2107L105.188 29.1792L104.633 30.8858C104.546 30.8951 104.457 30.9036 104.372 30.914L105.093 34.831L108.919 30.9798C108.837 30.9664 108.751 30.9563 108.667 30.9442Z" fill="#858585"/>
<mask id="mask10_1887_14401" style="mask-type:luminance" maskUnits="userSpaceOnUse" x="104" y="26" width="5" height="9">
<path d="M108.667 30.9442L108.396 26.7512L105.744 27.2107L105.188 29.1792L104.633 30.8858C104.546 30.8951 104.457 30.9036 104.372 30.914L105.093 34.831L108.919 30.9798C108.837 30.9664 108.751 30.9563 108.667 30.9442Z" fill="white"/>
</mask>
<g mask="url(#mask10_1887_14401)">
<path d="M102.154 27.0436C102.154 28.1055 102.317 30.4885 103.779 30.7655C105.296 31.0528 107.03 29.3317 107.655 28.6423C107.81 28.4703 107.93 28.2714 108.012 28.0542L108.345 27.1731C108.345 27.1731 108.663 27.2131 108.971 27.0439H102.154V27.0436Z" fill="#263238" stroke="#263238" stroke-width="0.137159" stroke-miterlimit="10" stroke-linecap="round" stroke-linejoin="round"/>
</g>
<path d="M108.667 30.9442L108.396 26.7512L105.744 27.2107L105.188 29.1792L104.633 30.8858C104.546 30.8951 104.457 30.9036 104.372 30.914L105.093 34.831L108.919 30.9798C108.837 30.9664 108.751 30.9563 108.667 30.9442Z" stroke="#263238" stroke-width="0.274319" stroke-miterlimit="10" stroke-linecap="round" stroke-linejoin="round"/>
<path d="M103.92 21.6602C103.92 21.6602 102.664 20.7048 103.28 19.9543C103.601 19.5639 104.019 20.078 104.019 20.078C104.019 20.078 103.797 18.8814 104.686 18.7182C105.515 18.5665 105.478 19.5093 105.478 19.5093C105.478 19.5093 105.903 18.7017 106.645 18.8814C107.239 19.0254 107.011 19.864 107.011 19.864C107.011 19.864 107.802 18.8814 108.618 19.3115C109.322 19.683 108.741 20.5723 108.741 20.5723C108.741 20.5723 109.582 20.2758 110.052 20.7454C110.522 21.215 110.052 21.858 110.052 21.858C110.052 21.858 110.974 21.8671 111.016 22.5501C111.058 23.2332 110.301 23.366 110.301 23.366C110.301 23.366 111.369 23.7122 111.378 24.5527C111.387 25.3932 110.67 25.1213 110.67 25.1213C110.67 25.1213 111.115 25.9125 110.744 26.3327C110.373 26.753 110.027 26.3327 110.027 26.3327C110.027 26.3327 110.489 27.328 109.903 27.6171C109.483 27.8245 109.236 27.3205 109.236 27.3205C109.236 27.3205 108.883 28.1816 108.454 27.6527C108.024 27.1239 105.903 23.0692 105.903 23.0692L103.92 21.6602Z" fill="#263238" stroke="#263238" stroke-width="0.205739" stroke-miterlimit="10" stroke-linecap="round" stroke-linejoin="round"/>
<path d="M103.557 21.699L102.769 23.3392C102.685 23.5123 102.643 23.7024 102.645 23.8944L102.649 24.4112L102.214 25.5041C102.191 25.5617 102.173 25.6177 102.159 25.678C102.019 26.2642 101.353 29.4013 102.972 30.0402C104.407 30.6064 106.433 29.2411 107.176 28.6813C107.361 28.5416 107.516 28.3685 107.637 28.1707L108.13 27.3675C108.13 27.3675 108.841 27.6021 109.281 26.9665C109.72 26.3309 110.231 25.9899 109.626 25.418C109.021 24.846 108.461 25.76 108.461 25.76L108.542 24.1503L107.84 22.9156L107.805 22.1396C107.805 22.1396 105.504 21.8861 103.96 21.0406L103.557 21.699Z" fill="white" stroke="#263238" stroke-width="0.205739" stroke-miterlimit="10" stroke-linecap="round" stroke-linejoin="round"/>
<path d="M103.557 21.699L102.769 23.3392C102.685 23.5123 102.643 23.7024 102.645 23.8944L102.649 24.4112L102.214 25.5041C102.191 25.5617 102.173 25.6177 102.159 25.678C102.019 26.2642 101.353 29.4013 102.972 30.0402C104.407 30.6064 106.433 29.2411 107.176 28.6813C107.361 28.5416 107.516 28.3685 107.637 28.1707L108.13 27.3675C108.13 27.3675 108.841 27.6021 109.281 26.9665C109.72 26.3309 110.231 25.9899 109.626 25.418C109.021 24.846 108.461 25.76 108.461 25.76L108.542 24.1503L107.84 22.9156L107.805 22.1396C107.805 22.1396 105.504 21.8861 103.96 21.0406L103.557 21.699Z" fill="#858585" stroke="#263238" stroke-width="0.274319" stroke-miterlimit="10" stroke-linecap="round" stroke-linejoin="round"/>
<path d="M104.956 27.3206C104.512 28.1786 103.907 28.0357 103.53 27.822" stroke="#263238" stroke-width="0.205739" stroke-miterlimit="10" stroke-linecap="round" stroke-linejoin="round"/>
<path d="M104.965 25.3683C104.905 25.5634 104.78 25.6983 104.687 25.6695C104.593 25.6407 104.567 25.4591 104.627 25.2638C104.687 25.0688 104.812 24.9338 104.905 24.9626C104.999 24.9917 105.025 25.173 104.965 25.3683Z" fill="#263238"/>
<path d="M103.133 24.8022C103.073 24.9972 102.948 25.1322 102.855 25.1034C102.761 25.0746 102.735 24.893 102.795 24.6977C102.855 24.5026 102.98 24.3676 103.073 24.3965C103.167 24.4253 103.193 24.6069 103.133 24.8022Z" fill="#263238"/>
<path d="M103.002 23.5336C103.002 23.5336 103.549 23.3789 103.687 23.9536" stroke="#263238" stroke-width="0.205739" stroke-miterlimit="10" stroke-linecap="round" stroke-linejoin="round"/>
<path d="M104.579 24.2826C104.579 24.2826 105.218 23.6094 105.647 24.3251" stroke="#263238" stroke-width="0.205739" stroke-miterlimit="10" stroke-linecap="round" stroke-linejoin="round"/>
<path d="M103.687 24.9731C103.687 24.9731 103.599 25.7396 102.685 26.1352L103.186 26.9263" stroke="#263238" stroke-width="0.205739" stroke-miterlimit="10" stroke-linecap="round" stroke-linejoin="round"/>
<path d="M106.885 56.4254L106.745 57.272C106.697 57.5647 106.896 57.8412 107.188 57.8892L115.984 59.3335C116.277 59.3815 116.553 59.1831 116.601 58.8904L116.741 58.0439L106.885 56.4254Z" fill="#326FEA" stroke="#263238" stroke-width="0.205739" stroke-miterlimit="10" stroke-linecap="round" stroke-linejoin="round"/>
<path d="M116.084 59.0422L107.186 57.5811C106.922 57.5378 106.742 57.2882 106.786 57.0237L107.668 51.6501C107.711 51.3857 107.961 51.2065 108.225 51.2499L117.124 52.7109C117.388 52.7542 117.567 53.0039 117.524 53.2683L116.642 58.6422C116.598 58.9064 116.349 59.0855 116.084 59.0422Z" fill="#326FEA"/>
<mask id="mask11_1887_14401" style="mask-type:luminance" maskUnits="userSpaceOnUse" x="106" y="51" width="12" height="9">
<path d="M116.084 59.0422L107.186 57.5811C106.922 57.5378 106.742 57.2882 106.786 57.0237L107.668 51.6501C107.711 51.3857 107.961 51.2065 108.225 51.2499L117.124 52.7109C117.388 52.7542 117.567 53.0039 117.524 53.2683L116.642 58.6422C116.598 58.9064 116.349 59.0855 116.084 59.0422Z" fill="white"/>
</mask>
<g mask="url(#mask11_1887_14401)">
<path opacity="0.5" d="M116.084 59.0422L107.186 57.5811C106.922 57.5378 106.742 57.2882 106.786 57.0237L107.668 51.6501C107.711 51.3857 107.961 51.2065 108.225 51.2499L117.124 52.7109C117.388 52.7542 117.567 53.0039 117.524 53.2683L116.642 58.6422C116.598 58.9064 116.349 59.0855 116.084 59.0422Z" fill="white"/>
</g>
<path d="M116.084 59.0422L107.186 57.5811C106.922 57.5378 106.742 57.2882 106.786 57.0237L107.668 51.6501C107.711 51.3857 107.961 51.2065 108.225 51.2499L117.124 52.7109C117.388 52.7542 117.567 53.0039 117.524 53.2683L116.642 58.6422C116.598 58.9064 116.349 59.0855 116.084 59.0422Z" stroke="#263238" stroke-width="0.274319" stroke-miterlimit="10" stroke-linecap="round" stroke-linejoin="round"/>
<path d="M113.7 53.7021L113.213 55.3401L111.57 56.5183C111.57 56.5183 111.079 57.9922 110.736 58.6336C110.646 58.8001 110.763 59.0113 110.952 59.0132C111.179 59.0154 111.444 58.9087 111.59 58.4676C111.59 58.4676 111.653 59.3358 112.189 58.8059C112.189 58.8059 112.515 59.6453 113.025 58.9836C113.025 58.9836 114.206 59.1586 114.406 58.3058C114.605 57.4526 114.873 55.9516 114.873 55.9516L115.626 54.1866L113.7 53.7021Z" fill="#858585" stroke="#263238" stroke-width="0.274319" stroke-miterlimit="10" stroke-linecap="round" stroke-linejoin="round"/>
<path d="M111.586 58.1359L111.773 56.8658" stroke="#263238" stroke-width="0.205739" stroke-miterlimit="10" stroke-linecap="round" stroke-linejoin="round"/>
<path d="M111.88 58.2095C111.88 58.2095 112.009 58.6317 112.301 58.5609C112.592 58.4904 113.007 58.8157 113.911 58.4352" stroke="#263238" stroke-width="0.205739" stroke-miterlimit="10" stroke-linecap="round" stroke-linejoin="round"/>
<path d="M114.529 33.0818C114.529 33.0818 118.643 44.5162 118.565 46.1868C118.488 47.8574 115.562 55.123 115.562 55.123L113.312 54.4057L114.821 45.8832L113.469 39.9606C113.469 39.9606 113.152 35.6187 114.529 33.0818Z" fill="#326FEA" stroke="#263238" stroke-width="0.274319" stroke-miterlimit="10" stroke-linecap="round" stroke-linejoin="round"/>
<path d="M115.319 45.6934C115.319 45.6934 115.754 45.3137 116.4 45.4657" stroke="#263238" stroke-width="0.205739" stroke-miterlimit="10" stroke-linecap="round" stroke-linejoin="round"/>
<path d="M112.643 54.5857C112.554 54.4619 112.494 54.336 112.462 54.2249C112.157 54.22 111.886 54.4367 111.835 54.7472C111.779 55.0888 112.01 55.4108 112.351 55.4668C112.693 55.5227 113.015 55.2915 113.071 54.9502C113.071 54.9486 113.071 54.9469 113.071 54.9453C112.941 54.9055 112.779 54.7749 112.643 54.5857Z" fill="white"/>
<path d="M32.3615 30.4543L32.8599 32.9164L27.3135 33.1495L28.2774 26.33L32.0134 26.7623L32.3615 30.4543Z" fill="white"/>
<mask id="mask12_1887_14401" style="mask-type:luminance" maskUnits="userSpaceOnUse" x="27" y="26" width="6" height="8">
<path d="M32.3615 30.4543L32.8599 32.9164L27.3135 33.1495L28.2774 26.33L32.0134 26.7623L32.3615 30.4543Z" fill="white"/>
</mask>
<g mask="url(#mask12_1887_14401)">
<path d="M34.8338 26.7209L30.1953 28.103C30.2546 28.5737 30.3585 29.2178 30.5223 29.6691C30.8098 30.4605 32.4694 31.8748 33.5453 31.8491C34.6212 31.8233 34.74 28.4124 34.74 28.4124L35.395 28.0393C35.5517 27.9502 35.5947 27.7442 35.4872 27.5996L34.8338 26.7209Z" fill="#263238" stroke="#263238" stroke-width="0.205739" stroke-linecap="round" stroke-linejoin="round"/>
</g>
<path d="M32.3615 30.4543L32.8599 32.9164L27.3135 33.1495L28.2774 26.33L32.0134 26.7623L32.3615 30.4543Z" stroke="#263238" stroke-width="0.274319" stroke-linecap="round" stroke-linejoin="round"/>
<path d="M32.6167 21.7851C32.6167 21.7851 33.9628 22.0594 33.8253 20.5978C33.6879 19.1362 31.1779 20.0313 29.871 20.1962C28.5642 20.3611 24.3383 21.9373 25.832 24.4273C25.832 24.4273 24.9528 25.8324 28.1234 28.1901C28.1234 28.1901 29.6283 27.4802 30.4553 28.5163L31.1 27.2585L32.7319 24.3672L32.6167 21.7851Z" fill="#263238" stroke="#263238" stroke-width="0.274319" stroke-linecap="round" stroke-linejoin="round"/>
<path d="M32.5166 21.5658C32.5166 21.5658 33.8067 22.2856 34.5485 21.3848C34.5485 21.3848 34.6283 23.3053 32.5166 21.5658Z" fill="#263238" stroke="#263238" stroke-width="0.274319" stroke-linecap="round" stroke-linejoin="round"/>
<path d="M32.6542 21.3661C32.6542 21.3661 34.5626 23.3881 34.5086 24.7742V26.0377L35.525 27.1786C35.6388 27.3065 35.6152 27.5051 35.4745 27.6027L34.8858 28.0106C34.8858 28.0106 35.0589 31.2481 34.0431 31.3628C33.0273 31.4775 31.3383 30.2779 31.0001 29.5531C30.6618 28.8281 30.4479 27.5248 30.4479 27.5248C30.4479 27.5248 29.4447 27.2897 29.3256 26.2251C29.2063 25.1605 30.2792 25.1895 30.5565 25.8882L30.7817 26.4558L31.4796 26.4314C31.4796 26.4314 31.081 25.4271 31.3175 25.1311C31.5536 24.8351 32.4803 24.1137 32.0546 23.4235C31.6285 22.7333 31.7739 21.5636 32.6542 21.3661Z" fill="white" stroke="#263238" stroke-width="0.274319" stroke-linecap="round" stroke-linejoin="round"/>
<path d="M33.7344 28.6445C33.7344 28.6445 33.9799 29.1199 34.5486 29.0247" stroke="#263238" stroke-width="0.205739" stroke-linecap="round" stroke-linejoin="round"/>
<path d="M33.2441 24.783C33.2441 24.783 33.6814 24.1757 34.0948 24.7298" stroke="#263238" stroke-width="0.274319" stroke-linecap="round" stroke-linejoin="round"/>
<path d="M33.9335 26.0468C33.9387 26.2363 33.86 26.3924 33.7579 26.3952C33.6559 26.3979 33.5689 26.2465 33.5637 26.0569C33.5585 25.8674 33.6372 25.7113 33.7393 25.7085C33.8413 25.7058 33.9283 25.8572 33.9335 26.0468Z" fill="#263238"/>
<path d="M25.1364 86.8141L24.3359 93.7074L26.7192 94.0748L28.0318 87.2604L25.1364 86.8141Z" fill="white" stroke="#263238" stroke-width="0.274319" stroke-linecap="round" stroke-linejoin="round"/>
<path d="M24.0137 56.353C24.0137 56.353 24.1111 60.3463 25.5312 63.1638L25.8535 73.7638L24.2252 90.844L27.8451 91.1891L31.1377 73.3238L32.2454 57.1376L24.0137 56.353Z" fill="#326FEA"/>
<mask id="mask13_1887_14401" style="mask-type:luminance" maskUnits="userSpaceOnUse" x="24" y="56" width="9" height="36">
<path d="M24.0137 56.353C24.0137 56.353 24.1111 60.3463 25.5312 63.1638L25.8535 73.7638L24.2252 90.844L27.8451 91.1891L31.1377 73.3238L32.2454 57.1376L24.0137 56.353Z" fill="white"/>
</mask>
<g mask="url(#mask13_1887_14401)">
<path opacity="0.2" d="M23.6963 57.7219L26.9991 59.601C26.9991 59.601 27.0518 61.0415 27.6788 62.5513C27.8275 62.9093 27.5433 63.2961 27.1568 63.2662C26.8614 63.2434 26.6134 63.2777 26.6134 63.4577C26.6134 63.9026 28.7594 65.3367 28.7594 65.3367C28.7594 65.3367 30.9224 72.3321 30.8448 74.9162C30.7669 77.5003 30.8467 78.8848 30.8467 78.8848L33.4321 75.6709L31.4096 63.0127L30.0251 57.0298L25.8223 54.9036L24.0139 56.3533L23.6963 57.7219Z" fill="black"/>
</g>
<path d="M24.0137 56.353C24.0137 56.353 24.1111 60.3463 25.5312 63.1638L25.8535 73.7638L24.2252 90.844L27.8451 91.1891L31.1377 73.3238L32.2454 57.1376L24.0137 56.353Z" stroke="#263238" stroke-width="0.274319" stroke-linecap="round" stroke-linejoin="round"/>
<path d="M32.4121 87.2659L32.6708 94.2006H35.0823L35.3418 87.2659H32.4121Z" fill="white" stroke="#263238" stroke-width="0.274319" stroke-linecap="round" stroke-linejoin="round"/>
<path d="M38.9238 95.1775C38.2377 94.9496 37.0524 94.5356 36.6086 94.2564C36.2528 94.0322 35.7535 93.3061 35.3862 93.1017C35.2789 93.0422 34.9906 93.0241 34.8957 93.1017C34.7204 93.2447 34.7138 93.9881 34.7138 93.9881C34.7138 93.9881 34.4041 93.229 34.1787 93.1017C33.8646 92.9245 33.0158 92.8738 32.7363 93.1017C32.2754 93.4778 32.1084 94.7822 32.0176 95.3701C31.9978 95.4977 32.0176 96.2123 32.0176 96.2123H39.4338V95.8864C39.4338 95.5646 39.2291 95.279 38.9238 95.1775Z" fill="#263238" stroke="#263238" stroke-width="0.274319" stroke-linecap="round" stroke-linejoin="round"/>
<path d="M37.4555 56.6838L36.8622 72.7043L35.8732 90.9995H32.1153C32.1153 90.9995 31.3242 76.9568 31.522 72.9024L29.5442 63.5078C29.5442 63.5078 27.4673 60.7388 27.9619 57.3765L37.4555 56.6838Z" fill="#326FEA" stroke="#263238" stroke-width="0.274319" stroke-linecap="round" stroke-linejoin="round"/>
<path d="M31.7695 89.6396L31.8933 91.84H36.022L36.3432 89.6396H31.7695Z" fill="#326FEA" stroke="#263238" stroke-width="0.274319" stroke-linecap="round" stroke-linejoin="round"/>
<path d="M23.913 89.4487L23.8271 91.651L27.9373 92.043L28.4659 89.883L23.913 89.4487Z" fill="#326FEA" stroke="#263238" stroke-width="0.274319" stroke-linecap="round" stroke-linejoin="round"/>
<path d="M43.7054 46.1365L38.001 42.509L44.0121 36.4978L49.7166 40.1254L43.7054 46.1365Z" fill="#326FEA" stroke="#263238" stroke-width="0.274319" stroke-linecap="round" stroke-linejoin="round"/>
<path d="M44.0322 44.8954L39.4453 41.9783L44.2788 37.1448L48.8657 40.0619L44.0322 44.8954Z" fill="white" stroke="#263238" stroke-width="0.205739" stroke-linecap="round" stroke-linejoin="round"/>
<path d="M44.3664 39.8889L45.1663 39.089L44.1371 38.4342L43.3369 39.2344L44.3664 39.8889Z" stroke="#263238" stroke-width="0.205739" stroke-linecap="round" stroke-linejoin="round"/>
<path d="M43.123 41.1327L43.9232 40.3325L42.8939 39.6777L42.0938 40.4779L43.123 41.1327Z" stroke="#263238" stroke-width="0.205739" stroke-linecap="round" stroke-linejoin="round"/>
<path d="M41.8359 42.4194L42.6361 41.6192L41.6066 40.9647L40.8066 41.7646L41.8359 42.4194Z" stroke="#263238" stroke-width="0.205739" stroke-linecap="round" stroke-linejoin="round"/>
<path d="M46.3292 37.4333L45.5699 38.1927C45.4168 38.3457 45.4448 38.6014 45.6275 38.7174L46.7368 39.423C46.9859 39.5815 47.3118 39.5456 47.5205 39.3368L48.2209 38.6365L46.3292 37.4333Z" fill="#858585" stroke="#263238" stroke-width="0.274319" stroke-miterlimit="10" stroke-linecap="round" stroke-linejoin="round"/>
<path d="M26.0342 32.7519L27.0231 30.5763C27.0231 30.5763 32.7588 29.9336 34.2917 34.7298L26.0342 32.7519Z" fill="#858585" stroke="#263238" stroke-width="0.274319" stroke-miterlimit="10" stroke-linecap="round" stroke-linejoin="round"/>
<path d="M22.7705 34.6061C22.7705 34.6061 21.3575 45.4502 21.7322 49.2915C22.0287 52.3323 24.0315 54.9035 24.0315 54.9035L26.9983 53.7415L25.4901 49.2912C25.4901 49.2912 25.9597 41.2811 26.4049 39.4267L22.7705 34.6061Z" fill="#858585" stroke="#263238" stroke-width="0.274319" stroke-miterlimit="10" stroke-linecap="round" stroke-linejoin="round"/>
<path d="M23.1787 54.3723L24.0135 55.3736L27.4433 54.0385L26.9983 52.7034L23.1787 54.3723Z" fill="#858585" stroke="#263238" stroke-width="0.274319" stroke-miterlimit="10" stroke-linecap="round" stroke-linejoin="round"/>
<path d="M22.7705 34.6059C22.7705 34.6059 22.3256 40.8359 23.5863 45.2121C24.8471 49.5881 23.5863 56.7824 23.5863 56.7824C23.5863 56.7824 29.4458 60.565 38.4201 57.6725C38.4201 57.6725 37.3075 36.3859 35.8243 35.1992C34.341 34.0125 25.9597 29.4882 22.7705 34.6059Z" fill="#858585"/>
<mask id="mask14_1887_14401" style="mask-type:luminance" maskUnits="userSpaceOnUse" x="22" y="32" width="17" height="27">
<path d="M22.7705 34.6059C22.7705 34.6059 22.3256 40.8359 23.5863 45.2121C24.8471 49.5881 23.5863 56.7824 23.5863 56.7824C23.5863 56.7824 29.4458 60.565 38.4201 57.6725C38.4201 57.6725 37.3075 36.3859 35.8243 35.1992C34.341 34.0125 25.9597 29.4882 22.7705 34.6059Z" fill="white"/>
</mask>
<g mask="url(#mask14_1887_14401)">
<path opacity="0.2" d="M40.6107 59.1065L40.146 55.3733L38.4205 46.6955C38.4205 46.6955 34.06 34.1153 33.8962 42.6337C33.7324 51.1521 38.9744 50.6512 34.8209 52.1344C32.3043 53.0334 30.2914 52.3591 29.0959 51.6881C28.7741 51.5076 28.4444 51.9084 28.6723 52.1986C29.7142 53.5244 31.2981 54.3496 32.5191 54.8252C33.025 55.0225 32.9451 55.7694 32.408 55.8487C26.979 56.6503 23.1788 52.3322 23.1788 52.3322L21.1738 58.5626L22.0217 59.1065H40.6107Z" fill="black"/>
</g>
<path d="M22.7705 34.6059C22.7705 34.6059 22.3256 40.8359 23.5863 45.2121C24.8471 49.5881 23.5863 56.7824 23.5863 56.7824C23.5863 56.7824 29.4458 60.565 38.4201 57.6725C38.4201 57.6725 37.3075 36.3859 35.8243 35.1992C34.341 34.0125 25.9597 29.4882 22.7705 34.6059Z" stroke="#263238" stroke-width="0.274319" stroke-miterlimit="10" stroke-linecap="round" stroke-linejoin="round"/>
<path d="M35.8246 35.1995C35.8246 35.1995 37.5306 35.8669 37.8271 37.9067C38.1237 39.9463 40.0151 46.2136 40.0151 46.2136L40.6455 45.8057C40.6455 45.8057 42.4626 46.5475 42.166 48.6241C42.166 48.6241 40.6257 51.6427 38.9398 51.0716C37.2094 50.4856 36.2399 49.0712 35.3799 46.7549C34.9218 45.521 33.5996 41.8007 33.5996 41.8007" fill="#858585"/>
<path d="M35.8246 35.1995C35.8246 35.1995 37.5306 35.8669 37.8271 37.9067C38.1237 39.9463 40.0151 46.2136 40.0151 46.2136L40.6455 45.8057C40.6455 45.8057 42.4626 46.5475 42.166 48.6241C42.166 48.6241 40.6257 51.6427 38.9398 51.0716C37.2094 50.4856 36.2399 49.0712 35.3799 46.7549C34.9218 45.521 33.5996 41.8007 33.5996 41.8007" stroke="#263238" stroke-width="0.274319" stroke-miterlimit="10" stroke-linecap="round" stroke-linejoin="round"/>
<path d="M40.7784 48.0309C40.7874 48.1785 40.7814 48.3389 40.7559 48.5129" stroke="#263238" stroke-width="0.205739" stroke-linecap="round" stroke-linejoin="round"/>
<path d="M39.6436 49.2913C39.6436 49.2913 40.1628 48.4755 40.0885 46.6954C40.0885 46.6954 40.4451 46.9281 40.647 47.4334" stroke="#263238" stroke-width="0.205739" stroke-linecap="round" stroke-linejoin="round"/>
<path d="M41.0654 45.6327L43.0433 44.2236C43.0433 44.2236 43.3151 42.765 44.7986 42.3695C44.7986 42.3695 45.7135 40.8612 46.2325 41.0343C46.7515 41.2074 45.6145 41.8255 45.5154 42.6166L45.9357 43.1795C45.9357 43.1795 47.2955 42.9381 47.6417 42.4932C47.6417 42.4932 47.5676 43.4327 47.0236 43.5811C47.0236 43.5811 47.0236 44.2982 46.6528 44.2732L43.9332 45.0397L42.3509 47.9941L41.0654 45.6327Z" fill="white" stroke="#263238" stroke-width="0.274319" stroke-linecap="round" stroke-linejoin="round"/>
<path d="M32.9668 52.4913C33.2707 52.463 33.5804 52.4109 33.8956 52.3322" stroke="#263238" stroke-width="0.205739" stroke-linecap="round" stroke-linejoin="round"/>
<path d="M25.1934 47.9938C25.1934 47.9938 28.1096 52.4567 32.3235 52.517" stroke="#263238" stroke-width="0.205739" stroke-linecap="round" stroke-linejoin="round"/>
<path d="M40.2129 45.6818C40.2129 45.6818 42.2766 47.2393 42.0785 49.1181L42.8203 47.6966C42.8203 47.6966 42.7956 46.4976 41.0896 45.2368L40.2129 45.6818Z" fill="#858585" stroke="#263238" stroke-width="0.274319" stroke-miterlimit="10" stroke-linecap="round" stroke-linejoin="round"/>
<path d="M32.0173 96.2124H39.4335V95.8865C39.4335 95.8039 39.4195 95.7241 39.3946 95.6487H32.0088C32.0088 95.898 32.0173 96.2124 32.0173 96.2124Z" fill="white" stroke="#263238" stroke-width="0.205739" stroke-linecap="round" stroke-linejoin="round"/>
<path d="M30.4531 95.1775C29.767 94.9496 28.5817 94.5356 28.1379 94.2564C27.7821 94.0322 27.2828 93.3061 26.9155 93.1017C26.8082 93.0422 26.5199 93.0241 26.425 93.1017C26.2497 93.2447 26.2431 93.9881 26.2431 93.9881C26.2431 93.9881 25.9334 93.229 25.7079 93.1017C25.3939 92.9245 24.5451 92.8738 24.2656 93.1017C23.8047 93.4778 23.6377 94.7822 23.5469 95.3701C23.5271 95.4977 23.5469 96.2123 23.5469 96.2123H30.9631V95.8864C30.9631 95.5646 30.7584 95.279 30.4531 95.1775Z" fill="#263238" stroke="#263238" stroke-width="0.274319" stroke-linecap="round" stroke-linejoin="round"/>
<path d="M23.5466 96.2124H30.9628V95.8865C30.9628 95.8039 30.9491 95.7241 30.9238 95.6487H23.5381C23.5381 95.898 23.5466 96.2124 23.5466 96.2124Z" fill="white" stroke="#263238" stroke-width="0.205739" stroke-linecap="round" stroke-linejoin="round"/>
<path d="M34.4742 73.0007C34.4742 73.0007 33.6874 74.3586 32.4121 73.8412" stroke="#263238" stroke-width="0.205739" stroke-linecap="round" stroke-linejoin="round"/>
<path d="M28.9856 73.48C28.9856 73.48 27.5726 74.6853 26.4043 73.8415" stroke="#263238" stroke-width="0.205739" stroke-linecap="round" stroke-linejoin="round"/>
<path d="M43.7275 38.3392L43.9234 39.3221H45.6744L44.2523 38.9882L44.3209 38.3208L43.7275 38.3392Z" fill="#326FEA"/>
</svg>
