<svg width="17" height="19" viewBox="0 0 17 19" fill="none" xmlns="http://www.w3.org/2000/svg">
<path d="M6.625 3.5H10.375C10.375 3.00272 10.1775 2.52581 9.82582 2.17417C9.47419 1.82254 8.99728 1.625 8.5 1.625C8.00272 1.625 7.52581 1.82254 7.17417 2.17417C6.82254 2.52581 6.625 3.00272 6.625 3.5ZM5.5 3.5C5.5 2.70435 5.81607 1.94129 6.37868 1.37868C6.94129 0.816071 7.70435 0.5 8.5 0.5C9.29565 0.5 10.0587 0.816071 10.6213 1.37868C11.1839 1.94129 11.5 2.70435 11.5 3.5H16.1875C16.3367 3.5 16.4798 3.55926 16.5852 3.66475C16.6907 3.77024 16.75 3.91332 16.75 4.0625C16.75 4.21168 16.6907 4.35476 16.5852 4.46025C16.4798 4.56574 16.3367 4.625 16.1875 4.625H15.205L14.2922 15.5773C14.2258 16.374 13.8624 17.1167 13.2741 17.6581C12.6858 18.1994 11.9155 18.4999 11.116 18.5H5.884C5.08449 18.4999 4.3142 18.1994 3.72588 17.6581C3.13755 17.1167 2.77416 16.374 2.70775 15.5773L1.795 4.625H0.8125C0.663316 4.625 0.520242 4.56574 0.414752 4.46025C0.309263 4.35476 0.25 4.21168 0.25 4.0625C0.25 3.91332 0.309263 3.77024 0.414752 3.66475C0.520242 3.55926 0.663316 3.5 0.8125 3.5H5.5ZM3.829 15.4835C3.87189 15.9991 4.10697 16.4797 4.48761 16.83C4.86825 17.1804 5.36666 17.3749 5.884 17.375H11.116C11.6333 17.3749 12.1317 17.1804 12.5124 16.83C12.893 16.4797 13.1281 15.9991 13.171 15.4835L14.077 4.625H2.92375L3.829 15.4835ZM6.8125 7.25C6.96168 7.25 7.10476 7.30926 7.21025 7.41475C7.31574 7.52024 7.375 7.66332 7.375 7.8125V14.1875C7.375 14.3367 7.31574 14.4798 7.21025 14.5852C7.10476 14.6907 6.96168 14.75 6.8125 14.75C6.66332 14.75 6.52024 14.6907 6.41475 14.5852C6.30926 14.4798 6.25 14.3367 6.25 14.1875V7.8125C6.25 7.66332 6.30926 7.52024 6.41475 7.41475C6.52024 7.30926 6.66332 7.25 6.8125 7.25ZM10.75 7.8125C10.75 7.66332 10.6907 7.52024 10.5852 7.41475C10.4798 7.30926 10.3367 7.25 10.1875 7.25C10.0383 7.25 9.89524 7.30926 9.78975 7.41475C9.68426 7.52024 9.625 7.66332 9.625 7.8125V14.1875C9.625 14.3367 9.68426 14.4798 9.78975 14.5852C9.89524 14.6907 10.0383 14.75 10.1875 14.75C10.3367 14.75 10.4798 14.6907 10.5852 14.5852C10.6907 14.4798 10.75 14.3367 10.75 14.1875V7.8125Z" fill="#494949"/>
</svg>
