<svg width="24" height="28" viewBox="0 0 24 28" fill="none" xmlns="http://www.w3.org/2000/svg">
<path d="M23.2852 5.82129C23.2852 8.31798 21.2542 10.349 18.7575 10.349C16.2608 10.349 14.2298 8.31798 14.2298 5.82129C14.2298 3.32461 16.2608 1.29363 18.7575 1.29363C21.2542 1.29363 23.2852 3.32461 23.2852 5.82129ZM20.6979 12.6645C20.0511 12.8327 19.4043 12.9362 18.7575 12.9362C16.8715 12.9328 15.0638 12.1821 13.7303 10.8485C12.3967 9.51495 11.646 7.70723 11.6426 5.82129C11.6426 3.91967 12.3929 2.19916 13.583 0.918477C13.3482 0.630699 13.0522 0.39892 12.7165 0.24003C12.3809 0.0811398 12.014 -0.000859616 11.6426 6.79498e-06C10.2196 6.79498e-06 9.05534 1.16426 9.05534 2.58725V2.9624C5.21329 4.10078 2.58724 7.63236 2.58724 11.6426V19.4043L0 21.9915V23.2852H23.2852V21.9915L20.6979 19.4043V12.6645ZM11.6426 27.166C13.0785 27.166 14.2298 26.0147 14.2298 24.5788H9.05534C9.05534 25.265 9.32792 25.923 9.81312 26.4082C10.2983 26.8934 10.9564 27.166 11.6426 27.166Z" fill="white"/>
</svg>
