<svg width="34" height="34" viewBox="0 0 34 34" fill="none" xmlns="http://www.w3.org/2000/svg">
<path d="M28.2852 8.82129C28.2852 11.318 26.2542 13.349 23.7575 13.349C21.2608 13.349 19.2298 11.318 19.2298 8.82129C19.2298 6.32461 21.2608 4.29363 23.7575 4.29363C26.2542 4.29363 28.2852 6.32461 28.2852 8.82129ZM25.6979 15.6645C25.0511 15.8327 24.4043 15.9362 23.7575 15.9362C21.8715 15.9328 20.0638 15.1821 18.7303 13.8485C17.3967 12.515 16.646 10.7072 16.6426 8.82129C16.6426 6.91967 17.3929 5.19916 18.583 3.91848C18.3482 3.6307 18.0522 3.39892 17.7165 3.24003C17.3809 3.08114 17.014 2.99914 16.6426 3.00001C15.2196 3.00001 14.0553 4.16426 14.0553 5.58725V5.9624C10.2133 7.10078 7.58724 10.6324 7.58724 14.6426V22.4043L5 24.9915V26.2852H28.2852V24.9915L25.6979 22.4043V15.6645ZM16.6426 30.166C18.0785 30.166 19.2298 29.0147 19.2298 27.5788H14.0553C14.0553 28.265 14.3279 28.923 14.8131 29.4082C15.2983 29.8934 15.9564 30.166 16.6426 30.166Z" fill="white"/>
<circle cx="23.8491" cy="8.72796" r="4.98968" fill="#E67E22"/>
</svg>
