<svg width="12" height="11" viewBox="0 0 12 11" fill="none" xmlns="http://www.w3.org/2000/svg">
<path fill-rule="evenodd" clip-rule="evenodd" d="M3.41752 1.02933C3.57731 0.789622 3.79381 0.593068 4.0478 0.457116C4.3018 0.321164 4.58543 0.250021 4.87352 0.25H7.12518C7.41327 0.250021 7.6969 0.321164 7.95089 0.457116C8.20489 0.593068 8.42139 0.789622 8.58118 1.02933L9.05485 1.74042C9.10814 1.82028 9.18031 1.88576 9.26498 1.93105C9.34964 1.97633 9.44417 2.00001 9.54018 2H10.0827C10.5468 2 10.9919 2.18437 11.3201 2.51256C11.6483 2.84075 11.8327 3.28587 11.8327 3.75V9C11.8327 9.46413 11.6483 9.90925 11.3201 10.2374C10.9919 10.5656 10.5468 10.75 10.0827 10.75H1.91602C1.45189 10.75 1.00677 10.5656 0.678579 10.2374C0.35039 9.90925 0.166016 9.46413 0.166016 9V3.75C0.166016 3.28587 0.35039 2.84075 0.678579 2.51256C1.00677 2.18437 1.45189 2 1.91602 2H2.45852C2.55453 2.00001 2.64906 1.97633 2.73372 1.93105C2.81839 1.88576 2.89056 1.82028 2.94385 1.74042L3.41752 1.02933ZM4.83268 6.08333C4.83268 5.77391 4.9556 5.47717 5.17439 5.25838C5.39318 5.03958 5.68993 4.91667 5.99935 4.91667C6.30877 4.91667 6.60551 5.03958 6.82431 5.25838C7.0431 5.47717 7.16602 5.77391 7.16602 6.08333C7.16602 6.39275 7.0431 6.6895 6.82431 6.90829C6.60551 7.12708 6.30877 7.25 5.99935 7.25C5.68993 7.25 5.39318 7.12708 5.17439 6.90829C4.9556 6.6895 4.83268 6.39275 4.83268 6.08333ZM5.99935 3.75C5.38051 3.75 4.78702 3.99583 4.34943 4.43342C3.91185 4.871 3.66602 5.46449 3.66602 6.08333C3.66602 6.70217 3.91185 7.29566 4.34943 7.73325C4.78702 8.17083 5.38051 8.41667 5.99935 8.41667C6.61819 8.41667 7.21168 8.17083 7.64927 7.73325C8.08685 7.29566 8.33268 6.70217 8.33268 6.08333C8.33268 5.46449 8.08685 4.871 7.64927 4.43342C7.21168 3.99583 6.61819 3.75 5.99935 3.75Z" fill="#3D3D3D"/>
</svg>
