<svg width="27" height="27" viewBox="0 0 27 27" fill="none" xmlns="http://www.w3.org/2000/svg">
<path d="M13.413 25.7397C20.2685 25.7397 25.826 20.1822 25.826 13.3267C25.826 6.47118 20.2685 0.913696 13.413 0.913696C6.55748 0.913696 1 6.47118 1 13.3267C1 20.1822 6.55748 25.7397 13.413 25.7397Z" stroke="#868686" stroke-width="1.05083" stroke-linecap="round" stroke-linejoin="round"/>
<path fill-rule="evenodd" clip-rule="evenodd" d="M11.7417 18.7237H14.5045C16.4448 18.7237 17.4153 18.7237 18.1122 18.2668C18.4129 18.0697 18.6719 17.8154 18.8744 17.5183C19.34 16.8344 19.34 15.8814 19.34 13.9765C19.34 12.071 19.34 11.1185 18.8744 10.4347C18.6719 10.1376 18.4129 9.88324 18.1122 9.68616C17.6646 9.3921 17.1038 9.28703 16.2452 9.24973C15.8355 9.24973 15.483 8.9451 15.4028 8.55033C15.3415 8.26116 15.1823 8.00201 14.952 7.81669C14.7217 7.63138 14.4345 7.53125 14.1389 7.53323H12.1072C11.493 7.53323 10.9639 7.95909 10.8433 8.55033C10.7631 8.9451 10.4106 9.24973 10.0009 9.24973C9.14299 9.28703 8.58222 9.39272 8.13398 9.68616C7.83346 9.88328 7.57468 10.1376 7.3724 10.4347C6.90613 11.1185 6.90613 12.071 6.90613 13.9765C6.90613 15.8814 6.90613 16.8338 7.37178 17.5183C7.57321 17.8142 7.83183 18.0685 8.13398 18.2668C8.8309 18.7237 9.80136 18.7237 11.7417 18.7237ZM13.1231 11.4331C11.6926 11.4331 10.5325 12.5715 10.5325 13.9759C10.5325 15.3809 11.6926 16.5198 13.1231 16.5198C14.5536 16.5198 15.7137 15.3809 15.7137 13.9765C15.7137 12.5715 14.5536 11.4331 13.1231 11.4331ZM13.1231 12.4502C12.2651 12.4502 11.5688 13.1335 11.5688 13.9765C11.5688 14.8189 12.2651 15.5021 13.1231 15.5021C13.981 15.5021 14.6773 14.8189 14.6773 13.9765C14.6773 13.1335 13.981 12.4502 13.1231 12.4502ZM16.0587 11.9417C16.0587 11.6607 16.2906 11.4331 16.5772 11.4331H17.2673C17.5533 11.4331 17.7858 11.6607 17.7858 11.9417C17.7845 12.0778 17.7292 12.2078 17.6321 12.3031C17.535 12.3985 17.404 12.4514 17.2679 12.4502H16.5772C16.5098 12.4509 16.4429 12.4382 16.3803 12.413C16.3178 12.3878 16.2608 12.3506 16.2126 12.3033C16.1645 12.2561 16.1261 12.1999 16.0997 12.1378C16.0733 12.0758 16.0594 12.0091 16.0587 11.9417Z" fill="#3D3D3D"/>
</svg>
