<svg width="134" height="112" viewBox="0 0 134 112" fill="none" xmlns="http://www.w3.org/2000/svg">
<g clip-path="url(#clip0_1351_11783)">
<path d="M122.09 107.788C122.09 107.827 96.6113 107.858 65.1891 107.858C33.7562 107.858 8.2832 107.827 8.2832 107.788C8.2832 107.75 33.7562 107.719 65.1891 107.719C96.6111 107.718 122.09 107.75 122.09 107.788Z" fill="#263238"/>
<path d="M114.765 34.689C114.765 34.689 114.703 34.6601 114.574 34.6309C114.447 34.6011 114.245 34.5835 113.993 34.6394C113.74 34.6946 113.443 34.8336 113.146 35.0731C112.847 35.3111 112.567 35.6591 112.288 36.0718C111.739 36.9117 111.305 38.0746 110.801 39.43C110.305 40.7884 109.748 42.3581 109.287 44.1517L109.286 44.1579L109.283 44.1617C109.202 44.3071 109.101 44.4381 108.971 44.5481C108.841 44.652 108.665 44.7383 108.483 44.7035C108.302 44.6748 108.157 44.5572 108.033 44.4448C107.908 44.3288 107.79 44.2053 107.672 44.081C107.436 43.8325 107.199 43.5786 106.928 43.3569C106.661 43.145 106.338 42.9385 105.988 42.9733C105.647 43.0167 105.321 43.247 105.126 43.5467C104.929 43.855 104.846 44.2313 104.829 44.6105C104.783 45.3773 105.005 46.1494 105.139 46.9518C105.289 47.7526 105.442 48.573 105.599 49.4124C105.677 49.832 105.756 50.2563 105.836 50.6853C105.876 50.8998 105.916 51.1154 105.957 51.3321C106.005 51.5391 106.031 51.8067 105.88 52.018C105.806 52.1302 105.643 52.1739 105.522 52.1396C105.398 52.1104 105.296 52.0405 105.204 51.9746C105.024 51.8396 104.842 51.7041 104.66 51.5675C104.296 51.297 103.92 51.0348 103.523 50.8034C103.125 50.5747 102.703 50.3677 102.251 50.275C102.026 50.2297 101.792 50.2217 101.574 50.2796C101.355 50.3353 101.16 50.466 101.022 50.6492C100.744 51.0169 100.668 51.5124 100.661 51.9875C100.653 52.4688 100.714 52.9554 100.802 53.4391C100.982 54.4075 101.274 55.3701 101.619 56.3257C101.699 56.5657 101.819 56.7946 101.854 57.0705C101.871 57.2039 101.853 57.3651 101.755 57.4838C101.732 57.513 101.705 57.5395 101.677 57.5617C101.643 57.585 101.635 57.6046 101.573 57.623C101.466 57.6458 101.401 57.6008 101.339 57.5716C101.1 57.4326 100.915 57.2518 100.718 57.0788C100.527 56.902 100.336 56.7247 100.143 56.5466C99.759 56.1937 99.3661 55.8431 98.9228 55.5659C98.7017 55.429 98.4669 55.3093 98.2189 55.2461C97.9725 55.1775 97.7077 55.1982 97.5013 55.3347C97.2936 55.4735 97.1584 55.7041 97.0953 55.955C97.0293 56.2068 97.0006 56.4722 96.9995 56.7387C96.9957 57.2722 97.073 57.811 97.2016 58.3384C97.4452 59.3987 97.8698 60.4237 98.3668 61.4165C98.864 62.4107 99.4576 63.3695 100.104 64.2964C100.408 64.7726 100.793 65.1968 101.149 65.6433C101.511 66.0857 101.874 66.5301 102.239 66.9757L102.251 66.991L102.187 66.9661C102.758 66.8833 103.327 66.8008 103.893 66.7183C104.458 66.6286 105.03 66.5783 105.576 66.4288C106.679 66.1765 107.765 65.8648 108.804 65.4628C109.841 65.0613 110.847 64.5878 111.742 63.9662C112.193 63.6622 112.613 63.3148 112.97 62.9176C113.149 62.7197 113.307 62.5039 113.428 62.2733C113.551 62.0451 113.606 61.7837 113.546 61.5413C113.486 61.3019 113.304 61.1082 113.075 60.9936C112.849 60.8739 112.595 60.8048 112.339 60.7576C111.824 60.6652 111.297 60.661 110.774 60.6644C110.512 60.6671 110.25 60.6698 109.99 60.6725C109.727 60.6682 109.468 60.6778 109.198 60.6208C109.133 60.601 109.054 60.5908 108.991 60.5016C108.957 60.4459 108.965 60.4266 108.955 60.3862C108.949 60.3505 108.948 60.3136 108.95 60.2764C108.957 60.1224 109.053 59.9914 109.155 59.9041C109.367 59.7233 109.611 59.6347 109.831 59.5101C110.731 59.0347 111.596 58.5178 112.382 57.9219C112.773 57.6225 113.145 57.303 113.464 56.9414C113.778 56.5844 114.056 56.1669 114.097 55.7076C114.118 55.4796 114.061 55.252 113.936 55.0642C113.814 54.8752 113.635 54.7241 113.438 54.6073C113.04 54.3727 112.588 54.2426 112.14 54.1456C111.689 54.05 111.235 53.9924 110.783 53.9485C110.556 53.9268 110.331 53.9056 110.106 53.8842C109.994 53.8716 109.871 53.8545 109.76 53.7923C109.647 53.735 109.558 53.5928 109.579 53.4605C109.611 53.2034 109.811 53.0232 109.986 52.9026C110.162 52.7693 110.337 52.6367 110.511 52.5049C110.859 52.2411 111.204 51.9802 111.545 51.7221C112.226 51.206 112.892 50.7014 113.542 50.2091C114.182 49.7059 114.866 49.2827 115.349 48.6844C115.592 48.3925 115.783 48.0574 115.845 47.6977C115.901 47.3447 115.815 46.9551 115.592 46.6953C115.48 46.5632 115.317 46.4853 115.153 46.4336C114.987 46.3784 114.81 46.3618 114.637 46.349C114.287 46.3318 113.941 46.3602 113.599 46.3859C113.428 46.3985 113.257 46.4108 113.087 46.4127C112.919 46.413 112.733 46.4025 112.58 46.3024C112.422 46.206 112.35 46.0238 112.324 45.8599C112.302 45.6909 112.315 45.526 112.353 45.3642L112.354 45.3602L112.357 45.3546C113.222 43.7203 113.867 42.1881 114.414 40.8519C114.953 39.5125 115.415 38.3633 115.58 37.3763C115.655 36.8849 115.691 36.4406 115.633 36.0635C115.583 35.6869 115.465 35.3819 115.321 35.1684C115.178 34.9533 115.019 34.8291 114.906 34.7637C114.792 34.6973 114.727 34.6769 114.727 34.6769C114.727 34.6769 114.795 34.6895 114.912 34.7535C115.028 34.8162 115.192 34.9391 115.341 35.1553C115.49 35.3701 115.613 35.6783 115.668 36.0589C115.73 36.4403 115.697 36.8884 115.625 37.3838C115.465 38.3791 115.008 39.535 114.476 40.8765C113.934 42.2173 113.295 43.7506 112.431 45.3955L112.435 45.3859C112.401 45.5337 112.389 45.6947 112.41 45.8476C112.435 45.9976 112.497 46.1511 112.629 46.2298C112.757 46.3134 112.921 46.3249 113.087 46.3241C113.253 46.3217 113.422 46.3091 113.593 46.296C113.934 46.2692 114.284 46.2392 114.643 46.2558C114.821 46.2686 115.004 46.2852 115.181 46.3431C115.357 46.3975 115.536 46.4821 115.664 46.6305C115.916 46.9261 116 47.33 115.943 47.7138C115.878 48.0989 115.677 48.4482 115.428 48.749C114.933 49.3652 114.241 49.7932 113.606 50.2956C112.957 50.789 112.293 51.2944 111.613 51.8113C111.273 52.0697 110.929 52.3311 110.582 52.5952C110.408 52.7272 110.233 52.86 110.058 52.9934C109.968 53.0617 109.882 53.122 109.82 53.2029C109.757 53.2829 109.704 53.3775 109.696 53.4707C109.684 53.5647 109.734 53.6421 109.818 53.6903C109.905 53.7388 110.01 53.7554 110.12 53.7674C110.344 53.7883 110.569 53.8092 110.795 53.8304C111.249 53.874 111.708 53.9313 112.166 54.0278C112.621 54.1261 113.083 54.2565 113.501 54.5023C113.709 54.6253 113.903 54.7868 114.041 54.9973C114.18 55.2062 114.245 55.4665 114.222 55.7169C114.175 56.2253 113.88 56.6573 113.559 57.0247C113.233 57.3962 112.855 57.7205 112.46 58.0237C111.666 58.6271 110.796 59.1472 109.892 59.6261C109.669 59.7509 109.423 59.8457 109.243 60.0027C109.153 60.0809 109.087 60.1767 109.082 60.2849C109.08 60.312 109.081 60.3396 109.086 60.3677C109.089 60.3888 109.097 60.4397 109.105 60.4352C109.113 60.4545 109.174 60.481 109.23 60.4928C109.467 60.5437 109.733 60.537 109.99 60.5402C110.25 60.5372 110.511 60.5345 110.773 60.5316C111.298 60.5278 111.832 60.5311 112.363 60.6259C112.628 60.6746 112.894 60.7453 113.14 60.8755C113.387 60.9979 113.608 61.2239 113.678 61.5097C113.749 61.7912 113.68 62.0906 113.55 62.3346C113.421 62.581 113.257 62.8046 113.073 63.0087C112.705 63.4182 112.277 63.7709 111.82 64.0797C110.913 64.7102 109.899 65.1877 108.854 65.5927C107.807 65.9982 106.719 66.311 105.606 66.5657C105.053 66.7165 104.483 66.7665 103.916 66.8565C103.349 66.939 102.779 67.0218 102.208 67.1048L102.169 67.1104L102.144 67.0799L102.131 67.0646C101.766 66.6182 101.402 66.1733 101.04 65.7303C100.683 65.2828 100.299 64.8599 99.9906 64.3784C99.3393 63.4434 98.7443 62.4819 98.2433 61.4797C97.7431 60.4794 97.3148 59.4458 97.0682 58.3703C96.9383 57.8352 96.8594 57.2875 96.8634 56.7379C96.8648 56.4634 96.8938 56.1878 96.9649 55.9189C97.0328 55.651 97.1838 55.383 97.4264 55.2228C97.6712 55.0592 97.987 55.0407 98.2519 55.1157C98.5219 55.1848 98.7661 55.3109 98.9947 55.4523C99.4517 55.7386 99.8489 56.0946 100.235 56.4492C100.426 56.627 100.618 56.8043 100.809 56.9811C101.001 57.1511 101.193 57.3343 101.403 57.4559C101.452 57.4848 101.515 57.5057 101.534 57.4974C101.537 57.5057 101.577 57.4741 101.593 57.4602C101.616 57.4425 101.635 57.4227 101.652 57.4018C101.722 57.3188 101.737 57.2034 101.724 57.0852C101.696 56.8482 101.578 56.6128 101.497 56.371C101.15 55.41 100.857 54.4418 100.676 53.4627C100.588 52.9731 100.526 52.4797 100.535 51.9856C100.545 51.4984 100.617 50.9807 100.925 50.5728C101.076 50.3717 101.299 50.2217 101.542 50.1607C101.786 50.0966 102.039 50.1074 102.275 50.1553C102.751 50.2539 103.18 50.467 103.584 50.6998C103.987 50.9352 104.366 51.2006 104.731 51.473C104.913 51.609 105.093 51.7446 105.273 51.8795C105.363 51.9452 105.452 52.003 105.549 52.026C105.644 52.0477 105.733 52.0244 105.788 51.9473C105.846 51.8739 105.87 51.7681 105.878 51.6669C105.886 51.5646 105.864 51.4631 105.843 51.3519C105.803 51.1353 105.763 50.9199 105.724 50.7054C105.645 50.2766 105.566 49.8527 105.489 49.4332C105.334 48.5944 105.182 47.7743 105.035 46.9738C104.903 46.1752 104.679 45.3942 104.727 44.6057C104.746 44.216 104.832 43.8226 105.043 43.4934C105.259 43.171 105.593 42.9286 105.979 42.878C106.173 42.8533 106.363 42.9115 106.53 42.9883C106.701 43.0641 106.847 43.1745 106.988 43.2851C107.265 43.5135 107.504 43.7709 107.739 44.0197C107.856 44.144 107.973 44.2669 108.094 44.3802C108.216 44.4922 108.345 44.5937 108.496 44.618C108.647 44.6483 108.797 44.5768 108.916 44.4825C109.035 44.3834 109.134 44.2559 109.209 44.1236L109.205 44.1333C109.674 42.3324 110.236 40.7662 110.74 39.4081C111.25 38.0553 111.691 36.8905 112.25 36.0479C112.535 35.6339 112.82 35.2854 113.125 35.0473C113.428 34.8079 113.732 34.67 113.988 34.6178C114.246 34.5647 114.45 34.5867 114.578 34.6207C114.706 34.6526 114.765 34.689 114.765 34.689Z" fill="#263238"/>
<path d="M113.358 38.3321C113.36 38.3329 113.351 38.3626 113.331 38.4196C113.307 38.4831 113.277 38.5664 113.238 38.6714C113.151 38.8998 113.027 39.2226 112.87 39.6342C112.544 40.4776 112.078 41.6839 111.504 43.1711C110.361 46.1694 108.787 50.2979 107.047 54.8581C105.313 59.4262 103.726 63.5552 102.551 66.5334C101.964 68.0228 101.483 69.2258 101.144 70.0542C100.976 70.4618 100.845 70.7814 100.751 71.0074C100.707 71.1102 100.673 71.1917 100.646 71.2541C100.622 71.3092 100.608 71.3371 100.606 71.3363C100.604 71.3355 100.613 71.3058 100.633 71.2487C100.656 71.1852 100.687 71.1019 100.725 70.997C100.813 70.7685 100.936 70.4458 101.094 70.0341C101.419 69.1908 101.885 67.9847 102.459 66.4975C103.602 63.4992 105.177 59.3704 106.917 54.8086C108.651 50.2422 110.237 46.1134 111.413 43.1352C112 41.6458 112.48 40.4428 112.82 39.6141C112.988 39.2065 113.119 38.887 113.212 38.6607C113.256 38.5578 113.291 38.4764 113.318 38.414C113.342 38.3588 113.356 38.331 113.358 38.3321Z" fill="#263238"/>
<path d="M113.502 47.5758C113.511 47.5937 113.251 47.7405 112.83 47.9738C112.37 48.2293 111.808 48.5413 111.187 48.8863C110.544 49.2427 109.959 49.5604 109.528 49.776C109.096 49.9924 108.819 50.1046 108.811 50.088C108.802 50.07 109.063 49.927 109.481 49.6892C109.939 49.4305 110.5 49.1142 111.119 48.7644C111.762 48.4079 112.351 48.0978 112.785 47.8865C113.218 47.6749 113.494 47.5592 113.502 47.5758Z" fill="#263238"/>
<path d="M108.592 49.9247C108.557 49.9418 107.919 48.7265 107.167 47.2103C106.414 45.6936 105.832 44.4509 105.867 44.4338C105.901 44.4166 106.539 45.6318 107.292 47.1484C108.045 48.6646 108.627 49.9076 108.592 49.9247Z" fill="#263238"/>
<path d="M106.247 57.0577C106.234 57.0705 106.005 56.8686 105.657 56.5212C105.309 56.1731 104.841 55.6787 104.356 55.105C103.869 54.5321 103.457 53.9906 103.172 53.5899C102.886 53.1892 102.724 52.9311 102.739 52.9203C102.756 52.9086 102.946 53.1461 103.25 53.5307C103.555 53.9153 103.978 54.4448 104.462 55.015C104.945 55.5863 105.399 56.089 105.728 56.4535C106.058 56.8172 106.261 57.0435 106.247 57.0577Z" fill="#263238"/>
<path d="M111.154 55.9087C111.159 55.9274 110.888 56.0051 110.447 56.1154C110.006 56.2258 109.394 56.3688 108.717 56.5185C108.04 56.6682 107.425 56.796 106.979 56.8817C106.532 56.9674 106.254 57.011 106.25 56.9923C106.246 56.9736 106.517 56.8959 106.957 56.7855C107.398 56.6752 108.01 56.5322 108.687 56.3825C109.364 56.2327 109.979 56.105 110.425 56.0193C110.872 55.9336 111.15 55.8897 111.154 55.9087Z" fill="#263238"/>
<path d="M109.885 62.4684C109.889 62.4871 109.54 62.5787 108.972 62.7113C108.405 62.8439 107.619 63.0177 106.75 63.2011C105.88 63.3846 105.091 63.5431 104.519 63.6511C103.946 63.759 103.59 63.8163 103.586 63.7976C103.582 63.7788 103.931 63.6872 104.498 63.5547C105.065 63.4221 105.851 63.2483 106.721 63.0648C107.59 62.8813 108.379 62.7228 108.952 62.6149C109.524 62.5069 109.881 62.4496 109.885 62.4684Z" fill="#263238"/>
<path d="M103.73 63.7234C103.722 63.7299 103.651 63.6645 103.528 63.5408C103.405 63.4173 103.231 63.2336 103.02 63.0038C102.599 62.5434 102.031 61.8937 101.436 61.1504C100.84 60.4078 100.328 59.7136 99.9709 59.2023C99.7919 58.9468 99.6513 58.7373 99.5571 58.5903C99.4632 58.4433 99.4149 58.3594 99.4227 58.3538C99.4305 58.3482 99.4938 58.4216 99.6014 58.5587C99.7267 58.7218 99.8762 58.9168 100.051 59.1439C100.428 59.6394 100.95 60.3223 101.545 61.0631C102.139 61.8045 102.693 62.4622 103.094 62.9387C103.496 63.4146 103.745 63.71 103.73 63.7234Z" fill="#263238"/>
<path d="M101.043 81.6637C96.3837 77.9158 95.7085 71.5054 96.2936 65.8246C96.391 64.8765 96.3553 63.867 96.8657 63.0641C97.3764 62.2614 98.4723 61.7638 99.2975 62.2226C99.9821 62.6032 100.234 63.4455 100.583 64.1515C101.047 65.091 101.78 65.8923 102.67 66.4336C103.255 66.7893 103.992 67.0327 104.613 66.744C105.466 66.3479 105.64 65.222 105.699 64.276C105.809 62.5132 105.92 60.7506 106.029 58.9884C106.088 58.0427 106.152 57.0772 106.508 56.2003C106.864 55.3232 107.573 54.5344 108.491 54.344C109.41 54.1539 110.488 54.7487 110.615 55.6869C110.668 56.0774 110.561 56.4716 110.561 56.8659C110.56 57.2601 110.714 57.7068 111.079 57.8418C111.45 57.9787 111.847 57.7366 112.149 57.4792C113.193 56.5916 113.941 55.4076 114.644 54.2273C115.349 53.047 116.036 51.8361 116.995 50.8559C117.954 49.8756 119.237 49.1346 120.599 49.1506C121.961 49.167 123.349 50.1014 123.6 51.4539C123.853 52.8102 122.98 54.1091 122.059 55.1298C120.691 56.6444 119.106 57.9578 117.369 59.0165C117.055 59.2074 116.716 59.4139 116.578 59.7562C116.329 60.3725 116.884 61.0394 117.493 61.2892C118.183 61.5723 118.954 61.5514 119.687 61.6888C120.419 61.8262 121.197 62.206 121.429 62.9219C121.75 63.9147 120.871 64.8719 120.029 65.4807C118.342 66.6998 116.448 67.6243 114.456 68.2018C113.742 68.4085 112.993 68.5816 112.398 69.0315C111.802 69.482 111.405 70.3082 111.698 70.9971C111.992 71.687 112.849 71.9596 113.588 71.8744C114.327 71.7895 115.008 71.4387 115.721 71.2244C117.056 70.8232 118.731 71.0279 119.488 72.2076C119.985 72.9832 119.963 74.0141 119.625 74.8749C119.288 75.7357 118.674 76.455 118.029 77.1128C115.774 79.4129 112.969 81.1966 109.877 82.0349C106.786 82.8732 103.969 82.9642 101.043 81.6637Z" fill="#326FEA"/>
<g opacity="0.1">
<path d="M101.043 81.6637C96.3837 77.9158 95.7085 71.5054 96.2936 65.8246C96.391 64.8765 96.3553 63.867 96.8657 63.0641C97.3764 62.2614 98.4723 61.7638 99.2975 62.2226C99.9821 62.6032 100.234 63.4455 100.583 64.1515C101.047 65.091 101.78 65.8923 102.67 66.4336C103.255 66.7893 103.992 67.0327 104.613 66.744C105.466 66.3479 105.64 65.222 105.699 64.276C105.809 62.5132 105.92 60.7506 106.029 58.9884C106.088 58.0427 106.152 57.0772 106.508 56.2003C106.864 55.3232 107.573 54.5344 108.491 54.344C109.41 54.1539 110.488 54.7487 110.615 55.6869C110.668 56.0774 110.561 56.4716 110.561 56.8659C110.56 57.2601 110.714 57.7068 111.079 57.8418C111.45 57.9787 111.847 57.7366 112.149 57.4792C113.193 56.5916 113.941 55.4076 114.644 54.2273C115.349 53.047 116.036 51.8361 116.995 50.8559C117.954 49.8756 119.237 49.1346 120.599 49.1506C121.961 49.167 123.349 50.1014 123.6 51.4539C123.853 52.8102 122.98 54.1091 122.059 55.1298C120.691 56.6444 119.106 57.9578 117.369 59.0165C117.055 59.2074 116.716 59.4139 116.578 59.7562C116.329 60.3725 116.884 61.0394 117.493 61.2892C118.183 61.5723 118.954 61.5514 119.687 61.6888C120.419 61.8262 121.197 62.206 121.429 62.9219C121.75 63.9147 120.871 64.8719 120.029 65.4807C118.342 66.6998 116.448 67.6243 114.456 68.2018C113.742 68.4085 112.993 68.5816 112.398 69.0315C111.802 69.482 111.405 70.3082 111.698 70.9971C111.992 71.687 112.849 71.9596 113.588 71.8744C114.327 71.7895 115.008 71.4387 115.721 71.2244C117.056 70.8232 118.731 71.0279 119.488 72.2076C119.985 72.9832 119.963 74.0141 119.625 74.8749C119.288 75.7357 118.674 76.455 118.029 77.1128C115.774 79.4129 112.969 81.1966 109.877 82.0349C106.786 82.8732 103.969 82.9642 101.043 81.6637Z" fill="black"/>
</g>
<path d="M100.678 85.8807C101.039 83.639 101.718 81.0093 102.761 78.1955C103.798 75.3794 105.192 72.3867 106.757 69.3064C107.151 68.5381 107.541 67.7785 107.924 67.0302C108.309 66.2841 108.691 65.5438 109.109 64.8432C109.939 63.4376 110.845 62.1494 111.743 60.9536C112.64 59.7566 113.536 58.6537 114.38 57.6285C115.228 56.6046 116.036 55.6651 116.809 54.8402C118.35 53.184 119.749 51.9975 120.743 51.2222C121.239 50.8327 121.634 50.5432 121.904 50.3507C122.034 50.2593 122.136 50.1876 122.212 50.1335C122.282 50.0855 122.319 50.0622 122.321 50.0646C122.323 50.067 122.29 50.0954 122.223 50.1482C122.149 50.2055 122.05 50.2821 121.925 50.3793C121.661 50.581 121.274 50.8791 120.784 51.276C119.805 52.0669 118.424 53.2635 116.899 54.9254C116.134 55.7532 115.333 56.6951 114.492 57.7217C113.652 58.7504 112.762 59.8549 111.87 61.0513C110.978 62.2471 110.079 63.5324 109.256 64.9315C108.841 65.6292 108.464 66.3631 108.078 67.1114C107.695 67.8594 107.306 68.6187 106.912 69.3868C105.348 72.4646 103.954 75.4482 102.911 78.2526C101.864 81.0543 101.176 83.6704 100.8 85.9014" fill="#263238"/>
<path d="M109.16 64.8387C109.148 64.8398 109.125 64.6941 109.095 64.4292C109.063 64.1646 109.03 63.7803 108.995 63.3049C108.926 62.3547 108.875 61.0388 108.825 59.588C108.775 58.1364 108.705 56.8252 108.622 55.8784C108.581 55.4049 108.545 55.0219 108.516 54.7578C108.489 54.4932 108.479 54.3459 108.491 54.3438C108.503 54.3419 108.535 54.4857 108.583 54.7482C108.633 55.0101 108.688 55.392 108.744 55.8655C108.86 56.8123 108.949 58.1281 108.999 59.5811C109.045 61.0129 109.087 62.3081 109.119 63.2979C109.136 63.7449 109.151 64.1218 109.162 64.4241C109.172 64.6898 109.172 64.8376 109.16 64.8387Z" fill="#263238"/>
<path d="M121.494 63.4021C121.494 63.4141 121.319 63.4224 121.005 63.427C120.69 63.4334 120.235 63.4401 119.674 63.4666C118.55 63.5103 117 63.6252 115.295 63.8263C113.59 64.0307 112.056 64.2811 110.951 64.4943C110.397 64.5968 109.952 64.6919 109.644 64.7559C109.335 64.821 109.163 64.8515 109.16 64.8398C109.157 64.8277 109.324 64.7749 109.628 64.689C109.932 64.6046 110.374 64.4908 110.927 64.3719C112.028 64.1268 113.565 63.856 115.275 63.6509C116.985 63.4492 118.542 63.3536 119.67 63.3418C120.234 63.3314 120.691 63.3434 121.006 63.3584C121.321 63.375 121.495 63.3898 121.494 63.4021Z" fill="#263238"/>
<path d="M102.927 77.9816C102.921 77.9837 102.896 77.9307 102.854 77.8276C102.805 77.7049 102.747 77.555 102.676 77.3736C102.523 76.9789 102.317 76.4014 102.071 75.6853C101.579 74.2527 100.962 72.2526 100.311 70.0363C99.6597 67.819 99.0624 65.816 98.6013 64.3753C98.3751 63.6747 98.1886 63.0986 98.0501 62.6704C97.9911 62.4845 97.9425 62.3313 97.9028 62.2054C97.8709 62.0988 97.8569 62.0415 97.8625 62.0391C97.8682 62.0372 97.8931 62.0903 97.9358 62.1934C97.9838 62.316 98.0426 62.4655 98.1137 62.6471C98.2667 63.0418 98.4728 63.6193 98.7183 64.3354C99.2102 65.768 99.8272 67.7681 100.478 69.9854C101.13 72.202 101.727 74.205 102.188 75.6459C102.415 76.346 102.601 76.9226 102.739 77.3506C102.798 77.5365 102.847 77.6899 102.886 77.8156C102.919 77.9227 102.933 77.9797 102.927 77.9816Z" fill="#263238"/>
<path d="M119.466 73.8848C119.467 73.8907 119.41 73.9095 119.301 73.94C119.172 73.9738 119.013 74.015 118.82 74.0651C118.376 74.176 117.777 74.3254 117.049 74.507C115.553 74.8806 113.493 75.4197 111.218 76.0189C108.942 76.6185 106.875 77.1394 105.371 77.4817C104.619 77.6534 104.01 77.786 103.586 77.869C103.391 77.9062 103.23 77.9368 103.099 77.9619C102.987 77.9812 102.927 77.9885 102.926 77.9823C102.925 77.9764 102.982 77.9576 103.091 77.9269C103.22 77.8934 103.379 77.8521 103.572 77.802C104.016 77.6912 104.614 77.542 105.343 77.3601C106.839 76.9871 108.899 76.4474 111.175 75.848C113.45 75.2486 115.517 74.7277 117.021 74.3851C117.773 74.2135 118.382 74.0809 118.806 73.9979C119.001 73.9606 119.162 73.9298 119.294 73.9049C119.405 73.8859 119.465 73.879 119.466 73.8848Z" fill="#263238"/>
<path d="M102.129 7.72852H37.0508V96.7273H102.129V7.72852Z" fill="#455A64"/>
<path d="M99.5553 91.4349H87.5022H42.4688V11.3263H99.5553V81.4689V91.4349Z" fill="#E0E0E0"/>
<path d="M98.6544 89.9493H86.71H42.082V10.2676H98.6544V80.0363V89.9493Z" fill="#EBEBEB"/>
<path d="M92.575 83.7492L86.0591 89.0444H41.0254V10.4707H98.1122V79.2693L92.575 83.7492Z" fill="white"/>
<path d="M92.5744 83.7483C92.5744 83.7483 92.6898 83.65 92.9222 83.4593C93.1562 83.2683 93.5046 82.9842 93.9661 82.6076C94.8933 81.8542 96.275 80.7318 98.0974 79.2513L98.0891 79.2684C98.0824 67.9673 98.0674 42.8558 98.0483 10.4698L98.1114 10.5327C81.1119 10.5346 61.851 10.537 41.5232 10.5394C41.3555 10.5394 41.1875 10.5394 41.0249 10.5394L41.0946 10.4698C41.0895 40.0094 41.0847 67.2605 41.0807 89.0434L41.0246 88.9877C61.5814 89.0025 77.373 89.0135 86.058 89.0199L86.0429 89.0252C88.2161 87.2659 89.8471 85.9452 90.9361 85.0636C91.4804 84.6249 91.8888 84.2955 92.1622 84.075C92.436 83.8554 92.5744 83.7483 92.5744 83.7483C92.5744 83.7483 92.4411 83.8618 92.1708 84.0844C91.899 84.3072 91.493 84.6396 90.9522 85.0826C89.8665 85.9683 88.2402 87.2948 86.0735 89.0622L86.0671 89.0675H86.0585C77.3732 89.0737 61.5819 89.085 41.0251 89.0997H40.969V89.0437C40.9653 67.2608 40.9604 40.0097 40.9551 10.47V10.4004H41.0249C41.1877 10.4004 41.3555 10.4004 41.5232 10.4004C61.8513 10.4028 81.1122 10.4052 98.1114 10.4071H98.1747V10.47C98.1554 42.8564 98.1406 67.9676 98.1339 79.2687V79.2794L98.1256 79.2861C96.297 80.7594 94.911 81.8762 93.9806 82.6258C93.5158 82.9986 93.1653 83.2799 92.9297 83.4687C92.6947 83.6559 92.5744 83.7483 92.5744 83.7483Z" fill="#263238"/>
<path d="M81.2722 12.972H57.9082V8.9308C57.9082 6.74803 59.6812 4.97852 61.8683 4.97852H77.4737C79.5714 4.97852 81.272 6.67572 81.272 8.7693V12.972H81.2722Z" fill="#326FEA"/>
<path d="M63.6293 4.9781L62.7754 0.666138H76.2277L75.4804 4.9781H63.6293Z" fill="#326FEA"/>
<path d="M56.6137 32.5868H46.9961V22.9883H56.6137V32.5868ZM47.2644 32.319H56.3453V23.2561H47.2644V32.319Z" fill="#326FEA"/>
<path d="M90.5981 25.306C90.5981 25.3445 83.9034 25.3756 75.6475 25.3756C67.3883 25.3756 60.6953 25.3443 60.6953 25.306C60.6953 25.2674 67.3883 25.2363 75.6475 25.2363C83.9037 25.2361 90.5981 25.2674 90.5981 25.306Z" fill="#263238"/>
<path d="M90.5981 27.3001C90.5981 27.3387 83.9034 27.3697 75.6475 27.3697C67.3883 27.3697 60.6953 27.3384 60.6953 27.3001C60.6953 27.2615 67.3883 27.2305 75.6475 27.2305C83.9037 27.2305 90.5981 27.2615 90.5981 27.3001Z" fill="#263238"/>
<path d="M90.5981 29.2942C90.5981 29.3328 83.9034 29.3639 75.6475 29.3639C67.3883 29.3639 60.6953 29.3325 60.6953 29.2942C60.6953 29.2557 67.3883 29.2246 75.6475 29.2246C83.9037 29.2246 90.5981 29.2557 90.5981 29.2942Z" fill="#263238"/>
<path d="M90.5981 31.2903C90.5981 31.3289 83.9034 31.36 75.6475 31.36C67.3883 31.36 60.6953 31.3286 60.6953 31.2903C60.6953 31.252 67.3883 31.2207 75.6475 31.2207C83.9037 31.2207 90.5981 31.252 90.5981 31.2903Z" fill="#263238"/>
<path d="M56.6137 47.3776H46.9961V37.7793H56.6137V47.3776ZM47.2644 47.1098H56.3453V38.0471H47.2644V47.1098Z" fill="#326FEA"/>
<path d="M48.9082 42.7756L50.185 41.407L52.3128 43.106L57.1835 38.3867L58.3503 39.759L52.2184 45.7961L48.9082 42.7756Z" fill="#326FEA"/>
<path d="M90.5981 40.097C90.5981 40.1355 83.9034 40.1666 75.6475 40.1666C67.3883 40.1666 60.6953 40.1353 60.6953 40.097C60.6953 40.0587 67.3883 40.0273 75.6475 40.0273C83.9037 40.0271 90.5981 40.0584 90.5981 40.097Z" fill="#263238"/>
<path d="M90.5981 42.0911C90.5981 42.1297 83.9034 42.1608 75.6475 42.1608C67.3883 42.1608 60.6953 42.1294 60.6953 42.0911C60.6953 42.0528 67.3883 42.0215 75.6475 42.0215C83.9037 42.0215 90.5981 42.0526 90.5981 42.0911Z" fill="#263238"/>
<path d="M90.5981 44.0853C90.5981 44.1238 83.9034 44.1549 75.6475 44.1549C67.3883 44.1549 60.6953 44.1236 60.6953 44.0853C60.6953 44.047 67.3883 44.0156 75.6475 44.0156C83.9037 44.0156 90.5981 44.047 90.5981 44.0853Z" fill="#263238"/>
<path d="M90.5981 46.0814C90.5981 46.1199 83.9034 46.151 75.6475 46.151C67.3883 46.151 60.6953 46.1197 60.6953 46.0814C60.6953 46.0428 67.3883 46.0117 75.6475 46.0117C83.9037 46.0115 90.5981 46.0428 90.5981 46.0814Z" fill="#263238"/>
<path d="M56.6137 61.6943H46.9961V52.0957H56.6137V61.6943ZM47.2644 61.4264H56.3453V52.3635H47.2644V61.4264Z" fill="#326FEA"/>
<path d="M48.9082 57.092L50.185 55.7234L52.3128 57.4225L57.1835 52.7031L58.3503 54.0755L52.2184 60.1125L48.9082 57.092Z" fill="#326FEA"/>
<path d="M90.5981 54.4134C90.5981 54.4519 83.9034 54.483 75.6475 54.483C67.3883 54.483 60.6953 54.4517 60.6953 54.4134C60.6953 54.3751 67.3883 54.3438 75.6475 54.3438C83.9037 54.3437 90.5981 54.3748 90.5981 54.4134Z" fill="#263238"/>
<path d="M90.5981 56.4075C90.5981 56.4461 83.9034 56.4772 75.6475 56.4772C67.3883 56.4772 60.6953 56.4458 60.6953 56.4075C60.6953 56.3692 67.3883 56.3379 75.6475 56.3379C83.9037 56.3379 90.5981 56.3692 90.5981 56.4075Z" fill="#263238"/>
<path d="M90.5981 58.4036C90.5981 58.4422 83.9034 58.4733 75.6475 58.4733C67.3883 58.4733 60.6953 58.4419 60.6953 58.4036C60.6953 58.3651 67.3883 58.334 75.6475 58.334C83.9037 58.3337 90.5981 58.3651 90.5981 58.4036Z" fill="#263238"/>
<path d="M90.5981 60.3978C90.5981 60.4363 83.9034 60.4674 75.6475 60.4674C67.3883 60.4674 60.6953 60.4361 60.6953 60.3978C60.6953 60.3592 67.3883 60.3281 75.6475 60.3281C83.9037 60.3279 90.5981 60.3592 90.5981 60.3978Z" fill="#263238"/>
<path d="M56.6137 75.5146H46.9961V65.916H56.6137V75.5146ZM47.2644 75.2467H56.3453V66.1838H47.2644V75.2467Z" fill="#326FEA"/>
<path d="M48.9082 70.9125L50.185 69.544L52.3128 71.2428L57.1835 66.5234L58.3503 67.896L52.2184 73.9328L48.9082 70.9125Z" fill="#326FEA"/>
<path d="M90.5981 68.2337C90.5981 68.2723 83.9034 68.3033 75.6475 68.3033C67.3883 68.3033 60.6953 68.272 60.6953 68.2337C60.6953 68.1954 67.3883 68.1641 75.6475 68.1641C83.9037 68.1638 90.5981 68.1951 90.5981 68.2337Z" fill="#263238"/>
<path d="M90.5981 70.2298C90.5981 70.2684 83.9034 70.2994 75.6475 70.2994C67.3883 70.2994 60.6953 70.2681 60.6953 70.2298C60.6953 70.1915 67.3883 70.1602 75.6475 70.1602C83.9037 70.1599 90.5981 70.1912 90.5981 70.2298Z" fill="#263238"/>
<path d="M90.5981 72.2239C90.5981 72.2625 83.9034 72.2936 75.6475 72.2936C67.3883 72.2936 60.6953 72.2622 60.6953 72.2239C60.6953 72.1856 67.3883 72.1543 75.6475 72.1543C83.9037 72.1543 90.5981 72.1854 90.5981 72.2239Z" fill="#263238"/>
<path d="M90.5981 74.2181C90.5981 74.2566 83.9034 74.2877 75.6475 74.2877C67.3883 74.2877 60.6953 74.2564 60.6953 74.2181C60.6953 74.1798 67.3883 74.1484 75.6475 74.1484C83.9037 74.1484 90.5981 74.1798 90.5981 74.2181Z" fill="#263238"/>
<path d="M87.8484 76.0332L81.5898 88.9694H86.0585L87.8484 76.0332Z" fill="#E0E0E0"/>
<path d="M86.0586 89.0437L87.8485 76.1075L98.1117 79.2687L86.0586 89.0437Z" fill="#FAFAFA"/>
<path d="M86.0589 89.043C86.3108 88.8359 87.4189 87.9259 89.5102 86.2078C91.6549 84.4557 94.6478 82.0102 98.0691 79.2149L98.0919 79.333C96.8188 78.9414 95.491 78.533 94.1296 78.1141C91.9082 77.4285 89.7772 76.7707 87.8297 76.1694L87.9143 76.1156C87.3778 79.8732 86.9184 83.0919 86.5918 85.3799C86.2679 87.6047 86.101 88.7529 86.0589 89.043C86.0578 89.0446 86.0599 89.0253 86.0648 88.9856C86.0707 88.9396 86.0779 88.8806 86.0873 88.8067C86.1093 88.6391 86.1402 88.4039 86.1796 88.1023C86.2628 87.474 86.3822 86.5704 86.5322 85.4359C86.8414 83.1297 87.2761 79.8855 87.7839 76.0982L87.794 76.0216L87.8684 76.0444C89.8166 76.6432 91.9485 77.2983 94.1707 77.9813C95.5321 78.4012 96.8593 78.8105 98.1321 79.2031L98.2548 79.2409L98.155 79.3212C94.6924 82.1087 91.6632 84.5475 89.4925 86.2948C88.4207 87.1545 87.5611 87.8436 86.963 88.3236C86.6737 88.555 86.448 88.7355 86.2883 88.8635C86.2164 88.9206 86.1592 88.9658 86.1155 89.0006C86.0769 89.0304 86.0578 89.0448 86.0589 89.043Z" fill="#263238"/>
<g opacity="0.3">
<path d="M75.2984 0.666138L74.5566 4.9781H75.4803L76.2277 0.666138H75.051" fill="black"/>
</g>
<path d="M35.8957 46.1453C37.2611 46.25 38.4397 45.201 38.4926 43.8353C38.543 42.5238 38.5873 41.1981 38.5873 41.1981C38.5873 41.1981 40.5785 41.0119 40.7229 39.045C40.8673 37.0781 40.8012 32.5377 40.8012 32.5377C38.5779 31.4198 35.9228 31.5901 33.8613 32.9831L33.9842 39.905V43.6288C33.9971 44.8782 34.6476 46.0497 35.8957 46.1453Z" fill="#FFBE9D"/>
<path d="M38.7585 36.6431C38.4185 36.2226 37.8657 36.0552 37.4119 36.3495C36.9578 36.6439 36.7834 37.2982 37.0303 37.7789C37.2044 38.1182 37.6013 38.4257 37.9971 38.5085C38.3694 38.5864 38.6331 38.9447 38.5897 39.3218C38.533 39.8154 38.2693 40.2828 37.8979 40.6915C37.3204 41.327 36.4705 41.6693 35.6168 41.77C34.7774 41.8691 33.8159 41.6945 33.3278 41.0059C32.9725 40.5051 32.9467 39.8503 32.9341 39.2367C32.904 37.7864 32.874 36.3364 32.8439 34.8864C32.8332 34.3636 32.823 33.8344 32.9432 33.3255C33.0634 32.8167 33.3305 32.322 33.7681 32.0346C34.2474 31.7196 34.8547 31.6929 35.4008 31.5166C36.0832 31.2965 36.6629 30.8444 37.3016 30.5185C37.9403 30.1925 38.723 29.9975 39.3641 30.3187C39.8244 30.5493 40.1327 31.0075 40.5803 31.2617C41.2174 31.6232 42.0847 31.5413 42.3941 32.4763C42.5009 32.7992 42.4929 33.1541 42.3834 33.4763C41.9514 34.7487 40.3724 35.2616 39.2351 34.7118C39.2125 34.9274 39.4253 35.4071 39.198 36.0879C39.125 36.3051 39.0993 36.6369 38.7585 36.6431Z" fill="#263238"/>
<path d="M33.3197 32.5945C33.5993 31.9587 33.8824 31.3098 33.9527 30.6188C34.023 29.9281 33.8473 29.1755 33.3318 28.7095C32.9829 28.3943 32.5033 28.237 32.0327 28.251C31.1318 28.2772 30.298 28.9516 30.0522 29.8169C29.8067 30.6823 30.1456 31.6735 30.8487 32.2362C31.5518 32.7989 32.572 32.9191 33.4018 32.5686" fill="#263238"/>
<path d="M33.7075 31.8772C33.7448 31.8762 33.7129 32.2273 33.4169 32.5125C33.1239 32.8012 32.7718 32.8245 32.7737 32.7876C32.7643 32.7477 33.0624 32.6689 33.3195 32.4129C33.5819 32.1625 33.6678 31.8668 33.7075 31.8772Z" fill="#326FEA"/>
<path d="M33.06 32.357C33.0678 32.3683 32.8858 32.5445 32.5249 32.7475C32.3437 32.8437 32.1044 32.9428 31.8196 32.9468C31.5443 32.9527 31.2008 32.8597 30.9971 32.5785C30.7959 32.3 30.7884 31.9577 30.8514 31.6891C30.9172 31.4127 31.0586 31.2011 31.1828 31.038C31.4423 30.7174 31.6385 30.5591 31.6492 30.5688C31.6675 30.5843 31.4941 30.7707 31.2628 31.0961C31.1528 31.26 31.0288 31.4676 30.9773 31.7169C30.926 31.9631 30.9419 32.2654 31.1101 32.496C31.2768 32.7285 31.5693 32.8164 31.8196 32.8182C32.0751 32.8217 32.3011 32.7408 32.4811 32.6591C32.8399 32.4861 33.0468 32.3361 33.06 32.357Z" fill="#263238"/>
<path d="M29.7096 34.5784C29.7193 34.5755 29.7509 34.6545 29.8057 34.7964C29.8623 34.9362 29.9372 35.1465 30.096 35.357C30.2495 35.5589 30.534 35.7759 30.8678 35.7111C31.1984 35.6481 31.4912 35.3441 31.6104 34.9649C31.7384 34.5824 31.7475 34.1823 31.8119 33.8224C31.8712 33.4624 31.992 33.1338 32.1881 32.9211C32.3795 32.7079 32.6057 32.6139 32.7619 32.5947C32.9205 32.573 33.0053 32.6099 33.0031 32.615C33.002 32.6287 32.9159 32.6113 32.7721 32.648C32.6301 32.6817 32.4299 32.7813 32.263 32.9854C32.0942 33.186 31.9895 33.4929 31.9388 33.843C31.8822 34.1925 31.879 34.598 31.7424 35.0099C31.613 35.4202 31.284 35.7711 30.8901 35.8375C30.695 35.8726 30.5015 35.8214 30.3558 35.7344C30.2082 35.6471 30.0979 35.5311 30.0161 35.4154C29.8553 35.18 29.7955 34.9598 29.7536 34.8133C29.7147 34.6647 29.7007 34.5811 29.7096 34.5784Z" fill="#263238"/>
<path d="M28.7413 51.1016C28.7413 51.1016 27.7369 58.4453 28.7413 59.3763C29.7458 60.3072 30.7127 59.9981 30.7127 59.9981L32.6252 58.4019L33.0017 51.1016H28.7413Z" fill="#FFBE9D"/>
<path d="M49.5273 30.4868L50.8042 29.1182L52.932 30.8173L57.8026 26.0977L58.9694 27.4703L52.8375 33.5073L49.5273 30.4868Z" fill="#326FEA"/>
<path d="M55.5262 30.8593L53.6746 32.0453C53.5909 31.3149 53.0322 30.591 53.0609 30.9576C53.0896 31.3246 53.0644 33.2282 53.0644 33.2282L49.7622 40.1627C49.3133 41.2614 48.4044 41.9518 47.7249 42.1149L44.6426 43.0295L45.8475 47.0964L50.1315 45.6788C51.243 45.3111 52.1141 44.4391 52.4793 43.3287L55.4326 34.3502C55.4326 34.3502 55.7833 33.3295 55.9097 32.5812C56.0358 31.8331 55.5262 30.8593 55.5262 30.8593Z" fill="#FFBE9D"/>
<path d="M40.3551 106.701L40.309 104.645L36.4492 104.706L36.4846 107.715L36.7243 107.727C37.7902 107.769 42.1477 107.866 42.8562 107.639C43.6465 107.385 40.3551 106.701 40.3551 106.701Z" fill="#326FEA"/>
<g opacity="0.5">
<path d="M37.8831 107.663C37.8229 107.342 37.6389 107.046 37.3775 106.85C37.1161 106.653 36.7965 106.553 36.4707 106.584L36.4871 107.661L37.8831 107.663Z" fill="white"/>
</g>
<g opacity="0.4">
<path d="M41.9659 107.092C41.9659 107.092 43.1206 107.404 42.9802 107.596C42.8399 107.787 38.433 107.854 36.4863 107.714L36.4912 107.628L41.6323 107.593C41.6323 107.593 41.7413 107.105 41.9659 107.092Z" fill="white"/>
</g>
<path d="M36.4297 107.627C36.4297 107.628 36.4525 107.63 36.4962 107.633C36.5534 107.635 36.6162 107.638 36.687 107.641C36.8778 107.647 37.1124 107.653 37.3891 107.661C37.9819 107.673 38.8011 107.679 39.706 107.666C40.6109 107.652 41.4299 107.623 42.0222 107.593C42.2986 107.577 42.5329 107.564 42.7234 107.553C42.794 107.548 42.8568 107.543 42.9139 107.539C42.9574 107.535 42.9802 107.533 42.9802 107.531C42.9802 107.529 42.9571 107.529 42.9134 107.53C42.856 107.531 42.7935 107.533 42.7226 107.535C42.5321 107.542 42.2975 107.55 42.0211 107.56C41.4289 107.581 40.6101 107.606 39.7058 107.619C38.8017 107.632 37.9827 107.631 37.3899 107.627C37.1132 107.626 36.8786 107.624 36.6878 107.623C36.617 107.623 36.5542 107.623 36.4968 107.623C36.4528 107.624 36.4297 107.625 36.4297 107.627Z" fill="#263238"/>
<path d="M41.6305 107.654C41.6447 107.655 41.6533 107.488 41.7563 107.318C41.8567 107.145 41.9995 107.058 41.9914 107.046C41.9885 107.035 41.8242 107.11 41.7161 107.294C41.606 107.477 41.6189 107.657 41.6305 107.654Z" fill="#263238"/>
<path d="M40.4844 107.094C40.4954 107.1 40.5488 107.034 40.6038 106.944C40.6588 106.855 40.6943 106.777 40.6833 106.77C40.6723 106.763 40.6189 106.83 40.5638 106.92C40.5091 107.009 40.4734 107.087 40.4844 107.094Z" fill="#263238"/>
<path d="M40.169 106.934C40.1779 106.943 40.2382 106.902 40.3037 106.841C40.3692 106.781 40.4153 106.724 40.4065 106.714C40.3976 106.705 40.3375 106.746 40.2718 106.807C40.2063 106.867 40.1604 106.924 40.169 106.934Z" fill="#263238"/>
<path d="M39.9648 106.573C39.9648 106.586 40.0553 106.596 40.1666 106.595C40.278 106.595 40.3682 106.584 40.3682 106.571C40.3682 106.558 40.2777 106.548 40.1664 106.549C40.055 106.549 39.9648 106.56 39.9648 106.573Z" fill="#263238"/>
<path d="M39.8927 106.319C39.8884 106.33 39.9874 106.373 40.1184 106.38C40.2494 106.389 40.3527 106.358 40.35 106.346C40.3476 106.332 40.2456 106.342 40.1214 106.334C39.9968 106.327 39.8965 106.306 39.8927 106.319Z" fill="#263238"/>
<path d="M40.6094 106.756C40.6091 106.762 40.7046 106.771 40.8573 106.751C40.9335 106.74 41.0237 106.721 41.1206 106.689C41.1686 106.671 41.2191 106.657 41.2709 106.624C41.295 106.607 41.3221 106.584 41.331 106.546C41.3406 106.509 41.3202 106.467 41.2918 106.448C41.0527 106.329 40.8174 106.466 40.7315 106.589C40.684 106.653 40.6628 106.714 40.6531 106.756C40.6437 106.798 40.6451 106.822 40.6477 106.823C40.6566 106.826 40.663 106.725 40.7575 106.61C40.8042 106.553 40.875 106.498 40.9674 106.469C41.0546 106.442 41.1791 106.433 41.2634 106.485C41.3031 106.513 41.2886 106.56 41.2451 106.586C41.2046 106.613 41.1523 106.63 41.1066 106.648C41.0132 106.682 40.9263 106.704 40.8522 106.718C40.7038 106.747 40.6091 106.749 40.6094 106.756Z" fill="#263238"/>
<path d="M40.6734 106.768C40.6769 106.771 40.7126 106.707 40.6995 106.596C40.6925 106.541 40.6715 106.477 40.6289 106.416C40.5843 106.362 40.5266 106.287 40.4204 106.293C40.3629 106.302 40.3358 106.367 40.3458 106.409C40.3509 106.452 40.371 106.489 40.3895 106.519C40.4273 106.58 40.4697 106.629 40.5089 106.667C40.5878 106.741 40.6498 106.769 40.6525 106.765C40.6568 106.759 40.6023 106.721 40.5328 106.644C40.4982 106.605 40.4606 106.556 40.4268 106.497C40.3919 106.445 40.3672 106.351 40.4292 106.339C40.4912 106.332 40.5556 106.393 40.5943 106.441C40.634 106.494 40.6565 106.552 40.667 106.601C40.6874 106.702 40.6651 106.767 40.6734 106.768Z" fill="#263238"/>
<path d="M36.4922 106.572C36.4933 106.58 36.6025 106.559 36.7775 106.577C36.9505 106.594 37.1921 106.661 37.4035 106.824C37.615 106.987 37.7409 107.203 37.8007 107.366C37.8621 107.53 37.8697 107.641 37.8782 107.64C37.8812 107.64 37.882 107.612 37.8772 107.562C37.8723 107.513 37.8595 107.441 37.8318 107.355C37.7787 107.185 37.6523 106.957 37.432 106.787C37.2114 106.617 36.9583 106.553 36.7799 106.545C36.69 106.54 36.6173 106.546 36.5676 106.553C36.5182 106.561 36.4917 106.569 36.4922 106.572Z" fill="#263238"/>
<path d="M36.867 104.963C36.8541 104.963 36.8445 105.317 36.8458 105.755C36.8469 106.192 36.8584 106.546 36.8713 106.546C36.8842 106.546 36.8939 106.192 36.8925 105.754C36.8912 105.317 36.8799 104.963 36.867 104.963Z" fill="#263238"/>
<path d="M38.3652 107.279C38.3639 107.291 38.6159 107.329 38.9296 107.326C39.2433 107.325 39.495 107.284 39.4934 107.272C39.4918 107.259 39.2401 107.278 38.9293 107.279C38.6186 107.282 38.3666 107.266 38.3652 107.279Z" fill="#263238"/>
<path d="M37.6091 107.291C37.5998 107.3 37.6306 107.344 37.6572 107.401C37.6846 107.458 37.6988 107.509 37.7119 107.508C37.7245 107.508 37.731 107.447 37.6996 107.381C37.6685 107.315 37.6172 107.281 37.6091 107.291Z" fill="#263238"/>
<path d="M37.3183 106.939C37.3091 106.948 37.3346 106.988 37.3751 107.028C37.4157 107.068 37.4559 107.093 37.465 107.083C37.4742 107.074 37.4487 107.035 37.4079 106.995C37.3674 106.955 37.3274 106.93 37.3183 106.939Z" fill="#263238"/>
<path d="M36.9064 106.785C36.9094 106.798 36.9607 106.797 37.0175 106.816C37.075 106.833 37.1158 106.864 37.126 106.855C37.1362 106.848 37.1029 106.794 37.032 106.771C36.9615 106.748 36.9024 106.773 36.9064 106.785Z" fill="#263238"/>
<path d="M36.6158 106.712C36.6113 106.724 36.6338 106.744 36.666 106.756C36.6982 106.768 36.728 106.767 36.7326 106.755C36.7371 106.743 36.7146 106.724 36.6824 106.712C36.6499 106.7 36.6204 106.7 36.6158 106.712Z" fill="#263238"/>
<path d="M26.7335 106.043L28.0422 104.454L25.0761 101.988L23.1367 104.292L23.3109 104.457C24.0915 105.183 27.3314 108.092 28.0167 108.382C28.781 108.704 26.7335 106.043 26.7335 106.043Z" fill="#326FEA"/>
<g opacity="0.5">
<path d="M24.232 105.163C24.3963 104.881 24.4502 104.536 24.3804 104.217C24.3104 103.898 24.1341 103.614 23.8668 103.426L23.1758 104.253L24.232 105.163Z" fill="white"/>
</g>
<g opacity="0.4">
<path d="M27.6977 107.387C27.6977 107.387 28.3688 108.375 28.1372 108.429C27.9059 108.483 24.5209 105.665 23.1367 104.292L23.1966 104.23L27.117 107.55C27.117 107.55 27.5189 107.251 27.6977 107.387Z" fill="white"/>
</g>
<path d="M23.1524 104.19C23.1513 104.191 23.1674 104.207 23.1988 104.237C23.2407 104.277 23.2863 104.32 23.3378 104.368C23.479 104.496 23.6526 104.654 23.8574 104.84C24.2988 105.235 24.916 105.773 25.6105 106.352C26.3053 106.931 26.9456 107.441 27.4139 107.804C27.6336 107.972 27.8199 108.115 27.9715 108.23C28.0284 108.272 28.0788 108.309 28.125 108.343C28.1604 108.369 28.1795 108.382 28.1806 108.38C28.1816 108.379 28.1645 108.364 28.1309 108.336C28.0864 108.3 28.0378 108.26 27.9828 108.216C27.8338 108.097 27.6508 107.951 27.4345 107.778C26.9716 107.409 26.3351 106.894 25.6408 106.316C24.9469 105.737 24.3267 105.204 23.8796 104.815C23.6711 104.633 23.4943 104.48 23.3504 104.355C23.2968 104.308 23.249 104.268 23.2055 104.231C23.1714 104.202 23.1535 104.188 23.1524 104.19Z" fill="#263238"/>
<path d="M27.0789 107.595C27.0885 107.606 27.2044 107.484 27.3939 107.422C27.5826 107.357 27.7481 107.383 27.7497 107.369C27.7551 107.359 27.5815 107.308 27.3791 107.378C27.176 107.445 27.0681 107.59 27.0789 107.595Z" fill="#263238"/>
<path d="M26.5744 106.425C26.5784 106.437 26.6627 106.421 26.7628 106.389C26.8628 106.357 26.9407 106.321 26.9369 106.309C26.9329 106.297 26.8486 106.313 26.7485 106.344C26.6482 106.376 26.5703 106.412 26.5744 106.425Z" fill="#263238"/>
<path d="M26.4395 106.098C26.44 106.111 26.5127 106.119 26.6021 106.116C26.6914 106.112 26.7634 106.099 26.7631 106.086C26.7626 106.074 26.6898 106.066 26.6005 106.069C26.5111 106.072 26.4392 106.085 26.4395 106.098Z" fill="#263238"/>
<path d="M26.5203 105.693C26.512 105.703 26.5737 105.769 26.6585 105.841C26.7433 105.913 26.8187 105.964 26.827 105.954C26.8353 105.944 26.7736 105.877 26.6888 105.805C26.604 105.733 26.5286 105.683 26.5203 105.693Z" fill="#263238"/>
<path d="M26.6343 105.452C26.6236 105.458 26.6705 105.555 26.765 105.645C26.8589 105.737 26.9574 105.781 26.9631 105.77C26.97 105.758 26.8866 105.699 26.7975 105.612C26.7078 105.526 26.6456 105.445 26.6343 105.452Z" fill="#263238"/>
<path d="M26.8894 106.25C26.8859 106.253 26.9514 106.323 27.081 106.407C27.1457 106.449 27.2264 106.493 27.3212 106.531C27.3695 106.549 27.4164 106.571 27.4771 106.58C27.5063 106.583 27.542 106.583 27.5737 106.56C27.6054 106.538 27.6169 106.494 27.6083 106.46C27.505 106.215 27.2372 106.165 27.0912 106.202C27.0139 106.219 26.9578 106.252 26.9229 106.278C26.888 106.304 26.8733 106.323 26.8752 106.325C26.8797 106.333 26.9506 106.261 27.0974 106.235C27.1695 106.223 27.2594 106.227 27.3483 106.265C27.4323 106.301 27.5324 106.375 27.5624 106.469C27.574 106.517 27.5326 106.542 27.4822 106.535C27.4339 106.529 27.3832 106.507 27.337 106.491C27.2441 106.456 27.1636 106.416 27.0982 106.379C26.9669 106.304 26.8942 106.244 26.8894 106.25Z" fill="#263238"/>
<path d="M26.9325 106.299C26.9335 106.303 27.002 106.278 27.0647 106.185C27.0951 106.14 27.1214 106.077 27.1289 106.003C27.1305 105.933 27.1359 105.839 27.0513 105.774C27.0025 105.743 26.9389 105.775 26.9193 105.813C26.8949 105.849 26.886 105.89 26.8807 105.925C26.8694 105.996 26.8691 106.061 26.8745 106.115C26.8855 106.223 26.9142 106.284 26.9193 106.283C26.9265 106.281 26.9099 106.217 26.9075 106.113C26.9064 106.061 26.9102 105.999 26.9231 105.932C26.9306 105.871 26.973 105.784 27.028 105.815C27.0795 105.85 27.0886 105.938 27.0859 106C27.0817 106.066 27.0613 106.124 27.0366 106.168C26.9861 106.258 26.9271 106.293 26.9325 106.299Z" fill="#263238"/>
<path d="M23.8888 103.43C23.884 103.437 23.9804 103.493 24.1014 103.62C24.2219 103.745 24.3609 103.953 24.4151 104.214C24.4688 104.476 24.4229 104.721 24.3617 104.884C24.301 105.048 24.2342 105.137 24.2415 105.142C24.2439 105.144 24.2627 105.123 24.2914 105.082C24.3204 105.041 24.3574 104.979 24.3923 104.896C24.4631 104.732 24.5165 104.477 24.4604 104.205C24.4041 103.932 24.2543 103.719 24.1245 103.597C24.0595 103.535 24.0008 103.491 23.9578 103.465C23.9157 103.439 23.8905 103.428 23.8888 103.43Z" fill="#263238"/>
<path d="M25.2252 102.455C25.2153 102.447 24.9765 102.709 24.6917 103.042C24.4067 103.374 24.184 103.65 24.1937 103.658C24.2036 103.667 24.4424 103.404 24.7272 103.072C25.0121 102.74 25.2351 102.464 25.2252 102.455Z" fill="#263238"/>
<path d="M24.8461 105.186C24.8369 105.194 25.0039 105.387 25.243 105.589C25.4818 105.792 25.6989 105.925 25.7056 105.915C25.7134 105.904 25.51 105.755 25.2733 105.553C25.0363 105.353 24.8557 105.177 24.8461 105.186Z" fill="#263238"/>
<path d="M24.2661 104.701C24.253 104.703 24.2479 104.755 24.2304 104.816C24.2141 104.877 24.1913 104.925 24.202 104.933C24.2116 104.941 24.2562 104.899 24.2755 104.829C24.2954 104.758 24.2785 104.699 24.2661 104.701Z" fill="#263238"/>
<path d="M24.2741 104.246C24.2613 104.247 24.2546 104.294 24.2594 104.351C24.2642 104.407 24.2784 104.452 24.2913 104.451C24.3042 104.45 24.3109 104.403 24.3061 104.347C24.3012 104.29 24.287 104.245 24.2741 104.246Z" fill="#263238"/>
<path d="M24.0651 103.861C24.0587 103.872 24.0984 103.905 24.1293 103.956C24.1612 104.007 24.1722 104.057 24.1854 104.057C24.198 104.058 24.2082 103.995 24.169 103.932C24.1306 103.869 24.07 103.849 24.0651 103.861Z" fill="#263238"/>
<path d="M23.891 103.616C23.8798 103.623 23.8841 103.652 23.9007 103.682C23.9173 103.712 23.9399 103.731 23.9514 103.725C23.9627 103.719 23.9584 103.689 23.9418 103.659C23.9249 103.629 23.9023 103.61 23.891 103.616Z" fill="#263238"/>
<path d="M34.7656 63.0081C34.7656 63.0081 33.4808 68.435 33.8441 69.5087C34.2075 70.5824 36.5623 71.203 36.5623 71.203L36.4828 86.0634L23.4609 102.128L28.2696 106.054C28.2696 106.054 42.3663 89.9598 43.609 87.0453C44.8515 84.1311 42.8171 62.7676 42.8171 62.7676L34.7656 63.0081Z" fill="#263238"/>
<path d="M41.4168 60.7948L42.0539 105.93L35.4293 105.964L32.1049 69.2034C31.4021 68.5341 30.4137 67.3873 30.5498 64.8306L30.7111 61.8599L41.4168 60.7948Z" fill="#263238"/>
<path d="M34.4319 88.5753C34.4295 88.5735 34.4427 88.551 34.4703 88.5084C34.5044 88.458 34.5457 88.3972 34.5962 88.3233C34.718 88.1514 34.8825 87.9189 35.0886 87.628C35.529 87.0198 36.1446 86.1692 36.8858 85.145L36.8745 85.1791C36.7304 83.6126 36.5554 81.7126 36.3668 79.6643C36.1263 76.9796 35.9315 74.5475 35.8169 72.785C35.7584 71.9038 35.72 71.1901 35.6988 70.6967C35.6908 70.4608 35.6843 70.272 35.6792 70.1284C35.6763 69.9985 35.6771 69.93 35.6819 69.9297C35.6867 69.9294 35.6953 69.9975 35.7074 70.1268C35.719 70.2698 35.7342 70.4584 35.753 70.6935C35.7925 71.2011 35.8478 71.9092 35.9154 72.778C36.0552 74.5379 36.2656 76.9681 36.5058 79.6522C36.6864 81.7078 36.8705 83.6045 36.9893 85.1791L36.9907 85.1965L36.9781 85.2131C36.2205 86.2252 35.5912 87.0659 35.1412 87.6671C34.9246 87.9502 34.7515 88.1765 34.6235 88.3439C34.5677 88.4138 34.5221 88.4714 34.484 88.5191C34.452 88.5579 34.4343 88.5772 34.4319 88.5753Z" fill="#455A64"/>
<path d="M36.4651 69.9291C36.4592 69.9663 35.6697 69.8702 34.7111 69.6685C33.7517 69.4682 32.9907 69.2392 33.0001 69.2027C33.01 69.1645 33.7842 69.3324 34.7398 69.5319C35.6952 69.733 36.4715 69.8903 36.4651 69.9291Z" fill="#455A64"/>
<path d="M41.0021 85.3393C40.9844 85.3818 40.2414 84.9482 39.2133 84.874C38.186 84.7854 37.3836 85.0971 37.3732 85.0521C37.3673 85.0374 37.557 84.9397 37.8895 84.8502C38.2206 84.7605 38.6986 84.6941 39.2246 84.735C39.7503 84.7776 40.2116 84.918 40.5245 85.0588C40.8382 85.1992 41.0102 85.3256 41.0021 85.3393Z" fill="#455A64"/>
<path d="M43.3391 87.4318C43.3699 87.4551 41.5065 89.9512 39.1777 93.0063C36.8481 96.0624 34.9353 98.5203 34.9047 98.497C34.8741 98.4737 36.737 95.9781 39.0666 92.9219C41.3951 89.8669 43.3082 87.4088 43.3391 87.4318Z" fill="#455A64"/>
<path d="M42.4424 64.1483C42.4545 64.1523 42.3635 64.3832 42.0694 64.6392C41.785 64.8923 41.2617 65.1492 40.6571 65.0881C40.0527 65.022 39.5949 64.6617 39.3695 64.3551C39.1355 64.0433 39.0947 63.7988 39.1076 63.7972C39.1312 63.787 39.205 64.0139 39.4463 64.293C39.6797 64.5693 40.1161 64.8889 40.6718 64.9494C41.2276 65.0059 41.7214 64.7841 42.0074 64.5626C42.3018 64.3398 42.4215 64.1333 42.4424 64.1483Z" fill="#455A64"/>
<path d="M33.3927 40.9256C32.3142 39.9034 31.6559 38.452 31.5979 36.9688C31.5402 35.4856 32.0834 33.9874 33.0792 32.8848" fill="#263238"/>
<path d="M29.6709 45.1367C29.6709 45.1367 28.2317 46.7592 27.9336 52.9652C27.9336 52.9652 32.0322 53.7411 32.107 53.518C32.1819 53.2949 29.6709 45.1367 29.6709 45.1367Z" fill="#326FEA"/>
<g opacity="0.3">
<path d="M29.6709 45.1367C29.6709 45.1367 28.2317 46.7592 27.9336 52.9652C27.9336 52.9652 32.0322 53.7411 32.107 53.518C32.1819 53.2949 29.6709 45.1367 29.6709 45.1367Z" fill="black"/>
</g>
<path d="M30.3345 63.2099H42.9171L42.714 61.2483C42.714 61.2483 41.2762 53.7852 41.2866 53.6869L41.5131 53.2115C42.107 51.9661 42.1271 50.5239 41.5684 49.2624L47.7295 47.1597L46.2211 42.0861C43.4254 42.5572 39.1994 43.0826 39.1994 43.0826L38.5703 43.1354C38.5703 43.1354 34.208 43.3625 34.1148 43.3735C32.2898 43.5936 30.1665 43.7334 29.3905 45.6827C28.9756 46.7248 29.3698 48.2894 30.0471 49.9025L31.6602 54.8564C32.3043 57.5794 31.2765 57.4501 30.7121 60.1907C30.6268 60.6048 30.3262 62.8296 30.3345 63.2099Z" fill="#326FEA"/>
<g opacity="0.3">
<path d="M30.3345 63.2099H42.9171L42.714 61.2483C42.714 61.2483 41.2762 53.7852 41.2866 53.6869L41.5131 53.2115C42.107 51.9661 42.1271 50.5239 41.5684 49.2624L47.7295 47.1597L46.2211 42.0861C43.4254 42.5572 39.1994 43.0826 39.1994 43.0826L38.5703 43.1354C38.5703 43.1354 34.208 43.3625 34.1148 43.3735C32.2898 43.5936 30.1665 43.7334 29.3905 45.6827C28.9756 46.7248 29.3698 48.2894 30.0471 49.9025L31.6602 54.8564C32.3043 57.5794 31.2765 57.4501 30.7121 60.1907C30.6268 60.6048 30.3262 62.8296 30.3345 63.2099Z" fill="black"/>
</g>
<path d="M47.6714 47.2422C47.6743 47.2513 47.5769 47.2918 47.3979 47.3568C47.2192 47.4219 46.9592 47.5119 46.6366 47.6201C45.9925 47.8373 45.0978 48.1252 44.1103 48.4402C43.1228 48.7554 42.2396 49.0688 41.6127 49.3272C41.2982 49.4539 41.0481 49.5669 40.8734 49.6414C40.7003 49.719 40.6024 49.7584 40.5978 49.7498C40.5935 49.7413 40.6829 49.6858 40.8495 49.5929C41.0175 49.5032 41.2625 49.376 41.5738 49.237C42.1942 48.9539 43.0779 48.6236 44.0676 48.3079C45.0565 47.9924 45.955 47.7197 46.6071 47.5264C46.9331 47.4302 47.1977 47.3544 47.3815 47.3051C47.5654 47.2559 47.6684 47.2331 47.6714 47.2422Z" fill="#263238"/>
<path d="M46.9396 44.5405C46.9396 44.579 43.2194 44.6101 38.6313 44.6101C34.0417 44.6101 30.3223 44.5788 30.3223 44.5405C30.3223 44.5022 34.0417 44.4708 38.6313 44.4708C43.2194 44.4706 46.9396 44.5019 46.9396 44.5405Z" fill="#FAFAFA"/>
<path d="M47.3241 47.0071C47.3241 47.0457 43.1842 47.0768 38.0785 47.0768C32.9711 47.0768 28.832 47.0454 28.832 47.0071C28.832 46.9688 32.9711 46.9375 38.0785 46.9375C43.1842 46.9372 47.3241 46.9686 47.3241 47.0071Z" fill="#FAFAFA"/>
<path d="M29.8612 49.8138C29.8612 49.8523 29.5161 49.8834 29.0908 49.8834C28.6651 49.8834 28.3203 49.8521 28.3203 49.8138C28.3203 49.7752 28.6651 49.7441 29.0908 49.7441C29.5164 49.7441 29.8612 49.7752 29.8612 49.8138Z" fill="#FAFAFA"/>
<path d="M41.955 49.8978C41.955 49.9363 39.2476 49.9674 35.9084 49.9674C32.5682 49.9674 29.8613 49.9361 29.8613 49.8978C29.8613 49.8595 32.5682 49.8281 35.9084 49.8281C39.2476 49.8279 41.955 49.8592 41.955 49.8978Z" fill="#FAFAFA"/>
<path d="M41.6901 52.7903C41.6901 52.8289 39.2601 52.86 36.2631 52.86C33.2654 52.86 30.8359 52.8286 30.8359 52.7903C30.8359 52.7518 33.2654 52.7207 36.2631 52.7207C39.2601 52.7207 41.6901 52.752 41.6901 52.7903Z" fill="#FAFAFA"/>
<path d="M41.6113 55.4681C41.6113 55.5066 39.4087 55.5377 36.6926 55.5377C33.9753 55.5377 31.7734 55.5064 31.7734 55.4681C31.7734 55.4298 33.9756 55.3984 36.6926 55.3984C39.4087 55.3984 41.6113 55.4295 41.6113 55.4681Z" fill="#FAFAFA"/>
<path d="M42.04 57.6379C42.04 57.6764 39.6838 57.7075 36.7781 57.7075C33.8712 57.7075 31.5156 57.6762 31.5156 57.6379C31.5156 57.5993 33.8712 57.5682 36.7781 57.5682C39.6838 57.568 42.04 57.5993 42.04 57.6379Z" fill="#FAFAFA"/>
<path d="M42.7229 60.4019C42.7229 60.4405 40.0426 60.4715 36.7367 60.4715C33.4298 60.4715 30.75 60.4402 30.75 60.4019C30.75 60.3633 33.4298 60.3323 36.7367 60.3323C40.0426 60.3323 42.7229 60.3633 42.7229 60.4019Z" fill="#FAFAFA"/>
<path d="M31.5845 54.6241C31.5754 54.627 31.5362 54.5389 31.4731 54.3771C31.3993 54.1859 31.3113 53.9577 31.2088 53.6918C30.9874 53.1125 30.6756 52.3141 30.3514 51.4239C30.0256 50.5339 29.7584 49.7173 29.5893 49.119C29.505 48.8198 29.442 48.5761 29.4057 48.406C29.3687 48.2359 29.3526 48.1411 29.362 48.1387C29.3827 48.1336 29.4908 48.5016 29.6838 49.0903C29.8764 49.6793 30.1574 50.4875 30.4826 51.3764C30.8063 52.2654 31.1036 53.0696 31.3017 53.6586C31.4012 53.9526 31.4769 54.1926 31.5247 54.3597C31.5719 54.5274 31.5936 54.6211 31.5845 54.6241Z" fill="#263238"/>
</g>
<defs>
<clipPath id="clip0_1351_11783">
<rect width="134" height="111" fill="white" transform="translate(0 0.876953)"/>
</clipPath>
</defs>
</svg>
