<svg width="25" height="25" viewBox="0 0 25 25" fill="none" xmlns="http://www.w3.org/2000/svg">
<path d="M21.9847 6.99996H9.15136M6.81802 6.99996H3.31802M21.9847 18.6666H9.15136M6.81802 18.6666H3.31802M16.1514 12.8333H3.31802M21.9847 12.8333H18.4847M7.98469 4.66663C8.29411 4.66663 8.59086 4.78954 8.80965 5.00833C9.02844 5.22713 9.15136 5.52387 9.15136 5.83329V8.16663C9.15136 8.47605 9.02844 8.77279 8.80965 8.99158C8.59086 9.21038 8.29411 9.33329 7.98469 9.33329C7.67527 9.33329 7.37852 9.21038 7.15973 8.99158C6.94094 8.77279 6.81802 8.47605 6.81802 8.16663V5.83329C6.81802 5.52387 6.94094 5.22713 7.15973 5.00833C7.37852 4.78954 7.67527 4.66663 7.98469 4.66663ZM7.98469 16.3333C8.29411 16.3333 8.59086 16.4562 8.80965 16.675C9.02844 16.8938 9.15136 17.1905 9.15136 17.5V19.8333C9.15136 20.1427 9.02844 20.4395 8.80965 20.6583C8.59086 20.877 8.29411 21 7.98469 21C7.67527 21 7.37852 20.877 7.15973 20.6583C6.94094 20.4395 6.81802 20.1427 6.81802 19.8333V17.5C6.81802 17.1905 6.94094 16.8938 7.15973 16.675C7.37852 16.4562 7.67527 16.3333 7.98469 16.3333ZM17.318 10.5C17.6274 10.5 17.9242 10.6229 18.143 10.8417C18.3618 11.0605 18.4847 11.3572 18.4847 11.6666V14C18.4847 14.3094 18.3618 14.6061 18.143 14.8249C17.9242 15.0437 17.6274 15.1666 17.318 15.1666C17.0086 15.1666 16.7119 15.0437 16.4931 14.8249C16.2743 14.6061 16.1514 14.3094 16.1514 14V11.6666C16.1514 11.3572 16.2743 11.0605 16.4931 10.8417C16.7119 10.6229 17.0086 10.5 17.318 10.5Z" stroke="#F0F0F0" stroke-width="1.16667" stroke-linecap="round" stroke-linejoin="round"/>
</svg>
