<svg width="20" height="21" viewBox="0 0 20 21" fill="none" xmlns="http://www.w3.org/2000/svg">
<g clip-path="url(#clip0_266_24354)">
<path d="M2.25379 9.51517C1.6759 9.51517 1.181 9.30923 0.769121 8.89735C0.357237 8.48546 0.151645 7.99092 0.152346 7.41372V3.21083C0.152346 2.63293 0.358288 2.13804 0.770172 1.72615C1.18206 1.31427 1.6766 1.10868 2.25379 1.10938H6.45669C7.03459 1.10938 7.52948 1.31532 7.94137 1.7272C8.35325 2.13909 8.55884 2.63363 8.55814 3.21083V7.41372C8.55814 7.99162 8.3522 8.48651 7.94032 8.8984C7.52843 9.31028 7.03389 9.51587 6.45669 9.51517H2.25379ZM2.25379 20.0224C1.6759 20.0224 1.181 19.8165 0.769121 19.4046C0.357237 18.9927 0.151645 18.4982 0.152346 17.921V13.7181C0.152346 13.1402 0.358288 12.6453 0.770172 12.2334C1.18206 11.8215 1.6766 11.6159 2.25379 11.6166H6.45669C7.03459 11.6166 7.52948 11.8226 7.94137 12.2344C8.35325 12.6463 8.55884 13.1409 8.55814 13.7181V17.921C8.55814 18.4989 8.3522 18.9938 7.94032 19.4056C7.52843 19.8175 7.03389 20.0231 6.45669 20.0224H2.25379ZM12.761 9.51517C12.1831 9.51517 11.6882 9.30923 11.2764 8.89735C10.8645 8.48546 10.6589 7.99092 10.6596 7.41372V3.21083C10.6596 2.63293 10.8655 2.13804 11.2774 1.72615C11.6893 1.31427 12.1838 1.10868 12.761 1.10938H16.9639C17.5418 1.10938 18.0367 1.31532 18.4486 1.7272C18.8605 2.13909 19.0661 2.63363 19.0654 3.21083V7.41372C19.0654 7.99162 18.8594 8.48651 18.4476 8.8984C18.0357 9.31028 17.5411 9.51587 16.9639 9.51517H12.761ZM12.761 20.0224C12.1831 20.0224 11.6882 19.8165 11.2764 19.4046C10.8645 18.9927 10.6589 18.4982 10.6596 17.921V13.7181C10.6596 13.1402 10.8655 12.6453 11.2774 12.2334C11.6893 11.8215 12.1838 11.6159 12.761 11.6166H16.9639C17.5418 11.6166 18.0367 11.8226 18.4486 12.2344C18.8605 12.6463 19.0661 13.1409 19.0654 13.7181V17.921C19.0654 18.4989 18.8594 18.9938 18.4476 19.4056C18.0357 19.8175 17.5411 20.0231 16.9639 20.0224H12.761Z" fill="#275B88"/>
</g>
<defs>
<clipPath id="clip0_266_24354">
<rect width="20" height="20" fill="white" transform="translate(0 0.5)"/>
</clipPath>
</defs>
</svg>
