<svg width="22" height="23" viewBox="0 0 22 23" fill="none" xmlns="http://www.w3.org/2000/svg">
<path d="M10.368 0.751124L0.259204 8.83794C0.178264 8.90274 0.112984 8.98492 0.0681154 9.07839C0.0232469 9.17187 -6.46792e-05 9.27419 1.34784e-07 9.37788V22.2671C1.34784e-07 22.4504 0.0728164 22.6262 0.202442 22.7559C0.332067 22.8855 0.507942 22.9583 0.69126 22.9583H6.84126C7.02458 22.9583 7.20038 22.8855 7.33001 22.7559C7.45963 22.6262 7.53245 22.4504 7.53245 22.2671V16.7891C7.53245 16.6058 7.60526 16.43 7.73489 16.3004C7.86451 16.1707 8.04032 16.0979 8.22363 16.0979H13.3764C13.5598 16.0979 13.7356 16.1707 13.8652 16.3004C13.9948 16.43 14.0676 16.6058 14.0676 16.7891V22.2671C14.0676 22.4504 14.1404 22.6262 14.2701 22.7559C14.3997 22.8855 14.5755 22.9583 14.7588 22.9583H20.9088C20.9996 22.9583 21.0895 22.9405 21.1734 22.9057C21.2572 22.871 21.3334 22.82 21.3976 22.7559C21.4617 22.6917 21.5127 22.6155 21.5474 22.5316C21.5821 22.4477 21.6 22.3579 21.6 22.2671V9.37913C21.6001 9.27544 21.5768 9.17304 21.532 9.07957C21.4871 8.98609 21.4217 8.90392 21.3408 8.83911L11.2321 0.752296C11.1096 0.653972 10.9573 0.600316 10.8002 0.600098C10.6432 0.59988 10.4907 0.653141 10.368 0.751124Z" fill="#26527A"/>
</svg>
