<svg width="20" height="20" viewBox="0 0 20 20" fill="none" xmlns="http://www.w3.org/2000/svg">
<path d="M9.19545 9.42666C9.19545 8.81061 9.69486 8.3112 10.3109 8.3112C10.927 8.3112 11.4264 8.81061 11.4264 9.42666V13.8885C11.4264 14.5046 10.927 15.004 10.3109 15.004C9.69486 15.004 9.19545 14.5046 9.19545 13.8885V9.42666ZM19.668 8.92432C20.3002 9.49328 19.8977 10.5421 19.0472 10.5421C18.5347 10.5421 18.1192 10.9576 18.1192 11.4701V18.3504C18.1192 18.9665 17.6198 19.4659 17.0037 19.4659H3.61812C3.00206 19.4659 2.50265 18.9664 2.50265 18.3504V11.4701C2.50265 10.9576 2.08716 10.5421 1.57463 10.5421C0.724115 10.5421 0.321635 9.49328 0.953817 8.92432L9.56471 1.17452C9.98893 0.79272 10.6329 0.792721 11.0571 1.17452L19.668 8.92432ZM13.6573 8.3112C13.6573 7.71952 13.4223 7.15207 13.0039 6.73369C12.5855 6.31531 12.0181 6.08026 11.4264 6.08026H9.19545C8.60377 6.08026 8.03632 6.31531 7.61794 6.73369C7.19956 7.15207 6.96452 7.71952 6.96452 8.3112V15.004C6.96452 15.5957 7.19956 16.1631 7.61794 16.5815C8.03632 16.9999 8.60377 17.2349 9.19545 17.2349H11.4264C12.0181 17.2349 12.5855 16.9999 13.0039 16.5815C13.4223 16.1631 13.6573 15.5957 13.6573 15.004V8.3112Z" fill="#7D7D7D"/>
</svg>
