<svg width="21" height="21" viewBox="0 0 21 21" fill="none" xmlns="http://www.w3.org/2000/svg">
<path fill-rule="evenodd" clip-rule="evenodd" d="M11.1776 1.19758C10.9978 1.01792 10.7541 0.916992 10.5 0.916992C10.2459 0.916992 10.0022 1.01792 9.82248 1.19758L3.11414 7.90591L1.19748 9.82258C1.10594 9.91098 1.03294 10.0167 0.982711 10.1336C0.932486 10.2506 0.906049 10.3763 0.904943 10.5036C0.903838 10.6308 0.928085 10.757 0.976271 10.8748C1.02446 10.9926 1.09562 11.0996 1.1856 11.1895C1.27558 11.2795 1.38258 11.3507 1.50035 11.3989C1.61813 11.4471 1.74432 11.4713 1.87157 11.4702C1.99881 11.4691 2.12457 11.4427 2.24149 11.3924C2.35841 11.3422 2.46416 11.2692 2.55256 11.1777L2.83335 10.8969V17.2085C2.83335 17.971 3.13625 18.7022 3.67542 19.2414C4.21459 19.7806 4.94585 20.0835 5.70835 20.0835H15.2917C16.0542 20.0835 16.7854 19.7806 17.3246 19.2414C17.8638 18.7022 18.1667 17.971 18.1667 17.2085V10.8969L18.4475 11.1777C18.6282 11.3522 18.8703 11.4488 19.1216 11.4466C19.3728 11.4445 19.6132 11.3437 19.7909 11.166C19.9686 10.9883 20.0694 10.7479 20.0715 10.4967C20.0737 10.2454 19.9771 10.0033 19.8026 9.82258L11.1776 1.19758Z" fill="#7D7D7D"/>
</svg>
