<svg width="28" height="21" viewBox="0 0 28 21" fill="none" xmlns="http://www.w3.org/2000/svg">
<g clip-path="url(#clip0_266_24356)">
<path d="M2.23143 6.52474C1.84921 6.52474 1.52921 6.39585 1.27143 6.13807C1.01365 5.8803 0.884766 5.56085 0.884766 5.17974V2.03807C0.884766 1.65696 1.01365 1.33752 1.27143 1.07974C1.52921 0.820851 1.84921 0.691406 2.23143 0.691406H5.37143C5.75365 0.691406 6.07365 0.820851 6.33143 1.07974C6.58921 1.33752 6.7181 1.65696 6.7181 2.03807V5.17974C6.7181 5.56085 6.58921 5.8803 6.33143 6.13807C6.07365 6.39585 5.75365 6.52474 5.37143 6.52474H2.23143ZM9.02643 6.52474C8.64421 6.52474 8.32421 6.39585 8.06643 6.13807C7.80865 5.8803 7.67976 5.56085 7.67976 5.17974V2.03807C7.67976 1.65696 7.80865 1.33752 8.06643 1.07974C8.32421 0.820851 8.64421 0.691406 9.02643 0.691406H26.2048C26.587 0.691406 26.907 0.820851 27.1648 1.07974C27.4225 1.33752 27.5514 1.65696 27.5514 2.03807V5.17974C27.5514 5.56085 27.4225 5.8803 27.1648 6.13807C26.907 6.39585 26.587 6.52474 26.2048 6.52474H9.02643ZM9.02643 13.0631C8.64421 13.0631 8.32421 12.9342 8.06643 12.6764C7.80865 12.4186 7.67976 12.0992 7.67976 11.7181V8.83307C7.67976 8.45196 7.80865 8.13252 8.06643 7.87474C8.32421 7.61585 8.64421 7.48641 9.02643 7.48641H26.2048C26.587 7.48641 26.907 7.61585 27.1648 7.87474C27.4225 8.13252 27.5514 8.45196 27.5514 8.83307V11.7164C27.5514 12.0986 27.4225 12.4186 27.1648 12.6764C26.907 12.9342 26.587 13.0631 26.2048 13.0631H9.02643ZM9.02643 19.8581C8.64421 19.8581 8.32421 19.7292 8.06643 19.4714C7.80865 19.2136 7.67976 18.8942 7.67976 18.5131V15.3714C7.67976 14.9903 7.80865 14.6709 8.06643 14.4131C8.32421 14.1542 8.64421 14.0247 9.02643 14.0247H26.2048C26.587 14.0247 26.907 14.1542 27.1648 14.4131C27.4225 14.6709 27.5514 14.9903 27.5514 15.3714V18.5131C27.5514 18.8942 27.4225 19.2136 27.1648 19.4714C26.907 19.7292 26.587 19.8581 26.2048 19.8581H9.02643ZM2.23143 19.8581C1.84921 19.8581 1.52921 19.7292 1.27143 19.4714C1.01365 19.2136 0.884766 18.8942 0.884766 18.5131V15.3714C0.884766 14.9903 1.01365 14.6709 1.27143 14.4131C1.52921 14.1542 1.84921 14.0247 2.23143 14.0247H5.37143C5.75365 14.0247 6.07365 14.1542 6.33143 14.4131C6.58921 14.6709 6.7181 14.9903 6.7181 15.3714V18.5131C6.7181 18.8942 6.58921 19.2136 6.33143 19.4714C6.07365 19.7292 5.75365 19.8581 5.37143 19.8581H2.23143ZM2.23143 13.0631C1.84921 13.0631 1.52921 12.9342 1.27143 12.6764C1.01365 12.4186 0.884766 12.0992 0.884766 11.7181V8.83307C0.884766 8.45196 1.01365 8.13252 1.27143 7.87474C1.52921 7.61585 1.84921 7.48641 2.23143 7.48641H5.37143C5.75365 7.48641 6.07365 7.61585 6.33143 7.87474C6.58921 8.13252 6.7181 8.45196 6.7181 8.83307V11.7164C6.7181 12.0986 6.58921 12.4186 6.33143 12.6764C6.07365 12.9342 5.75365 13.0631 5.37143 13.0631H2.23143Z" fill="#A5A5A5"/>
</g>
<defs>
<clipPath id="clip0_266_24356">
<rect width="28" height="20" fill="white" transform="translate(0 0.5)"/>
</clipPath>
</defs>
</svg>
