<svg width="80" height="121" viewBox="0 0 80 121" fill="none" xmlns="http://www.w3.org/2000/svg">
<g filter="url(#filter0_d_797_19477)">
<path d="M69.2413 37.1212C69.2413 60.8777 49.5831 67.169 40.1212 100.026C30.5305 66.7753 11 60.8777 11 37.1212C11 21.0376 24.0376 8 40.1212 8C56.2047 8 69.2413 21.0376 69.2413 37.1212Z" fill="url(#paint0_linear_797_19477)"/>
<path d="M40.1197 60.5648C35.4828 60.5648 30.9499 59.1898 27.0944 56.6137C23.2389 54.0375 20.2339 50.3759 18.4595 46.0919C16.685 41.8079 16.2207 37.094 17.1253 32.5461C18.0299 27.9982 20.2628 23.8207 23.5417 20.5419C25.7187 18.3649 28.3031 16.6381 31.1475 15.4599C33.9919 14.2817 37.0405 13.6753 40.1192 13.6753C43.1979 13.6753 46.2465 14.2817 49.0909 15.4599C51.9353 16.6381 54.5197 18.3649 56.6967 20.5419C58.8737 22.7189 60.6006 25.3034 61.7788 28.1478C62.9569 30.9921 63.5633 34.0407 63.5633 37.1194C63.5633 40.1982 62.9569 43.2468 61.7788 46.0911C60.6006 48.9355 58.8737 51.52 56.6967 53.697C54.5248 55.8808 51.9414 57.6122 49.096 58.7911C46.2506 59.9699 43.1997 60.5728 40.1197 60.5648Z" fill="url(#paint1_linear_797_19477)"/>
<path d="M40.1235 56.5907C50.876 56.5907 59.5926 47.874 59.5926 37.1215C59.5926 26.369 50.876 17.6523 40.1235 17.6523C29.3709 17.6523 20.6543 26.369 20.6543 37.1215C20.6543 47.874 29.3709 56.5907 40.1235 56.5907Z" fill="white"/>
<path d="M55.2814 100.086C55.1766 99.8305 55.0367 99.591 54.8658 99.3743C54.5838 99.0211 54.2488 98.7138 53.8727 98.4632C53.5495 98.2452 53.209 98.0541 52.8546 97.8918C52.5159 97.7339 52.1773 97.5999 51.8396 97.4763C51.1765 97.2472 50.5 97.0588 49.8139 96.9122C49.1397 96.7646 48.4634 96.6473 47.7933 96.5527C47.1232 96.4582 46.449 96.3772 45.7779 96.3127C45.1068 96.2483 44.4378 96.1974 43.7709 96.159C43.4855 96.1403 43.2002 96.1237 42.9148 96.1091C42.7528 96.5759 42.5928 97.0486 42.4349 97.5272C44.1299 97.6351 45.8125 97.8889 47.464 98.2855C48.7106 98.5972 49.9323 98.9774 51.0314 99.4885C51.5498 99.7181 52.0382 100.01 52.4858 100.358C52.6527 100.485 52.798 100.638 52.9159 100.812C52.946 100.858 52.9681 100.908 52.9813 100.962C52.9865 100.995 52.9813 101.003 52.9741 101.007C52.9668 101.011 52.9606 101.015 52.945 101.038C52.9178 101.08 52.8876 101.119 52.8546 101.156C52.7184 101.301 52.5641 101.428 52.3954 101.534C51.9269 101.818 51.427 102.046 50.9057 102.213C50.3333 102.404 49.7502 102.561 49.1594 102.684C48.5579 102.812 47.9439 102.917 47.3248 102.996C46.7056 103.075 46.0781 103.155 45.4548 103.213C44.8315 103.271 44.1968 103.317 43.5641 103.358C42.3002 103.437 41.0314 103.483 39.7578 103.496C39.122 103.505 38.4859 103.502 37.8494 103.487C37.2136 103.471 36.5789 103.45 35.9462 103.41C34.6809 103.334 33.4197 103.212 32.1824 103.022C30.9452 102.832 29.7245 102.576 28.6129 102.191C28.0936 102.021 27.5949 101.794 27.1263 101.513C26.9577 101.41 26.8024 101.287 26.664 101.145C26.6308 101.109 26.5996 101.071 26.5705 101.031C26.5631 101.018 26.5519 101.008 26.5383 101.001C26.5321 101.001 26.5228 100.988 26.5269 100.954C26.5378 100.9 26.5586 100.848 26.5882 100.802C26.7048 100.625 26.8489 100.468 27.0152 100.337C27.4616 99.9874 27.9503 99.6949 28.4696 99.4667C29.0348 99.2105 29.6152 98.9891 30.2076 98.8039C30.8091 98.6149 31.4241 98.4455 32.0495 98.3042C33.7081 97.9326 35.3923 97.6857 37.0879 97.5656C36.9203 97.0545 36.7503 96.5513 36.5778 96.0562C36.2963 96.0676 36.0148 96.0832 35.7332 96.1008C34.3921 96.1829 33.0509 96.3148 31.7077 96.5247C30.3644 96.7345 29.0191 97.0223 27.6686 97.497C26.9546 97.7407 26.2734 98.0719 25.6408 98.4829C25.2643 98.73 24.9282 99.0338 24.6445 99.3836C24.4743 99.5997 24.3345 99.8381 24.229 100.092C24.1096 100.383 24.0431 100.693 24.0326 101.007C24.0272 101.326 24.0785 101.642 24.1843 101.942C24.2794 102.207 24.4094 102.458 24.5707 102.689C24.8404 103.067 25.1642 103.402 25.5317 103.685C25.8474 103.932 26.1811 104.155 26.53 104.352C26.8645 104.544 27.198 104.709 27.5336 104.86C28.19 105.153 28.8633 105.405 29.55 105.617C30.2242 105.824 30.9005 106.008 31.5778 106.159C34.2872 106.768 37.0214 107.024 39.7546 107.061C42.5076 107.105 45.2555 106.81 47.9367 106.184C48.6119 106.021 49.2858 105.832 49.9583 105.616C50.6424 105.396 51.3136 105.138 51.9685 104.843C52.6774 104.535 53.3473 104.143 53.9641 103.677C54.3328 103.398 54.6577 103.065 54.9281 102.689C55.0908 102.46 55.2218 102.21 55.3177 101.945C55.4253 101.646 55.4781 101.329 55.4735 101.01C55.4668 100.693 55.4016 100.38 55.2814 100.086Z" fill="url(#paint2_linear_797_19477)"/>
<path d="M39.2339 25.1338C38.0177 25.1338 36.8513 25.6169 35.9913 26.4769C35.1313 27.3369 34.6482 28.5033 34.6482 29.7195C34.6482 30.9357 35.1313 32.1021 35.9913 32.9621C36.8513 33.822 38.0177 34.3052 39.2339 34.3052C40.4501 34.3052 41.6165 33.822 42.4765 32.9621C43.3364 32.1021 43.8196 30.9357 43.8196 29.7195C43.8196 28.5033 43.3364 27.3369 42.4765 26.4769C41.6165 25.6169 40.4501 25.1338 39.2339 25.1338ZM44.966 36.598H33.5018C32.5896 36.598 31.7148 36.9604 31.0698 37.6054C30.4249 38.2503 30.0625 39.1251 30.0625 40.0373C30.0625 42.5961 31.1149 44.6459 32.8414 46.0331C34.5404 47.3973 36.8195 48.0622 39.2339 48.0622C41.6482 48.0622 43.9273 47.3973 45.6263 46.0331C47.3506 44.6459 48.4053 42.5961 48.4053 40.0373C48.4053 39.1251 48.0429 38.2503 47.3979 37.6054C46.7529 36.9604 45.8781 36.598 44.966 36.598Z" fill="#26527A"/>
</g>
<defs>
<filter id="filter0_d_797_19477" x="0.516568" y="0.844642" width="79.2081" height="120.032" filterUnits="userSpaceOnUse" color-interpolation-filters="sRGB">
<feFlood flood-opacity="0" result="BackgroundImageFix"/>
<feColorMatrix in="SourceAlpha" type="matrix" values="0 0 0 0 0 0 0 0 0 0 0 0 0 0 0 0 0 0 127 0" result="hardAlpha"/>
<feOffset dy="3.32807"/>
<feGaussianBlur stdDeviation="5.24172"/>
<feComposite in2="hardAlpha" operator="out"/>
<feColorMatrix type="matrix" values="0 0 0 0 0.0791667 0 0 0 0 0.301274 0 0 0 0 0.5 0 0 0 0.45 0"/>
<feBlend mode="normal" in2="BackgroundImageFix" result="effect1_dropShadow_797_19477"/>
<feBlend mode="normal" in="SourceGraphic" in2="effect1_dropShadow_797_19477" result="shape"/>
</filter>
<linearGradient id="paint0_linear_797_19477" x1="40.1212" y1="10.541" x2="40.1212" y2="90.5505" gradientUnits="userSpaceOnUse">
<stop stop-color="#26527A"/>
<stop offset="1" stop-color="#276399"/>
</linearGradient>
<linearGradient id="paint1_linear_797_19477" x1="40.1197" y1="14.9706" x2="40.1197" y2="55.7362" gradientUnits="userSpaceOnUse">
<stop stop-color="#26527A"/>
<stop offset="1" stop-color="#2E6BA3"/>
</linearGradient>
<linearGradient id="paint2_linear_797_19477" x1="39.7515" y1="96.3657" x2="39.7515" y2="105.932" gradientUnits="userSpaceOnUse">
<stop stop-color="#26527A"/>
<stop offset="1" stop-color="#276297"/>
</linearGradient>
</defs>
</svg>
