<svg width="26" height="22" viewBox="0 0 26 22" fill="none" xmlns="http://www.w3.org/2000/svg">
<path d="M19.4118 0H6.47059C2.58824 0 0 1.94118 0 6.47059V15.5294C0 20.0588 2.58824 22 6.47059 22H19.4118C23.2941 22 25.8824 20.0588 25.8824 15.5294V6.47059C25.8824 1.94118 23.2941 0 19.4118 0ZM20.02 7.88118L15.9694 11.1165C15.1153 11.8024 14.0282 12.1388 12.9412 12.1388C11.8541 12.1388 10.7541 11.8024 9.91294 11.1165L5.86235 7.88118C5.44824 7.54471 5.38353 6.92353 5.70706 6.50941C6.04353 6.09529 6.65176 6.01765 7.06588 6.35412L11.1165 9.58941C12.1 10.3788 13.7694 10.3788 14.7529 9.58941L18.8035 6.35412C19.2176 6.01765 19.8388 6.08235 20.1624 6.50941C20.4988 6.92353 20.4341 7.54471 20.02 7.88118Z" fill="white"/>
</svg>
