<?xml version="1.0" encoding="utf-8"?>
<!-- Generator: Adobe Illustrator 27.5.0, SVG Export Plug-In . SVG Version: 6.00 Build 0)  -->
<svg version="1.1" id="Layer_1" xmlns="http://www.w3.org/2000/svg" xmlns:xlink="http://www.w3.org/1999/xlink" x="0px" y="0px"
	 viewBox="0 0 4000 3000" style="enable-background:new 0 0 4000 3000;" xml:space="preserve">
<path style="fill:#E4EDF6;" d="M3010.946,2250.69c-27.01,18.78-55.44,37.26-85.3,55.44c-26.32,16-53.65,31.67-82,47
	c-362.72,195.63-882.4,322.57-1370.22,152.8c-45.77-15.92-90.66-34.27-134.48-54.95c-94.13-44.41-158.3-92.54-200.23-144.85
	c-66.37-82.77-77.1-176-62.81-281.74c10.19-75.39-73.16-131.19-165.7-218.16c-119.17-112-253.57-275.68-222.94-599.47
	c54.41-575.177,766-929.467,1141.44-504.127c375.44,425.337,445-47.39,821.55-187.47s622.4,286.53,228.91,739.777
	c-393.49,453.25,380.87,305.89,435.28,599.1C3333.206,1955.29,3213.606,2109.77,3010.946,2250.69z"/>
<path style="fill:#6585A3;" d="M1447.016,1905.05c18.2,35.16-57.76,9.47-108.89,18.93l-102.26,57.76l-56.81-23.67l110.78-64.39
	C1355.096,1884.89,1437.216,1886.11,1447.016,1905.05z"/>
<path style="fill:#6585A3;" d="M1114.676,1928.72l-77.64,36.92l39.76,52.08l225.35-10.41L1114.676,1928.72z"/>
<path style="fill:#3B536A;" d="M1223.556,1934.4l-71.01,71.01l-59.65-4.73l100.37-89.95l1.89-54.92l55.86-56.81h46.4l-67.23,74.8
	c5.62,9.64,22.73,23.67,22.73,23.67s51.87-57.42,63.43-68.17l6.63,44.5l-57.75,56.81L1223.556,1934.4z"/>
<path style="fill:#3B536A;" d="M1133.606,1996.89l-185.577-112.67l-50.183,54.91l170.43,84.27L1133.606,1996.89z"/>
<path style="fill:#3B536A;" d="M1473.526,1877.59l61.55-54.92l35.03,12.31l-55.86,49.24l20.83,23.67l61.54-50.19l4.73,46.4
	l-53.02,43.55l-40.71-9.46l-70.07,69.12l-23.67-21.78l67.23-70.07L1473.526,1877.59z"/>
<path style="fill:#A5BFDB;" d="M943.295,2279.05c0-15.69,12.717-28.41,28.405-28.41h611.656c15.69,0,28.41,12.72,28.41,28.41l0,0
	c0,15.69-12.72,28.4-28.4,28.4H971.7C956.012,2307.45,943.295,2294.74,943.295,2279.05L943.295,2279.05z"/>
<path style="fill:#3B536A;" d="M967.913,2034.76h617.343v215.88H967.913V2034.76z"/>
<path style="fill:#6585A3;" d="M1013.366,2034.76h13.25v215.88h-13.25V2034.76z"/>
<path style="fill:#6585A3;" d="M1098.576,2034.76h13.26v215.88h-13.26V2034.76z"/>
<path style="fill:#6585A3;" d="M1183.796,2034.76h13.25v215.88h-13.25V2034.76z"/>
<path style="fill:#6585A3;" d="M1269.006,2034.76h13.26v215.88h-13.26V2034.76z"/>
<path style="fill:#6585A3;" d="M1354.226,2034.76h13.25v215.88h-13.25V2034.76z"/>
<path style="fill:#6585A3;" d="M1524.656,2034.76h13.26v215.88h-13.26V2034.76z"/>
<path style="fill:#6585A3;" d="M1439.436,2034.76h13.26v215.88h-13.26V2034.76z"/>
<path style="fill:#A5BFDB;" d="M943.295,2006.36c0-15.69,12.717-28.41,28.405-28.41h611.656c15.69,0,28.41,12.72,28.41,28.41l0,0
	c0,15.69-12.72,28.4-28.4,28.4H971.7C956.012,2034.76,943.295,2022.05,943.295,2006.36L943.295,2006.36z"/>
<path style="fill:#C8D8E8;" d="M2366.366,1531.81c5.82-10.66,9.03-22.55,9.38-34.69c0.35-12.13-2.18-24.18-7.38-35.16l-25.64-54.09
	l54.94-54.94l54.09,25.64c10.98,5.2,23.03,7.72,35.17,7.37c12.13-0.35,24.02-3.57,34.68-9.39c10.65-5.82,19.78-14.08,26.64-24.1
	c6.86-10.02,11.25-21.53,12.81-33.57l7.67-59.36l75.92-16.52l31.64,50.82c6.43,10.3,15.2,18.94,25.6,25.21
	c10.4,6.27,22.14,9.99,34.25,10.85c12.11,0.87,24.26-1.14,35.45-5.87c11.18-4.72,21.09-12.02,28.92-21.31l38.55-45.79l72.8,27.15
	l-0.85,59.85c-0.17,12.14,2.54,24.15,7.9,35.05c5.36,10.89,13.23,20.36,22.95,27.64s21.02,12.15,32.99,14.23
	c11.96,2.07,24.25,1.29,35.85-2.29l57.19-17.68l46.56,62.2l-33.08,49.89c-6.7,10.12-10.92,21.69-12.3,33.76
	c-1.38,12.06,0.11,24.28,4.36,35.66c4.24,11.38,11.12,21.59,20.06,29.8c8.94,8.22,19.7,14.2,31.4,17.46l57.67,16l5.55,77.5
	l-54.8,24.09c-11.11,4.89-20.91,12.35-28.59,21.75c-7.69,9.4-13.04,20.49-15.62,32.35c-2.58,11.87-2.32,24.17,0.77,35.92
	c3.08,11.74,8.89,22.59,16.97,31.66l39.84,44.68l-37.24,68.19l-59.12-9.36c-12-1.89-24.27-0.92-35.82,2.83
	c-11.55,3.76-22.04,10.19-30.63,18.78s-15.02,19.08-18.78,30.63c-3.75,11.55-4.72,23.82-2.83,35.82l9.36,59.12l-68.19,37.24
	l-44.68-39.84c-9.07-8.08-19.92-13.89-31.66-16.97c-11.75-3.09-24.05-3.35-35.92-0.77c-11.86,2.58-22.95,7.93-32.35,15.62
	c-9.4,7.68-16.86,17.48-21.75,28.59l-24.09,54.8l-77.5-5.55l-16-57.66c-3.26-11.7-9.24-22.46-17.46-31.4
	c-8.21-8.94-18.42-15.82-29.8-20.06c-11.38-4.25-23.6-5.74-35.66-4.36c-12.07,1.38-23.64,5.6-33.76,12.3l-49.89,33.07l-62.2-46.56
	l17.68-57.19c3.58-11.6,4.36-23.89,2.29-35.85c-2.08-11.97-6.95-23.27-14.23-32.99c-7.28-9.72-16.75-17.59-27.64-22.95
	c-10.9-5.36-22.91-8.07-35.05-7.9l-59.85,0.85l-27.15-72.8l45.79-38.55c9.28-7.83,16.59-17.74,21.31-28.92
	c4.72-11.19,6.73-23.33,5.87-35.45c-0.87-12.11-4.59-23.84-10.85-34.24c-6.27-10.4-14.91-19.17-25.21-25.6l-50.82-31.65l16.52-75.92
	l59.36-7.67c12.03-1.56,23.53-5.94,33.54-12.79C2352.286,1551.57,2360.546,1542.45,2366.366,1531.81L2366.366,1531.81z
	 M2548.166,1878.73c88.49,88.49,232,88.49,320.44,0s88.49-232,0-320.44c-88.49-88.44-231.95-88.48-320.44,0
	S2459.636,1790.28,2548.166,1878.73z"/>
<path style="fill:#FFB175;" d="M1350.416,1587.9c-22.89-3.44-41.61-6.86-46.19-8.27c-5.65-1.73-28.83-18.64-53.62-37.52
	c-31.41-6.4-60.09-9-80.59-6.83c-0.06-16.54,3.54-32.88,10.54-47.87c0,0,14.4-73.55,56.36-74.27
	c27.46-0.47,94.28,37.71,143.87,70.39C1357.706,1511.75,1344.946,1560.18,1350.416,1587.9z"/>
<path style="fill:#2165D2;" d="M2479.226,1808.61c-22.2-33.29-55.48-144.25-55.48-144.25s6.65,115.4,0,210.82
	c15.53,59.92,15.53,439.38,15.53,439.38s-590.33,122.05-825.52,24.4c31.07-117.61,28.85-434.94,28.85-434.94s-23.14,32.4-73.28,38
	c-11.05,1.2-22.21,1.1-33.24-0.3c-17.13-1.89-33.02-9.85-44.78-22.45c-15-15.64-25.33-38.45-32.55-66
	c-9.93-37.75-13.94-84.37-15.87-133.49c31.07-28.85,146.35-286.71,172.52-382.3c26.17-95.59,38-103.06,84.23-121.22
	s163.52-60.57,172.6-71.17c9.08-10.6,25.74-25.74,49.21-23.46c10.6-15.9,39.68-30.44,88.58-7.57c0,0,31.42-6,73.87-24.34
	c42.45-18.34,87.73,19.81,120.28,38.2c32.55,18.39,140.09,45.29,195.28,63.68c55.19,18.39,66.44,40,97.51,99.16
	c31.07,59.16,128.71,218.21,201.94,369.11C2703.346,1713.18,2554.676,1839.65,2479.226,1808.61z"/>
<path style="fill:#405394;" d="M1569.326,1942.04c-11.05,1.2-22.21,1.1-33.24-0.3c-17.13-1.89-33.02-9.85-44.78-22.45
	c-18.58-31.58-32.55-66-32.55-66l102-9C1560.756,1844.29,1582.046,1901.7,1569.326,1942.04z"/>
<path style="fill:#2D2F36;" d="M2285.456,737.304c-11,53.16-85.26,131.339-85.26,131.339s-126-19.549-126-25.409
	s-17.59-251.13-17.59-251.13L2285.456,737.304z"/>
<path style="fill:#FB8D3E;" d="M2285.456,737.303c-29.55-16.55-60.35-29.91-88-40.3c-52-19.56-92.73-28.62-92.73-28.62
	l-289.13,18.71c-74.45-4.92-89.23-28.27-70.09-44.16c5-4.12,12.19-7.73,21.25-10.4c11.31-69.36,54.84-174,198.53-208
	c20.88-4.93,143.94-6.75,174.24,5.24C2261.256,477.963,2307.446,626.283,2285.456,737.303z"/>
<path style="fill:#FF9B4A;" d="M2139.536,429.813c-111.65-13.89-168.4,19.64-201.1,87c-37.27,76.78-2.4,159.74-2.4,159.74l-86-40.88
	c3-146.69,56.71-181.68,115.22-211.08c22.74-5.266,45.89-8.611,69.19-10C2074.256,412.043,2109.236,417.823,2139.536,429.813z"/>
<path style="fill:#BF6113;" d="M2197.466,697.003c-52-19.56-92.73-28.62-92.73-28.62l-289.13,18.71
	c-74.45-4.92-89.23-28.27-70.09-44.16c6.59-4.391,13.74-7.889,21.25-10.4C1890.946,588.773,2072.946,624.893,2197.466,697.003z"/>
<path style="fill:#FFB175;" d="M1796.946,668.413c175.72-48.74,307.84,0,307.84,0s35.91,61.56,38.47,85.93l-18.7-6.79
	c0,0,24.7,43.43,28.1,72.39c36.62-43.43,68.13-31.51,76.64,19.58c8.51,51.09-49.39,106.45-85.15,80.9
	c-38.32,64.72-42.58,137.097-20.44,191.597c-20.44,106.44-99.63,200.12-161.8,174.57c-62.17-25.55-29.8-132-2.55-156.69
	c8.52-46-8.52-80-8.52-80c-106.44-8.52-145.61-98.777-148.17-174.567C1800.106,799.543,1796.946,668.413,1796.946,668.413z"/>
<path d="M2065.336,921.743c-0.72,5.052-1.72,10.06-3,15c-12.77,49.6-51,78.817-87,75.827c-21.88-1.81-43-15.517-57-43.787
	c2.48-0.66,5-1.37,7.55-2.15c61.56-18.59,140.86-68.42,140.86-68.42C2066.876,906.081,2066.406,913.947,2065.336,921.743
	L2065.336,921.743z"/>
<path style="fill:#D6206F;" d="M2062.346,936.723c-12.77,49.6-51,78.817-87,75.827
	C2000.206,970.503,2040.276,947.083,2062.346,936.723z"/>
<path style="fill:#FFFFFF;" d="M2065.336,921.743c-33,16.32-91.11,44.35-118,53.32c-8.21,13.39-16.46,1.75-21.37-8.45
	c61.56-18.59,140.86-68.42,140.86-68.42C2066.936,906.07,2066.436,913.943,2065.336,921.743L2065.336,921.743z"/>
<path style="fill:#FF8E38;" d="M1960.996,1050.41c43.38,0,156.46-78.457,169.78-104.237c0,0-70.87,117.177-117.28,146.097
	C1967.086,1121.19,1960.996,1050.41,1960.996,1050.41z"/>
<path style="fill-rule:evenodd;clip-rule:evenodd;fill:#32486E;" d="M1875.936,842.61c7.94-17.003,13.99-34.215,9.29-50.683
	l5.76-1.647c5.37,18.802-1.68,37.865-9.61,54.867c-1.7,3.64-3.42,7.139-5.09,10.542c-2.33,4.758-4.57,9.33-6.55,13.841
	c-3.35,7.661-5.61,14.471-5.84,20.429c-0.45,11.604,6.89,20.739,16.59,25.534c9.82,4.853,21.06,4.788,27.9-0.768l3.78,4.657
	c-9.29,7.544-23.25,6.969-34.34,1.49c-11.2-5.538-20.49-16.558-19.93-31.144c0.28-7.137,2.93-14.808,6.35-22.605
	c1.99-4.561,4.36-9.399,6.77-14.301C1872.676,849.425,1874.356,845.997,1875.936,842.61z"/>
<path style="fill:#2D2F36;" d="M1821.026,725.013c7.07-15.32,40-13.55,44.16-7.66c-2.35-23-21.78-21.79-36.51-14.72
	C1819.776,706.903,1821.026,725.013,1821.026,725.013z"/>
<path style="fill:#2D2F36;" d="M1965.296,701.413c1.18,14.13,8.25,14.13,24.15,5.89c15.9-8.24,45.93-3.33,59.47,4.22
	c-10-30.72-37.68-33.66-58.88-28.37C1968.836,688.443,1965.296,701.413,1965.296,701.413z"/>
<path style="fill:#32486E;" d="M1853.066,821.539c6.02-0.949,9.56-10.254,7.9-20.783c-1.66-10.529-7.88-18.296-13.91-17.348
	c-6.02,0.949-9.56,10.254-7.9,20.783C1840.816,814.72,1847.036,822.487,1853.066,821.539z"/>
<path style="fill:#32486E;" d="M2020.326,824.182c7.68-1.209,12.31-12.291,10.35-24.752s-9.78-21.581-17.46-20.371
	c-7.68,1.209-12.32,12.291-10.36,24.752C2004.826,816.271,2012.636,825.392,2020.326,824.182z"/>
<path style="fill-rule:evenodd;clip-rule:evenodd;fill:#32486E;" d="M2186.766,816.946c-3.72,0.601-8.27,3.293-13.38,9.97
	c-0.01,0.011-0.01,0.023-0.02,0.034c-5.2,6.598-9.54,13.832-12.91,21.526c-3.36,8-4.16,14.355-3.25,18.649
	c0.45,2.107,1.28,3.641,2.36,4.702c1.05,1.039,2.47,1.778,4.39,2.07c1.86,0.208,3.67,0.803,5.29,1.749
	c1.65,0.957,3.08,2.251,4.19,3.797v0.006c2.79,3.908,3.27,8.918,3.19,12.568c0.44-0.332,0.89-0.685,1.36-1.06
	c3.83-3.042,8.5-7.387,12.08-12.694l4.98,3.361c-4.06,5.993-9.23,10.773-13.32,14.03c-2.06,1.637-3.88,2.909-5.18,3.776
	c-0.65,0.434-1.18,0.768-1.55,0.996c-0.19,0.114-0.33,0.202-0.44,0.263c-0.05,0.031-0.09,0.054-0.12,0.071l-0.03,0.021l-0.01,0.006
	l-0.01,0.002v0.001c0,0.001,0,0.001-1.5-2.597l1.5,2.598c-1.04,0.6-2.33,0.524-3.3-0.195c-0.96-0.717-1.4-1.937-1.12-3.103
	 M2169.966,897.493L2169.966,897.493L2169.966,897.493c0-0.002,0-0.002,0-0.002c0-0.001,0-0.001,0-0.002l0.01-0.006
	c0-0.012,0-0.034,0.01-0.065c0.01-0.062,0.04-0.162,0.06-0.295c0.06-0.267,0.13-0.666,0.21-1.168c0.16-1.01,0.33-2.414,0.37-3.986
	c0.08-3.272-0.41-6.703-2.07-9.028c-0.62-0.859-1.41-1.577-2.32-2.108c-0.92-0.532-1.93-0.865-2.99-0.976
	c-0.04-0.005-0.08-0.01-0.12-0.016c-3.06-0.453-5.72-1.705-7.79-3.75c-2.05-2.034-3.36-4.694-4-7.724
	c-1.27-5.978,0-13.665,3.59-22.235c0.01-0.014,0.02-0.028,0.02-0.042c3.58-8.163,8.18-15.836,13.69-22.837
	c5.6-7.312,11.36-11.29,17.17-12.23c5.89-0.953,11.13,1.332,15.36,4.991c8.28,7.167,13.72,20.38,15.07,30.429l-5.94,0.801
	c-1.23-9.111-6.21-20.774-13.06-26.692c-3.33-2.883-6.84-4.193-10.47-3.606"/>
<path style="fill:#32486E;" d="M2181.166,868.643c-1,5.61-5.08,9.64-10.17,12.51c-0.86-1.203-1.97-2.21-3.25-2.954
	c-1.28-0.745-2.71-1.21-4.18-1.366c-10-1.48-12.83-13-5.87-29.58C2177.566,849.413,2183.516,855.413,2181.166,868.643z"/>
<path style="fill:#405394;" d="M2479.226,1808.61c49.47-68.79,185.95-153.84,219.69-148.68
	C2703.346,1713.18,2554.676,1839.65,2479.226,1808.61z"/>
<path style="fill:#FFB175;" d="M2479.216,1678.93c20.75,86.55,17.18,141.08,63.1,161c45.92,19.92,109.12,30.89,133.34-52.79
	c19-65.78-18.17-99.53-37.29-166.6C2630.306,1592.24,2479.216,1678.93,2479.216,1678.93z"/>
<path style="fill:#FFB175;" d="M2635.086,1696.04c-26.77,20.07-82.83,50.84-114.95,34.82c-19.77-10.03-37.58-23.53-52.58-39.85
	c0,0-33,5.75-43-9.26c-16.27-24.46-17.71-49.55-44.74-61.23c3.88-11,9.94-17.77,16.74-21.39c11.81-6.33,25.83-3.06,34.41,4.6
	c3.51,3.23,6.84,6.63,10,10.2c12.74,14.12,27.15,33.23,27.15,33.23c31.85,8.68,67.55,33.29,87.82,46.8s47.47,6.75,33.14-34.26
	c-10.38-29.72-83.48-40.4-123-44c-0.27-4.22-0.57-8.84-0.9-13.87c-1.93-29.44,7.32-55.85,7.32-55.85s131-17.21,153.92,18.16
	C2649.336,1599.51,2661.856,1675.96,2635.086,1696.04z"/>
<path style="fill:#2D2F36;" d="M2608.086,1582.56c40,8.27,72.33,11.71,79.22-18.6c6.89-30.31-98.2-35.46-98.2-35.46
	L2608.086,1582.56z"/>
<path style="fill:#FFB175;" d="M2454.366,1472.07c-18.56,35-9,94.83,12.26,99.73c21.26,4.9,28.54-7.64,28.54-7.64
	s-1,38.12,39.57,19.3c13,17.85,35.22,14.3,43.43,5.22c24.12,12.15,38.51,17.8,51.63-10c13.12-27.8-3.38-78.18-37.64-65.15
	c-4.34-13.51-26.06-22.68-39.57-12.54c-6.75-26.54-34.26-30.89-46.8-18.82C2503.366,1457.52,2466.946,1448.41,2454.366,1472.07z"/>
<path style="fill:#2D2F36;" d="M2555.946,1693.96c-20.27-13.51-56-38.12-87.82-46.8c0,0-14.41-19.11-27.15-33.23
	c0,0,10.15,0.36,25.15,1.74c39.48,3.63,112.58,14.31,123,44C2603.436,1700.71,2576.236,1707.47,2555.946,1693.96z"/>
<path style="fill:#2D2F36;" d="M2396.576,1599.13c-1.73,0.93-3.36,2.03-4.87,3.28c-4.78,4-9,9.85-11.87,18.11l-41.15-45.95l-2.71-3
	l14.47-12.16l6.89-5.78l5.45,6.32L2396.576,1599.13z"/>
<path style="fill:#2D2F36;" d="M2350.446,1524.01l108.84-26.87l8.27,40.65l-110.22,15.84L2350.446,1524.01z"/>
<path style="fill:#2D2F36;" d="M2367.406,1557.15l-4.62,2.8l-7.47,4.53l-16.63,10.09l-55.66,33.75l-76.55-20l-10.79-14.2h-0.01
	l-23.58-31.03l103.86,22.74l32.73-19.85l-23.24-30.61l-113.35-21.35l54.32-30.47l81.57,15.36L2367.406,1557.15z"/>
<path style="fill:#181A1E;" d="M2391.706,1602.41c-4.78,4-9,9.85-11.87,18.11l-41.15-45.95l-55.66,33.75l-76.55-20l-10.79-14.2
	l71.34,14.56l54.84-24.52l28.58-4.75l4.87,5.07L2391.706,1602.41z"/>
<path style="fill:#6A6F80;" d="M2338.046,1583.94c17.88,0,32.38-14.49,32.38-32.38c0-17.88-14.5-32.38-32.38-32.38
	c-17.88,0-32.38,14.5-32.38,32.38C2305.666,1569.45,2320.166,1583.94,2338.046,1583.94z"/>
<path style="fill:#2D2F36;" d="M2338.046,1561.36c5.41,0,9.8-4.38,9.8-9.8c0-5.41-4.39-9.8-9.8-9.8c-5.41,0-9.8,4.39-9.8,9.8
	C2328.246,1556.98,2332.636,1561.36,2338.046,1561.36z"/>
<path style="fill-rule:evenodd;clip-rule:evenodd;fill:#D6874B;" d="M2504.916,1489.08c1.61,0.24,2.73,1.73,2.53,3.35l-9.28,71.94
	c0,0.05,0,0.11,0,0.19c0,0.23,0.01,0.59,0.03,1.05c0.05,0.91,0.16,2.22,0.41,3.72c0.14,0.86,0.33,1.77,0.57,2.7l34.26,3.41
	l13.54-61.33c0.35-1.57,1.86-2.58,3.44-2.31c1.58,0.27,2.66,1.73,2.47,3.32l-2.98-0.37c2.98,0.37,2.98,0.37,2.98,0.37l0,0
	l-0.02,0.15c-0.01,0.1-0.03,0.25-0.06,0.44c-0.05,0.38-0.12,0.94-0.21,1.66c-0.19,1.44-0.47,3.51-0.84,6.04
	c-0.73,5.08-1.8,12.04-3.14,19.56c-1.99,11.06-4.63,23.64-7.77,33.21l35.93,3.58l12.44-66.82c0.27-1.47,1.59-2.51,3.09-2.44
	c1.49,0.06,2.71,1.22,2.85,2.71c1.97,21.01-1.61,40.21-5.66,54.11c-1.52,5.21-3.11,9.69-4.5,13.26l40.1,4
	c1.05,0.1,1.97,0.76,2.42,1.71c0.45,0.96,0.35,2.09-0.24,2.96c-3.16,4.63-6.57,7.93-10.39,9.97c-3.86,2.06-7.92,2.73-12.17,2.41
	c-7.73-0.58-16.34-4.49-25.98-9.31c-4.96,4.36-12.59,7.05-20.55,6.85c-8.44-0.21-17.43-3.67-24.37-12.01
	c-9.4,4.05-16.88,5.17-22.85,4.19c-6.54-1.08-10.9-4.64-13.7-8.81c-1.07-1.59-1.92-3.27-2.58-4.93l-17.15-1.71
	c-3.38,0.15-7.23-0.17-11.58-1.17c-1.55-0.36-2.55-1.85-2.29-3.41c0.26-1.57,1.68-2.66,3.26-2.5l10.76,1.07
	c4.3-0.25,7.47-1.41,9.72-2.68c1.93-1.09,3.26-2.29,4.09-3.2c0.31-0.33,0.55-0.63,0.72-0.85c0.79-13.4,3.08-31.1,5.18-45.5
	c1.08-7.36,2.1-13.89,2.86-18.58c0.38-2.35,0.69-4.23,0.91-5.53c0.11-0.65,0.2-1.15,0.25-1.49l0.09-0.53c0,0,0,0,2.96,0.51
	l-2.96-0.51C2501.786,1489.93,2503.296,1488.83,2504.916,1489.08z M2492.786,1570.87c-0.21,0.15-0.43,0.3-0.66,0.46l0.76,0.07
	C2492.846,1571.22,2492.816,1571.04,2492.786,1570.87z M2501.686,1578.31c0.17,0.3,0.36,0.6,0.56,0.89c2.02,3.01,5.02,5.45,9.7,6.23
	c4.57,0.75,11.06-0.04,20.18-4.08l0.01-0.01L2501.686,1578.31z M2538.226,1583.08c0.16-0.35,0.32-0.71,0.47-1.08l36.98,3.68
	l-0.3,1.57c-3.55,3.49-9.94,6.1-17.04,5.92C2551.426,1593,2544.016,1590.17,2538.226,1583.08z M2582.146,1587.32
	c9.41,4.67,16.77,7.86,23.02,8.33c3.29,0.24,6.19-0.27,8.89-1.72c1.66-0.88,3.32-2.16,4.98-3.93l-36.46-3.63
	C2582.426,1586.71,2582.286,1587.03,2582.146,1587.32z M2653.186,1654.89c-0.53,18.42-5.13,35.15-16.29,43.55l0,0
	c-13.56,10.17-34.5,23.02-56.2,31.34c-21.49,8.24-44.62,12.37-61.89,3.77l-0.02-0.01c-12.51-6.33-24.26-14.06-35.04-23.03l3.84-4.61
	c10.43,8.68,21.8,16.15,33.91,22.28c14.84,7.39,35.81,4.15,57.06-4c21.06-8.08,41.52-20.63,54.74-30.54
	c8.84-6.66,13.38-20.87,13.89-38.92L2653.186,1654.89z"/>
<path style="fill:#FFB175;" d="M1512.436,1756.02c-28.58-14.61-114.49-105.17-143.49-144.08c-29-38.91-171-35.53-171-35.53
	s-19.49-7.84-5.26,20.8c59,118.78,148.29,297.63,213.5,328.13c54.06,25.29,98.73,17.31,121.41-20.33l33.18-60.65
	C1560.776,1844.36,1555.546,1778.1,1512.436,1756.02z"/>
<path style="fill:#2D2F36;" d="M1355.426,1575.41c-7.27,1.88-14.29,4.63-20.89,8.2c-8.26,4.95-33.86-5.79-58.64-12.39
	c-20.41-5.45-63.81-0.24-94.17,5.45c-6.49,1.22-12.39,2.46-17.34,3.63c-28.08,6.61-57-19-15.69-39.64
	c5.35-2.68,12.59-4.44,21.32-5.35C1212.716,1530.83,1290.846,1546.72,1355.426,1575.41z"/>
<path style="fill:#2D2F36;" d="M1442.886,1576.41c-8.93-5.51-86.88-42.39-161.21-73.78c-74.33-31.39-81.77-26.43-71.86-58.64
	c9.91-32.21,28.08-23.95,39.65-19c0,0,40.74,17.84,118.11,65.25C1475.946,1556.68,1451.816,1581.92,1442.886,1576.41z
	 M1474.136,1558.41c-9.11-19.36-31.22-39.92-50.4-55c-30.56-24-193.27-120.59-213.09-123.07c-19.82-2.48-41.3,67.73-39.65,90
	c0.45,6.06,4.26,11.82,9.56,17c19.33,12.94,73.45,36.12,124.25,56.61l0.13,0.06c53.48,21.58,103.23,40.18,104.73,40.74l-9.9-1.72
	c9,1.68,13.76,14.82,10.67,22.61c3.17,2.22,6.22,4.47,9.17,6.76c9,6.36,20.74,5.58,33-2.35c4.35-2.85,8.38-6.18,12-9.92
	c3.1-3.15,6-6.49,8.68-10C1480.366,1580.95,1479.536,1569.89,1474.136,1558.41z"/>
<path style="fill:#FFB175;" d="M1410.436,1605.72c-10.6,16.3-37.44,13.56-56.9,23.19c-61.92,30.62-33-4-71-0.73
	c-38,3.27-54.51-5-62.77-17.35c-7.64-11.46-24.26-13.37-38-34.19c30.36-5.69,73.76-10.9,94.17-5.45
	c24.78,6.6,50.38,17.34,58.64,12.39c6.6-3.57,13.62-6.32,20.89-8.2c10.95-2.77,36.14-6.12,51.86,10.69
	C1412.146,1591.28,1412.846,1599.64,1410.436,1605.72z"/>
<path style="fill:#FFB175;" d="M1304.806,1406.67c-23-19.45-41.77-12.25-59.05,25.2c-17.28,37.45-8.64,59.25,20.88,55.55
	c1.44,18.63,28.09,14,38.17,11.27c-0.72,23.2,30.85,31.8,46.81,11.68c12.2,28.32,40.33,8.64,67.69-18.73
	c27.36-27.37,42.49-53.5,16.57-71.4c-25.92-17.9-41.77,8.75-41.77,8.75c-24.49-34.57-49.47-16.77-51-8.75
	C1322.086,1395.86,1304.806,1406.67,1304.806,1406.67z"/>
<path style="fill-rule:evenodd;clip-rule:evenodd;fill:#D6874B;" d="M1304.236,1408.34c0.99,0.88,1.29,2.3,0.73,3.51l-11.66,25.13
	l26.06,16.28c6.51-13.52,13.24-25.55,17.23-30.58c0.94-1.19,2.63-1.49,3.92-0.69c1.29,0.79,1.79,2.43,1.16,3.81l-14.8,32.16l33.6,21
	c1.85-3.33,3.83-6.72,5.84-10.08c4.95-8.28,10.16-16.43,14.48-23.09c1.4-2.15,2.69-4.14,3.86-5.92c2.45-3.76,4.31-6.6,5.24-8.15
	c0.84-1.4,2.63-1.87,4.05-1.07c1.41,0.8,1.93,2.58,1.17,4.02l-26.23,49.55l34.12,21.32c0.82,0.51,1.34,1.39,1.4,2.35
	c0.07,0.96-0.34,1.9-1.09,2.51c-10.55,8.67-21.17,15.26-30.69,16.56c-4.88,0.67-9.57-0.04-13.75-2.64
	c-3.12-1.95-5.78-4.85-7.99-8.69c-8.59,8.29-20.03,10.56-29.7,8.05c-9.8-2.54-17.98-10.08-19.23-21.2
	c-5.37,1.18-12.88,2.28-19.78,1.57c-4.33-0.44-8.72-1.62-12.19-4.22c-2.88-2.16-4.96-5.19-5.88-9.14
	c-6.5,0.48-12.18-0.28-16.85-2.38c-5.43-2.44-9.29-6.6-11.41-12.16c-4.14-10.85-1.53-26.63,7.18-45.52
	c2.52-5.57,5.42-10.96,8.68-16.13c0.88-1.39,2.73-1.82,4.13-0.94l27.74,17.34c2.09-3.69,4.18-7.13,6.19-10.17
	c2.01-3.03,3.95-5.69,5.74-7.82c1.74-2.08,3.5-3.85,5.16-4.88C1301.796,1407.33,1303.246,1407.46,1304.236,1408.34z
	 M1283.986,1442.82c-0.4,0.79-0.79,1.58-1.19,2.37c-1.93,3.92-3.76,7.93-5.42,11.89L1283.986,1442.82z M1263.556,1484.71
	c0.17-5.11,1.61-11.29,3.7-17.73c2.55-7.82,6.18-16.37,10.16-24.44c1.07-2.16,2.16-4.3,3.27-6.38l-25.47-15.91
	c-2.48,4.15-4.73,8.45-6.73,12.86l-0.01,0.02c-8.56,18.55-10.27,32.39-7.03,40.88c1.57,4.11,4.32,7.05,8.27,8.82
	C1253.216,1484.41,1257.806,1485.13,1263.556,1484.71z M1269.696,1487.89l21.07-45.42l26.02,16.26
	c-5.97,12.88-11.58,26.79-14.42,37.49c-5.07,1.24-12.81,2.56-19.58,1.86c-3.77-0.38-6.94-1.36-9.2-3.05
	C1271.586,1493.53,1270.116,1491.33,1269.696,1487.89z M1307.796,1499.44l16.55-35.99l33.25,20.79c-1.58,2.99-3.03,5.89-4.28,8.62
	c-1.66,3.63-3,7.03-3.84,10.01c-0.64,2.26-1.06,4.52-0.96,6.55c-7.2,8.34-17.41,10.63-25.82,8.45
	C1314.206,1515.68,1307.786,1509.05,1307.796,1499.44z M1354.966,1510.51l11.11-20.98l30.16,18.85
	c-9.16,7.09-17.5,11.69-24.43,12.64c-3.76,0.51-6.98-0.06-9.75-1.79C1359.496,1517.63,1357.066,1514.88,1354.966,1510.51z
	 M1384.286,1570.88c11.21,2.57,22.55,8.73,28.06,19.99l-5.38,2.64c-4.43-9.03-13.79-14.43-24.02-16.78
	c-10.28-2.36-20.6-1.42-26.2,1.34l-2.66-5.38C1361.316,1569.13,1373.146,1568.32,1384.286,1570.88z M1179.296,1574.93
	c0.7-1.01,1.94-1.49,3.14-1.21l194.85,45.15c1.36,0.32,2.33,1.54,2.32,2.94c-0.01,1.4-0.99,2.61-2.36,2.91
	c-7.94,1.75-15.66,3.56-22.39,6.88c-15.51,7.68-25.64,11.42-32.69,12.61c-3.56,0.6-6.48,0.57-8.98-0.02
	c-2.54-0.61-4.45-1.76-6.05-3.1c-1.18-1-2.27-2.17-3.23-3.21c-0.25-0.28-0.49-0.54-0.72-0.79c-1.2-1.27-2.37-2.4-3.86-3.35
	c-2.88-1.84-7.47-3.36-16.54-2.57c-38.38,3.34-56.35-4.91-65.53-18.67c-2.87-4.31-7.13-7.08-12.73-10.7c-1-0.65-2.05-1.33-3.14-2.05
	c-6.98-4.62-14.95-10.56-22.13-21.45C1178.576,1577.27,1178.596,1575.94,1179.296,1574.93z M1189.086,1581.42
	c5.17,6.05,10.55,9.98,15.61,13.33c0.96,0.63,1.93,1.25,2.89,1.87c5.56,3.59,11.04,7.11,14.67,12.55
	c7.34,11.01,22.41,19.29,60.01,16.02c9.93-0.86,15.97,0.72,20.3,3.49c2.11,1.36,3.68,2.91,4.99,4.3c0.33,0.36,0.64,0.69,0.93,1
	c0.91,0.99,1.65,1.79,2.51,2.52c1.04,0.87,2.13,1.5,3.59,1.85c1.49,0.36,3.56,0.45,6.59-0.06c6.12-1.03,15.59-4.43,31.02-12.07l0,0
	c3.66-1.81,7.55-3.19,11.49-4.34L1189.086,1581.42z"/>
<path style="fill:#2D2F36;" d="M1489.526,1597.74c-2.37,7.08-5.67,13.8-9.81,20c-3.78,5.5-7.86,9.54-11.73,11.56
	c-2.74,1.43-5.37,1.84-7.72,1c-5.36-1.85-8-9.66-7.65-20.18c0.19-4.75,0.83-9.48,1.93-14.11c0.73-3.17,1.63-6.3,2.69-9.38
	c4.28-12.44,10.6-22.62,16.9-28.23c4.36-3.89,8.71-5.59,12.36-4.33c3.34,1.15,5.61,4.61,6.78,9.59
	C1495.216,1571.99,1494.056,1584.57,1489.526,1597.74z"/>
<path style="fill:#2D2F36;" d="M1790.906,1630.78l-32.34,83.7l-118.42,22.88l-188.58-65.48l3.02-7.83l13.4-34.78l7.76-20.13
	l17.53-45.47l15.21-39.47L1790.906,1630.78z"/>
<path style="fill:#4E5056;" d="M1521.896,1559.69l-13.41,40.4l242.98,83.62l17.35-42.07L1521.896,1559.69z"/>
<path style="fill:#2D2F36;" d="M1786.706,1641.64l20.42,9.52l-20.42,51.47l-21.62-5.03L1786.706,1641.64z"/>
<path style="fill:#2D2F36;" d="M1969.946,1764.19c-22.4-27.87-51.41-49.71-84.39-63.53c-30.17-12.65-63.59-18.82-99.33-18.34
	l-0.28-20c38.5-0.51,74.63,6.16,107.35,19.88c36.02,15.09,67.7,38.94,92.17,69.37L1969.946,1764.19z"/>
<path style="fill-rule:evenodd;clip-rule:evenodd;fill:#243367;" d="M1640.146,1551.36l-2.99,0.19l-0.01-0.09v-235.42h6v235.23
	l0.04,0.69c0.04,0.52,0.08,1.3,0.15,2.31c0.12,2.01,0.3,4.98,0.52,8.77c0.44,7.58,1.05,18.47,1.73,31.67
	c1.36,26.41,2.99,62.1,4.08,99.26c1.08,37.16,1.63,75.8,0.81,108.1c-0.41,16.15-1.16,30.74-2.35,42.79
	c-1.2,11.97-2.85,21.68-5.17,27.89l-5.62-2.1c2.03-5.43,3.63-14.47,4.81-26.38c1.18-11.85,1.93-26.28,2.33-42.35
	c0.82-32.14,0.27-70.66-0.81-107.77c-1.09-37.1-2.71-72.75-4.07-99.13c-0.68-13.19-1.29-24.06-1.73-31.63
	c-0.22-3.78-0.4-6.74-0.52-8.76c-0.06-1.01-0.11-1.78-0.14-2.29l-0.05-0.78C1637.156,1551.55,1637.156,1551.55,1640.146,1551.36z"/>
<path style="fill-rule:evenodd;clip-rule:evenodd;fill:#243367;" d="M2395.706,1382.79c0-46.08,7.39-93.45,22.29-129.01l5.54,2.32
	c-14.51,34.6-21.83,81.13-21.83,126.69c0,45.59,7.33,89.77,21.76,119.75l-5.4,2.6
	C2403.086,1474.03,2395.706,1428.84,2395.706,1382.79z"/>
<path style="fill-rule:evenodd;clip-rule:evenodd;fill:#243367;" d="M1926.136,1324.87c-7.8-7.5-14.13-18.32-18.72-32.97l5.72-1.8
	c4.38,13.98,10.28,23.83,17.16,30.44c6.85,6.58,14.82,10.09,23.62,11.19c17.8,2.23,39.22-5.35,61.36-18.1l3,5.2
	c-22.42,12.9-45.28,21.34-65.11,18.85C1943.166,1336.43,1933.976,1332.4,1926.136,1324.87z"/>
<path style="fill-rule:evenodd;clip-rule:evenodd;fill:#243367;" d="M1822.796,1524.94c-12.16-23.36-19.49-45.36-18.67-63.27l6,0.28
	c-0.76,16.29,5.97,37.13,18,60.22c11.97,23.01,29.02,47.87,48.42,72.09c38.85,48.47,86.86,93.97,122.02,116.45l-3.24,5.06
	c-35.89-22.95-84.37-68.97-123.46-117.76C1852.306,1573.6,1835.016,1548.4,1822.796,1524.94z"/>
<path style="fill-rule:evenodd;clip-rule:evenodd;fill:#243367;" d="M1998.576,1616.58c-11.88-7.19-21.31-15.96-25.96-26.5l5.5-2.42
	c3.94,8.96,12.22,16.92,23.56,23.78c11.31,6.84,25.42,12.43,40.6,16.75c30.38,8.65,64.6,12.1,88.32,10.68l0.36,5.99
	c-24.45,1.47-59.34-2.08-90.32-10.9C2025.126,1629.55,2010.486,1623.78,1998.576,1616.58z"/>
<path style="fill:#405394;" d="M2394.956,2029.83l19.44,137.59h-40.72l4.72-109.68l1.21-27.91l0.23-5.44l-1.46-33.84l-3.62-84.13
	l-1.08-25.05h40.72l-3.59,25.05l-16.77,116.93L2394.956,2029.83z"/>
<path style="fill:#21305B;" d="M2414.396,2167.42h-40.72l4.72-109.68l1.21-27.91h15.35L2414.396,2167.42z"/>
<path style="fill:#2D2F36;" d="M2386.726,2029.61c11.82,0,21.4-5.14,21.4-11.48s-9.58-11.48-21.4-11.48
	c-11.82,0-21.4,5.14-21.4,11.48S2374.906,2029.61,2386.726,2029.61z"/>
<path style="fill:#2D2F36;" d="M2337.506,1886.45v284.91h-125.4l-44.89,27.11l-86.47,52.22h-311.93l-50.74-94.15l-12.43-23.07
	v-257.32h63.17l49.78-47.44h390.02l60.84,58.87L2337.506,1886.45z"/>
<path style="fill:#181A1E;" d="M1976.366,1965.57c1.63-2.98,2.53-6.32,2.63-9.72s-0.61-6.78-2.07-9.86l-7.19-15.16l15.4-15.4
	l15.16,7.19c3.08,1.46,6.45,2.17,9.86,2.07c3.4-0.1,6.73-1,9.72-2.63c2.98-1.63,5.54-3.95,7.46-6.76c1.93-2.81,3.15-6.03,3.59-9.41
	l2.16-16.64l21.27-4.63l8.87,14.24c1.8,2.89,4.26,5.32,7.17,7.08c2.92,1.76,6.21,2.8,9.61,3.04c3.39,0.25,6.8-0.32,9.93-1.65
	c3.14-1.32,5.92-3.37,8.11-5.98l10.8-12.83l20.41,7.61l-0.24,16.77c-0.05,3.41,0.71,6.77,2.21,9.83c1.5,3.06,3.7,5.71,6.43,7.75
	c2.72,2.04,5.89,3.41,9.25,3.99c3.35,0.58,6.8,0.36,10.05-0.65l16-5l13,17.43l-9.27,14c-1.88,2.84-3.07,6.08-3.46,9.46
	c-0.39,3.38,0.03,6.81,1.22,10c1.19,3.19,3.12,6.05,5.62,8.36c2.51,2.3,5.53,3.97,8.81,4.88l16.17,4.5l1.55,21.72l-15.36,6.75
	c-3.12,1.37-5.86,3.46-8.02,6.1c-2.15,2.63-3.65,5.74-4.38,9.07c-0.72,3.33-0.65,6.78,0.22,10.07c0.86,3.29,2.5,6.33,4.76,8.87
	l11.17,12.52l-10.44,19.11l-16.57-2.62c-3.36-0.53-6.8-0.26-10.04,0.79c-3.24,1.05-6.18,2.86-8.59,5.26
	c-2.41,2.41-4.21,5.35-5.26,8.59s-1.32,6.68-0.79,10.04l2.62,16.57l-19.11,10.44l-12.52-11.17c-2.54-2.26-5.58-3.9-8.87-4.76
	c-3.29-0.87-6.75-0.94-10.07-0.22c-3.33,0.72-6.44,2.23-9.07,4.38c-2.64,2.16-4.72,4.91-6.09,8.02l-6.76,15.36l-21.72-1.55
	l-4.49-16.17c-0.91-3.28-2.59-6.29-4.89-8.8c-2.3-2.51-5.17-4.44-8.36-5.63c-3.19-1.19-6.61-1.61-10-1.22
	c-3.38,0.39-6.62,1.57-9.46,3.45l-14,9.27l-17.43-13l5-16c1.01-3.25,1.24-6.7,0.67-10.06c-0.58-3.36-1.94-6.54-3.98-9.27
	c-2.04-2.73-4.7-4.94-7.76-6.45c-3.06-1.51-6.43-2.27-9.84-2.22l-16.78,0.24l-7.61-20.4l12.83-10.8c2.61-2.19,4.66-4.97,5.98-8.1
	c1.33-3.14,1.89-6.55,1.65-9.94c-0.24-3.4-1.29-6.69-3.05-9.6c-1.75-2.92-4.18-5.38-7.07-7.18l-14.24-8.87l4.63-21.28l16.64-2.15
	c3.38-0.42,6.62-1.65,9.44-3.56C1972.406,1971.13,1974.726,1968.57,1976.366,1965.57z M2027.306,2062.81
	c8.88,8.89,20.2,14.94,32.52,17.39c12.32,2.45,25.09,1.19,36.69-3.62c11.61-4.8,21.53-12.94,28.51-23.39
	c6.98-10.44,10.7-22.72,10.7-35.28c0-12.56-3.72-24.84-10.7-35.29c-6.98-10.44-16.9-18.58-28.51-23.39
	c-11.6-4.81-24.37-6.06-36.69-3.61c-12.32,2.45-23.64,8.5-32.52,17.38c-11.91,11.91-18.6,28.07-18.6,44.91
	C2008.706,2034.75,2015.396,2050.9,2027.306,2062.81L2027.306,2062.81z M1804.946,2022.99c2-4.84,2.12-10.26,0.32-15.18l-2.75-7.51
	l11.41-11.41l7.51,2.74c4.92,1.81,10.34,1.7,15.18-0.31c4.84-2,8.75-5.75,10.96-10.51l3.36-7.25h16.14l3.37,7.25
	c2.21,4.76,6.12,8.51,10.96,10.51c4.84,2.01,10.26,2.12,15.18,0.31l7.5-2.74l11.42,11.41l-2.75,7.51
	c-1.8,4.92-1.69,10.34,0.32,15.18c2,4.85,5.76,8.76,10.51,10.96l7.24,3.36v16.1l-7.24,3.37c-4.75,2.21-8.51,6.12-10.51,10.96
	c-2.01,4.84-2.12,10.26-0.32,15.18l2.75,7.5l-11.42,11.42l-7.5-2.75c-4.92-1.8-10.34-1.68-15.18,0.32
	c-4.84,2.01-8.75,5.76-10.96,10.51l-3.37,7.24h-16.13l-3.36-7.24c-2.21-4.75-6.12-8.5-10.96-10.51c-4.84-2-10.26-2.12-15.18-0.32
	l-7.51,2.75l-11.41-11.42l2.75-7.5c1.8-4.92,1.69-10.34-0.32-15.18c-2-4.84-5.76-8.75-10.51-10.96l-7.25-3.37v-16.1l7.25-3.36
	C1799.186,2031.74,1802.936,2027.83,1804.946,2022.99z M1834.946,2069.45c4.76,4.75,10.82,7.98,17.41,9.29
	c6.59,1.31,13.43,0.63,19.63-1.95c6.21-2.57,11.52-6.93,15.25-12.52c3.74-5.59,5.73-12.16,5.73-18.88c0-6.72-1.99-13.29-5.73-18.88
	c-3.73-5.59-9.04-9.95-15.25-12.53c-6.2-2.57-13.04-3.25-19.63-1.94c-6.59,1.3-12.65,4.53-17.41,9.28
	c-3.16,3.16-5.66,6.91-7.37,11.03c-1.71,4.13-2.59,8.55-2.59,13.02c0,4.46,0.88,8.89,2.59,13.01c1.71,4.13,4.21,7.88,7.37,11.03
	V2069.45z"/>
<path style="fill:#181A1E;" d="M2337.506,2116.41l-11.27,55h-114.13l-44.89,27.11l-86.47,52.22h-311.93l-50.74-94.15l-12.43-23.07
	c0,0,120,93.23,275.77,81c155.77-12.23,210.16-98.11,210.16-98.11H2337.506z"/>
<path style="fill:#405394;" d="M2337.506,1886.45v284.91h-68.05v-283.78L2337.506,1886.45z"/>
<path style="fill:#21305B;" d="M2269.456,2117.14v54.22h68.05v-54.43L2269.456,2117.14z"/>
<path style="fill:#181A1E;" d="M2379.836,2019.17l-1.44,33.35h-40.89v-67.19h40.87L2379.836,2019.17z"/>
<path style="fill:#405394;" d="M1980.486,1949.09c1.63-2.98,2.53-6.32,2.63-9.72c0.1-3.4-0.61-6.78-2.07-9.86l-7.19-15.16l15.4-15.4
	l15.16,7.19c3.08,1.46,6.45,2.17,9.86,2.07c3.4-0.1,6.73-1,9.72-2.63s5.55-3.95,7.47-6.76c1.92-2.81,3.15-6.03,3.59-9.41l2.15-16.64
	l21.27-4.63l8.87,14.24c1.8,2.89,4.26,5.32,7.17,7.08c2.92,1.76,6.21,2.8,9.61,3.04c3.39,0.25,6.8-0.32,9.93-1.65
	c3.14-1.32,5.92-3.37,8.11-5.98l10.8-12.83l20.41,7.61l-0.24,16.78c-0.05,3.41,0.71,6.77,2.21,9.83c1.5,3.05,3.71,5.71,6.43,7.75
	c2.73,2.03,5.9,3.4,9.25,3.98c3.35,0.58,6.8,0.36,10.05-0.65l16-5l13,17.43l-9.27,14c-1.88,2.84-3.06,6.08-3.45,9.46
	c-0.38,3.39,0.03,6.81,1.22,10c1.19,3.19,3.12,6.05,5.62,8.36c2.51,2.3,5.52,3.98,8.8,4.89l16.17,4.49l1.55,21.72l-15.36,6.76
	c-3.12,1.37-5.87,3.46-8.02,6.09c-2.16,2.64-3.66,5.75-4.38,9.07c-0.73,3.33-0.65,6.78,0.21,10.07c0.87,3.29,2.5,6.33,4.77,8.87
	l11.17,12.52l-10.44,19.11l-16.57-2.62c-3.36-0.53-6.8-0.25-10.04,0.8c-3.23,1.05-6.18,2.85-8.58,5.26
	c-2.41,2.41-4.21,5.35-5.27,8.59c-1.05,3.23-1.32,6.67-0.79,10.03l2.63,16.57l-19.12,10.44l-12.52-11.17
	c-2.54-2.26-5.58-3.89-8.87-4.76c-3.29-0.86-6.74-0.94-10.07-0.22c-3.32,0.73-6.43,2.23-9.07,4.38c-2.64,2.16-4.72,4.91-6.09,8.02
	l-6.76,15.36l-21.72-1.55l-4.49-16.16c-0.91-3.28-2.59-6.29-4.89-8.8c-2.3-2.51-5.17-4.44-8.36-5.63c-3.19-1.19-6.62-1.6-10-1.21
	s-6.62,1.57-9.46,3.45l-14,9.27l-17.43-13l4.95-16c1.01-3.25,1.23-6.69,0.65-10.05c-0.58-3.35-1.95-6.52-3.99-9.24
	c-2.04-2.73-4.69-4.93-7.75-6.43c-3.05-1.51-6.42-2.26-9.82-2.22l-16.78,0.24l-7.61-20.41l12.84-10.8c2.6-2.19,4.65-4.97,5.98-8.1
	c1.32-3.14,1.88-6.54,1.64-9.94s-1.28-6.69-3.04-9.6c-1.76-2.92-4.18-5.38-7.07-7.18l-14.25-8.87l4.63-21.27l16.64-2.16
	c3.39-0.43,6.63-1.66,9.45-3.59C1976.536,1954.67,1978.856,1952.1,1980.486,1949.09L1980.486,1949.09z M2031.426,2046.33
	c8.88,8.89,20.2,14.94,32.52,17.39c12.32,2.45,25.09,1.19,36.69-3.61c11.61-4.81,21.53-12.95,28.51-23.4
	c6.98-10.44,10.7-22.72,10.7-35.28c0-12.56-3.72-24.84-10.7-35.29c-6.98-10.44-16.9-18.58-28.51-23.39
	c-11.6-4.8-24.37-6.06-36.69-3.61c-12.32,2.45-23.64,8.5-32.52,17.38c-11.91,11.91-18.6,28.07-18.6,44.91
	C2012.826,2018.27,2019.516,2034.42,2031.426,2046.33L2031.426,2046.33z"/>
<path style="fill:#405394;" d="M1809.096,2006.51c2-4.84,2.12-10.26,0.32-15.18l-2.75-7.5l11.41-11.42l7.51,2.75
	c4.92,1.8,10.34,1.69,15.18-0.32c4.84-2,8.75-5.75,10.96-10.51l3.36-7.25h16.15l3.36,7.25c2.21,4.76,6.12,8.51,10.96,10.51
	c4.84,2.01,10.26,2.12,15.18,0.32l7.5-2.75l11.42,11.42l-2.75,7.5c-1.8,4.92-1.69,10.34,0.32,15.18c2.01,4.85,5.76,8.76,10.51,10.96
	l7.25,3.36v16.15l-7.25,3.36c-4.75,2.21-8.5,6.12-10.51,10.96c-2.01,4.84-2.12,10.26-0.32,15.18l2.75,7.5l-11.42,11.43l-7.5-2.75
	c-4.92-1.8-10.34-1.68-15.18,0.32c-4.84,2.01-8.75,5.76-10.96,10.51l-3.36,7.25h-16.15l-3.36-7.25c-2.21-4.75-6.12-8.5-10.96-10.51
	c-4.84-2-10.26-2.12-15.18-0.32l-7.51,2.75l-11.41-11.42l2.75-7.5c1.8-4.92,1.69-10.34-0.32-15.18c-2-4.84-5.76-8.75-10.51-10.96
	l-7.25-3.36v-16.15l7.25-3.36C1803.336,2015.27,1807.086,2011.35,1809.096,2006.51L1809.096,2006.51z M1839.096,2052.97
	c4.76,4.75,10.82,7.98,17.41,9.29c6.59,1.31,13.43,0.63,19.63-1.95c6.21-2.57,11.52-6.93,15.25-12.52
	c3.74-5.59,5.73-12.16,5.73-18.88c0-6.72-1.99-13.29-5.73-18.88c-3.73-5.59-9.04-9.95-15.25-12.53c-6.2-2.57-13.04-3.25-19.63-1.94
	c-6.59,1.3-12.65,4.53-17.41,9.28c-3.16,3.16-5.67,6.91-7.39,11.04c-1.71,4.13-2.59,8.56-2.59,13.03c0,4.47,0.88,8.9,2.59,13.02
	C1833.426,2046.06,1835.936,2049.81,1839.096,2052.97z"/>
<path style="fill:#181A1E;" d="M1705.646,1974.12h-24.56v131.19h24.56V1974.12z"/>
<path d="M1705.646,2048.19v57.12h-24.56v-57.12c0,1.62,0.32,3.21,0.93,4.7c0.62,1.49,1.53,2.85,2.67,3.99
	c1.14,1.14,2.49,2.04,3.98,2.66c1.49,0.62,3.09,0.93,4.7,0.93s3.21-0.31,4.7-0.93c1.49-0.62,2.84-1.52,3.98-2.66
	c1.14-1.14,2.05-2.5,2.67-3.99C1705.326,2051.4,1705.646,2049.81,1705.646,2048.19L1705.646,2048.19z"/>
<path style="fill:#2D2F36;" d="M1662.606,1917.1v48.76h18.48v232.61h-99.14c-12.75,0-24.98-5.06-34-14.08
	c-9.01-9.02-14.08-21.25-14.08-34v-208.7c0-12.75,5.07-24.98,14.08-33.99c9.02-9.02,21.25-14.09,34-14.09h99.15v23.49H1662.606z"/>
<path style="fill:#627BBF;" d="M1581.946,1893.61c-12.75,0-24.98,5.07-34,14.09c-9.01,9.01-14.08,21.24-14.08,33.99v18.84
	c-0.01-6.31,1.23-12.57,3.65-18.41c2.41-5.84,5.95-11.14,10.42-15.61c4.46-4.47,9.77-8.01,15.6-10.43
	c5.84-2.42,12.09-3.67,18.41-3.67h99.15v-18.8H1581.946z M2269.466,1887.61v18.8l68-1.13v-18.87L2269.466,1887.61z"/>
<path style="fill:#50535B;" d="M2269.456,1887.58v18.84l-60.84-58.87h-390.02l-49.78,47.44h-63.17v-18.84h63.17l49.78-47.44h390.02
	L2269.456,1887.58z"/>
<path d="M1642.376,1953.29v5c0,2.77-1.1,5.42-3.05,7.37c-1.96,1.96-4.61,3.05-7.37,3.05h-51.18v-25.8h51.17
	c2.76,0,5.41,1.09,7.36,3.04C1641.266,1947.89,1642.366,1950.53,1642.376,1953.29L1642.376,1953.29z"/>
<path d="M1642.376,2011.12v5c-0.01,2.76-1.11,5.41-3.07,7.36c-1.95,1.94-4.6,3.04-7.36,3.03h-51.18v-25.8h51.18
	c1.37,0,2.72,0.27,3.99,0.79c1.26,0.52,2.41,1.29,3.38,2.26c0.97,0.96,1.74,2.11,2.26,3.38
	C1642.106,2008.4,1642.376,2009.75,1642.376,2011.12z"/>
<path d="M1642.376,2068.96v5c0,2.77-1.1,5.42-3.05,7.37c-1.96,1.96-4.61,3.05-7.37,3.05h-51.18v-25.81h51.17
	c2.76,0,5.41,1.1,7.36,3.04C1641.266,2063.56,1642.366,2066.2,1642.376,2068.96L1642.376,2068.96z"/>
<path d="M1642.376,2126.8v5c0,2.77-1.1,5.41-3.05,7.37c-1.96,1.95-4.61,3.05-7.37,3.05h-51.18v-25.81h51.17
	c2.76,0,5.41,1.1,7.36,3.04C1641.266,2121.4,1642.366,2124.04,1642.376,2126.8L1642.376,2126.8z"/>
<path style="fill:#181A1E;" d="M1630.126,1953.29v5c0,1.37-0.27,2.73-0.79,3.99c-0.52,1.26-1.29,2.41-2.26,3.38
	c-0.96,0.97-2.11,1.74-3.37,2.26c-1.27,0.52-2.62,0.79-3.99,0.79h-38.94v-25.8h38.94c2.76,0,5.4,1.1,7.35,3.04
	C1629.016,1947.9,1630.116,1950.54,1630.126,1953.29z"/>
<path style="fill:#181A1E;" d="M1630.126,2011.12v5c0,1.37-0.27,2.73-0.79,3.99c-0.52,1.26-1.29,2.41-2.26,3.38
	c-0.96,0.97-2.11,1.74-3.37,2.26c-1.27,0.52-2.62,0.79-3.99,0.79h-38.94v-25.8h38.94c2.76,0,5.4,1.1,7.35,3.04
	C1629.016,2005.73,1630.116,2008.37,1630.126,2011.12z"/>
<path style="fill:#181A1E;" d="M1630.126,2068.96v5c0,1.37-0.27,2.73-0.79,3.99c-0.52,1.26-1.29,2.41-2.26,3.38
	c-0.96,0.97-2.11,1.74-3.37,2.26c-1.27,0.52-2.62,0.79-3.99,0.79h-38.94v-25.81h38.94c2.76,0.01,5.4,1.1,7.35,3.05
	C1629.016,2063.57,1630.116,2066.21,1630.126,2068.96L1630.126,2068.96z"/>
<path style="fill:#181A1E;" d="M1630.126,2126.8v5c0,2.76-1.1,5.41-3.05,7.37c-1.95,1.95-4.6,3.05-7.36,3.05h-38.94v-25.81h38.94
	c2.76,0.01,5.4,1.1,7.35,3.05C1629.016,2121.41,1630.116,2124.05,1630.126,2126.8z"/>
<path style="fill:#181A1E;" d="M2269.466,2272.99h-576.1v33.14h576.1V2272.99z"/>
<path style="fill:#50535B;" d="M2269.466,2272.99h-80.46v33.14h80.46V2272.99z"/>
<path d="M2029.046,2250.69h-216.02v22.3h216.02V2250.69z"/>
<path style="fill:#2D2F36;" d="M2029.046,2250.69h-90.12v22.3h90.12V2250.69z"/>
<path style="fill:#627BBF;" d="M2414.396,1881.37l-3.59,25.05h-36.05l-1.08-25.05H2414.396z"/>
<path style="fill:#181A1E;" d="M1670.946,1713.05l-59.36,8l-157-57l13.4-34.78c-2.74,1.43-5.37,1.84-7.72,1
	c-5.36-1.85-8-9.66-7.65-20.18c-12.27,7.93-24,8.71-33,2.35c-2.94-2.28-6-4.54-9.17-6.76c3.09-7.79-1.66-20.93-10.67-22.61l9.9,1.72
	c-1.5-0.56-51.25-19.16-104.73-40.74c5.32,2,115.29,40.06,149.61,51.93l10.14,3.5c0,0,0,0.25-0.07,0.69
	c-0.33,3.54-1.14,19.08,11.13,8.93c1.19,2.93,2.53,5.8,4,8.57c11.35,22,28.77,38.25,28.77,38.25L1670.946,1713.05z"/>
<path style="fill:#3B536A;" d="M2925.616,2306.13c-394.58,240-1024.44,410.15-1586.7,144.85c-94.13-44.41-158.3-92.54-200.23-144.85
	H2925.616z"/>
<path style="fill:#B0BECC;" d="M1150.326,959.834c1.63-2.988,2.53-6.32,2.63-9.723c0.1-3.403-0.61-6.781-2.07-9.857l-7.19-15.16
	l15.4-15.4l15.16,7.19c3.08,1.457,6.45,2.166,9.86,2.069c3.4-0.098,6.73-0.999,9.72-2.631c2.98-1.632,5.54-3.947,7.46-6.757
	c1.93-2.811,3.15-6.035,3.59-9.411l2.16-16.64l21.27-4.62l8.87,14.24c1.8,2.889,4.26,5.311,7.17,7.069
	c2.92,1.757,6.21,2.8,9.61,3.043c3.39,0.243,6.8-0.321,9.93-1.646c3.14-1.325,5.92-3.373,8.11-5.976l10.8-12.84l20.41,7.63
	l-0.27,16.76c-0.05,3.41,0.71,6.783,2.21,9.844c1.51,3.06,3.72,5.72,6.45,7.761c2.73,2.041,5.91,3.406,9.27,3.982
	s6.81,0.348,10.07-0.667l16-5l13,17.43l-9.27,14c-1.89,2.842-3.07,6.092-3.46,9.481c-0.39,3.39,0.04,6.823,1.23,10.018
	c1.2,3.194,3.14,6.059,5.66,8.359c2.52,2.3,5.55,3.97,8.84,4.872l16.17,4.5l1.55,21.716l-15.36,6.75c-3.12,1.37-5.87,3.46-8.02,6.09
	c-2.16,2.64-3.66,5.75-4.38,9.07c-0.73,3.33-0.65,6.78,0.21,10.07c0.87,3.29,2.5,6.33,4.77,8.87l11.17,12.53l-10.44,19.11
	l-16.57-2.63c-3.36-0.53-6.8-0.25-10.04,0.8c-3.23,1.05-6.18,2.85-8.58,5.26c-2.41,2.41-4.21,5.35-5.27,8.59
	c-1.05,3.23-1.32,6.67-0.79,10.03l2.63,16.58l-19.12,10.43l-12.52-11.16c-2.54-2.26-5.58-3.89-8.87-4.76
	c-3.29-0.86-6.74-0.94-10.07-0.22c-3.32,0.73-6.43,2.23-9.07,4.38c-2.63,2.15-4.72,4.9-6.09,8.01l-6.76,15.36l-21.72-1.55
	l-4.49-16.16c-0.91-3.28-2.59-6.29-4.89-8.8c-2.3-2.51-5.17-4.44-8.36-5.63c-3.19-1.19-6.61-1.61-10-1.22
	c-3.38,0.39-6.62,1.57-9.46,3.45l-14,9.27l-17.43-13l4.95-16c1.01-3.25,1.23-6.69,0.65-10.05c-0.58-3.35-1.95-6.52-3.99-9.24
	c-2.04-2.73-4.69-4.93-7.75-6.43c-3.05-1.51-6.42-2.26-9.82-2.22l-16.78,0.24l-7.61-20.41l12.84-10.8c2.6-2.19,4.65-4.97,5.98-8.1
	c1.32-3.14,1.89-6.54,1.64-9.94c-0.24-3.39-1.28-6.68-3.04-9.59c-1.76-2.92-4.18-5.38-7.07-7.18l-14.25-8.866l4.63-21.28l16.64-2.15
	c3.38-0.448,6.61-1.691,9.42-3.628C1146.396,965.41,1148.706,962.835,1150.326,959.834L1150.326,959.834z M1201.266,1057.07
	c8.88,8.89,20.2,14.94,32.52,17.39c12.32,2.45,25.09,1.19,36.69-3.61c11.61-4.81,21.53-12.95,28.51-23.4
	c6.98-10.44,10.7-22.72,10.7-35.28c0-12.563-3.72-24.842-10.7-35.287c-6.98-10.444-16.9-18.584-28.51-23.391
	c-11.6-4.807-24.37-6.064-36.69-3.612c-12.32,2.451-23.64,8.501-32.52,17.384c-11.91,11.91-18.6,28.062-18.6,44.906
	C1182.666,1029.01,1189.356,1045.16,1201.266,1057.07L1201.266,1057.07z M978.946,1017.25c2.003-4.84,2.117-10.25,0.32-15.18
	l-2.75-7.496l11.43-11.42l7.51,2.75c4.92,1.8,10.34,1.687,15.18-0.319c4.84-2.006,8.75-5.758,10.96-10.511l3.36-7.25h16.14
	l3.37,7.25c2.21,4.753,6.12,8.505,10.96,10.511c4.84,2.006,10.26,2.119,15.18,0.319l7.5-2.75l11.42,11.42l-2.75,7.496
	c-1.8,4.93-1.69,10.34,0.32,15.18c2,4.85,5.76,8.76,10.51,10.96l7.25,3.36v16.15l-7.25,3.36c-4.75,2.21-8.51,6.12-10.51,10.96
	c-2.01,4.84-2.12,10.26-0.32,15.18l2.75,7.51l-11.42,11.41l-7.5-2.75c-4.92-1.8-10.34-1.68-15.18,0.32
	c-4.84,2.01-8.75,5.76-10.96,10.51l-3.37,7.25h-16.15l-3.36-7.25c-2.21-4.75-6.13-8.5-10.97-10.5c-4.85-2.01-10.27-2.11-15.19-0.31
	l-7.51,2.75l-11.41-11.41l2.75-7.51c1.801-4.92,1.687-10.34-0.319-15.18c-2.006-4.84-5.757-8.75-10.511-10.96l-7.25-3.36v-16.17
	l7.25-3.36C973.178,1026,976.93,1022.09,978.946,1017.25L978.946,1017.25z M1008.946,1063.71c4.76,4.75,10.82,7.98,17.41,9.29
	c6.59,1.31,13.43,0.63,19.63-1.95c6.21-2.57,11.52-6.93,15.25-12.52c3.74-5.59,5.73-12.16,5.73-18.88s-1.99-13.29-5.73-18.88
	c-3.73-5.59-9.04-9.95-15.25-12.53c-6.2-2.57-13.04-3.25-19.63-1.94c-6.59,1.3-12.65,4.54-17.41,9.28
	c-3.16,3.16-5.67,6.91-7.39,11.04c-1.71,4.13-2.592,8.56-2.592,13.03s0.882,8.9,2.592,13.03
	C1003.276,1056.8,1005.786,1060.56,1008.946,1063.71L1008.946,1063.71z"/>
</svg>
