<svg width="80" height="121" viewBox="0 0 80 121" fill="none" xmlns="http://www.w3.org/2000/svg">
<g filter="url(#filter0_d_12_49322)">
<path d="M69.2413 37.1212C69.2413 60.8777 49.5831 67.169 40.1212 100.026C30.5305 66.7753 11 60.8777 11 37.1212C11 21.0376 24.0376 8 40.1212 8C56.2047 8 69.2413 21.0376 69.2413 37.1212Z" fill="url(#paint0_linear_12_49322)"/>
<path d="M40.1207 60.5653C35.4837 60.5653 30.9509 59.1903 27.0954 56.6141C23.2399 54.038 20.2349 50.3764 18.4604 46.0924C16.6859 41.8084 16.2217 37.0944 17.1263 32.5466C18.0309 27.9987 20.2638 23.8212 23.5426 20.5424C25.7196 18.3654 28.3041 16.6385 31.1485 15.4604C33.9929 14.2822 37.0414 13.6758 40.1202 13.6758C43.1989 13.6758 46.2475 14.2822 49.0919 15.4604C51.9362 16.6385 54.5207 18.3654 56.6977 20.5424C58.8747 22.7194 60.6016 25.3039 61.7797 28.1482C62.9579 30.9926 63.5643 34.0412 63.5643 37.1199C63.5643 40.1987 62.9579 43.2472 61.7797 46.0916C60.6016 48.936 58.8747 51.5205 56.6977 53.6974C54.5258 55.8813 51.9424 57.6127 49.097 58.7916C46.2516 59.9704 43.2006 60.5733 40.1207 60.5653Z" fill="url(#paint1_linear_12_49322)"/>
<path d="M40.1254 56.5907C50.8779 56.5907 59.5946 47.874 59.5946 37.1215C59.5946 26.369 50.8779 17.6523 40.1254 17.6523C29.3729 17.6523 20.6562 26.369 20.6562 37.1215C20.6562 47.874 29.3729 56.5907 40.1254 56.5907Z" fill="white"/>
<path d="M55.2804 100.086C55.1756 99.831 55.0358 99.5915 54.8648 99.3747C54.5828 99.0216 54.2478 98.7143 53.8717 98.4637C53.5486 98.2456 53.2081 98.0545 52.8536 97.8923C52.5149 97.7344 52.1763 97.6004 51.8387 97.4768C51.1755 97.2477 50.499 97.0593 49.8129 96.9127C49.1387 96.7651 48.4624 96.6477 47.7923 96.5532C47.1223 96.4587 46.448 96.3776 45.7769 96.3132C45.1058 96.2488 44.4368 96.1979 43.7699 96.1595C43.4845 96.1408 43.1992 96.1242 42.9139 96.1096C42.7518 96.5764 42.5918 97.0491 42.4339 97.5277C44.1289 97.6356 45.8115 97.8894 47.463 98.286C48.7096 98.5977 49.9313 98.9779 51.0304 99.489C51.5488 99.7186 52.0372 100.011 52.4848 100.359C52.6518 100.486 52.797 100.639 52.9149 100.813C52.945 100.858 52.9671 100.909 52.9804 100.962C52.9856 100.995 52.9804 101.004 52.9731 101.008C52.9658 101.012 52.9596 101.015 52.944 101.039C52.9168 101.08 52.8866 101.12 52.8536 101.156C52.7174 101.302 52.5631 101.429 52.3944 101.535C51.926 101.818 51.426 102.046 50.9047 102.214C50.3323 102.405 49.7492 102.562 49.1584 102.685C48.5569 102.812 47.943 102.917 47.3238 102.996C46.7046 103.075 46.0772 103.155 45.4539 103.213C44.8305 103.271 44.1958 103.317 43.5631 103.359C42.2992 103.438 41.0304 103.484 39.7568 103.497C39.121 103.506 38.4849 103.503 37.8484 103.488C37.2126 103.472 36.5779 103.45 35.9452 103.411C34.6799 103.335 33.4187 103.212 32.1815 103.022C30.9442 102.832 29.7235 102.576 28.612 102.191C28.0926 102.022 27.5939 101.795 27.1254 101.514C26.9567 101.411 26.8014 101.287 26.6631 101.146C26.6299 101.11 26.5987 101.071 26.5696 101.032C26.5621 101.019 26.5509 101.008 26.5374 101.002C26.5311 101.002 26.5218 100.988 26.5259 100.955C26.5368 100.901 26.5576 100.849 26.5872 100.802C26.7038 100.626 26.848 100.469 27.0142 100.338C27.4607 99.9879 27.9493 99.6954 28.4686 99.4672C29.0338 99.211 29.6143 98.9896 30.2066 98.8044C30.8081 98.6153 31.4231 98.446 32.0485 98.3047C33.7072 97.9331 35.3914 97.6862 37.0869 97.5661C36.9193 97.055 36.7493 96.5518 36.5768 96.0566C36.2953 96.0681 36.0138 96.0837 35.7323 96.1013C34.3911 96.1834 33.0499 96.3153 31.7067 96.5252C30.3635 96.735 29.0181 97.0228 27.6676 97.4975C26.9536 97.7412 26.2725 98.0724 25.6398 98.4834C25.2633 98.7305 24.9272 99.0343 24.6435 99.3841C24.4733 99.6002 24.3335 99.8386 24.228 100.093C24.1086 100.384 24.0422 100.693 24.0316 101.008C24.0262 101.326 24.0775 101.643 24.1833 101.943C24.2785 102.208 24.4084 102.459 24.5698 102.69C24.8394 103.067 25.1632 103.403 25.5307 103.686C25.8464 103.933 26.1801 104.156 26.529 104.353C26.8636 104.544 27.197 104.709 27.5326 104.861C28.189 105.153 28.8623 105.406 29.549 105.617C30.2232 105.825 30.8995 106.009 31.5768 106.159C34.2862 106.768 37.0204 107.025 39.7537 107.061C42.5066 107.105 45.2546 106.811 47.9357 106.184C48.6109 106.022 49.2848 105.832 49.9573 105.616C50.6415 105.397 51.3126 105.139 51.9675 104.843C52.6764 104.535 53.3463 104.144 53.9631 103.678C54.3318 103.398 54.6567 103.065 54.9272 102.69C55.0898 102.46 55.2208 102.21 55.3167 101.946C55.4243 101.646 55.4771 101.329 55.4726 101.011C55.4658 100.694 55.4007 100.38 55.2804 100.086Z" fill="url(#paint2_linear_12_49322)"/>
<path d="M39.2339 25.1338C38.0177 25.1338 36.8513 25.6169 35.9913 26.4769C35.1313 27.3369 34.6482 28.5033 34.6482 29.7195C34.6482 30.9357 35.1313 32.1021 35.9913 32.9621C36.8513 33.822 38.0177 34.3052 39.2339 34.3052C40.4501 34.3052 41.6165 33.822 42.4765 32.9621C43.3364 32.1021 43.8196 30.9357 43.8196 29.7195C43.8196 28.5033 43.3364 27.3369 42.4765 26.4769C41.6165 25.6169 40.4501 25.1338 39.2339 25.1338ZM44.966 36.598H33.5018C32.5896 36.598 31.7148 36.9604 31.0698 37.6054C30.4249 38.2503 30.0625 39.1251 30.0625 40.0373C30.0625 42.5961 31.1149 44.6459 32.8414 46.0331C34.5404 47.3973 36.8195 48.0622 39.2339 48.0622C41.6482 48.0622 43.9273 47.3973 45.6263 46.0331C47.3506 44.6459 48.4053 42.5961 48.4053 40.0373C48.4053 39.1251 48.0429 38.2503 47.3979 37.6054C46.7529 36.9604 45.8781 36.598 44.966 36.598Z" fill="#26527A"/>
</g>
<defs>
<filter id="filter0_d_12_49322" x="0.516568" y="0.844642" width="79.2091" height="120.032" filterUnits="userSpaceOnUse" color-interpolation-filters="sRGB">
<feFlood flood-opacity="0" result="BackgroundImageFix"/>
<feColorMatrix in="SourceAlpha" type="matrix" values="0 0 0 0 0 0 0 0 0 0 0 0 0 0 0 0 0 0 127 0" result="hardAlpha"/>
<feOffset dy="3.32807"/>
<feGaussianBlur stdDeviation="5.24172"/>
<feComposite in2="hardAlpha" operator="out"/>
<feColorMatrix type="matrix" values="0 0 0 0 0.0791667 0 0 0 0 0.301274 0 0 0 0 0.5 0 0 0 0.45 0"/>
<feBlend mode="normal" in2="BackgroundImageFix" result="effect1_dropShadow_12_49322"/>
<feBlend mode="normal" in="SourceGraphic" in2="effect1_dropShadow_12_49322" result="shape"/>
</filter>
<linearGradient id="paint0_linear_12_49322" x1="40.1212" y1="10.541" x2="40.1212" y2="90.5505" gradientUnits="userSpaceOnUse">
<stop stop-color="#26527A"/>
<stop offset="1" stop-color="#276399"/>
</linearGradient>
<linearGradient id="paint1_linear_12_49322" x1="40.1207" y1="14.971" x2="40.1207" y2="55.7367" gradientUnits="userSpaceOnUse">
<stop stop-color="#26527A"/>
<stop offset="1" stop-color="#2E6BA3"/>
</linearGradient>
<linearGradient id="paint2_linear_12_49322" x1="39.7505" y1="96.3662" x2="39.7505" y2="105.932" gradientUnits="userSpaceOnUse">
<stop stop-color="#26527A"/>
<stop offset="1" stop-color="#276297"/>
</linearGradient>
</defs>
</svg>
