<svg width="30" height="29" viewBox="0 0 30 29" fill="none" xmlns="http://www.w3.org/2000/svg">
<path d="M14.9116 28.4173C22.4934 28.4173 28.6397 22.271 28.6397 14.6892C28.6397 7.10743 22.4934 0.961182 14.9116 0.961182C7.32985 0.961182 1.18359 7.10743 1.18359 14.6892C1.18359 22.271 7.32985 28.4173 14.9116 28.4173Z" stroke="#868686" stroke-width="1.16216" stroke-linecap="round" stroke-linejoin="round"/>
<path d="M15.0748 8.1521C14.2802 8.1521 13.5181 8.46777 12.9562 9.02967C12.3943 9.59156 12.0786 10.3537 12.0786 11.1483V15.343C12.0786 16.1376 12.3943 16.8997 12.9562 17.4616C13.5181 18.0235 14.2802 18.3392 15.0748 18.3392C15.8694 18.3392 16.6315 18.0235 17.1934 17.4616C17.7553 16.8997 18.071 16.1376 18.071 15.343V11.1483C18.071 10.3537 17.7553 9.59156 17.1934 9.02967C16.6315 8.46777 15.8694 8.1521 15.0748 8.1521ZM10.2809 14.7437C10.4398 14.7437 10.5922 14.8069 10.7046 14.9193C10.817 15.0316 10.8801 15.1841 10.8801 15.343C10.8801 16.4555 11.3221 17.5224 12.1087 18.3091C12.8954 19.0957 13.9623 19.5377 15.0748 19.5377C16.1873 19.5377 17.2542 19.0957 18.0409 18.3091C18.8275 17.5224 19.2695 16.4555 19.2695 15.343C19.2695 15.1841 19.3326 15.0316 19.445 14.9193C19.5574 14.8069 19.7098 14.7437 19.8687 14.7437C20.0276 14.7437 20.1801 14.8069 20.2924 14.9193C20.4048 15.0316 20.468 15.1841 20.468 15.343C20.4682 16.6698 19.9794 17.9501 19.095 18.9391C18.2105 19.9281 16.9926 20.5564 15.674 20.7038V21.9346C15.674 22.0935 15.6109 22.246 15.4985 22.3583C15.3861 22.4707 15.2337 22.5339 15.0748 22.5339C14.9159 22.5339 14.7635 22.4707 14.6511 22.3583C14.5387 22.246 14.4756 22.0935 14.4756 21.9346V20.7038C13.157 20.5564 11.9391 19.9281 11.0546 18.9391C10.1702 17.9501 9.68139 16.6698 9.68164 15.343C9.68164 15.1841 9.74477 15.0316 9.85715 14.9193C9.96953 14.8069 10.122 14.7437 10.2809 14.7437Z" fill="#3D3D3D"/>
</svg>
