<svg width="23" height="23" viewBox="0 0 23 23" fill="none" xmlns="http://www.w3.org/2000/svg">
<path d="M11.3996 0.800049C8.42961 0.800049 5.99961 3.82405 5.99961 7.55005C5.99961 11.276 8.42961 14.3 11.3996 14.3C14.3696 14.3 16.7996 11.276 16.7996 7.55005C16.7996 3.82405 14.3696 0.800049 11.3996 0.800049ZM5.75961 14.3C4.36945 14.3619 3.05682 14.958 2.09546 15.9641C1.1341 16.9702 0.598237 18.3085 0.599612 19.7001V22.4H22.1996V19.7001C22.2043 18.3075 21.6695 16.9673 20.7074 15.9606C19.7454 14.9538 18.4309 14.3587 17.0396 14.3C16.3455 15.1252 15.4834 15.7929 14.5109 16.2585C13.5383 16.7241 12.4776 16.9769 11.3996 17C10.3216 16.9769 9.26091 16.7241 8.28835 16.2585C7.31578 15.7929 6.45369 15.1252 5.75961 14.3Z" fill="white"/>
</svg>
