<svg width="118" height="117" viewBox="0 0 118 117" fill="none" xmlns="http://www.w3.org/2000/svg">
<g clip-path="url(#clip0_266_24171)">
<path d="M117.754 83.879H0.753906V83.937H117.754V83.879Z" fill="#EBEBEB"/>
<path d="M106.03 87.6134H98.2793V87.6714H106.03V87.6134Z" fill="#EBEBEB"/>
<path d="M78.2588 88.2443H76.2246V88.3023H78.2588V88.2443Z" fill="#EBEBEB"/>
<path d="M98.0456 85.4591H93.5547V85.5171H98.0456V85.4591Z" fill="#EBEBEB"/>
<path d="M23.1365 85.8497H13.0293V85.9077H23.1365V85.8497Z" fill="#EBEBEB"/>
<path d="M26.7026 85.8497H25.2207V85.9077H26.7026V85.8497Z" fill="#EBEBEB"/>
<path d="M53.4378 86.8282H31.5176V86.8862H53.4378V86.8282Z" fill="#EBEBEB"/>
<path d="M56.2142 73.533H11.029C10.2926 73.533 9.69336 72.9388 9.69336 72.2087V9.23649C9.69336 8.50638 10.2926 7.91223 11.029 7.91223H56.2142C56.9504 7.91223 57.5496 8.50638 57.5496 9.23649V72.2087C57.5496 72.9388 56.9504 73.533 56.2142 73.533ZM11.029 7.97046C10.3247 7.97046 9.75186 8.5384 9.75186 9.23672V72.2089C9.75186 72.9073 10.3247 73.4752 11.029 73.4752H56.2142C56.9183 73.4752 57.4911 72.9073 57.4911 72.2089V9.23649C57.4911 8.5384 56.9183 7.97023 56.2142 7.97023L11.029 7.97046Z" fill="#EBEBEB"/>
<path d="M106.829 73.533H61.644C60.9076 73.533 60.3086 72.9388 60.3086 72.2087V9.23649C60.3086 8.50638 60.9079 7.91223 61.644 7.91223H106.829C107.566 7.91223 108.165 8.50638 108.165 9.23649V72.2087C108.165 72.9388 107.566 73.533 106.829 73.533ZM61.644 7.97046C60.9399 7.97046 60.3671 8.5384 60.3671 9.23672V72.2089C60.3671 72.9073 60.9399 73.4752 61.644 73.4752H106.829C107.533 73.4752 108.106 72.9073 108.106 72.2089V9.23649C108.106 8.5384 107.533 7.97023 106.829 7.97023L61.644 7.97046Z" fill="#EBEBEB"/>
<path d="M60.0231 100.893C92.7566 100.893 119.292 99.3564 119.292 97.4611C119.292 95.5658 92.7566 94.0294 60.0231 94.0294C27.2896 94.0294 0.753906 95.5658 0.753906 97.4611C0.753906 99.3564 27.2896 100.893 60.0231 100.893Z" fill="#F5F5F5"/>
<path d="M60.6043 6.1777V96.0303C60.6043 96.7698 60.0064 97.3441 59.2605 97.3441H17.0831C16.7463 97.3441 16.4537 97.2192 16.2397 97.0071C16.0163 96.7919 15.8809 96.4861 15.8809 96.1397V6.06829C15.8809 5.48154 16.3183 4.96692 16.9101 4.96692H28.8887C29.2256 4.96692 29.534 5.18543 29.66 5.50063L30.1573 6.71141C30.2833 7.02358 30.5887 7.24179 30.9283 7.24179H45.5853C45.9252 7.24179 46.2306 7.03267 46.3566 6.72081L46.8539 5.50396C46.9799 5.18877 47.2852 4.96722 47.6249 4.96722H59.4305C60.0819 4.96692 60.6043 5.52851 60.6043 6.1777Z" fill="#326FEA"/>
<path opacity="0.3" d="M60.6043 10.8243H15.8809V93.3656H60.6043V10.8243Z" fill="white"/>
<path d="M59.3456 20.5743H17.1367V58.7331H59.3456V20.5743Z" fill="#F1F1F1"/>
<path d="M57.0028 17.755H19.4819C18.2857 17.755 17.3164 16.7937 17.3164 15.608C17.3164 14.4221 18.286 13.4611 19.4819 13.4611H57.0028C58.1989 13.4611 59.1682 14.4224 59.1682 15.608C59.1685 16.7937 58.1989 17.755 57.0028 17.755Z" fill="white"/>
<path d="M59.3459 62.5306V89.4011C59.3459 90.3588 58.5633 91.1347 57.5974 91.1347H18.8852C17.9193 91.1347 17.1367 90.3588 17.1367 89.4011V62.5306C17.1367 61.5729 17.9193 60.797 18.8852 60.797H57.5974C58.5633 60.797 59.3459 61.5729 59.3459 62.5306Z" fill="#F1F1F1"/>
<path d="M59.3459 62.5306V65.5037H17.1367V62.5306C17.1367 61.5729 17.9193 60.797 18.8852 60.797H57.5974C58.5633 60.797 59.3459 61.5729 59.3459 62.5306Z" fill="#326FEA"/>
<path d="M29.7777 88.893H20.3451C19.8331 88.893 19.418 88.4815 19.418 87.9738V75.9839C19.418 75.4763 19.8331 75.0647 20.3451 75.0647H29.7777C30.2897 75.0647 30.7048 75.4763 30.7048 75.9839V87.9738C30.7045 88.4815 30.2897 88.893 29.7777 88.893Z" fill="#326FEA"/>
<path d="M42.9593 88.8932H33.5268C33.0147 88.8932 32.5996 88.4816 32.5996 87.9739V75.984C32.5996 75.4764 33.0147 75.0648 33.5268 75.0648H42.9593C43.4713 75.0648 43.8865 75.4764 43.8865 75.984V87.9739C43.8865 88.4816 43.4713 88.8932 42.9593 88.8932Z" fill="#326FEA"/>
<path d="M56.141 88.8932H46.7084C46.1964 88.8932 45.7812 88.4816 45.7812 87.9739V75.984C45.7812 75.4764 46.1964 75.0648 46.7084 75.0648H56.141C56.653 75.0648 57.0681 75.4764 57.0681 75.984V87.9739C57.0681 88.4816 56.653 88.8932 56.141 88.8932Z" fill="#326FEA"/>
<path d="M24.8356 78.5269L22.2423 80.5838C22.2215 80.6003 22.2048 80.6212 22.1933 80.645C22.1817 80.6688 22.1758 80.6948 22.1758 80.7212V83.9995C22.1758 84.0461 22.1945 84.0909 22.2277 84.1238C22.261 84.1568 22.3061 84.1753 22.3531 84.1753H23.9309C23.9779 84.1753 24.023 84.1568 24.0562 84.1238C24.0895 84.0909 24.1082 84.0461 24.1082 83.9995V82.6062C24.1082 82.5596 24.1269 82.5149 24.1601 82.4819C24.1934 82.4489 24.2385 82.4304 24.2855 82.4304H25.6074C25.6544 82.4304 25.6995 82.4489 25.7328 82.4819C25.766 82.5149 25.7847 82.5596 25.7847 82.6062V83.9995C25.7847 84.0461 25.8034 84.0909 25.8367 84.1238C25.8699 84.1568 25.915 84.1753 25.962 84.1753H27.5398C27.5631 84.1753 27.5861 84.1708 27.6076 84.1619C27.6292 84.1531 27.6487 84.1402 27.6652 84.1238C27.6816 84.1075 27.6947 84.0881 27.7036 84.0668C27.7125 84.0455 27.7171 84.0226 27.7171 83.9995V80.7215C27.7171 80.6951 27.7111 80.669 27.6996 80.6453C27.6881 80.6215 27.6714 80.6006 27.6506 80.5841L25.0573 78.5272C25.0259 78.5022 24.9868 78.4886 24.9465 78.4885C24.9062 78.4885 24.8671 78.502 24.8356 78.5269Z" fill="#C1D4F9"/>
<path d="M38.0192 78.5269L35.4259 80.5838C35.4051 80.6003 35.3884 80.6212 35.3768 80.645C35.3653 80.6688 35.3594 80.6948 35.3594 80.7212V83.9995C35.3594 84.0461 35.3781 84.0909 35.4113 84.1238C35.4446 84.1568 35.4897 84.1753 35.5367 84.1753H37.1144C37.1615 84.1753 37.2066 84.1568 37.2398 84.1238C37.2731 84.0909 37.2918 84.0461 37.2918 83.9995V82.6062C37.2918 82.5596 37.3104 82.5149 37.3437 82.4819C37.377 82.4489 37.4221 82.4304 37.4691 82.4304H38.791C38.838 82.4304 38.8831 82.4489 38.9164 82.4819C38.9496 82.5149 38.9683 82.5596 38.9683 82.6062V83.9995C38.9683 84.0461 38.987 84.0909 39.0202 84.1238C39.0535 84.1568 39.0986 84.1753 39.1456 84.1753H40.7234C40.7467 84.1753 40.7697 84.1708 40.7912 84.1619C40.8128 84.1531 40.8323 84.1402 40.8488 84.1238C40.8652 84.1075 40.8783 84.0881 40.8872 84.0668C40.8961 84.0455 40.9007 84.0226 40.9007 83.9995V80.7215C40.9007 80.6951 40.8947 80.669 40.8832 80.6453C40.8717 80.6215 40.855 80.6006 40.8342 80.5841L38.2409 78.5272C38.2095 78.5022 38.1704 78.4886 38.1301 78.4885C38.0898 78.4885 38.0507 78.502 38.0192 78.5269Z" fill="#C1D4F9"/>
<path d="M51.2028 78.5269L48.6095 80.5838C48.5887 80.6003 48.572 80.6212 48.5604 80.645C48.5489 80.6688 48.543 80.6948 48.543 80.7212V83.9995C48.543 84.0461 48.5616 84.0909 48.5949 84.1238C48.6282 84.1568 48.6733 84.1753 48.7203 84.1753H50.298C50.3451 84.1753 50.3902 84.1568 50.4234 84.1238C50.4567 84.0909 50.4754 84.0461 50.4754 83.9995V82.6062C50.4754 82.5596 50.494 82.5149 50.5273 82.4819C50.5605 82.4489 50.6056 82.4304 50.6527 82.4304H51.9746C52.0216 82.4304 52.0667 82.4489 52.1 82.4819C52.1332 82.5149 52.1519 82.5596 52.1519 82.6062V83.9995C52.1519 84.0461 52.1706 84.0909 52.2038 84.1238C52.2371 84.1568 52.2822 84.1753 52.3292 84.1753H53.907C53.9302 84.1753 53.9533 84.1708 53.9748 84.1619C53.9963 84.1531 54.0159 84.1402 54.0323 84.1238C54.0488 84.1075 54.0619 84.0881 54.0708 84.0668C54.0797 84.0455 54.0843 84.0226 54.0843 83.9995V80.7215C54.0843 80.6951 54.0783 80.669 54.0668 80.6453C54.0553 80.6215 54.0385 80.6006 54.0178 80.5841L51.4245 78.5272C51.393 78.5022 51.354 78.4886 51.3137 78.4885C51.2734 78.4885 51.2343 78.502 51.2028 78.5269Z" fill="#C1D4F9"/>
<path d="M56.06 72.8666H20.4258C19.8692 72.8666 19.418 72.4193 19.418 71.8674V69.1497C19.418 68.5978 19.8692 68.1505 20.4258 68.1505H56.06C56.6166 68.1505 57.0678 68.5978 57.0678 69.1497V71.8674C57.0678 72.4193 56.6166 72.8666 56.06 72.8666Z" fill="white"/>
<path d="M22.4468 69.4758C22.0015 69.0343 21.2794 69.0343 20.834 69.4758C20.3887 69.9174 20.3887 70.6333 20.834 71.0749L21.6404 71.8744L22.4468 71.0749C22.8922 70.6333 22.8922 69.9174 22.4468 69.4758ZM21.6404 70.7218C21.3919 70.7218 21.1902 70.522 21.1902 70.2753C21.1902 70.0289 21.3919 69.8289 21.6404 69.8289C21.889 69.8289 22.0907 70.0286 22.0907 70.2753C22.0907 70.5217 21.8893 70.7218 21.6404 70.7218Z" fill="#326FEA"/>
<path d="M55.0645 71.361L55.9244 70.5088L55.0645 69.6562" stroke="#326FEA" stroke-width="0.238495" stroke-miterlimit="10" stroke-linecap="round" stroke-linejoin="round"/>
<path opacity="0.6" d="M21.4412 8.58606H22.0645V7.76231H21.4412V8.58606Z" fill="white"/>
<path opacity="0.6" d="M20.4236 8.58606H21.0469V7.48742H20.4236V8.58606Z" fill="white"/>
<path opacity="0.6" d="M19.4099 8.58606H20.0332V7.21283H19.4099V8.58606Z" fill="white"/>
<path opacity="0.6" d="M18.3923 8.58606H19.0156V6.93795H18.3923V8.58606Z" fill="white"/>
<path opacity="0.6" d="M54.8927 7.46106H54.5234V8.28481H54.8927V7.46106Z" fill="white"/>
<path opacity="0.6" d="M55.1467 8.58606H58.0898V7.16101H55.1467V8.58606Z" fill="white"/>
<path d="M59.3459 43.5523V31.3627L59.1839 31.4021L56.4297 20.5763H50.857L43.279 22.4735L42.796 20.5763H41.0078L44.6852 35.0299L36.8504 36.9908L35.8661 33.1266L39.354 32.2537C39.7025 32.1658 39.9134 31.8173 39.8248 31.4718L37.2325 21.2825L40.054 20.5763H35.7102L38.4033 31.1596L35.5482 31.8749L32.6717 20.5763H29.7402L31.6782 28.1895L28.9332 28.8775L18.5459 20.5763H17.1367V21.1036L22.743 25.5861L17.1367 31.3566V33.2175L23.7609 26.3983L28.3676 30.0837C28.5266 30.211 28.7375 30.2565 28.9362 30.2049L31.9961 29.4412L34.0931 37.6818L18.1944 41.6611L17.1367 37.506V44.8343L17.6289 44.7101L18.4481 47.9287L17.1367 48.256V49.5865L18.766 49.1804L19.7442 53.0234L17.1367 57.3543V58.7363H17.8184L18.4451 57.6968L18.711 58.7363H20.053L19.3896 56.1299L21.0006 53.4537C21.0892 53.3083 21.1137 53.1325 21.0709 52.9658L18.8883 44.3949L27.3008 42.2885L30.859 56.2693L29.6821 58.7363H31.1219L32.0053 56.8876L38.5653 55.2449L39.4549 58.7363H42.3864L39.9776 49.2743L47.8124 47.3135L50.7225 58.7363H52.5108L49.4967 46.8922L53.6663 45.8496L57.0013 47.8226L59.3459 57.033V51.7535L58.3585 47.8741L59.3459 47.6256V46.2951L57.6707 46.7164L54.3357 44.7404L52.1287 36.0755L57.1236 34.8268L59.3459 43.5523ZM32.0206 55.554L28.5633 41.9733L34.7901 40.4155L38.2474 53.9932L32.0206 55.554ZM39.6597 48.0226L37.5474 39.7245L45.3822 37.7636L47.4944 46.0618L39.6597 48.0226ZM52.9785 44.6919L49.1788 45.6405L47.0665 37.3423L50.8662 36.3907L52.9785 44.6919ZM46.3695 34.6086L43.5969 23.7252L53.6571 21.2067L56.4297 32.0931L46.3695 34.6086Z" fill="white"/>
<path d="M56.7808 34.0735C56.3354 33.6319 55.6134 33.6319 55.168 34.0735C54.7226 34.5151 54.7226 35.2309 55.168 35.6725L55.9744 36.472L56.7808 35.6725C57.2259 35.2309 57.2259 34.5151 56.7808 34.0735ZM55.9744 35.3191C55.7259 35.3191 55.5242 35.1194 55.5242 34.8727C55.5242 34.6263 55.7259 34.4263 55.9744 34.4263C56.2229 34.4263 56.4247 34.626 56.4247 34.8727C56.4244 35.1194 56.2229 35.3191 55.9744 35.3191Z" fill="#326FEA"/>
<path d="M53.5054 23.1614C53.06 22.7198 52.338 22.7198 51.8926 23.1614C51.4472 23.603 51.4472 24.3188 51.8926 24.7604L52.699 25.5599L53.5054 24.7604C53.9508 24.3188 53.9508 23.603 53.5054 23.1614ZM52.699 24.4073C52.4505 24.4073 52.2488 24.2076 52.2488 23.9609C52.2488 23.7142 52.4505 23.5145 52.699 23.5145C52.9476 23.5145 53.1493 23.7142 53.1493 23.9609C53.1493 24.2076 52.9476 24.4073 52.699 24.4073Z" fill="#326FEA"/>
<path d="M45.5445 38.0245C45.0991 37.583 44.3771 37.583 43.9317 38.0245C43.4863 38.4661 43.4863 39.182 43.9317 39.6236L44.7381 40.4231L45.5445 39.6236C45.9899 39.182 45.9899 38.4661 45.5445 38.0245ZM44.7381 39.2705C44.4896 39.2705 44.2878 39.0708 44.2878 38.8241C44.2878 38.5777 44.4896 38.3776 44.7381 38.3776C44.9866 38.3776 45.1884 38.5773 45.1884 38.8241C45.1881 39.0705 44.9866 39.2705 44.7381 39.2705Z" fill="#326FEA"/>
<path d="M37.9136 54.5188C37.4683 54.0772 36.7462 54.0772 36.3008 54.5188C35.8555 54.9604 35.8555 55.6762 36.3008 56.1178L37.1072 56.9173L37.9136 56.1178C38.359 55.6762 38.359 54.9604 37.9136 54.5188ZM37.1072 55.7647C36.8587 55.7647 36.657 55.565 36.657 55.3183C36.657 55.0719 36.8587 54.8719 37.1072 54.8719C37.3558 54.8719 37.5575 55.0716 37.5575 55.3183C37.5575 55.565 37.3561 55.7647 37.1072 55.7647Z" fill="#326FEA"/>
<path d="M24.8707 21.7961C24.4253 21.3546 23.7033 21.3546 23.2579 21.7961C22.8125 22.2377 22.8125 22.9536 23.2579 23.3952L24.0643 24.1947L24.8707 23.3952C25.3161 22.9536 25.3161 22.2377 24.8707 21.7961ZM24.0643 23.0421C23.8157 23.0421 23.614 22.8424 23.614 22.5957C23.614 22.3493 23.8157 22.1492 24.0643 22.1492C24.3128 22.1492 24.5145 22.349 24.5145 22.5957C24.5142 22.8421 24.3128 23.0421 24.0643 23.0421Z" fill="#326FEA"/>
<path d="M20.7164 43.0071C20.271 42.5655 19.549 42.5655 19.1036 43.0071C18.6582 43.4487 18.6582 44.1645 19.1036 44.6061L19.91 45.4056L20.7164 44.6061C21.1618 44.1645 21.1618 43.4487 20.7164 43.0071ZM19.91 44.253C19.6614 44.253 19.4597 44.0533 19.4597 43.8066C19.4597 43.5602 19.6614 43.3602 19.91 43.3602C20.1585 43.3602 20.3602 43.5599 20.3602 43.8066C20.3602 44.0533 20.1585 44.253 19.91 44.253Z" fill="#326FEA"/>
<path d="M37.5457 28.963H27.651C27.0961 28.963 26.6465 29.4088 26.6465 29.9589V40.8562C26.6465 41.4063 27.0961 41.8521 27.651 41.8521H31.9101L32.5985 43.9018L33.2869 41.8521H37.546C38.1009 41.8521 38.5505 41.4063 38.5505 40.8562V29.9589C38.5502 29.4088 38.1002 28.963 37.5457 28.963Z" fill="#326FEA"/>
<path d="M38.2808 31.155L35.6762 33.8029C35.6553 33.8241 35.6385 33.851 35.6269 33.8816C35.6154 33.9122 35.6094 33.9457 35.6094 33.9796V38.1999C35.6094 38.2599 35.6281 38.3175 35.6615 38.3599C35.6949 38.4024 35.7402 38.4262 35.7875 38.4262H37.3721C37.4193 38.4262 37.4646 38.4024 37.498 38.3599C37.5314 38.3175 37.5502 38.2599 37.5502 38.1999V36.4063C37.5502 36.3462 37.5689 36.2887 37.6023 36.2462C37.6357 36.2038 37.681 36.1799 37.7282 36.1799H39.0559C39.1031 36.1799 39.1484 36.2038 39.1818 36.2462C39.2152 36.2887 39.234 36.3462 39.234 36.4063V38.1999C39.234 38.2599 39.2528 38.3175 39.2862 38.3599C39.3196 38.4024 39.3649 38.4262 39.4121 38.4262H40.9967C41.0201 38.4262 41.0432 38.4203 41.0648 38.409C41.0864 38.3976 41.1061 38.3809 41.1226 38.3599C41.1391 38.3389 41.1523 38.3139 41.1612 38.2865C41.1702 38.259 41.1748 38.2296 41.1748 38.1999V33.9801C41.1748 33.9461 41.1688 33.9126 41.1572 33.882C41.1457 33.8514 41.1288 33.8245 41.108 33.8032L38.5034 31.1554C38.4718 31.1232 38.4326 31.1057 38.3921 31.1056C38.3517 31.1055 38.3124 31.123 38.2808 31.155Z" fill="#C1D4F9"/>
<path d="M54.2452 56.3102C55.5887 56.3102 56.6778 55.2303 56.6778 53.8983C56.6778 52.5663 55.5887 51.4865 54.2452 51.4865C52.9016 51.4865 51.8125 52.5663 51.8125 53.8983C51.8125 55.2303 52.9016 56.3102 54.2452 56.3102Z" stroke="#326FEA" stroke-width="0.238495" stroke-miterlimit="10" stroke-linecap="round" stroke-linejoin="round"/>
<path d="M54.2456 55.1034C54.9174 55.1034 55.462 54.5635 55.462 53.8975C55.462 53.2314 54.9174 52.6915 54.2456 52.6915C53.5739 52.6915 53.0293 53.2314 53.0293 53.8975C53.0293 54.5635 53.5739 55.1034 54.2456 55.1034Z" fill="#326FEA"/>
<path d="M54.2441 51.4882V50.549" stroke="#326FEA" stroke-width="0.238495" stroke-miterlimit="10" stroke-linecap="round" stroke-linejoin="round"/>
<path d="M54.2441 57.246V56.3068" stroke="#326FEA" stroke-width="0.238495" stroke-miterlimit="10" stroke-linecap="round" stroke-linejoin="round"/>
<path d="M56.6758 53.8986H57.6231" stroke="#326FEA" stroke-width="0.238495" stroke-miterlimit="10" stroke-linecap="round" stroke-linejoin="round"/>
<path d="M50.8672 53.8986H51.8145" stroke="#326FEA" stroke-width="0.238495" stroke-miterlimit="10" stroke-linecap="round" stroke-linejoin="round"/>
<path d="M91.1258 25.7267C92.9831 26.2977 94.1432 34.7383 94.7265 36.3925C95.1636 37.632 99.379 45.4071 99.379 45.4071C99.379 45.4071 103.252 46.4769 102.89 47.0764C102.527 47.6759 101.499 48.6351 100.894 48.7548C100.29 48.8745 98.4152 47.3762 98.2339 46.9564C98.0526 46.5366 98.0527 45.808 98.0527 45.808C98.0527 45.808 93.5545 39.0825 92.9917 37.6663C92.5668 36.5973 89.7789 29.4615 89.7789 29.4615C89.7789 29.4615 89.2348 28.618 89.7789 27.3078C90.3228 25.9979 91.1258 25.7267 91.1258 25.7267Z" fill="#E4897B"/>
<path d="M79.0267 26.3439C77.3305 26.4793 74.4583 33.3594 74.4583 33.3594L72.2815 32.7936C72.2815 32.7936 70.7561 37.2697 73.2774 37.9092C75.7987 38.5487 79.322 31.788 79.322 31.788L79.0267 26.3439Z" fill="#326FEA"/>
<path opacity="0.6" d="M79.3213 31.789C79.3213 31.789 78.3462 33.659 77.0562 35.3411C75.8946 36.8534 74.4731 38.2142 73.2779 37.9111C70.756 37.2716 72.2814 32.7952 72.2814 32.7952L74.4579 33.359C74.4579 33.359 77.3313 26.4792 79.0279 26.3458L79.3152 31.683L79.3213 31.789Z" fill="white"/>
<path opacity="0.2" d="M79.3229 31.7887C79.3229 31.7887 78.3477 33.6587 77.0577 35.3407C76.5778 32.7525 78.7421 30.7189 78.7421 30.7189L79.3168 31.6826L79.3229 31.7887Z" fill="black"/>
<path d="M80.0642 13.4589H82.3984C82.3984 13.4589 83.3892 11.8614 85.1884 12.5809C86.9877 13.3004 88.8017 14.0796 89.225 15.2185C89.6484 16.3575 89.225 18.1426 89.225 18.1426C89.225 18.1426 90.9256 19.5782 91.3413 21.2536C91.6736 22.592 90.3133 23.2209 90.3133 23.2209C90.3133 23.2209 90.5551 22.742 90.2528 22.2923C90.2528 22.2923 89.8899 23.116 88.6201 23.5734C87.3503 24.0307 83.2596 24.7056 81.1317 23.5734C79.676 22.7987 79.7078 21.7358 79.7078 21.7358C79.0964 22.382 79.5794 23.2209 79.5794 23.2209C79.5794 23.2209 78.1356 22.2613 78.8669 19.39C79.5981 16.5187 77.6967 14.6042 80.0642 13.4589Z" fill="#263238"/>
<path d="M86.1141 55.3031C86.5167 56.362 86.8865 57.434 87.2216 58.4863C88.9203 63.8137 89.7899 70.1449 89.7899 70.1449C94.3334 79.2474 97.5207 92.9264 97.5207 92.9264L95.8395 93.4831L84.7938 69.1375L81.5156 60.7618L86.1141 55.3031Z" fill="#E4897B"/>
<path d="M97.5937 91.6565C97.4919 91.4601 95.1069 92.8009 95.1069 92.8009C95.1069 92.8009 94.3406 95.0567 93.038 96.108C91.7352 97.1594 92.9858 97.6386 94.6297 96.8472C96.2737 96.0556 97.5283 95.4516 98.6963 94.8894C99.864 94.3269 98.6507 93.6919 97.5937 91.6565Z" fill="#263238"/>
<path d="M94.1161 94.0475C94.0262 94.0908 93.9418 94.1105 93.8703 94.0935C93.8037 94.0778 93.7171 94.0244 93.6832 93.862C93.6667 93.7835 93.6838 93.7065 93.7337 93.6335C93.8281 93.4965 94.0387 93.3883 94.2561 93.308C94.0042 93.2983 93.7657 93.254 93.6954 93.1295C93.6499 93.0482 93.6704 92.9531 93.7569 92.8464C93.8382 92.7467 93.9437 92.6918 94.0711 92.6845C94.4704 92.6615 94.9536 93.1273 94.9784 93.1513C94.9854 93.1579 94.9909 93.1661 94.9949 93.1755C94.9952 93.1758 94.9952 93.1758 94.9952 93.1758C94.9983 93.1831 94.9998 93.191 95.0004 93.1986V93.1989C95.0007 93.2067 94.9998 93.2146 94.9977 93.2219V93.2222C94.9952 93.2313 94.9909 93.2398 94.9845 93.247C94.8852 93.3704 94.46 93.8817 94.1161 94.0475ZM94.1173 93.521C93.9993 93.578 93.9024 93.6426 93.8532 93.7141C93.8257 93.7544 93.8162 93.7932 93.8244 93.8332C93.8468 93.9408 93.8899 93.9511 93.9039 93.9544C94.0662 93.9932 94.4511 93.6416 94.7394 93.3146C94.5511 93.3589 94.3068 93.4298 94.1173 93.521ZM93.9699 92.8546C93.9324 92.8727 93.8993 92.8997 93.87 92.9361C93.844 92.9679 93.8033 93.0267 93.822 93.0597C93.8822 93.1664 94.327 93.1867 94.7586 93.1485C94.5997 93.0182 94.3117 92.8139 94.0797 92.8273C94.0393 92.8297 94.003 92.8385 93.9699 92.8546Z" fill="#326FEA"/>
<path d="M78.7629 55.2429C79.3835 59.0707 80.3464 61.9923 81.3949 64.4169C82.7644 67.5719 84.2775 69.8934 85.378 72.2877C87.3222 76.5247 92.3507 86.5958 92.3507 86.5958L95.7163 84.0773C95.7163 84.0773 90.3454 71.2482 89.9816 68.7296C89.7462 67.0991 89.52 58.3312 89.3886 52.3546C89.3183 49.0965 89.2755 46.6689 89.2755 46.6689L79.6617 39.0587C79.6617 39.0587 77.3384 46.4325 78.7629 55.2429Z" fill="#263238"/>
<path opacity="0.2" d="M81.3945 64.4153C82.764 67.5703 84.2772 69.8918 85.3776 72.2861C87.3218 76.5231 92.3503 86.5942 92.3503 86.5942L95.7159 84.0757C95.7159 84.0757 90.345 71.2466 89.9813 68.728C89.7459 67.0975 89.5197 58.3296 89.3882 52.353L86.5423 46.4279L82.8527 47.8978L84.0571 52.4924L81.3945 64.4153Z" fill="black"/>
<path d="M84.9129 74.1251C82.3781 83.6929 77.6156 95.0445 77.6156 95.0445L75.9648 94.408L80.802 74.1251H84.9129Z" fill="#E4897B"/>
<path d="M78.4885 94.1107C78.5362 93.8949 75.8373 93.4182 75.8373 93.4182C75.8373 93.4182 73.7953 94.6702 72.1155 94.6554C70.4358 94.6405 71.0903 95.8007 72.8654 96.2313C74.6405 96.662 75.9953 96.9908 77.2566 97.297C78.5175 97.6031 77.9924 96.3465 78.4885 94.1107Z" fill="#263238"/>
<path d="M74.2715 93.7532C74.1746 93.7295 74.097 93.6914 74.0527 93.6332C74.0117 93.5789 73.979 93.4831 74.0579 93.3368C74.0958 93.2658 74.1584 93.2174 74.2437 93.1928C74.4045 93.147 74.6365 93.197 74.8554 93.2728C74.6677 93.1061 74.5127 92.9212 74.5387 92.7806C74.5558 92.6891 74.6332 92.6291 74.7683 92.6015C74.8948 92.5763 75.0116 92.6006 75.1143 92.6758C75.4365 92.9109 75.509 93.575 75.5123 93.6092C75.5136 93.6186 75.5126 93.6286 75.5096 93.6383L75.5093 93.6389C75.5068 93.6465 75.5035 93.6532 75.4989 93.6592L75.4986 93.6595C75.4937 93.6659 75.4879 93.6714 75.4818 93.6756L75.4814 93.6759C75.4738 93.6811 75.4649 93.685 75.4552 93.6868C75.2996 93.7186 74.6429 93.8435 74.2715 93.7532ZM74.6115 93.3486C74.484 93.3177 74.3678 93.3061 74.2841 93.3301C74.237 93.3437 74.2046 93.3677 74.1853 93.4037C74.1334 93.5007 74.16 93.5356 74.1685 93.5474C74.2688 93.6801 74.7912 93.6529 75.2235 93.5835C75.0498 93.4986 74.816 93.3983 74.6115 93.3486ZM74.9269 92.7424C74.8863 92.7327 74.8435 92.7327 74.7976 92.7421C74.757 92.75 74.6879 92.7697 74.6812 92.807C74.6589 92.9273 74.9881 93.224 75.3451 93.468C75.3069 93.2671 75.2164 92.9273 75.0293 92.7912C74.9963 92.7673 74.9624 92.7509 74.9269 92.7424Z" fill="#326FEA"/>
<path d="M89.8276 38.0372C89.8276 38.0372 93.5539 45.8299 92.237 53.1836C90.9201 60.5374 86.9407 69.9764 85.868 72.2661C84.7954 74.5558 80.7891 88.1138 80.7891 88.1138L77.3223 86.9949C77.3223 86.9949 80.4198 73.5381 81.3928 68.8504C81.8522 66.6359 85.7873 50.8657 85.7873 50.8657C85.7873 50.8657 79.0451 45.8987 79.5223 38.1257L89.8276 38.0372Z" fill="#263238"/>
<path d="M86.1421 39.7928L80.7547 39.874L80.6914 38.2677L86.0843 38.325L86.1421 39.7928Z" fill="black"/>
<path d="M80.2154 38.2627L80.2789 39.8808L79.7345 39.8892L79.5859 38.256L80.2154 38.2627Z" fill="black"/>
<path d="M86.5586 38.3302L89.4174 38.3605L89.543 39.7416L86.6158 39.7856L86.5586 38.3302Z" fill="black"/>
<path d="M81.9479 39.9604L84.0449 39.9591L84.0439 38.3822L81.9469 38.3835L81.9479 39.9604Z" fill="white"/>
<path d="M91.1265 25.7272C91.1265 25.7272 84.3531 24.2476 78.763 26.4058C78.763 26.4058 78.379 32.2602 79.5886 38.255L89.9367 38.329C89.9367 38.329 89.3773 35.5359 91.6752 30.1315L91.1265 25.7272Z" fill="#326FEA"/>
<path d="M83.5549 27.3089C85.9341 26.7282 86.5418 25.622 86.5418 25.622C85.4484 24.8125 85.4707 23.4311 85.625 22.5534C85.7076 22.0681 85.8323 21.7366 85.8323 21.7366L82.9879 22.6052C83.1187 23.0722 83.1982 23.4689 83.2404 23.806C83.2893 24.1757 83.2893 24.4715 83.2612 24.7067C83.163 25.5902 82.6694 25.6583 82.6694 25.6583C82.268 26.6618 83.5549 27.3089 83.5549 27.3089Z" fill="#E4897B"/>
<path opacity="0.2" d="M83.2408 23.8058C83.2897 24.1756 83.2897 24.4714 83.2616 24.7066C84.3981 24.4253 85.1672 23.4106 85.6254 22.5532C85.708 22.068 85.8327 21.7365 85.8327 21.7365L82.9883 22.6051C83.1191 23.0721 83.1989 23.4688 83.2408 23.8058Z" fill="black"/>
<path d="M82.6594 14.5599C80.1427 14.9394 79.5375 16.3975 79.7475 18.9966C80.0101 22.2447 81.0787 24.4195 84.1203 23.2588C88.2511 21.6819 86.8388 13.9295 82.6594 14.5599Z" fill="#E4897B"/>
<path d="M81.3528 18.6115C81.3528 18.6115 81.1039 19.3158 80.7793 19.7568C80.7793 19.7568 81.0468 20.0638 81.486 19.9389L81.3528 18.6115Z" fill="#DE5753"/>
<path d="M82.864 18.1753C82.8906 18.3811 83.0242 18.5336 83.1627 18.516C83.3012 18.4984 83.3916 18.3175 83.365 18.1117C83.3384 17.9059 83.2049 17.7535 83.0664 17.771C82.9279 17.7886 82.8374 17.9695 82.864 18.1753Z" fill="#263238"/>
<path d="M83.1242 17.7726L82.6504 17.6544C82.6504 17.6544 82.9234 18.0023 83.1242 17.7726Z" fill="#263238"/>
<path d="M80.278 18.4585C80.3046 18.6643 80.4382 18.8168 80.5766 18.7992C80.7151 18.7816 80.8056 18.6007 80.779 18.3949C80.7524 18.1891 80.6188 18.0367 80.4803 18.0542C80.3422 18.0718 80.2517 18.2531 80.278 18.4585Z" fill="#263238"/>
<path d="M80.5402 18.0578L80.0664 17.9396C80.0664 17.9396 80.3397 18.2875 80.5402 18.0578Z" fill="#263238"/>
<path d="M82.623 16.4482C82.623 16.4482 83.3163 16.2503 83.7724 16.6609" stroke="#263238" stroke-width="0.168855" stroke-miterlimit="10" stroke-linecap="round" stroke-linejoin="round"/>
<path d="M80.7781 16.618C80.7781 16.618 80.3086 16.522 79.8066 16.9745" stroke="#263238" stroke-width="0.168855" stroke-miterlimit="10" stroke-linecap="round" stroke-linejoin="round"/>
<path d="M86.056 18.3503C86.056 18.3503 84.5649 16.4776 84.5004 14.868C84.5004 14.868 79.2031 13.5999 79.7271 18.6558C79.7271 18.6558 78.5563 14.2728 82.8674 13.5211C87.1718 12.7707 88.1228 19.0474 86.1752 21.2541C86.1746 21.2544 86.9804 19.5229 86.056 18.3503Z" fill="#263238"/>
<path d="M85.7249 18.9397C85.68 18.5354 85.9939 17.7925 86.76 17.7604C87.5529 17.7271 88.1679 19.2585 86.2867 19.9326C86.0168 20.0292 85.8184 19.7831 85.7249 18.9397Z" fill="#E4897B"/>
<path d="M85.1892 12.991C85.1892 12.991 83.651 12.1172 82.4322 12.3142C81.2135 12.5112 80.8949 13.2707 80.8949 13.2707C80.8949 13.2707 80.2463 12.8709 79.3998 13.2707C78.5534 13.6705 77.6262 15.2886 77.747 17.357C77.868 19.4255 79.5808 19.6653 79.5808 19.6653C79.5808 19.6653 78.311 16.2605 81.1328 15.1652C81.1328 15.1652 82.1507 14.5097 82.851 15.3089C83.5514 16.1081 83.4759 18.5233 85.8315 17.6553C88.1871 16.7876 86.6996 13.9196 85.1892 12.991Z" fill="#263238"/>
<path d="M82.988 20.1544C82.988 20.1544 82.5753 20.9536 81.8496 20.9936" stroke="#263238" stroke-width="0.168855" stroke-miterlimit="10" stroke-linecap="round" stroke-linejoin="round"/>
<path d="M88.0437 24.7053C88.0437 24.7053 86.1472 28.3728 82.8828 30.0134L89.6522 41.121L91.7413 40.0039C91.7413 40.0039 90.4394 36.2127 90.4061 35.3341C90.3731 34.4555 92.5003 27.2578 92.0665 26.154C91.6325 25.0505 88.0437 24.7053 88.0437 24.7053Z" fill="#326FEA"/>
<path opacity="0.6" d="M90.4058 35.3341C90.4394 36.213 91.7416 40.0045 91.7416 40.0045L89.6538 41.1228L82.8828 30.0152C86.1475 28.3725 88.0459 24.7053 88.0459 24.7053C88.0459 24.7053 91.6346 25.0508 92.0687 26.154C92.2918 26.7208 91.8425 28.8847 91.3534 30.979C91.0018 32.4943 90.6289 33.9763 90.4761 34.7856C90.4272 35.0432 90.4027 35.2311 90.4058 35.3341Z" fill="white"/>
<path d="M81.243 25.5118C81.243 25.5118 81.383 29.0675 83.7729 30.5862L79.7094 41.2044H78.7046L78.8684 37.2453C78.8684 37.2453 77.7313 29.3403 78.7624 26.4062L81.243 25.5118Z" fill="#326FEA"/>
<path opacity="0.6" d="M81.243 25.5118C81.243 25.5118 81.383 29.0675 83.7729 30.5862L79.7094 41.2044H78.7046L78.8684 37.2453C78.8684 37.2453 77.7313 29.3403 78.7624 26.4062L81.243 25.5118Z" fill="white"/>
<path d="M83.7717 30.4126C83.7717 30.582 83.6332 30.7196 83.462 30.7196C83.2908 30.7196 83.1523 30.5823 83.1523 30.4126C83.1523 30.2432 83.2908 30.1056 83.462 30.1056C83.6332 30.1056 83.7717 30.2432 83.7717 30.4126Z" fill="#263238"/>
<path d="M76.9691 29.5488C76.9868 29.7025 76.8737 29.827 76.7166 29.827H73.9226C73.7655 29.827 73.6239 29.7025 73.6062 29.5488L72.9823 24.082C72.9646 23.9283 73.0777 23.7659 73.2348 23.7659H76.0288C76.1859 23.7659 76.3274 23.9283 76.3452 24.082L76.9691 29.5488Z" fill="#263238"/>
<path opacity="0.5" d="M76.0362 24.046L76.6684 29.5659C76.6864 29.7213 76.6045 29.8271 76.4486 29.8271H74.0795C73.9206 29.8271 73.6292 29.7404 73.6115 29.5846L72.9793 24.046C72.9616 23.8902 73.2328 23.7656 73.3917 23.7656H75.7608C75.9167 23.7656 76.0182 23.8902 76.0362 24.046Z" fill="white"/>
<path d="M72.9805 33.0296L73.911 30.2974C73.911 30.2974 73.2158 29.0175 73.2782 28.3881C73.3406 27.7586 75.0338 27.3088 75.1242 27.4588C75.2147 27.6086 75.7818 29.437 75.5739 29.9168C75.366 30.3962 74.9427 30.756 74.9427 30.756L74.3169 33.323L72.9805 33.0296Z" fill="#E4897B"/>
<path opacity="0.2" d="M91.3537 30.9785C91.0022 32.4938 90.6292 33.9759 90.4764 34.7851C89.5991 32.3635 90.4027 29.9259 90.4027 29.9259L91.3537 30.9785Z" fill="black"/>
<path d="M91.7055 25.7267C92.8531 26.8487 94.1794 33.5951 94.9088 35.9609C95.6382 38.3267 97.932 41.836 97.932 41.836L95.7149 42.6752C95.7149 42.6752 92.5477 37.5796 92.1258 36.6804C91.704 35.7812 90.654 32.9141 90.654 32.9141C90.654 32.9141 90.0878 30.2658 90.654 28.1676C91.2204 26.0692 91.7055 25.7267 91.7055 25.7267Z" fill="#326FEA"/>
<path opacity="0.6" d="M91.7055 25.7267C92.8531 26.8487 94.1794 33.5951 94.9088 35.9609C95.6382 38.3267 97.932 41.836 97.932 41.836L95.7149 42.6752C95.7149 42.6752 92.5477 37.5796 92.1258 36.6804C91.704 35.7812 90.654 32.9141 90.654 32.9141C90.654 32.9141 90.0878 30.2658 90.654 28.1676C91.2204 26.0692 91.7055 25.7267 91.7055 25.7267Z" fill="white"/>
</g>
<defs>
<clipPath id="clip0_266_24171">
<rect width="117" height="116" fill="white" transform="translate(0.753906 0.246216)"/>
</clipPath>
</defs>
</svg>
