<svg width="120" height="31" viewBox="0 0 120 31" fill="none" xmlns="http://www.w3.org/2000/svg">
<path d="M14.5455 6.54545C14.4091 5.39394 13.8561 4.5 12.8864 3.86364C11.9167 3.22727 10.7273 2.90909 9.31818 2.90909C8.28788 2.90909 7.38636 3.07576 6.61364 3.40909C5.84849 3.74242 5.25 4.20076 4.81818 4.78409C4.39394 5.36742 4.18182 6.0303 4.18182 6.77273C4.18182 7.39394 4.32955 7.92803 4.625 8.375C4.92803 8.81439 5.31439 9.18182 5.78409 9.47727C6.25379 9.76515 6.74621 10.0038 7.26136 10.1932C7.77652 10.375 8.25 10.5227 8.68182 10.6364L11.0455 11.2727C11.6515 11.4318 12.3258 11.6515 13.0682 11.9318C13.8182 12.2121 14.5341 12.5947 15.2159 13.0795C15.9053 13.5568 16.4735 14.1705 16.9205 14.9205C17.3674 15.6705 17.5909 16.5909 17.5909 17.6818C17.5909 18.9394 17.2614 20.0758 16.6023 21.0909C15.9508 22.1061 14.9962 22.9129 13.7386 23.5114C12.4886 24.1098 10.9697 24.4091 9.18182 24.4091C7.51515 24.4091 6.07197 24.1402 4.85227 23.6023C3.64015 23.0644 2.68561 22.3144 1.98864 21.3523C1.29924 20.3902 0.909091 19.2727 0.818182 18H3.72727C3.80303 18.8788 4.09848 19.6061 4.61364 20.1818C5.13636 20.75 5.79545 21.1742 6.59091 21.4545C7.39394 21.7273 8.25758 21.8636 9.18182 21.8636C10.2576 21.8636 11.2235 21.6894 12.0795 21.3409C12.9356 20.9848 13.6136 20.4924 14.1136 19.8636C14.6136 19.2273 14.8636 18.4848 14.8636 17.6364C14.8636 16.8636 14.6477 16.2348 14.2159 15.75C13.7841 15.2652 13.2159 14.8712 12.5114 14.5682C11.8068 14.2652 11.0455 14 10.2273 13.7727L7.36364 12.9545C5.54545 12.4318 4.10606 11.6856 3.04545 10.7159C1.98485 9.74621 1.45455 8.47727 1.45455 6.90909C1.45455 5.60606 1.80682 4.4697 2.51136 3.5C3.22348 2.52273 4.17803 1.76515 5.375 1.22727C6.57955 0.681817 7.92424 0.40909 9.40909 0.40909C10.9091 0.40909 12.2424 0.678029 13.4091 1.21591C14.5758 1.74621 15.5 2.47348 16.1818 3.39773C16.8712 4.32197 17.2348 5.37121 17.2727 6.54545H14.5455ZM29.179 24.3636C27.4972 24.3636 26.0464 23.9924 24.8267 23.25C23.6146 22.5 22.679 21.4545 22.0199 20.1136C21.3684 18.7652 21.0426 17.197 21.0426 15.4091C21.0426 13.6212 21.3684 12.0455 22.0199 10.6818C22.679 9.31061 23.5956 8.24242 24.7699 7.47727C25.9517 6.70455 27.3305 6.31818 28.9062 6.31818C29.8153 6.31818 30.7131 6.4697 31.5994 6.77273C32.4858 7.07576 33.2926 7.56818 34.0199 8.25C34.7472 8.92424 35.3267 9.81818 35.7585 10.9318C36.1903 12.0455 36.4062 13.4167 36.4062 15.0455V16.1818H22.9517V13.8636H33.679C33.679 12.8788 33.482 12 33.0881 11.2273C32.7017 10.4545 32.1487 9.8447 31.429 9.39773C30.7169 8.95076 29.8759 8.72727 28.9062 8.72727C27.8381 8.72727 26.9138 8.99242 26.1335 9.52273C25.3608 10.0455 24.7661 10.7273 24.3494 11.5682C23.9328 12.4091 23.7244 13.3106 23.7244 14.2727V15.8182C23.7244 17.1364 23.9517 18.2538 24.4062 19.1705C24.8684 20.0795 25.5085 20.7727 26.3267 21.25C27.1449 21.7197 28.0956 21.9545 29.179 21.9545C29.8835 21.9545 30.5199 21.8561 31.0881 21.6591C31.6638 21.4545 32.16 21.1515 32.5767 20.75C32.9934 20.3409 33.3153 19.8333 33.5426 19.2273L36.1335 19.9545C35.8608 20.8333 35.4025 21.6061 34.7585 22.2727C34.1146 22.9318 33.3191 23.447 32.3722 23.8182C31.4252 24.1818 30.3608 24.3636 29.179 24.3636ZM43.1676 13.5V24H40.4858V6.54545H43.0767V9.27273H43.304C43.7131 8.38636 44.3343 7.67424 45.1676 7.13636C46.0009 6.59091 47.0767 6.31818 48.3949 6.31818C49.5767 6.31818 50.6108 6.56061 51.4972 7.04545C52.3835 7.52273 53.0729 8.25 53.5653 9.22727C54.0578 10.197 54.304 11.4242 54.304 12.9091V24H51.6222V13.0909C51.6222 11.7197 51.2661 10.6515 50.554 9.88636C49.8419 9.11364 48.8646 8.72727 47.6222 8.72727C46.7661 8.72727 46.0009 8.91288 45.3267 9.28409C44.66 9.6553 44.1335 10.197 43.7472 10.9091C43.3608 11.6212 43.1676 12.4848 43.1676 13.5ZM65.7955 24.3636C64.3409 24.3636 63.0568 23.9962 61.9432 23.2614C60.8295 22.5189 59.9583 21.4735 59.3295 20.125C58.7008 18.7689 58.3864 17.1667 58.3864 15.3182C58.3864 13.4848 58.7008 11.8939 59.3295 10.5455C59.9583 9.19697 60.8333 8.1553 61.9545 7.42045C63.0758 6.68561 64.3712 6.31818 65.8409 6.31818C66.9773 6.31818 67.875 6.50758 68.5341 6.88636C69.2008 7.25758 69.7083 7.68182 70.0568 8.15909C70.4129 8.62879 70.6894 9.01515 70.8864 9.31818H71.1136V0.727272H73.7955V24H71.2045V21.3182H70.8864C70.6894 21.6364 70.4091 22.0379 70.0455 22.5227C69.6818 23 69.1629 23.428 68.4886 23.8068C67.8144 24.178 66.9167 24.3636 65.7955 24.3636ZM66.1591 21.9545C67.2348 21.9545 68.1439 21.6742 68.8864 21.1136C69.6288 20.5455 70.1932 19.7614 70.5795 18.7614C70.9659 17.7538 71.1591 16.5909 71.1591 15.2727C71.1591 13.9697 70.9697 12.8295 70.5909 11.8523C70.2121 10.8674 69.6515 10.1023 68.9091 9.55682C68.1667 9.00379 67.25 8.72727 66.1591 8.72727C65.0227 8.72727 64.0758 9.01894 63.3182 9.60227C62.5682 10.178 62.0038 10.9621 61.625 11.9545C61.2538 12.9394 61.0682 14.0455 61.0682 15.2727C61.0682 16.5152 61.2576 17.6439 61.6364 18.6591C62.0227 19.6667 62.5909 20.4697 63.3409 21.0682C64.0985 21.6591 65.0379 21.9545 66.1591 21.9545ZM79.0795 24V6.54545H81.7614V24H79.0795ZM80.4432 3.63636C79.9205 3.63636 79.4697 3.45833 79.0909 3.10227C78.7197 2.74621 78.5341 2.31818 78.5341 1.81818C78.5341 1.31818 78.7197 0.890151 79.0909 0.53409C79.4697 0.17803 79.9205 0 80.4432 0C80.9659 0 81.4129 0.17803 81.7841 0.53409C82.1629 0.890151 82.3523 1.31818 82.3523 1.81818C82.3523 2.31818 82.1629 2.74621 81.7841 3.10227C81.4129 3.45833 80.9659 3.63636 80.4432 3.63636ZM89.3551 13.5V24H86.6733V6.54545H89.2642V9.27273H89.4915C89.9006 8.38636 90.5218 7.67424 91.3551 7.13636C92.1884 6.59091 93.2642 6.31818 94.5824 6.31818C95.7642 6.31818 96.7983 6.56061 97.6847 7.04545C98.571 7.52273 99.2604 8.25 99.7528 9.22727C100.245 10.197 100.491 11.4242 100.491 12.9091V24H97.8097V13.0909C97.8097 11.7197 97.4536 10.6515 96.7415 9.88636C96.0294 9.11364 95.0521 8.72727 93.8097 8.72727C92.9536 8.72727 92.1884 8.91288 91.5142 9.28409C90.8475 9.6553 90.321 10.197 89.9347 10.9091C89.5483 11.6212 89.3551 12.4848 89.3551 13.5ZM112.438 30.9091C111.142 30.9091 110.028 30.7424 109.097 30.4091C108.165 30.0833 107.388 29.6515 106.767 29.1136C106.153 28.5833 105.665 28.0152 105.301 27.4091L107.438 25.9091C107.68 26.2273 107.987 26.5909 108.358 27C108.729 27.4167 109.237 27.7765 109.881 28.0795C110.532 28.3902 111.384 28.5455 112.438 28.5455C113.847 28.5455 115.009 28.2045 115.926 27.5227C116.843 26.8409 117.301 25.7727 117.301 24.3182V20.7727H117.074C116.877 21.0909 116.597 21.4848 116.233 21.9545C115.877 22.4167 115.362 22.8295 114.688 23.1932C114.021 23.5492 113.119 23.7273 111.983 23.7273C110.574 23.7273 109.309 23.3939 108.188 22.7273C107.074 22.0606 106.191 21.0909 105.54 19.8182C104.896 18.5455 104.574 17 104.574 15.1818C104.574 13.3939 104.888 11.8371 105.517 10.5114C106.146 9.17803 107.021 8.14773 108.142 7.42045C109.263 6.68561 110.559 6.31818 112.028 6.31818C113.165 6.31818 114.066 6.50758 114.733 6.88636C115.407 7.25758 115.922 7.68182 116.278 8.15909C116.642 8.62879 116.922 9.01515 117.119 9.31818H117.392V6.54545H119.983V24.5C119.983 26 119.642 27.2197 118.96 28.1591C118.286 29.1061 117.377 29.7992 116.233 30.2386C115.097 30.6856 113.831 30.9091 112.438 30.9091ZM112.347 21.3182C113.422 21.3182 114.331 21.072 115.074 20.5795C115.816 20.0871 116.381 19.3788 116.767 18.4545C117.153 17.5303 117.347 16.4242 117.347 15.1364C117.347 13.8788 117.157 12.7689 116.778 11.8068C116.4 10.8447 115.839 10.0909 115.097 9.54545C114.354 9 113.438 8.72727 112.347 8.72727C111.21 8.72727 110.263 9.01515 109.506 9.59091C108.756 10.1667 108.191 10.9394 107.812 11.9091C107.441 12.8788 107.256 13.9545 107.256 15.1364C107.256 16.3485 107.445 17.4205 107.824 18.3523C108.21 19.2765 108.778 20.0038 109.528 20.5341C110.286 21.0568 111.225 21.3182 112.347 21.3182Z" fill="white"/>
</svg>
