<svg width="23" height="23" viewBox="0 0 23 23" fill="none" xmlns="http://www.w3.org/2000/svg">
<path d="M22.2859 10.0309L21.4328 7.23502C21.3406 6.91189 21.1861 6.61113 20.9784 6.35068C20.7707 6.09022 20.514 5.87542 20.2238 5.71907C19.9335 5.56272 19.6156 5.46803 19.2889 5.44065C18.9622 5.41327 18.6335 5.45376 18.3224 5.5597L17.9553 5.68175C17.6676 5.77943 17.3612 5.80422 17.0622 5.75399C16.7632 5.70376 16.4805 5.58001 16.2381 5.39328L16.1193 5.30452C15.8828 5.11855 15.6921 4.87807 15.5627 4.60248C15.4332 4.32689 15.3686 4.02391 15.3741 3.71797V3.40732C15.3794 2.7106 15.1152 2.04021 14.6397 1.5434C14.4136 1.30869 14.1445 1.1222 13.8479 0.994632C13.5514 0.867066 13.2333 0.800939 12.9118 0.800049H10.1579C9.49711 0.808821 8.86648 1.0854 8.40328 1.56956C7.94008 2.05373 7.68182 2.70628 7.68472 3.38513V3.6514C7.68368 3.97345 7.61231 4.29116 7.47587 4.58111C7.33942 4.87105 7.14138 5.12585 6.89634 5.32671L6.75595 5.43766C6.48524 5.64804 6.16862 5.78732 5.8336 5.8434C5.49858 5.89947 5.1553 5.87064 4.8336 5.75941C4.53813 5.65437 4.22499 5.61201 3.91313 5.6349C3.60127 5.65778 3.29718 5.74543 3.01924 5.89255C2.72987 6.04009 2.47315 6.24724 2.26506 6.5011C2.05697 6.75496 1.90196 7.0501 1.80968 7.36815L0.924098 10.2528C0.718733 10.9032 0.771399 11.6105 1.07066 12.2212C1.36992 12.8319 1.89161 13.2967 2.52246 13.5147H2.69525C2.98626 13.6267 3.24745 13.8076 3.45761 14.0428C3.66778 14.278 3.82099 14.5608 3.90482 14.8682L3.96962 15.0457C4.09001 15.3854 4.13027 15.7495 4.08709 16.1082C4.04391 16.467 3.91852 16.8101 3.72123 17.1094C3.32187 17.6681 3.15342 18.3662 3.25252 19.0519C3.35162 19.7375 3.71026 20.3552 4.25041 20.7706L6.48595 22.5125C6.90925 22.8287 7.4206 22.996 7.94391 22.9896C8.08398 23.0037 8.22504 23.0037 8.3651 22.9896C8.68921 22.9251 8.99713 22.7935 9.27008 22.6028C9.54303 22.412 9.77528 22.1661 9.95266 21.8801L10.2011 21.514C10.3753 21.2572 10.6059 21.0461 10.8741 20.8977C11.1424 20.7493 11.4408 20.6678 11.7454 20.6597C12.0646 20.6516 12.3806 20.7267 12.6639 20.8781C12.9472 21.0294 13.1885 21.252 13.3654 21.5251L13.495 21.7137C13.6791 21.9952 13.9174 22.235 14.1951 22.4184C14.4729 22.6017 14.7842 22.7248 15.11 22.7798C15.4358 22.8349 15.7691 22.8209 16.0894 22.7387C16.4097 22.6565 16.7102 22.5078 16.9725 22.3017L19.1648 20.6153C19.6832 20.2017 20.0279 19.6001 20.1283 18.9338C20.2287 18.2675 20.0772 17.5869 19.7048 17.0317L19.424 16.6101C19.2552 16.3421 19.1446 16.0398 19.0999 15.7238C19.0551 15.4079 19.0773 15.0858 19.1648 14.7795C19.254 14.4515 19.4196 14.1509 19.6473 13.9034C19.875 13.656 20.1579 13.4693 20.4716 13.3593L20.6876 13.2817C21.3126 13.0589 21.8288 12.5952 22.127 11.9885C22.4253 11.3819 22.4823 10.6799 22.2859 10.0309ZM11.605 15.778C10.8574 15.778 10.1266 15.5502 9.50502 15.1236C8.88342 14.6969 8.39894 14.0904 8.11285 13.3808C7.82675 12.6713 7.7519 11.8905 7.89775 11.1372C8.0436 10.384 8.4036 9.69207 8.93223 9.149C9.46086 8.60593 10.1344 8.2361 10.8676 8.08626C11.6008 7.93643 12.3608 8.01333 13.0515 8.30724C13.7422 8.60114 14.3326 9.09886 14.7479 9.73744C15.1632 10.376 15.3849 11.1268 15.3849 11.8948C15.3849 12.9247 14.9867 13.9124 14.2778 14.6406C13.5689 15.3689 12.6075 15.778 11.605 15.778Z" fill="white"/>
</svg>
