<svg width="134" height="135" viewBox="0 0 134 135" fill="none" xmlns="http://www.w3.org/2000/svg">
<path d="M124.04 63.9239H134C132.329 29.9677 105.257 2.69567 71.4346 0.623535V10.65C99.776 12.6553 122.369 35.5156 124.04 63.9239Z" fill="#152C5B"/>
<path d="M63.012 10.5831V0.556641C29.1894 2.69562 2.18475 29.9676 0.513672 63.857H10.4733C12.1444 35.5156 34.6705 12.7221 63.012 10.5831Z" fill="#152C5B"/>
<path d="M67.4243 88.5891C69.1963 88.5891 70.6328 87.1526 70.6328 85.3806C70.6328 83.6086 69.1963 82.1721 67.4243 82.1721C65.6523 82.1721 64.2158 83.6086 64.2158 85.3806C64.2158 87.1526 65.6523 88.5891 67.4243 88.5891Z" fill="#152C5B"/>
<path d="M67.1568 68.9371C75.5368 68.9371 82.3302 62.1437 82.3302 53.7637C82.3302 45.3837 75.5368 38.5903 67.1568 38.5903C58.7768 38.5903 51.9834 45.3837 51.9834 53.7637C51.9834 62.1437 58.7768 68.9371 67.1568 68.9371Z" fill="#326FEA"/>
<path d="M100.98 28.3634H33.8024C29.3908 28.3634 25.7812 31.9729 25.7812 36.3846V89.7253C25.7812 94.137 29.3908 97.7465 33.8024 97.7465H52.6522L51.5758 104.842L58.6012 103.295L59.3365 97.7465H75.5125L75.9844 104.885L76.2478 106.3L79.9243 105.82C81.305 105.64 82.3034 104.411 82.1968 103.023V97.7465H101.047C105.592 97.4791 109.068 94.137 109.068 89.7253V36.3846C109.001 31.9729 105.391 28.3634 100.98 28.3634ZM101.782 85.18C101.782 88.1211 99.3755 90.5275 96.4344 90.5275H37.2114C34.2703 90.5275 31.864 88.1211 31.864 85.18V79.4315H101.849V85.18H101.782ZM101.782 72.8141H31.864V40.1946C31.864 37.2535 34.2703 34.8472 37.2114 34.8472H96.4344C99.3755 34.8472 101.782 37.2535 101.782 40.1946V72.8141Z" fill="#152C5B"/>
<path d="M74.9109 51.0231H69.8308V46.2104H64.4834V51.0231H59.4033V56.5043H64.4834V61.317H69.8308V56.5043H74.9109V51.0231Z" fill="white"/>
<path d="M133.51 73.1589C132.139 89.9388 124.489 105.584 112.086 116.97C99.6844 128.355 83.4437 134.644 66.608 134.579C49.7723 134.514 33.5807 128.1 21.2669 116.619C8.95316 105.138 1.42363 89.4339 0.182068 72.6439L10.1782 71.9047C11.2337 86.1778 17.6345 99.5275 28.1024 109.288C38.5703 119.048 52.3347 124.5 66.6467 124.555C80.9587 124.611 94.7648 119.265 105.308 109.586C115.851 99.9069 122.355 86.6071 123.52 72.3425L133.51 73.1589Z" fill="#152C5B"/>
<path d="M32.4971 113.311C32.4971 113.311 46.1331 108.431 52.1489 104.354C52.1489 104.354 55.4911 101.48 60.1701 103.351C60.3038 103.418 60.4375 103.418 60.5043 103.485C65.3839 105.624 72.0682 102.215 72.0682 102.215C72.0682 102.215 77.683 101.48 77.2151 104.822C76.7472 108.164 69.6618 113.913 60.5043 113.311C60.5043 113.311 60.0271 115.431 64.1714 115.765C68.2193 116.844 74.7419 120.597 90.3163 106.359C90.3163 106.359 93.3911 102.817 96.1985 104.688C99.006 106.56 94.9285 111.172 94.9285 111.172C94.9285 111.172 82.6962 127.883 65.7849 128.15C48.8736 128.418 32.4971 113.311 32.4971 113.311Z" fill="#152C5B"/>
</svg>
