<svg width="95" height="92" viewBox="0 0 95 92" fill="none" xmlns="http://www.w3.org/2000/svg">
<g clip-path="url(#clip0_2084_27724)">
<path d="M85.7294 23.1998C85.161 22.8183 84.5972 22.4294 84.0382 22.0329C78.0229 17.7624 49.8739 -1.6676 38.0087 0.116352C24.6841 2.11617 -3.58593 46.318 3.61663 59.4146C10.8192 72.5112 46.83 95.2566 56.3729 91.6113C65.9158 87.966 91.4846 47.9553 93.1053 38.1334C94.4882 29.7451 87.7332 24.5419 85.7294 23.1998Z" fill="#326FEA"/>
<path d="M85.7294 23.1998C85.161 22.8183 84.5972 22.4294 84.0382 22.0329C78.0229 17.7624 49.8739 -1.6676 38.0087 0.116352C24.6841 2.11617 -3.58593 46.318 3.61663 59.4146C10.8192 72.5112 46.83 95.2566 56.3729 91.6113C65.9158 87.966 91.4846 47.9553 93.1053 38.1334C94.4882 29.7451 87.7332 24.5419 85.7294 23.1998Z" fill="#E7E7E7"/>
<path d="M3.28186 41.7338L57.2597 32.2743C57.3544 32.7937 57.6451 33.2556 58.0704 33.5626C58.4958 33.8696 59.0226 33.9977 59.5396 33.9198H59.5779C60.0992 33.8262 60.5631 33.5291 60.8694 33.0928C61.1757 32.6565 61.2997 32.116 61.2148 31.588L88.7651 26.7595L94.8832 62.3776L67.3288 67.204C67.2362 66.6745 66.9401 66.2034 66.5051 65.8937C66.07 65.5839 65.5313 65.4605 65.0066 65.5504H64.9683C64.4532 65.6533 63.9981 65.9551 63.7 66.3917C63.4018 66.8284 63.284 67.3653 63.3717 67.8883L9.3999 77.3599L3.28186 41.7338Z" fill="#244FA6" stroke="#263238" stroke-width="0.148535" stroke-linecap="round" stroke-linejoin="round"/>
<path d="M64.9904 65.5504L59.6001 34.1621" stroke="#263238" stroke-width="0.148535" stroke-linecap="round" stroke-linejoin="round" stroke-dasharray="0.74 0.74"/>
<path d="M25.2988 51.792L24.1135 44.1694L25.8955 43.8538L27.488 48.1304L27.615 43.5544L29.3325 43.251L30.7779 50.8287L29.5986 51.0324L28.5907 46.0002V51.2116L27.5404 51.3969L25.7262 46.4666L26.4962 51.5802L25.2988 51.792Z" fill="#263238"/>
<path d="M34.0395 50.3644C33.5813 50.4696 33.1035 50.4477 32.6566 50.3013C32.296 50.1617 31.9937 49.9015 31.7999 49.5641C31.5751 49.1594 31.4242 48.7173 31.3544 48.2587L30.8666 45.4341C30.7748 44.9798 30.7679 44.5122 30.8464 44.0554C30.9168 43.6754 31.1147 43.3316 31.4068 43.0819C31.78 42.7906 32.2245 42.6069 32.6929 42.5504C33.1565 42.4432 33.6399 42.4622 34.0939 42.6054C34.4544 42.7397 34.7578 42.9959 34.9526 43.3304C35.1793 43.7334 35.3303 44.1753 35.3981 44.6337L35.8819 47.4502C35.9701 47.9049 35.9763 48.372 35.9001 48.8289C35.8313 49.214 35.6334 49.5635 35.3397 49.8186C34.9621 50.1141 34.5132 50.3025 34.0395 50.3644ZM33.8379 49.171C33.9082 49.1645 33.9764 49.1429 34.0379 49.1078C34.0994 49.0727 34.1528 49.0249 34.1947 48.9674C34.2628 48.8576 34.2978 48.7303 34.2955 48.6008C34.2953 48.4575 34.2832 48.3144 34.2592 48.1731L33.6242 44.5075C33.6011 44.3636 33.564 44.2224 33.5133 44.0859C33.4713 43.9656 33.3966 43.8598 33.2976 43.7805C33.2385 43.7421 33.1721 43.7167 33.1027 43.7058C33.0332 43.695 32.9623 43.6989 32.8945 43.7173C32.8269 43.7247 32.7616 43.7467 32.7032 43.7819C32.6448 43.817 32.5945 43.8645 32.5558 43.921C32.4883 44.0287 32.4532 44.1539 32.455 44.2814C32.4535 44.4269 32.4657 44.5721 32.4913 44.7152L33.1263 48.3809C33.1496 48.5228 33.1846 48.6624 33.2311 48.7983C33.2682 48.9192 33.3381 49.0271 33.4327 49.1099C33.4912 49.1488 33.5574 49.1745 33.6266 49.185C33.6959 49.1956 33.7666 49.1908 33.8339 49.171H33.8379Z" fill="#263238"/>
<path d="M38.2364 49.505L35.5654 42.1553L36.9765 41.9049L38.6779 46.9227L38.5368 41.6279L40.0406 41.3632L39.9821 49.2056L38.2364 49.505Z" fill="#263238"/>
<path d="M42.1312 48.8187L40.8148 41.2185L42.4779 40.9232L43.7942 48.5234L42.1312 48.8187Z" fill="#263238"/>
<path d="M44.9148 48.3259L43.5985 40.7298L46.9791 40.1189L47.1806 41.2654L45.4611 41.5689L45.7877 43.4547L47.098 43.2225L47.2996 44.3853L45.9893 44.6175L46.3925 46.8882L48.1301 46.5806L48.3317 47.717L44.9148 48.3259Z" fill="#263238"/>
<path d="M84.5521 42.2186C84.577 42.3371 84.5701 42.4601 84.532 42.575C84.4954 42.6717 84.428 42.7534 84.3405 42.8071C84.2391 42.8705 84.1259 42.9121 84.0079 42.9293L83.9434 42.9415L83.903 42.7094H83.9313H83.9595C84.0422 42.6937 84.1223 42.6663 84.1973 42.6279C84.2578 42.5969 84.3066 42.5469 84.3364 42.4854C84.3658 42.4152 84.3722 42.3374 84.3546 42.2634C84.3437 42.1883 84.3123 42.1178 84.2639 42.0597C84.2103 42.0034 84.1391 41.9675 84.0623 41.9579C83.9514 41.944 83.839 41.9488 83.7297 41.9722C83.5894 41.991 83.4562 42.0457 83.3426 42.131C83.2959 42.1726 83.2613 42.2262 83.2425 42.2861C83.2237 42.346 83.2214 42.41 83.2358 42.4711V42.5057V42.5383L83.006 42.5791V42.5465V42.5118C83.0011 42.4537 82.9829 42.3975 82.9528 42.3476C82.9227 42.2978 82.8816 42.2557 82.8326 42.2247C82.7041 42.1741 82.5631 42.1656 82.4295 42.2003C82.311 42.2163 82.1989 42.2641 82.1049 42.3387C82.0643 42.3777 82.0351 42.4272 82.0205 42.4818C82.0059 42.5364 82.0065 42.594 82.0223 42.6483C82.027 42.7036 82.0444 42.757 82.0731 42.8044C82.1018 42.8518 82.141 42.8917 82.1876 42.9212C82.3025 42.9712 82.43 42.9841 82.5524 42.9578H82.5746H82.5988L82.6492 43.1737H82.5867C82.471 43.1983 82.3516 43.1983 82.2359 43.1737C82.135 43.151 82.0447 43.0942 81.9799 43.0128C81.9042 42.9125 81.8563 42.7938 81.8408 42.6687C81.8142 42.548 81.8226 42.4221 81.865 42.3062C81.9062 42.2065 81.9765 42.1219 82.0666 42.0638C82.1683 42.0007 82.2813 41.9585 82.3992 41.9396C82.5487 41.904 82.7053 41.9147 82.8488 41.9701C82.9562 42.0156 83.0417 42.1019 83.0866 42.2104C83.0935 42.1372 83.1193 42.067 83.1612 42.0068C83.2134 41.9318 83.2825 41.8704 83.3628 41.8276C83.4679 41.7684 83.5826 41.7284 83.7015 41.7095C83.8349 41.6867 83.9712 41.6867 84.1046 41.7095C84.2193 41.7279 84.3253 41.7829 84.407 41.8663C84.4887 41.9667 84.5392 42.0893 84.5521 42.2186Z" fill="#263238"/>
<path d="M84.0943 39.7789L83.3182 39.9174L83.4573 40.732L83.2154 40.7747L81.4394 40.2961L81.389 40.011L83.0521 39.7117L82.9997 39.4042L83.2154 39.3655L83.2678 39.675L84.0459 39.5365L84.0943 39.7789ZM83.1993 40.5263L83.1025 39.9622L81.7559 40.2004L83.1993 40.5263Z" fill="#263238"/>
<path d="M83.758 37.6303C83.7815 37.7463 83.7781 37.8662 83.748 37.9806C83.7169 38.0773 83.6562 38.1615 83.5746 38.2209C83.4751 38.2882 83.3623 38.3326 83.244 38.3513H83.2178H83.1936L83.1533 38.113C83.2809 38.1006 83.4017 38.0495 83.5 37.9664C83.5333 37.9219 83.5558 37.8702 83.5656 37.8154C83.5754 37.7605 83.5723 37.7041 83.5565 37.6507C83.5465 37.5822 83.5163 37.5183 83.4698 37.4674C83.4153 37.4137 83.3441 37.3806 83.2682 37.3738C83.1524 37.3606 83.0353 37.3668 82.9215 37.3921L82.4195 37.4796C82.4737 37.5157 82.5197 37.5629 82.5546 37.6181C82.6062 37.6979 82.6393 37.7884 82.6513 37.8829C82.6799 38.0034 82.6714 38.1298 82.6272 38.2454C82.5806 38.3455 82.4997 38.4251 82.3994 38.4694C82.2594 38.5355 82.1107 38.5808 81.9579 38.6038C81.8131 38.6289 81.6652 38.6289 81.5205 38.6038C81.4013 38.5863 81.2906 38.5315 81.204 38.447C81.1143 38.3505 81.0572 38.2279 81.0407 38.0967C81.0128 37.9716 81.0262 37.8407 81.079 37.724C81.1355 37.6163 81.2235 37.5289 81.331 37.4735C81.467 37.4035 81.6134 37.3561 81.7644 37.333L82.8227 37.1457C82.9681 37.1174 83.117 37.1119 83.2642 37.1294C83.3835 37.142 83.4965 37.1902 83.5887 37.2679C83.6869 37.3639 83.7471 37.4927 83.758 37.6303ZM82.4578 37.8788C82.4481 37.8082 82.4234 37.7406 82.3855 37.6805C82.3476 37.6204 82.2973 37.5693 82.2381 37.5306L81.7825 37.612C81.6642 37.629 81.5489 37.6626 81.4398 37.7118C81.3662 37.7418 81.305 37.7965 81.2665 37.8666C81.2353 37.9339 81.2254 38.0093 81.2382 38.0824C81.2514 38.1584 81.2857 38.229 81.337 38.2861C81.3924 38.3392 81.4629 38.3734 81.5386 38.3838C81.6461 38.3975 81.755 38.3934 81.8611 38.3716C81.9835 38.3509 82.1041 38.321 82.222 38.282C82.3038 38.2579 82.3749 38.2061 82.4236 38.1354C82.4633 38.0562 82.4754 37.9658 82.4578 37.8788Z" fill="#263238"/>
<path d="M83.3547 35.3065C83.3792 35.4224 83.3758 35.5425 83.3446 35.6568C83.3149 35.7541 83.2538 35.8387 83.1712 35.8971C83.0716 35.9645 82.9589 36.0097 82.8406 36.0295H82.8144H82.7922L82.7499 35.7912C82.8774 35.7799 82.9984 35.7294 83.0966 35.6466C83.1302 35.6023 83.1529 35.5506 83.1631 35.4958C83.1732 35.441 83.1705 35.3845 83.1551 35.3309C83.1442 35.2621 83.1142 35.1978 83.0684 35.1456C83.0136 35.0926 82.9424 35.0603 82.8668 35.054C82.7505 35.041 82.6328 35.0465 82.5181 35.0703L82.0162 35.1599C82.0715 35.1943 82.1183 35.2409 82.1532 35.2963C82.2028 35.3771 82.2357 35.4671 82.25 35.5611C82.2763 35.6824 82.2679 35.8089 82.2258 35.9256C82.1787 36.0253 82.0979 36.1047 81.998 36.1496C81.8576 36.214 81.709 36.2586 81.5565 36.282C81.4124 36.3105 81.2644 36.3139 81.1191 36.2922C81 36.2758 80.8892 36.2216 80.8026 36.1374C80.7131 36.0398 80.6554 35.9168 80.6373 35.7851C80.61 35.6597 80.6242 35.5288 80.6776 35.4124C80.7329 35.305 80.8204 35.218 80.9276 35.1639C81.0637 35.0935 81.21 35.0454 81.361 35.0214L82.4213 34.834C82.5662 34.8068 82.7143 34.8013 82.8608 34.8177C82.9804 34.8309 83.0934 34.8799 83.1853 34.9583C83.2812 35.0501 83.3413 35.1737 83.3547 35.3065ZM82.0545 35.5468C82.044 35.4648 82.0127 35.387 81.9637 35.3208C81.9278 35.2736 81.8842 35.233 81.8347 35.2006L81.3792 35.28C81.2612 35.2985 81.1461 35.332 81.0365 35.3798C80.9638 35.4105 80.9034 35.465 80.8651 35.5346C80.8319 35.6043 80.8234 35.6833 80.8409 35.7586C80.8513 35.835 80.8851 35.9063 80.9377 35.9622C80.9936 36.0147 81.0638 36.0488 81.1393 36.06C81.2467 36.0737 81.3557 36.0695 81.4618 36.0478C81.5837 36.0281 81.7037 35.9981 81.8206 35.9582C81.9032 35.9356 81.9748 35.8835 82.0222 35.8115C82.0642 35.7301 82.0756 35.6361 82.0545 35.5468Z" fill="#263238"/>
<path d="M82.9496 32.9647C82.9814 33.0968 82.9686 33.2359 82.9133 33.3598C82.8589 33.4642 82.7737 33.5489 82.6694 33.6022C82.5431 33.6678 82.4068 33.7118 82.2662 33.7325L81.1112 33.9361C80.9744 33.9637 80.8339 33.9672 80.6959 33.9463C80.5788 33.9307 80.4699 33.8771 80.3855 33.7936C80.2966 33.6945 80.2402 33.57 80.2242 33.4372C80.1931 33.3054 80.2044 33.167 80.2565 33.0421C80.3084 32.9357 80.3924 32.8487 80.4964 32.7937C80.6191 32.7275 80.752 32.6827 80.8894 32.6613L82.0445 32.4577C82.1819 32.4296 82.323 32.4254 82.4618 32.4454C82.5787 32.4609 82.6879 32.5129 82.7742 32.5941C82.8705 32.6955 82.932 32.8254 82.9496 32.9647ZM82.7601 32.9973C82.7503 32.9095 82.7078 32.8286 82.6412 32.7713C82.5746 32.7223 82.4956 32.6934 82.4134 32.6878C82.3143 32.6804 82.2148 32.6859 82.1171 32.7041L80.9257 32.9077C80.8276 32.9234 80.7321 32.9522 80.6415 32.9933C80.5663 33.0249 80.5023 33.0789 80.4581 33.148C80.4207 33.2265 80.4086 33.3149 80.4234 33.4007C80.4382 33.4865 80.4792 33.5655 80.5407 33.6266C80.606 33.6763 80.6848 33.7047 80.7665 33.7081C80.8655 33.7165 80.9652 33.711 81.0628 33.6918L82.2521 33.4881C82.3503 33.4727 82.4459 33.444 82.5364 33.4026C82.6128 33.3692 82.678 33.314 82.7238 33.2437C82.7667 33.1671 82.7797 33.077 82.7601 32.9912V32.9973Z" fill="#263238"/>
<path d="M36.9286 50.4601L37.5051 51.5598L38.7166 51.346L37.8619 52.2379L38.4384 53.3376L37.3317 52.7919L36.475 53.6838L36.6484 52.4538L35.5437 51.906L36.7552 51.6922L36.9286 50.4601Z" fill="white" stroke="#263238" stroke-width="0.148535" stroke-miterlimit="10"/>
<path d="M31.7817 51.3704L32.3583 52.468L33.5718 52.2542L32.7151 53.1482L33.2916 54.2459L32.1849 53.7001L31.3302 54.5941L31.5035 53.362L30.3969 52.8163L31.6104 52.6004L31.7817 51.3704Z" fill="white" stroke="#263238" stroke-width="0.148535" stroke-miterlimit="10"/>
<path d="M26.6371 52.2786L27.2137 53.3783L28.4252 53.1644L27.5684 54.0564L28.145 55.1561L27.0403 54.6083L26.1836 55.5023L26.3569 54.2723L25.2502 53.7245L26.4638 53.5106L26.6371 52.2786Z" fill="white" stroke="#263238" stroke-width="0.148535" stroke-miterlimit="10"/>
<path d="M47.2192 48.6416L47.7958 49.7413L49.0093 49.5275L48.1526 50.4194L48.7291 51.5191L47.6224 50.9713L46.7677 51.8653L46.939 50.6353L45.8344 50.0875L47.0459 49.8737L47.2192 48.6416Z" fill="white" stroke="#263238" stroke-width="0.148535" stroke-miterlimit="10"/>
<path d="M42.0748 49.5516L42.6493 50.6493L43.8628 50.4355L43.0061 51.3295L43.5826 52.4271L42.4779 51.8814L41.6212 52.7754L41.7946 51.5433L40.6879 50.9975L41.9014 50.7817L42.0748 49.5516Z" fill="white" stroke="#263238" stroke-width="0.148535" stroke-miterlimit="10"/>
<path d="M66.9349 40.7491L67.0603 41.4733L79.2584 39.3181L79.133 38.5939L66.9349 40.7491Z" fill="#263238"/>
<path d="M66.7374 39.6082L66.8628 40.3324L79.0609 38.1772L78.9355 37.4531L66.7374 39.6082Z" fill="#263238"/>
<path d="M65.8506 34.482L65.9135 34.8451L78.1116 32.6899L78.0487 32.3269L65.8506 34.482Z" fill="#263238"/>
<path d="M65.7236 33.7578L65.7865 34.1208L77.9846 31.9657L77.9217 31.6026L65.7236 33.7578Z" fill="#263238"/>
<path d="M67.2656 42.6638L67.3285 43.0269L79.5266 40.8717L79.4637 40.5086L67.2656 42.6638Z" fill="#263238"/>
<path d="M67.14 41.9373L67.2029 42.3004L79.401 40.1453L79.3381 39.7822L67.14 41.9373Z" fill="#263238"/>
<path d="M66.1987 36.5025L66.3241 37.2267L78.5222 35.0715L78.3968 34.3474L66.1987 36.5025Z" fill="#263238"/>
<path d="M66.0016 35.3638L66.127 36.088L78.3251 33.9329L78.1997 33.2087L66.0016 35.3638Z" fill="#263238"/>
<path d="M66.5297 38.419L66.5925 38.7821L78.7906 36.627L78.7278 36.2639L66.5297 38.419Z" fill="#263238"/>
<path d="M66.4053 37.6929L66.4681 38.056L78.6662 35.9009L78.6034 35.5378L66.4053 37.6929Z" fill="#263238"/>
<path d="M7.27576 45.0451L54.8574 36.6365" stroke="#263238" stroke-width="0.148535" stroke-miterlimit="10"/>
<path d="M59.9816 55.6614L57.998 55.6247L57.9214 55.1869L59.776 54.4741L59.8384 54.8407L59.4353 54.9853L59.4877 55.2908H59.9231L59.9816 55.6614ZM59.2377 55.2969L59.1974 55.0647L58.4435 55.3193L59.2377 55.2969Z" fill="#326FEA"/>
<path d="M59.7432 54.2928L57.8241 54.6308L57.7435 54.1584C57.7162 54.0281 57.7162 53.8935 57.7435 53.7633C57.7662 53.6681 57.8248 53.5855 57.9068 53.5332C58.0086 53.4715 58.1218 53.4313 58.2394 53.4151L58.9369 53.2908C59.056 53.2675 59.1785 53.2675 59.2977 53.2908C59.3931 53.3112 59.4773 53.3672 59.5336 53.4476C59.603 53.5588 59.6478 53.6839 59.6646 53.8142L59.7432 54.2928ZM59.4025 53.9466L59.3884 53.8631C59.3845 53.8073 59.3626 53.7543 59.3259 53.7124C59.3112 53.6982 59.2938 53.6873 59.2747 53.6803C59.2556 53.6733 59.2353 53.6703 59.2151 53.6717C59.1582 53.6719 59.1016 53.6774 59.0457 53.6879L58.2555 53.8285C58.2018 53.8371 58.1491 53.8515 58.0983 53.8712C58.0629 53.8865 58.0348 53.9149 58.0197 53.9507C58.006 54.002 58.006 54.0561 58.0197 54.1075L58.0338 54.1889L59.4025 53.9466Z" fill="#326FEA"/>
<path d="M59.5076 52.9283L57.5825 53.2337L57.51 52.8264L58.6791 52.3723L57.4253 52.3295L57.3547 51.9222L59.2657 51.5435L59.3161 51.8306L58.02 52.0913L59.3645 52.1076L59.4069 52.354L58.1409 52.8448L59.4552 52.6411L59.5076 52.9283Z" fill="#326FEA"/>
<path d="M59.2209 51.2745L57.3019 51.6146L57.2354 51.2216L59.1524 50.8835L59.2209 51.2745Z" fill="#326FEA"/>
<path d="M59.0639 50.4051L57.4513 50.6923L57.5037 50.9916L57.2114 51.0426L57.04 50.0528L57.3323 49.9999L57.3827 50.2952L59.0095 50.008L59.0639 50.4051Z" fill="#326FEA"/>
<path d="M58.7496 48.395C58.7754 48.5112 58.7691 48.6324 58.7315 48.7453C58.6965 48.8368 58.6309 48.9132 58.546 48.9611C58.4445 49.0194 58.3331 49.0581 58.2175 49.0752L57.5018 49.2014C57.3878 49.2214 57.2712 49.2214 57.1571 49.2014C57.0624 49.1838 56.9764 49.1343 56.9132 49.0609C56.8424 48.9664 56.7972 48.8547 56.7822 48.7371C56.7552 48.6199 56.7601 48.4974 56.7963 48.3828C56.8312 48.2912 56.8959 48.2143 56.9797 48.1649C57.0801 48.1071 57.1901 48.0684 57.3043 48.0508L58.0199 47.9246C58.1345 47.9032 58.252 47.9032 58.3666 47.9246C58.4631 47.9405 58.5509 47.9902 58.6146 48.0651C58.6888 48.1604 58.7355 48.2746 58.7496 48.395ZM58.4674 48.4439C58.4659 48.4234 58.4602 48.4035 58.4509 48.3853C58.4415 48.3671 58.4286 48.351 58.413 48.338C58.3835 48.317 58.3483 48.3056 58.3122 48.3054C58.2704 48.306 58.2286 48.3094 58.1872 48.3156L57.2801 48.4764C57.2386 48.4831 57.198 48.4947 57.1592 48.5111C57.1256 48.5226 57.0967 48.5447 57.0765 48.5742C57.0662 48.5918 57.0595 48.6113 57.0567 48.6316C57.054 48.6519 57.0552 48.6725 57.0604 48.6923C57.0641 48.7318 57.0829 48.7684 57.1128 48.7941C57.1424 48.8149 57.1775 48.8262 57.2136 48.8267C57.2552 48.8305 57.297 48.8305 57.3386 48.8267L58.2457 48.6658C58.2875 48.6586 58.3287 48.6477 58.3687 48.6332C58.4022 48.6217 58.4312 48.5996 58.4513 48.5701C58.4615 48.5509 58.4675 48.5297 58.4689 48.5079C58.4703 48.4861 58.467 48.4643 58.4594 48.4439H58.4674Z" fill="#326FEA"/>
<path d="M58.5783 47.5622L56.6592 47.9003L56.6128 47.6253L57.5381 47.0144L56.5302 47.1916L56.4738 46.8657L58.3928 46.5256L58.4372 46.7904L57.4514 47.4013L58.5118 47.214L58.5783 47.5622Z" fill="#326FEA"/>
<path d="M58.3485 46.2281L56.4294 46.5662L56.2843 45.7231L56.5544 45.6742L56.633 46.1243L57.141 46.0347L57.0806 45.6885L57.3547 45.6396L57.4132 45.9858L58.0179 45.8799L57.9393 45.4257L58.2034 45.3789L58.3485 46.2281Z" fill="#326FEA"/>
<path d="M-0.180542 42.772L50.8804 22.7209C51.0743 23.212 51.4495 23.6076 51.9269 23.8243C52.4043 24.0409 52.9464 24.0615 53.4385 23.8817L53.4748 23.8674C53.9673 23.6713 54.3636 23.2873 54.5782 22.7984C54.7929 22.3096 54.8085 21.755 54.6218 21.2546L80.6845 11.0172L93.6563 44.7189L67.5876 54.9543C67.3932 54.4537 67.0106 54.0511 66.5234 53.8344C66.0363 53.6177 65.484 53.6044 64.9872 53.7975L64.9529 53.8118C64.4678 54.0157 64.0806 54.4029 63.8739 54.8909C63.6671 55.379 63.6572 55.9293 63.8462 56.4246L12.7853 76.4737L-0.180542 42.772Z" fill="#326FEA" stroke="#263238" stroke-width="0.148535" stroke-linecap="round" stroke-linejoin="round"/>
<path d="M57.1116 31.4181C56.8561 31.7559 56.5013 32.0042 56.0425 32.1732C55.5836 32.3422 55.1538 32.3828 54.7431 32.2903C54.3324 32.1978 53.9636 31.989 53.6441 31.6612C53.3172 31.3362 53.0597 30.9015 52.8643 30.3599C52.6662 29.8109 52.5837 29.3033 52.6268 28.842C52.6625 28.3834 52.8145 27.9912 53.0699 27.6534C53.3254 27.3156 53.6802 27.0672 54.139 26.8982C54.5979 26.7293 55.0277 26.6887 55.4384 26.7812C55.8491 26.8736 56.2078 27.0777 56.5347 27.4028C56.8542 27.7306 57.1144 28.1727 57.3125 28.7217C57.5079 29.2633 57.5878 29.7634 57.552 30.2221C57.5089 30.6834 57.367 31.0803 57.1116 31.4181ZM54.5828 31.2651C54.9375 31.5043 55.3294 31.5449 55.7587 31.3868C56.188 31.2287 56.4621 30.9428 56.5812 30.5292C56.7002 30.1155 56.6554 29.6193 56.4465 29.0406C56.235 28.4545 55.9533 28.0456 55.596 27.7989C55.2414 27.5597 54.8494 27.5192 54.4201 27.6772C53.9909 27.8353 53.7167 28.1212 53.5976 28.5349C53.4813 28.956 53.5261 29.4521 53.7376 30.0382C53.9465 30.6169 54.2282 31.0259 54.5828 31.2651ZM60.3772 31.9805L59.5779 32.2749L57.8458 27.4747L58.5859 27.2021L58.7171 27.5657C58.8489 27.1641 59.1258 26.8857 59.5476 26.7303C59.9991 26.564 60.418 26.5863 60.7922 26.8099C61.1663 27.0335 61.4629 27.437 61.6717 28.0157C61.8832 28.6018 61.9106 29.096 61.7666 29.5104C61.6227 29.9249 61.3189 30.2216 60.86 30.3906C60.4826 30.5296 60.1262 30.518 59.7909 30.3557L60.3772 31.9805ZM60.4805 29.7571C60.7322 29.6645 60.8972 29.4944 60.9656 29.2423C61.0366 28.9976 61.0089 28.6885 60.8723 28.3101C60.7465 27.9614 60.5708 27.7067 60.3552 27.5508C60.1423 27.4022 59.9049 27.372 59.6533 27.4646C59.3943 27.56 59.2319 27.7375 59.1636 27.9896C59.0952 28.2417 59.1229 28.5509 59.2514 28.907C59.3853 29.278 59.561 29.5326 59.7739 29.6812C59.9868 29.8297 60.2215 29.8525 60.4805 29.7571ZM64.5094 29.0467C63.9913 29.2375 63.5327 29.2215 63.1289 29.0087C62.7252 28.796 62.4239 28.4027 62.2231 27.8462C62.092 27.4827 62.0334 27.1345 62.0602 26.8136C62.0795 26.4955 62.1768 26.2075 62.3575 25.9645C62.5307 25.7242 62.7899 25.5363 63.123 25.4136C63.6188 25.231 64.0451 25.2505 64.4193 25.4741C64.7861 25.7005 65.0645 26.077 65.2546 26.6038C65.2786 26.6706 65.3001 26.7299 65.3114 26.7846C65.3227 26.8392 65.3294 26.904 65.3434 26.9661L63.086 27.7974C63.2307 28.1056 63.4099 28.3001 63.631 28.3784C63.8521 28.4567 64.0935 28.4518 64.3673 28.351C64.5228 28.2937 64.648 28.2224 64.7476 28.1269C64.8426 28.0415 64.9464 27.9108 65.0415 27.7329L65.6306 28.0875C65.5072 28.3262 65.3501 28.5185 65.1697 28.669C64.9919 28.827 64.7684 28.9513 64.5094 29.0467ZM63.3686 26.0712C63.1318 26.1584 62.9762 26.3082 62.8992 26.513C62.8222 26.7179 62.8211 26.9704 62.8905 27.2559L64.4818 26.6698C64.3653 26.3934 64.211 26.198 64.0215 26.0913C63.8321 25.9846 63.6129 25.9812 63.3686 26.0712ZM67.4142 27.8592L66.6149 28.1536L65.37 24.7037L66.1028 24.4339L66.2259 24.7752C66.2807 24.5785 66.3812 24.4154 66.5395 24.2731C66.6903 24.1335 66.8694 24.0255 67.0766 23.9492C67.4911 23.7966 67.8623 23.8027 68.1827 23.9705C68.5032 24.1383 68.7501 24.4508 68.9161 24.9107L69.6791 27.0252L68.8797 27.3196L68.181 25.3832C68.1221 25.22 68.0537 25.077 67.9733 24.947C67.8881 24.827 67.7914 24.745 67.6657 24.6988C67.5401 24.6526 67.3934 24.6646 67.2084 24.7327C66.9716 24.82 66.8059 24.965 66.704 25.1707C66.6021 25.3763 66.6084 25.6261 66.7155 25.9229L67.4142 27.8592ZM58.5709 40.7655L58.149 40.9209C57.8307 41.0381 57.5334 41.0972 57.2544 41.0907C56.9753 41.0842 56.7293 41.0067 56.5138 40.8507C56.3009 40.7022 56.1305 40.4624 56.01 40.1285L54.8936 37.0347L55.693 36.7404L56.049 37.7271L57.3887 37.2337L57.4237 38.0277L56.306 38.4393L56.7853 39.7673C56.8783 40.002 57.0092 40.1556 57.19 40.2151C57.3734 40.282 57.6169 40.2596 57.9351 40.1424L58.2978 40.0088L58.5709 40.7655ZM59.9999 40.1804L59.2006 40.4748L57.9557 37.0249L58.7551 36.7306L59.9999 40.1804ZM58.1144 36.21C57.9738 36.2618 57.8393 36.2609 57.7157 36.1972C57.5847 36.1362 57.4975 36.0338 57.4466 35.8928C57.3957 35.7519 57.3973 35.6168 57.4587 35.4849C57.5201 35.3531 57.6225 35.2649 57.7631 35.2131C57.9037 35.1614 58.0308 35.165 58.1618 35.226C58.2929 35.287 58.3774 35.3819 58.4283 35.5229C58.4818 35.6713 58.4803 35.8063 58.4262 35.9355C58.3648 36.0674 58.2625 36.1555 58.1144 36.21ZM62.4827 39.3922C61.9424 39.5911 61.4764 39.5778 61.0774 39.355C60.6736 39.1423 60.3697 38.7415 60.1635 38.1702C59.9601 37.6064 59.9327 37.1122 60.0861 36.6774C60.2394 36.2427 60.5876 35.9296 61.1353 35.7279C61.3574 35.6461 61.5753 35.5995 61.7818 35.5907C61.9882 35.5819 62.2181 35.6149 62.4594 35.7026L62.2558 36.4163C62.0925 36.3588 61.9473 36.3282 61.8202 36.3246C61.6958 36.3284 61.5619 36.3525 61.4287 36.4015C61.14 36.5078 60.9555 36.6935 60.8851 36.9631C60.8147 37.2328 60.8397 37.5346 60.9629 37.8758C61.2386 38.64 61.6712 38.9093 62.2559 38.694C62.3892 38.645 62.5143 38.5736 62.6288 38.4726C62.746 38.3791 62.845 38.2585 62.9307 38.1009L63.5367 38.4325C63.4307 38.6732 63.2912 38.8675 63.1208 39.0227C62.9504 39.1779 62.7417 39.2968 62.4827 39.3922ZM65.124 38.2934L64.3246 38.5878L62.5015 33.5354L63.3009 33.241L64.3637 36.1864L65.1003 34.3938L66.0699 34.0367L65.1611 36.2121L67.4776 37.4266L66.4636 37.8L64.5939 36.8244L65.124 38.2934ZM69.3747 36.8456C68.8566 37.0364 68.3981 37.0204 67.9943 36.8077C67.5905 36.595 67.2893 36.2016 67.0885 35.6452C66.9573 35.2816 66.8987 34.9334 66.9255 34.6125C66.9449 34.2944 67.0422 34.0064 67.2228 33.7634C67.3961 33.5231 67.6553 33.3352 67.9883 33.2125C68.4842 33.0299 68.9105 33.0494 69.2847 33.2731C69.6514 33.4994 69.9298 33.876 70.1199 34.4027C70.144 34.4695 70.1654 34.5288 70.1768 34.5835C70.1881 34.6382 70.1947 34.703 70.2087 34.765L67.9513 35.5964C68.096 35.9045 68.2752 36.0991 68.4963 36.1773C68.7174 36.2556 68.9588 36.2507 69.2327 36.1499C69.3881 36.0926 69.5133 36.0213 69.613 35.9258C69.708 35.8404 69.8117 35.7097 69.9069 35.5318L70.496 35.8864C70.3725 36.1252 70.2155 36.3175 70.035 36.468C69.8573 36.6259 69.6338 36.7502 69.3747 36.8456ZM68.234 33.8701C67.9971 33.9573 67.8416 34.1071 67.7645 34.312C67.6875 34.5168 67.6864 34.7694 67.7559 35.0548L69.3472 34.4688C69.2306 34.1923 69.0763 33.997 68.8869 33.8902C68.6974 33.7835 68.4782 33.7802 68.234 33.8701ZM73.4604 35.2822L73.0385 35.4375C72.7202 35.5547 72.4229 35.6138 72.1439 35.6073C71.8648 35.6008 71.6188 35.5233 71.4032 35.3674C71.1903 35.2188 71.0199 34.979 70.8995 34.6451L69.7831 31.5514L70.5825 31.257L70.9385 32.2437L72.2782 31.7504L72.3131 32.5444L71.1955 32.956L71.6747 34.284C71.7678 34.5187 71.8987 34.6722 72.0794 34.7317C72.2629 34.7986 72.5064 34.7762 72.8246 34.659L73.1873 34.5254L73.4604 35.2822Z" fill="#FCFCFC"/>
<g clip-path="url(#clip1_2084_27724)">
<path d="M19.0522 48.1836C18.8913 48.3791 18.7847 48.6143 18.7432 48.8651C18.7017 49.1159 18.7269 49.3733 18.8161 49.6111L23.4569 62.0778C23.5427 62.3103 23.6866 62.5165 23.8746 62.6761C24.0627 62.8358 24.2885 62.9435 24.53 62.9887C24.7715 63.034 25.0205 63.0152 25.2527 62.9343C25.485 62.8534 25.6925 62.7131 25.855 62.5271C25.8693 62.5106 25.883 62.4939 25.8958 62.4761L28.5338 58.8342C28.5689 58.7859 28.5914 58.7296 28.5994 58.6702C28.6074 58.6109 28.6006 58.5505 28.5796 58.4945L22.9904 43.48C22.9677 43.4187 22.929 43.3648 22.8783 43.3241C22.8276 43.2835 22.7668 43.2576 22.7026 43.2493C22.6384 43.2409 22.5731 43.2505 22.5139 43.2769C22.4547 43.3033 22.4037 43.3455 22.3665 43.3991L19.0522 48.1836ZM24.7221 42.4797C24.6597 42.4658 24.5947 42.4692 24.534 42.4894C24.4734 42.5097 24.4192 42.5462 24.3773 42.5949C24.3354 42.6437 24.3073 42.7029 24.2959 42.7665C24.2846 42.83 24.2904 42.8955 24.3128 42.956L29.9044 57.9768C29.9251 58.0329 29.9594 58.0829 30.0041 58.1222C30.0488 58.1615 30.1026 58.1888 30.1604 58.2018L35.1286 59.3074C35.1911 59.3214 35.2561 59.318 35.3169 59.2978C35.3777 59.2775 35.432 59.241 35.4739 59.1921C35.5159 59.1433 35.544 59.0839 35.5553 59.0202C35.5666 58.9566 35.5607 58.891 35.5382 58.8305L29.9501 43.8193C29.9294 43.7631 29.895 43.713 29.8502 43.6737C29.8054 43.6343 29.7515 43.607 29.6935 43.5941L24.7221 42.4797ZM35.3202 38.7965C35.0789 38.7498 34.8298 38.7677 34.5975 38.8486C34.3653 38.9294 34.1581 39.0703 33.9965 39.2572C33.982 39.2733 33.9686 39.2903 33.9561 39.3081L31.317 42.948C31.2819 42.9963 31.2593 43.0526 31.2513 43.112C31.2433 43.1713 31.2501 43.2317 31.2711 43.2877L36.8612 58.3043C36.8838 58.3657 36.9225 58.4197 36.9733 58.4604C37.0241 58.5011 37.0849 58.527 37.1492 58.5353C37.2135 58.5436 37.2788 58.534 37.3381 58.5076C37.3973 58.4811 37.4483 58.4387 37.4855 58.3851L40.789 53.6075C40.9528 53.412 41.0618 53.1758 41.1048 52.9234C41.1478 52.671 41.1232 52.4116 41.0335 52.172L36.4046 39.7372C36.3192 39.4994 36.1745 39.2879 35.9846 39.1231C35.7946 38.9583 35.5657 38.8459 35.3202 38.7965Z" fill="#FCFCFC"/>
</g>
<path d="M34.5633 34.9066L31.8275 39.4247C31.8056 39.4609 31.7921 39.5016 31.7879 39.5438C31.7837 39.586 31.7889 39.6286 31.8032 39.6685L33.5788 44.6274C33.604 44.6979 33.656 44.7554 33.7232 44.7873C33.7904 44.8191 33.8674 44.8226 33.9372 44.7971L36.2794 43.9413C36.3492 43.9157 36.4061 43.8633 36.4376 43.7953C36.4691 43.7274 36.4726 43.6497 36.4474 43.5791L35.6927 41.4716C35.6675 41.401 35.671 41.3233 35.7025 41.2554C35.734 41.1874 35.7909 41.135 35.8608 41.1095L37.8231 40.3923C37.8929 40.3668 37.9699 40.3704 38.0371 40.4022C38.1043 40.434 38.1563 40.4916 38.1815 40.5621L38.9362 42.6697C38.9614 42.7402 39.0134 42.7977 39.0806 42.8295C39.1478 42.8613 39.2248 42.8649 39.2946 42.8394L41.6367 41.9835C41.6713 41.9709 41.7031 41.9515 41.7302 41.9265C41.7574 41.9014 41.7794 41.8712 41.795 41.8376C41.8106 41.804 41.8195 41.7676 41.8212 41.7305C41.8228 41.6934 41.8173 41.6563 41.8048 41.6214L40.0293 36.6629C40.0151 36.623 39.9921 36.5869 39.9622 36.5572C39.9322 36.5274 39.896 36.5049 39.8562 36.4913L34.8925 34.7868C34.8323 34.766 34.7669 34.7666 34.7071 34.7883C34.6472 34.8101 34.5965 34.8518 34.5633 34.9066Z" fill="#123273"/>
</g>
<defs>
<clipPath id="clip0_2084_27724">
<rect width="95" height="92" fill="white"/>
</clipPath>
<clipPath id="clip1_2084_27724">
<rect width="22.7465" height="22.9795" fill="white" transform="translate(18.5522 39.4037)"/>
</clipPath>
</defs>
</svg>
