<svg width="14" height="14" viewBox="0 0 14 14" fill="none" xmlns="http://www.w3.org/2000/svg">
<path fill-rule="evenodd" clip-rule="evenodd" d="M2.91602 9.47869C3.03205 9.47869 3.14333 9.52478 3.22537 9.60683C3.30742 9.68887 3.35352 9.80015 3.35352 9.91619V11.0829C3.35352 11.1634 3.41885 11.2287 3.49935 11.2287H10.4993C10.538 11.2287 10.5751 11.2133 10.6025 11.186C10.6298 11.1586 10.6452 11.1215 10.6452 11.0829V9.91619C10.6452 9.80015 10.6913 9.68887 10.7733 9.60683C10.8554 9.52478 10.9667 9.47869 11.0827 9.47869C11.1987 9.47869 11.31 9.52478 11.392 9.60683C11.4741 9.68887 11.5202 9.80015 11.5202 9.91619V11.0829C11.5202 11.3536 11.4126 11.6132 11.2212 11.8047C11.0297 11.9961 10.7701 12.1037 10.4993 12.1037H3.49935C3.22861 12.1037 2.96895 11.9961 2.77751 11.8047C2.58607 11.6132 2.47852 11.3536 2.47852 11.0829V9.91619C2.47852 9.80015 2.52461 9.68887 2.60666 9.60683C2.6887 9.52478 2.79998 9.47869 2.91602 9.47869ZM6.26318 9.40694C6.11841 9.40706 5.97886 9.35291 5.87205 9.25518C5.76525 9.15744 5.69896 9.02323 5.68627 8.87902C5.59689 7.85675 5.58129 6.82936 5.6396 5.80485C5.49544 5.79679 5.35135 5.78745 5.20735 5.77685L4.33818 5.71327C4.26164 5.70766 4.18786 5.68227 4.12406 5.6396C4.06027 5.59692 4.00865 5.53841 3.97426 5.46979C3.93986 5.40118 3.92387 5.32481 3.92784 5.24816C3.93182 5.17151 3.95562 5.09721 3.99693 5.03252C4.61637 4.06295 5.41455 3.22002 6.34893 2.54869L6.69718 2.29844C6.78524 2.23519 6.89093 2.20117 6.99935 2.20117C7.10777 2.20117 7.21345 2.23519 7.30152 2.29844L7.64977 2.54927C8.58409 3.22045 9.38226 4.06316 10.0018 5.03252C10.0431 5.09721 10.0669 5.17151 10.0709 5.24816C10.0748 5.32481 10.0588 5.40118 10.0244 5.46979C9.99005 5.53841 9.93843 5.59692 9.87464 5.6396C9.81084 5.68227 9.73706 5.70766 9.66052 5.71327L8.79135 5.77685C8.64785 5.78735 8.50377 5.79669 8.35968 5.80427C8.41802 6.82919 8.40168 7.85644 8.31185 8.87844C8.2993 9.02265 8.23315 9.15693 8.12646 9.25476C8.01977 9.3526 7.88028 9.4069 7.73552 9.40694H6.26318Z" fill="#3D3D3D"/>
</svg>
